<?xml version="1.0" standalone="no"?>
<!DOCTYPE svg PUBLIC "-//W3C//DTD SVG 1.1//EN" "http://www.w3.org/Graphics/SVG/1.1/DTD/svg11.dtd" >
<svg xmlns="http://www.w3.org/2000/svg" xmlns:xlink="http://www.w3.org/1999/xlink" version="1.1">
<metadata>
Created by FontForge 20170731 at Tue Dec 31 03:22:32 2019
 By Aleksey,,,
Copyright 2019 indestructible type* (https://github.com/indestructible-type)
</metadata>
<defs>
<font id="Jost-BookItalic" horiz-adv-x="553" >
  <font-face 
    font-family="Jost*"
    font-weight="400"
    font-style="italic"
    font-stretch="normal"
    units-per-em="1000"
    panose-1="0 0 0 0 0 0 0 0 0 0"
    ascent="800"
    descent="-200"
    x-height="460"
    cap-height="700"
    bbox="-164 -349 1433.8 1030"
    underline-thickness="50"
    underline-position="-200"
    slope="-10"
    unicode-range="U+000D-FF19"
  />
<missing-glyph horiz-adv-x="500" 
d="M50 -200v1000h400v-1000h-400zM100 -150h300v900h-300v-900z" />
    <glyph glyph-name=".notdef" horiz-adv-x="500" 
d="M50 -200v1000h400v-1000h-400zM100 -150h300v900h-300v-900z" />
    <glyph glyph-name="uni0000" horiz-adv-x="300" 
 />
    <glyph glyph-name="uni0000" horiz-adv-x="300" 
 />
    <glyph glyph-name="uni000D" unicode="&#xd;" horiz-adv-x="300" 
 />
    <glyph glyph-name="space" unicode=" " horiz-adv-x="300" 
 />
    <glyph glyph-name="exclam" unicode="!" horiz-adv-x="291" 
d="M188 700h100l-104 -500h-60zM70 40q0 22 16.5 38.5t39.5 16.5q22 0 38 -16t16 -39t-16 -39t-38 -16q-23 0 -39.5 16.5t-16.5 38.5z" />
    <glyph glyph-name="quotedbl" unicode="&#x22;" horiz-adv-x="451" 
d="M216 700h96l-136 -299l-54 -1zM390 700h96l-135 -299l-55 -1z" />
    <glyph glyph-name="numbersign" unicode="#" horiz-adv-x="587" 
d="M41 200l10 64l102 1l70 175h-103l11 64h118l79 196h77l-80 -196h128l79 196h77l-80 -196h83l-10 -64h-99l-72 -175l101 -1l-10 -64h-117l-82 -200h-75l81 200h-128l-82 -200h-73l81 200h-86zM228 265h128l71 175h-129z" />
    <glyph glyph-name="dollar" unicode="$" horiz-adv-x="562" 
d="M490 514q-21 54 -47 83.5t-75 30.5q-53 1 -87.5 -24t-41.5 -70q-4 -27 4.5 -48.5t32.5 -38.5t42.5 -26.5t53.5 -24.5q160 -70 144 -206q-11 -82 -68 -137t-143 -62l-16 -103h-73l17 107q-62 14 -105 65t-64 124l76 42q23 -74 57 -115t95 -41q55 0 91.5 31t44.5 82
q9 58 -27.5 92t-105.5 63q-160 67 -143 202q10 65 64 112t126 56l18 110h72l-17 -112q56 -11 94.5 -52t54.5 -95z" />
    <glyph glyph-name="percent" unicode="%" horiz-adv-x="728" 
d="M100 550q10 66 60.5 113t117.5 47t103 -47.5t27 -112.5q-10 -66 -60.5 -113t-117.5 -47t-103 47.5t-27 112.5zM636 700h78l-557 -700h-75zM170 550q-6 -37 11.5 -65t54.5 -29q38 -1 67 27.5t35 66.5q6 37 -11 65t-54 29q-38 1 -67.5 -27.5t-35.5 -66.5zM386 150
q10 66 60.5 113t117.5 47t103 -47.5t27 -112.5q-10 -66 -60.5 -113t-117.5 -47t-103 47.5t-27 112.5zM456 150q-6 -37 11.5 -65t54.5 -29q38 -1 67 27.5t35 66.5q6 37 -11.5 65t-54.5 29q-38 1 -67 -27.5t-35 -66.5z" />
    <glyph glyph-name="ampersand" unicode="&#x26;" horiz-adv-x="655" 
d="M528 0l-54 77q-116 -88 -232 -87q-87 1 -145.5 55.5t-47.5 137.5q5 42 24.5 76t52.5 60.5t58.5 42t66.5 35.5q-3 4 -12.5 16.5t-13 17.5t-12.5 18t-11.5 19t-10 20t-7 21.5t-3.5 22.5t0 24q9 68 63 111t126 43q71 0 111 -46t31 -110q-13 -90 -156 -176l136 -195
q42 40 122 132l57 -39q-87 -101 -140 -150l87 -126h-90zM264 556q-4 -5 -1 -16t2.5 -16t5 -16t7 -15t9 -15t10.5 -15t11 -15t11 -15q102 61 113 121q5 36 -13.5 60.5t-55.5 25.5q-38 1 -66 -23t-33 -61zM252 64q87 -3 183 70l-146 208q-33 -17 -53 -29t-44.5 -31
t-38.5 -42.5t-19 -51.5q-8 -54 26 -88t92 -36z" />
    <glyph glyph-name="quotesingle" unicode="'" horiz-adv-x="276" 
d="M216 700h96l-136 -299l-54 -1z" />
    <glyph glyph-name="parenleft" unicode="(" horiz-adv-x="300" 
d="M300 779h75q-128 -218 -172 -489q-40 -275 21 -490h-72q-77 225 -38 490q42 274 186 489z" />
    <glyph glyph-name="parenright" unicode=")" horiz-adv-x="300" 
d="M56 -199h-75q128 218 172 489q40 273 -22 490h73q77 -225 38 -490q-42 -274 -186 -489z" />
    <glyph glyph-name="asterisk" unicode="*" horiz-adv-x="574" 
d="M234 328l-51 42l119 122l-142 41l31 65l135 -56l20 158h68l-35 -157l153 55l10 -66l-158 -41l78 -125l-62 -39l-61 131z" />
    <glyph glyph-name="plus" unicode="+" horiz-adv-x="596" 
d="M73 216l13 79h194l34 205h86l-36 -205h194l-13 -80h-195l-36 -205h-82l34 206h-193z" />
    <glyph glyph-name="comma" unicode="," horiz-adv-x="298" 
d="M134 109l76 -31l-150 -247l-56 21z" />
    <glyph glyph-name="hyphen" unicode="-" horiz-adv-x="203" 
d="M12 200l12 75h196l-12 -75h-196z" />
    <glyph glyph-name="period" unicode="." horiz-adv-x="291" 
d="M70 40q0 22 16 38t39 16t39 -16t16 -38t-16 -38t-39 -16t-39 16t-16 38z" />
    <glyph glyph-name="slash" unicode="/" horiz-adv-x="499" 
d="M498 700h82l-540 -850l-78 1z" />
    <glyph glyph-name="zero" unicode="0" horiz-adv-x="582" 
d="M70 350q21 146 106 253t206 107q62 0 106 -32.5t63.5 -84.5t27.5 -116t-2 -127q-21 -146 -105.5 -253t-205.5 -107q-62 0 -106 32.5t-64 84.5t-28 116t2 127zM154 350q-8 -46 -5 -95t13 -90t38.5 -67.5t72.5 -27.5q86 -1 144.5 83t75.5 197q8 46 5 95t-13 90t-38.5 67.5
t-72.5 27.5q-86 1 -144.5 -83t-75.5 -197z" />
    <glyph glyph-name="one" unicode="1" horiz-adv-x="436" 
d="M144 562l17 89l245 59l-122 -710h-84l104 606z" />
    <glyph glyph-name="two" unicode="2" horiz-adv-x="552" 
d="M2 0l374 353q84 80 96 153q8 48 -22.5 85.5t-86.5 38.5q-67 1 -110.5 -47.5t-57.5 -122.5h-83q18 109 85.5 179.5t172.5 70.5q95 0 147.5 -62.5t40.5 -138.5q-15 -106 -120 -202l-252 -227h310l-13 -80h-481z" />
    <glyph glyph-name="three" unicode="3" horiz-adv-x="529" 
d="M258 -10q-93 0 -144.5 55.5t-45.5 139.5l84 -1q-3 -51 27.5 -82.5t86.5 -31.5q57 0 98.5 35.5t49.5 89.5q10 61 -29.5 93.5t-106.5 36.5l8 55l3 20q62 5 104.5 37t52.5 84q7 47 -15 78.5t-69 32.5t-82.5 -30t-48.5 -76l-81 1q15 80 74.5 131.5t143.5 51.5q82 0 128 -55
t35 -131q-9 -57 -49 -98t-100 -62q62 -21 93.5 -66t22.5 -114q-12 -86 -80.5 -140t-159.5 -54z" />
    <glyph glyph-name="four" unicode="4" horiz-adv-x="565" 
d="M16 141l470 558l36 1l-82 -485h108l-13 -75h-108l-24 -140h-84l25 140zM167 216l190 -1l49 291z" />
    <glyph glyph-name="five" unicode="5" horiz-adv-x="547" 
d="M528 230q-14 -108 -91 -174t-182 -66q-153 0 -223 148l77 48q21 -50 61 -83t92 -33q70 0 119 45.5t60 114.5q9 66 -25.5 112.5t-99.5 47.5q-48 1 -90 -14t-96 -48l146 372h322l-12 -75h-254l-78 -185q57 26 104 26q89 0 135.5 -70t34.5 -166z" />
    <glyph glyph-name="six" unicode="6" horiz-adv-x="558" 
d="M409 700h109l-234 -260q33 16 76 16q86 -1 133.5 -68.5t36.5 -157.5q-14 -103 -89.5 -171.5t-176.5 -68.5q-99 0 -155 70t-43 170q12 81 64 145zM146 230q-9 -66 25 -114t99 -48q67 0 118 47t62 115q9 67 -25 115.5t-99 48.5q-67 0 -118 -47.5t-62 -116.5z" />
    <glyph glyph-name="seven" unicode="7" horiz-adv-x="509" 
d="M106 620l13 80h479l-434 -700h-90l384 620h-352z" />
    <glyph glyph-name="eight" unicode="8" horiz-adv-x="529" 
d="M58 190q9 65 52.5 113.5t105.5 71.5q-43 21 -63.5 62.5t-12.5 94.5q12 74 74.5 126t141.5 52q77 0 124 -53.5t36 -126.5q-8 -55 -42 -96.5t-85 -61.5q51 -24 76.5 -72t16.5 -110q-14 -83 -84 -141.5t-159 -58.5q-87 0 -140 60t-41 140zM218 521q-7 -44 18 -77t69 -34
q46 -1 84.5 32t46.5 79q8 45 -16 78.5t-71 34.5t-85 -32.5t-46 -80.5zM139 200q-9 -56 22 -94.5t85 -39.5q56 -1 103 38t56 96q8 52 -23.5 92.5t-83.5 41.5q-54 1 -102 -39.5t-57 -94.5z" />
    <glyph glyph-name="nine" unicode="9" horiz-adv-x="558" 
d="M224 0h-109l235 261q-33 -17 -78 -17q-86 1 -133 68.5t-36 157.5q14 103 89.5 171.5t176.5 68.5q99 0 154.5 -70t42.5 -170q-12 -81 -64 -145zM487 470q9 66 -25.5 114t-99.5 48q-67 0 -118 -47t-62 -115q-9 -67 25 -115.5t99 -48.5q67 0 118.5 47.5t62.5 116.5z" />
    <glyph glyph-name="colon" unicode=":" horiz-adv-x="291" 
d="M136 420q0 22 16 38t38 16t38 -16t16 -38t-16 -38t-38 -16t-38 16t-16 38zM70 40q0 22 16 38t39 16t39 -16t16 -38t-16 -38t-39 -16t-39 16t-16 38z" />
    <glyph glyph-name="semicolon" unicode=";" horiz-adv-x="320" 
d="M165 420q0 22 16 38t39 16q22 0 38 -16t16 -38t-16 -38t-38 -16q-23 0 -39 16t-16 38zM134 109l76 -31l-150 -247l-56 21z" />
    <glyph glyph-name="less" unicode="&#x3c;" horiz-adv-x="621" 
d="M209 258l339 -167l-14 -75l-458 220l7 44l535 221l-14 -83z" />
    <glyph glyph-name="equal" unicode="=" horiz-adv-x="596" 
d="M86 290l12 75h472l-12 -75h-472zM60 140l12 75h473l-13 -75h-472z" />
    <glyph glyph-name="greater" unicode="&#x3e;" horiz-adv-x="621" 
d="M446 256l-339 168l13 75l459 -219l-7 -45l-536 -221l14 84z" />
    <glyph glyph-name="question" unicode="?" horiz-adv-x="540" 
d="M462 500q11 59 -21.5 96.5t-95.5 37.5q-87 0 -155 -82l-58 42q48 56 101.5 86.5t128.5 29.5q89 -1 141 -62.5t39 -147.5q-14 -84 -82.5 -141.5t-157.5 -68.5l-30 -120h-58l8 175h25q80 1 140.5 45.5t74.5 109.5zM168 40q0 22 16 38t38 16q23 0 39 -16.5t16 -37.5
q0 -22 -16 -38t-39 -16t-38.5 16t-15.5 38z" />
    <glyph glyph-name="at" unicode="@" horiz-adv-x="747" 
d="M60 320q25 162 148 276.5t286 113.5q140 -1 210.5 -97.5t49.5 -222.5q-12 -102 -76 -172.5t-138 -67.5q-37 1 -55 25t-17 60q-60 -76 -147 -75q-58 1 -88.5 47t-22.5 111q10 87 76.5 150.5t141.5 61.5q74 -1 92 -80l22 70h75l-81 -231q-1 -3 -4 -12.5t-4 -14.5
q-4 -43 28 -46q37 -7 79 50.5t49 123.5q11 65 -5.5 121.5t-66 94t-124.5 38.5q-135 1 -235 -94t-123 -230q-17 -113 37 -188t167 -76q109 -2 205 51l26 -59q-110 -58 -237 -58q-148 1 -219 94t-49 236zM286 320q-6 -39 9 -64t52 -26q48 -2 91 38.5t50 101.5q5 38 -13 63.5
t-54 26.5q-47 1 -87 -41.5t-48 -98.5z" />
    <glyph glyph-name="A" unicode="A" horiz-adv-x="640" 
d="M516 0l-51 210h-271l-123 -210h-96l443 736l190 -736h-92zM388 542l-147 -252h206z" />
    <glyph glyph-name="B" unicode="B" horiz-adv-x="541" 
d="M502 204q-15 -97 -88.5 -150.5t-175.5 -53.5h-188l120 700h172q89 0 139 -46.5t37 -129.5q-19 -109 -145 -143q68 -17 103.5 -61.5t25.5 -115.5zM240 625l-36 -209l90 1q52 0 91 28t48 75q8 46 -21 75t-78 29zM296 343l-104 1l-46 -269l98 1q67 0 115.5 36t59.5 98
q10 61 -24.5 97t-98.5 36z" />
    <glyph glyph-name="C" unicode="C" horiz-adv-x="664" 
d="M160 350q-17 -110 39.5 -191.5t161.5 -82.5q130 -1 239 102l-18 -112q-101 -76 -230 -76q-95 0 -165.5 51t-100.5 133t-16 176q23 150 137.5 254.5t262.5 105.5q126 0 208 -78l-18 -111q-68 103 -199 103q-109 0 -195.5 -80t-105.5 -194z" />
    <glyph glyph-name="D" unicode="D" horiz-adv-x="659" 
d="M258 0h-207l117 700h202q147 0 226 -101.5t58 -248.5q-23 -152 -134 -251t-262 -99zM362 615h-123l-91 -530h118q117 0 200.5 74t103.5 191q18 113 -38.5 189t-169.5 76z" />
    <glyph glyph-name="E" unicode="E" horiz-adv-x="533" 
d="M168 700h392l-14 -80h-306l-34 -200h286l-13 -80h-287l-45 -260h307l-14 -80h-389z" />
    <glyph glyph-name="F" unicode="F" horiz-adv-x="485" 
d="M168 700h353l-13 -80h-268l-34 -200h258l-14 -80h-258l-59 -340h-82z" />
    <glyph glyph-name="G" unicode="G" horiz-adv-x="752" 
d="M412 275l14 79h316q-27 -151 -130 -257.5t-254 -106.5q-98 0 -169.5 50.5t-102 132.5t-16.5 177q24 152 138 256t266 104q184 0 261 -150l-67 -54q-56 118 -202 118q-113 0 -199.5 -79t-106.5 -195q-17 -112 40 -193t166 -81q95 0 163 55.5t106 143.5h-223z" />
    <glyph glyph-name="H" unicode="H" horiz-adv-x="693" 
d="M168 700h86l-48 -280h371l47 280h86l-121 -700h-82l57 340h-372l-59 -340h-82z" />
    <glyph glyph-name="I" unicode="I" horiz-adv-x="237" 
d="M168 700h86l-121 -700h-82z" />
    <glyph glyph-name="J" unicode="J" horiz-adv-x="232" 
d="M-112 -104q25 -37 70 -36q30 2 54 26.5t29 63.5l129 750h79l-129 -760q-12 -73 -59 -117t-117 -43q-65 0 -108 51z" />
    <glyph glyph-name="K" unicode="K" horiz-adv-x="548" 
d="M168 700h86l-52 -298l315 298h107l-354 -330l245 -370h-99l-224 340l-59 -340h-82z" />
    <glyph glyph-name="L" unicode="L" horiz-adv-x="436" 
d="M170 700h84l-106 -620h266l-14 -80h-350z" />
    <glyph glyph-name="M" unicode="M" horiz-adv-x="786" 
d="M227 472l-132 -472h-85l210 736l184 -506l362 509l-46 -739h-84l31 468l-289 -404z" />
    <glyph glyph-name="N" unicode="N" horiz-adv-x="752" 
d="M684 700h84l-126 -734l-418 556l-90 -522h-85l126 734l419 -556z" />
    <glyph glyph-name="O" unicode="O" horiz-adv-x="766" 
d="M70 350q23 150 138 255t266 105q98 0 169.5 -51t102 -133t16.5 -176q-23 -150 -138 -255t-266 -105q-98 0 -169.5 51t-102 133t-16.5 176zM160 350q-17 -111 39 -192t167 -82q114 -1 200.5 79t105.5 195q17 111 -39 192t-167 82q-114 1 -200.5 -79t-105.5 -195z" />
    <glyph glyph-name="P" unicode="P" horiz-adv-x="531" 
d="M168 700h184q97 0 154.5 -59t43.5 -151q-15 -94 -89.5 -152t-174.5 -58h-105l-48 -280h-82zM344 620h-104l-45 -260h99q67 2 114 35.5t58 94.5q10 60 -24 95t-98 35z" />
    <glyph glyph-name="Q" unicode="Q" horiz-adv-x="766" 
d="M70 350q23 150 138 255t266 105q98 0 169.5 -51t102 -133t16.5 -176q-21 -134 -117 -235l92 -115h-103l-50 63q-103 -73 -226 -73q-98 0 -169.5 51t-102 133t-16.5 176zM160 350q-17 -111 39 -192t167 -82q90 0 166 52l-138 172h103l95 -119q63 72 80 169q17 111 -39 192
t-167 82q-114 1 -200.5 -79t-105.5 -195z" />
    <glyph glyph-name="R" unicode="R" horiz-adv-x="543" 
d="M168 700h184q97 0 154.5 -59t43.5 -151q-13 -77 -66.5 -131t-130.5 -72l153 -287h-100l-143 280h-82l-48 -280h-82zM344 625h-103l-47 -270h98q66 0 114.5 36.5t59.5 98.5q10 60 -24 97.5t-98 37.5z" />
    <glyph glyph-name="S" unicode="S" horiz-adv-x="531" 
d="M106 212q31 -70 68.5 -106t96.5 -36q64 0 104.5 39.5t40.5 90.5q0 27 -9.5 48t-26 34.5t-39 26t-46.5 23.5q-7 3 -10 4q-30 14 -51 26.5t-48 34.5t-41.5 53t-14.5 69q0 80 59 135.5t154 55.5q79 0 131.5 -42.5t77.5 -107.5l-73 -38q-46 108 -146 108q-55 0 -85 -28.5
t-30 -71.5q0 -82 133 -134q31 -13 53.5 -26t47.5 -35t38 -53.5t13 -71.5q0 -91 -70 -155.5t-165 -64.5q-81 0 -141.5 50.5t-88.5 125.5z" />
    <glyph glyph-name="T" unicode="T" horiz-adv-x="451" 
d="M87 620l15 80h433l-14 -80h-175l-106 -620h-84l106 620h-175z" />
    <glyph glyph-name="U" unicode="U" horiz-adv-x="607" 
d="M165 700h84l-81 -470q-10 -69 19.5 -114.5t98.5 -45.5q77 0 121.5 44t56.5 116l80 470h84l-80 -470q-18 -106 -87 -173t-182 -67q-103 0 -156.5 70.5t-38.5 169.5z" />
    <glyph glyph-name="V" unicode="V" horiz-adv-x="640" 
d="M326 158l307 542h95l-430 -736l-202 736h90z" />
    <glyph glyph-name="W" unicode="W" horiz-adv-x="960" 
d="M690 182l258 518h96l-382 -737l-120 544l-288 -544l-154 737h92l99 -518l286 555z" />
    <glyph glyph-name="X" unicode="X" horiz-adv-x="538" 
d="M506 700h102l-256 -335l159 -365h-95l-115 292l-210 -292h-101l281 369l-145 331h95l101 -258z" />
    <glyph glyph-name="Y" unicode="Y" horiz-adv-x="544" 
d="M538 700h96l-296 -400l-52 -300h-84l54 304l-158 396h91l119 -322z" />
    <glyph glyph-name="Z" unicode="Z" horiz-adv-x="528" 
d="M112 620l14 80h478l-463 -620h337l-14 -80h-479l463 620h-336z" />
    <glyph glyph-name="bracketleft" unicode="[" horiz-adv-x="291" 
d="M267 705l-132 -850h99l-12 -75h-177l155 1000h176l-12 -74z" />
    <glyph glyph-name="backslash" unicode="\" horiz-adv-x="499" 
d="M106 700h83l268 -700h-79z" />
    <glyph glyph-name="bracketright" unicode="]" horiz-adv-x="291" 
d="M76 -145l132 850h-98l12 75h176l-154 -1000h-177l11 74z" />
    <glyph glyph-name="asciicircum" unicode="^" horiz-adv-x="494" 
d="M329 620l-135 -160h-82l208 250h40l123 -250h-76z" />
    <glyph glyph-name="underscore" unicode="_" horiz-adv-x="485" 
d="M-50 -132l8 54h487l-9 -54h-486z" />
    <glyph glyph-name="grave" unicode="`" horiz-adv-x="363" 
d="M156 661l78 39l124 -161l-47 -29z" />
    <glyph glyph-name="a" unicode="a" 
d="M45 230q15 103 89.5 172t171.5 68q106 -1 140 -104l16 94h76l-80 -460h-72l14 83q-68 -93 -170 -93q-95 0 -147 70t-38 170zM125 230q-11 -69 22.5 -116.5t98.5 -47.5q61 0 112.5 48t61.5 116q9 66 -22.5 114.5t-89.5 49.5q-67 1 -119.5 -46t-63.5 -118z" />
    <glyph glyph-name="b" unicode="b" 
d="M532 230q-15 -103 -89 -172t-171 -68q-103 1 -138 97l-15 -87h-79l134 780h79l-68 -394q66 84 163 84q95 0 146.5 -70t37.5 -170zM452 230q11 69 -22 116.5t-98 47.5q-57 0 -106 -42t-64 -105l-5 -26q-6 -63 26 -108.5t87 -46.5q67 -1 119 46t63 118z" />
    <glyph glyph-name="c" unicode="c" horiz-adv-x="463" 
d="M126 230q-9 -67 24.5 -115t99.5 -49q51 -1 96.5 22.5t74.5 59.5l-14 -100q-66 -58 -163 -58q-99 0 -155 71t-43 169q14 101 89.5 170.5t176.5 69.5q96 0 150 -59l-14 -100q-16 38 -54 60.5t-88 22.5q-68 0 -118.5 -47.5t-61.5 -116.5z" />
    <glyph glyph-name="d" unicode="d" 
d="M45 230q15 103 89.5 172t171.5 68q102 -1 137 -96l69 406h81l-135 -780h-78l12 73q-65 -83 -162 -83q-95 0 -147 70t-38 170zM125 230q-11 -69 22.5 -116.5t98.5 -47.5q55 0 103.5 40t65.5 101l6 38q5 61 -27 104.5t-86 44.5q-67 1 -119.5 -46t-63.5 -118z" />
    <glyph glyph-name="e" unicode="e" horiz-adv-x="499" 
d="M238 -10q-87 0 -139.5 56t-52.5 154q0 109 74.5 189.5t182.5 80.5q88 0 137.5 -52t49.5 -149q0 -35 -11 -59h-353v-5q0 -65 30.5 -102.5t91.5 -37.5q90 0 149 83l63 -41q-83 -117 -222 -117zM298 400q-56 0 -98.5 -33.5t-61.5 -88.5h270v7q0 54 -28 84.5t-82 30.5z" />
    <glyph glyph-name="f" unicode="f" horiz-adv-x="277" 
d="M90 460h43l29 170q11 72 51.5 116.5t103.5 43.5q47 0 81 -42l-52 -64q-17 26 -42 26q-26 0 -42.5 -25t-21.5 -65l-27 -160h101l-13 -75h-101l-66 -385h-80l66 385h-44z" />
    <glyph glyph-name="g" unicode="g" 
d="M10 -30h78q-4 -53 28 -88t92 -36q63 -1 113 45t60 119l11 62q-66 -82 -162 -82q-95 0 -147 70t-38 170q15 103 89.5 172t171.5 68q102 -1 137 -96l15 86h80l-77 -450q-16 -106 -86 -173t-168 -67q-96 0 -151 56.5t-46 143.5zM125 230q-11 -69 22.5 -116.5t98.5 -47.5
q54 0 102.5 39.5t65.5 98.5l8 43q3 61 -28.5 103.5t-85.5 43.5q-67 1 -119.5 -46t-63.5 -118z" />
    <glyph glyph-name="h" unicode="h" horiz-adv-x="509" 
d="M380 280q14 111 -73 114q-50 1 -86 -31.5t-48 -78.5l-49 -284h-80l134 780h80l-67 -390q57 80 143 80q72 0 103.5 -50.5t22.5 -129.5l-50 -290h-78z" />
    <glyph glyph-name="i" unicode="i" horiz-adv-x="252" 
d="M156 650q0 22 16 38t38 16t38 -16t16 -38t-16 -38t-38 -16t-38 16t-16 38zM137 460h81l-78 -460h-80z" />
    <glyph glyph-name="j" unicode="j" horiz-adv-x="242" 
d="M144 650q0 22 16 38t38 16t38 -16t16 -38t-16 -38t-38 -16t-38 16t-16 38zM-65 -114q17 -26 43 -26q26 -1 42 24.5t21 65.5l87 510h80l-88 -520q-11 -71 -49.5 -116t-100.5 -44q-54 0 -88 42z" />
    <glyph glyph-name="k" unicode="k" horiz-adv-x="426" 
d="M360 460h102l-232 -196l168 -264h-94l-145 235l-41 -235h-77l131 780h82l-84 -479z" />
    <glyph glyph-name="l" unicode="l" horiz-adv-x="223" 
d="M178 780h80l-135 -780h-77z" />
    <glyph glyph-name="m" unicode="m" horiz-adv-x="756" 
d="M707 290l-49 -290h-80l50 280q15 114 -64 114q-50 0 -84 -32t-41 -80l-49 -282h-78l48 280q6 54 -6.5 84t-55.5 30q-49 0 -82.5 -30.5t-41.5 -79.5l-50 -284h-80l80 460h79l-11 -64q51 74 132 74q94 0 114 -90q60 90 153 90q71 0 98.5 -50.5t17.5 -129.5z" />
    <glyph glyph-name="n" unicode="n" horiz-adv-x="509" 
d="M380 280q15 114 -73 114q-51 0 -88 -31t-45 -79l-50 -284h-80l80 460h79l-11 -70q54 80 142 80q72 0 104.5 -52t21.5 -128l-50 -290h-78z" />
    <glyph glyph-name="o" unicode="o" horiz-adv-x="529" 
d="M52 230q14 100 90 170t176 70q98 0 154 -71t43 -169q-14 -100 -90 -170t-176 -70q-98 0 -154 71t-43 169zM131 230q-9 -67 25 -115.5t99 -48.5q67 0 118.5 47.5t62.5 116.5q9 66 -25.5 115t-99.5 49q-67 0 -118 -47.5t-62 -116.5z" />
    <glyph glyph-name="p" unicode="p" 
d="M82 -220h-80l118 680h76l-13 -76q66 86 165 86q95 0 146.5 -70t37.5 -170q-15 -103 -89 -172t-171 -68q-103 1 -138 98zM452 230q11 69 -22 116.5t-98 47.5q-61 0 -112.5 -48t-61.5 -116q-9 -66 22.5 -114.5t89.5 -49.5q67 -1 119 46t63 118z" />
    <glyph glyph-name="q" unicode="q" 
d="M45 230q15 103 89.5 172t171.5 68q102 -1 137 -96l15 86h80l-117 -680h-79l50 293q-65 -83 -162 -83q-95 0 -147 70t-38 170zM125 230q-11 -69 22.5 -116.5t98.5 -47.5q55 0 103 39.5t66 99.5l7 41q3 61 -28.5 104t-85.5 44q-67 1 -119.5 -46t-63.5 -118z" />
    <glyph glyph-name="r" unicode="r" horiz-adv-x="332" 
d="M324 372q-30 23 -56 23q-40 1 -62 -29t-33 -78l-49 -288h-80l80 460h79l-8 -46q48 56 101 56q43 0 80 -34z" />
    <glyph glyph-name="s" unicode="s" horiz-adv-x="391" 
d="M96 139q50 -77 123 -77q33 0 54 18.5t21 45.5q0 50 -90 86q-24 10 -41 19t-36 24t-29 36.5t-10 48.5q0 62 44.5 96t105.5 34q53 0 94.5 -25t63.5 -65l-60 -40q-46 62 -103 62q-31 0 -50 -14.5t-19 -37.5q0 -25 20.5 -40.5t61.5 -33.5q32 -14 50 -24t38.5 -26.5t29.5 -39
t9 -51.5q0 -61 -45.5 -103t-115.5 -42q-64 0 -112 33t-69 79z" />
    <glyph glyph-name="t" unicode="t" horiz-adv-x="232" 
d="M58 460h70l27 160h81l-28 -160h74l-14 -75h-73l-67 -385h-77l65 385h-72z" />
    <glyph glyph-name="u" unicode="u" horiz-adv-x="509" 
d="M154 180q-7 -51 9.5 -82.5t62.5 -31.5q51 0 88.5 31t45.5 79l50 284h80l-80 -460h-80l12 70q-54 -80 -142 -80q-72 0 -104.5 52t-21.5 128l50 290h78z" />
    <glyph glyph-name="v" unicode="v" horiz-adv-x="426" 
d="M54 460h87l76 -322l175 322h91l-292 -496z" />
    <glyph glyph-name="w" unicode="w" horiz-adv-x="659" 
d="M57 460h87l59 -296l180 333l71 -335l164 298h91l-281 -497l-76 335l-186 -335z" />
    <glyph glyph-name="x" unicode="x" horiz-adv-x="407" 
d="M362 460h92l-188 -227l124 -233h-86l-89 176l-143 -176h-92l202 242l-118 218h86l83 -160z" />
    <glyph glyph-name="y" unicode="y" horiz-adv-x="426" 
d="M481 460l-409 -680h-90l174 288l-104 392h88l74 -317l176 317h91z" />
    <glyph glyph-name="z" unicode="z" horiz-adv-x="446" 
d="M328 385h-247l13 75h392l-343 -385h257l-14 -75h-401z" />
    <glyph glyph-name="braceleft" unicode="{" horiz-adv-x="301" 
d="M258 660l-26 -170q-6 -39 -11.5 -63t-17 -55t-30.5 -51.5t-46 -31.5q19 -9 30.5 -27t16 -35t4.5 -45.5t-2 -45t-6 -46.5l-27 -170q-3 -21 7 -35.5t32 -14.5h35l-11 -70h-57q-42 0 -64.5 40.5t-16.5 99.5l33 210q5 46 -1.5 70t-29.5 40l10 60q52 26 63 110l32 210
q8 61 42.5 100.5t78.5 39.5h60l-10 -70h-33q-46 0 -55 -50z" />
    <glyph glyph-name="bar" unicode="|" horiz-adv-x="265" 
d="M200 784h73l-153 -998h-74z" />
    <glyph glyph-name="braceright" unicode="}" horiz-adv-x="301" 
d="M108 -80l26 170q6 39 11.5 63t17 55t30.5 51.5t46 31.5q-19 9 -30.5 27t-16 35t-4.5 45.5t2 45t6 46.5l26 170q3 21 -6.5 35.5t-31.5 14.5h-35l10 70h57q42 0 64.5 -40.5t16.5 -99.5l-33 -210q-5 -46 1.5 -70t29.5 -40l-9 -60q-28 -14 -43 -39.5t-21 -70.5l-32 -210
q-8 -61 -42 -100.5t-78 -39.5h-61l11 70h32q47 0 56 50z" />
    <glyph glyph-name="asciitilde" unicode="~" horiz-adv-x="558" 
d="M148 176l-72 5v25q6 35 34 69q45 51 109 51q53 0 113 -47q38 -31 64 -31q41 0 50 48q3 12 0 27l77 -5v-28q-8 -44 -31 -71q-41 -47 -98 -47q-42 0 -104 48q-40 32 -78 32q-25 0 -42 -15t-22 -39q-2 -7 0 -22z" />
    <glyph glyph-name="uni00A0" unicode="&#xa0;" horiz-adv-x="300" 
 />
    <glyph glyph-name="exclamdown" unicode="&#xa1;" horiz-adv-x="291" 
d="M243 414q-2 -21 -21.5 -38t-40.5 -16t-34 18t-11 38t21.5 38t40.5 16t34 -18t11 -38zM126 -245h-100l106 499h60z" />
    <glyph glyph-name="cent" unicode="&#xa2;" horiz-adv-x="562" 
d="M170 230q-11 -66 22.5 -114.5t98.5 -49.5q51 -1 97 22.5t75 59.5l-15 -100q-57 -51 -142 -57l-18 -103h-63l18 106q-81 15 -123 82t-30 154q14 91 79.5 158t154.5 79l19 111h63l-19 -110q75 -8 121 -58l-16 -99q-15 38 -52.5 60.5t-86.5 22.5q-68 0 -119.5 -47.5
t-63.5 -116.5z" />
    <glyph glyph-name="sterling" unicode="&#xa3;" horiz-adv-x="562" 
d="M100 370h102q-36 87 -29 148q12 84 77 138.5t152 53.5q85 -1 126.5 -63.5t37.5 -138.5l-74 -28q4 60 -18.5 102.5t-79.5 43.5q-49 2 -87.5 -27t-47.5 -79q-4 -10 -2 -28.5t2 -26.5t5.5 -24.5t8 -23.5t9 -23.5t9.5 -23.5h161l-14 -75h-129q1 -10 -1 -31q-8 -57 -40.5 -105
t-79.5 -79h302l-15 -80h-440q15 15 43.5 41.5t43 40.5t35.5 37.5t32.5 41t22 41t14.5 47.5q4 19 0 46h-139z" />
    <glyph glyph-name="currency" unicode="&#xa4;" horiz-adv-x="562" 
d="M66 48l-42 51l72 61q-33 62 -22 140q12 80 68 146l-48 58l56 48l47 -58q67 46 147 46q78 0 131 -47l69 59l42 -51l-70 -60q33 -62 22 -141q-12 -83 -69 -146l47 -58l-55 -48l-47 57q-68 -45 -146 -45q-79 0 -132 48zM154 300q-11 -66 22 -115t98 -49q68 0 120.5 47.5
t63.5 116.5q11 66 -23 115t-99 49q-68 0 -119.5 -47.5t-62.5 -116.5z" />
    <glyph glyph-name="yen" unicode="&#xa5;" horiz-adv-x="562" 
d="M41 140l12 75h197l13 75h-197l13 75h163l-134 335h90l119 -322l231 322h96l-249 -335h156l-13 -75h-190l-13 -75h191l-13 -75h-191l-24 -140h-86l25 140h-196z" />
    <glyph glyph-name="brokenbar" unicode="&#xa6;" horiz-adv-x="265" 
d="M188 694h73l-41 -238h-73zM184 244l-41 -238h-73l41 238h73z" />
    <glyph glyph-name="section" unicode="&#xa7;" horiz-adv-x="395" 
d="M92 160q6 -42 31.5 -68t66.5 -26q35 0 60 15t30 43q3 18 -2 32t-21 25.5t-27 17t-34 16.5q-118 56 -106 145q14 87 116 110q-86 48 -76 120q8 53 56.5 86.5t106.5 33.5q52 0 93.5 -25t55.5 -66l-68 -39q-28 54 -88 54q-28 0 -51 -12t-27 -34q-7 -35 64 -69l21 -9
q5 -3 8 -4q114 -55 103 -136q-12 -94 -115 -120q82 -49 73 -120q-9 -67 -60.5 -104t-123.5 -36q-62 1 -105.5 38.5t-50.5 95.5zM170 369q-5 -34 13 -54.5t53 -36.5q32 8 57 32t29 53q4 30 -14.5 49t-54.5 35q-73 -29 -83 -78z" />
    <glyph glyph-name="dieresis" unicode="&#xa8;" horiz-adv-x="456" 
d="M356 661q2 20 21 37t40 16t35 -17.5t12 -37.5q-2 -20 -21.5 -37t-40.5 -16t-34.5 17.5t-11.5 37.5zM162 661q2 20 21 37t40 16t35 -17.5t12 -37.5q-2 -20 -21.5 -37t-40.5 -16t-34.5 17.5t-11.5 37.5z" />
    <glyph glyph-name="copyright" unicode="&#xa9;" horiz-adv-x="776" 
d="M74 350q21 151 136.5 255.5t267.5 104.5q148 0 232.5 -106.5t64.5 -253.5q-21 -151 -136 -255.5t-267 -104.5q-148 0 -233 106.5t-65 253.5zM130 350q-19 -125 49.5 -217.5t194.5 -92.5q129 0 227.5 90.5t118.5 219.5q19 125 -49.5 217.5t-194.5 92.5
q-129 0 -227.5 -90.5t-118.5 -219.5zM269 350q-9 -67 24.5 -115t98.5 -49q78 -1 143 60l-9 -66q-64 -46 -136 -46q-85 0 -135 64.5t-39 151.5q12 89 79.5 152t155.5 64q73 0 127 -46l-10 -67q-45 61 -120 61q-67 0 -117.5 -47.5t-61.5 -116.5z" />
    <glyph glyph-name="ordfeminine" unicode="&#xaa;" horiz-adv-x="230" 
d="M143 646l-14 32q50 27 89 27q36 0 57 -19.5t18 -51.5l-29 -174h-40l6 35q-29 -40 -81 -39q-32 1 -51.5 23t-15.5 54q6 34 38.5 56.5t69.5 22.5q32 0 57 -18l7 41q-4 31 -39 34q-28 2 -72 -23zM122 532q-3 -38 40 -40q27 -1 48 14.5t29 40.5l4 22q-28 14 -53 14
q-24 0 -44.5 -15t-23.5 -36z" />
    <glyph glyph-name="guillemotleft" unicode="&#xab;" horiz-adv-x="494" 
d="M298 258l114 -194l-56 -44l-146 238l224 232l42 -46zM143 258l113 -194l-55 -44l-146 238l223 232l44 -46z" />
    <glyph glyph-name="logicalnot" unicode="&#xac;" horiz-adv-x="601" 
d="M86 300l14 75h477l-35 -199h-74l22 124h-404z" />
    <glyph glyph-name="uni00AD" unicode="&#xad;" horiz-adv-x="203" 
d="M12 200l12 75h196l-12 -75h-196z" />
    <glyph glyph-name="registered" unicode="&#xae;" horiz-adv-x="776" 
d="M74 350q21 151 136.5 255.5t267.5 104.5q148 0 232.5 -106.5t64.5 -253.5q-21 -151 -136 -255.5t-267 -104.5q-148 0 -233 106.5t-65 253.5zM130 350q-19 -125 49.5 -217.5t194.5 -92.5q129 0 227.5 90.5t118.5 219.5q19 125 -49.5 217.5t-194.5 92.5
q-129 0 -227.5 -90.5t-118.5 -219.5zM336 570h110q59 -2 94 -36.5t28 -89.5q-6 -46 -39 -78t-80 -43l97 -173h-60l-89 168h-49l-26 -168h-50zM442 524l-63 1l-25 -163l60 1q40 2 68.5 23.5t34.5 57.5q5 36 -16 57t-59 23z" />
    <glyph glyph-name="macron" unicode="&#xaf;" horiz-adv-x="494" 
d="M153 600l11 75h342l-12 -75h-341z" />
    <glyph glyph-name="degree" unicode="&#xb0;" horiz-adv-x="269" 
d="M94 600q8 50 46 85t88 35q49 0 77 -35.5t21 -84.5q-8 -50 -46 -85t-88 -35q-49 0 -77 35.5t-21 84.5zM134 600q-5 -33 11.5 -57.5t48.5 -24.5q33 0 60 24t33 58q5 33 -12 57.5t-49 24.5q-33 0 -59.5 -24t-32.5 -58z" />
    <glyph glyph-name="plusminus" unicode="&#xb1;" horiz-adv-x="596" 
d="M100 345l12 80h193l29 195h86l-31 -195h195l-13 -80h-194l-31 -195h-82l29 195h-193zM46 0l12 80h472l-12 -80h-472z" />
    <glyph glyph-name="uni00B2" unicode="&#xb2;" horiz-adv-x="335" 
d="M45 283l227 211q53 49 60 92q5 29 -10 51t-48 23q-40 2 -69 -27.5t-39 -73.5h-51q14 65 56.5 107.5t105.5 41.5q58 0 85.5 -38.5t19.5 -87.5q-11 -60 -72 -116l-152 -136h183l-8 -48z" />
    <glyph glyph-name="uni00B3" unicode="&#xb3;" horiz-adv-x="302" 
d="M176 274q-57 0 -86.5 33t-26.5 84h51q0 -30 16.5 -49t49.5 -20q34 -1 60 21t31 55q6 36 -17.5 55t-63.5 22l2 13l6 32q84 9 96 73q5 27 -8 46.5t-41 20.5t-50 -18t-30 -45l-49 1q12 47 47 78t85 30q49 -1 76.5 -34t19.5 -78q-13 -69 -93 -95q83 -27 71 -109
q-7 -50 -49 -83t-97 -33z" />
    <glyph glyph-name="acute" unicode="&#xb4;" horiz-adv-x="363" 
d="M376 658l-196 -147l-42 31l169 158z" />
    <glyph glyph-name="mu" unicode="&#xb5;" horiz-adv-x="509" 
d="M204 460l-53 -291q-6 -47 12.5 -75t62.5 -28q52 1 89 32t45 78l50 284h80l-80 -460h-80l10 60q-58 -70 -140 -70q-45 0 -74 20l-58 -330h-76l131 780h81z" />
    <glyph glyph-name="paragraph" unicode="&#xb6;" horiz-adv-x="560" 
d="M298 271q-94 5 -146.5 63t-38.5 152q15 98 87.5 156t170.5 58h225l-157 -920h-69l146 856h-87l-145 -856h-70z" />
    <glyph glyph-name="periodcentered" unicode="&#xb7;" horiz-adv-x="291" 
d="M106 241q2 21 21.5 37.5t40.5 15.5q21 -2 34.5 -18t11.5 -37q-2 -20 -22 -37t-41 -16t-34 17.5t-11 37.5z" />
    <glyph glyph-name="cedilla" unicode="&#xb8;" horiz-adv-x="339" 
d="M172 59h61l-82 -111h7q28 -3 46 -23t15 -52q-4 -41 -40 -67t-79 -26q-44 0 -82 40l38 38q27 -24 50 -24q21 0 38 11.5t19 28.5q2 16 -9.5 26t-31.5 10q-23 1 -60 -17z" />
    <glyph glyph-name="uni00B9" unicode="&#xb9;" horiz-adv-x="456" 
d="M225 612l8 52l149 36l-74 -426h-51l61 364z" />
    <glyph glyph-name="ordmasculine" unicode="&#xba;" horiz-adv-x="269" 
d="M90 580q8 50 46.5 85t88.5 35q49 0 77 -35.5t21 -84.5q-8 -50 -46.5 -85t-88.5 -35q-49 0 -77 35.5t-21 84.5zM130 580q-5 -33 11.5 -57.5t48.5 -24.5q33 0 60.5 24.5t33.5 57.5q5 33 -12 57.5t-49 24.5q-33 0 -60 -24t-33 -58z" />
    <glyph glyph-name="guillemotright" unicode="&#xbb;" horiz-adv-x="494" 
d="M229 252l-113 194l55 44l147 -238l-224 -232l-43 46zM384 252l-112 194l54 44l146 -238l-222 -232l-44 46z" />
    <glyph glyph-name="onequarter" unicode="&#xbc;" horiz-adv-x="731" 
d="M106 612l8 52l149 36l-73 -426h-52l62 364zM690 699l66 -1l-623 -698h-65zM374 85l1 1h-2l283 333l22 1l-50 -291l64 -1l-8 -44h-64l-14 -84h-50l14 84zM607 302l-143 -174l113 1z" />
    <glyph glyph-name="onehalf" unicode="&#xbd;" horiz-adv-x="794" 
d="M106 612l8 52l149 36l-73 -426h-52l62 364zM690 699l66 -1l-623 -698h-65zM452 3l226 211q53 49 60 92q5 29 -10 51t-48 23q-40 2 -69 -27.5t-39 -73.5h-50q14 65 56 107.5t105 41.5q58 0 86 -38.5t20 -87.5q-10 -59 -73 -116l-152 -136h184l-8 -48z" />
    <glyph glyph-name="threequarters" unicode="&#xbe;" horiz-adv-x="795" 
d="M182 274q-57 0 -87 33t-27 84h50q0 -30 16.5 -49t49.5 -20q34 -1 60.5 21.5t31.5 54.5q6 36 -17.5 55t-63.5 22l5 33l2 12q84 9 96 73q5 27 -7.5 46.5t-40.5 20.5t-50 -18t-30 -45l-50 1q12 47 47.5 78t85.5 30q49 -1 77 -34.5t20 -77.5q-13 -69 -94 -96q83 -27 71 -108
q-7 -51 -48.5 -83.5t-96.5 -32.5zM755 699l65 -1l-622 -698h-66zM438 85l1 1h-1l282 333l22 1l-49 -291l64 -1l-7 -44h-64l-14 -84h-52l14 84zM672 302l-144 -174l115 1z" />
    <glyph glyph-name="questiondown" unicode="&#xbf;" horiz-adv-x="540" 
d="M438 659q-2 -20 -22 -37t-41 -16t-34 17.5t-11 37.5t21.5 37.5t40.5 15.5q21 -2 34.5 -18t11.5 -37zM144 200q-11 -59 21 -96.5t95 -37.5q88 0 156 82l58 -42q-48 -56 -101.5 -86.5t-128.5 -29.5q-89 1 -141 62.5t-39 147.5q14 84 82.5 141.5t157.5 68.5l29 120h59
l-8 -175h-25q-80 -1 -140.5 -45.5t-74.5 -109.5z" />
    <glyph glyph-name="Agrave" unicode="&#xc0;" horiz-adv-x="640" 
d="M328 946l78 39l121 -161l-47 -29zM516 0l-51 210l-271 1l-123 -211h-96l443 736l190 -736h-92zM388 542l-147 -252h206z" />
    <glyph glyph-name="Aacute" unicode="&#xc1;" horiz-adv-x="640" 
d="M582 942l-200 -146l-41 30l171 158zM516 0l-51 210l-271 1l-123 -211h-96l443 736l190 -736h-92zM388 542l-147 -252h206z" />
    <glyph glyph-name="Acircumflex" unicode="&#xc2;" horiz-adv-x="640" 
d="M441 850l-124 -94l-45 40l179 139l134 -141l-54 -38zM516 0l-51 210l-271 1l-123 -211h-96l443 736l190 -736h-92zM388 542l-147 -252h206z" />
    <glyph glyph-name="Atilde" unicode="&#xc3;" horiz-adv-x="640" 
d="M270 814q16 34 48 57.5t66 22.5q26 -1 57.5 -24t54.5 -22q27 1 64 46l40 -44q-20 -30 -50 -50.5t-64 -19.5q-23 1 -56 24t-54 22q-36 -1 -58 -50zM516 0l-51 210l-271 1l-123 -211h-96l443 736l190 -736h-92zM388 542l-147 -252h206z" />
    <glyph glyph-name="Adieresis" unicode="&#xc4;" horiz-adv-x="640" 
d="M482 851q2 21 21.5 37.5t40.5 15.5t34 -17.5t11 -37.5t-21.5 -37.5t-40.5 -15.5t-34 17.5t-11 37.5zM287 851q2 20 22 37t41 16t34 -17.5t11 -37.5t-21.5 -37.5t-40.5 -15.5q-21 2 -34.5 18t-11.5 37zM516 0l-51 210l-271 1l-123 -211h-96l443 736l190 -736h-92zM388 542
l-147 -252h206z" />
    <glyph glyph-name="Aring" unicode="&#xc5;" horiz-adv-x="640" 
d="M330 799q6 41 40 70t74 29t65.5 -30.5t19.5 -70.5q-5 -37 -34.5 -65t-66.5 -33l180 -699h-92l-51 210l-271 1l-123 -211h-96l421 700q-33 7 -52 35t-14 64zM380 798q-2 -20 9 -35.5t29 -16.5q19 -2 39 15t22 37t-9.5 35t-29.5 17t-38 -14.5t-22 -37.5zM388 542l-147 -252
h206z" />
    <glyph glyph-name="AE" unicode="&#xc6;" horiz-adv-x="931" 
d="M852 80l-14 -80h-390l35 210h-250l-161 -210h-94l538 700h442l-14 -80h-306l-34 -200h286l-13 -80h-287l-45 -260h307zM294 290h203l57 339z" />
    <glyph glyph-name="Ccedilla" unicode="&#xc7;" horiz-adv-x="664" 
d="M160 350q-17 -110 39.5 -191.5t161.5 -82.5q130 -1 239 102l-18 -112q-96 -73 -222 -76l-31 -43h7q29 -3 46.5 -23t13.5 -52q-5 -41 -40 -66.5t-77 -25.5q-43 0 -83 38l38 38q26 -23 50 -23q21 0 38 12t19 29q2 16 -9.5 25.5t-31.5 9.5q-23 1 -60 -17l67 101
q-124 18 -190.5 121.5t-46.5 235.5q23 150 137.5 254.5t262.5 105.5q126 0 208 -78l-18 -111q-68 103 -199 103q-109 0 -195.5 -80t-105.5 -194z" />
    <glyph glyph-name="Egrave" unicode="&#xc8;" horiz-adv-x="533" 
d="M274 921l80 39l120 -161l-47 -29zM168 700h392l-14 -80h-306l-34 -200h286l-13 -80h-287l-45 -260h307l-14 -80h-389z" />
    <glyph glyph-name="Eacute" unicode="&#xc9;" horiz-adv-x="533" 
d="M528 918l-198 -147l-42 31l172 158zM168 700h392l-14 -80h-306l-34 -200h286l-13 -80h-287l-45 -260h307l-14 -80h-389z" />
    <glyph glyph-name="Ecircumflex" unicode="&#xca;" horiz-adv-x="533" 
d="M404 864l-123 -94l-45 42l178 138l134 -141l-53 -39zM168 700h392l-14 -80h-306l-34 -200h286l-13 -80h-287l-45 -260h307l-14 -80h-389z" />
    <glyph glyph-name="Edieresis" unicode="&#xcb;" horiz-adv-x="533" 
d="M442 846q2 21 21.5 38t40.5 16t34.5 -18t11.5 -38t-21.5 -38t-40.5 -16t-34.5 18t-11.5 38zM248 846q2 21 21.5 38t40.5 16t34.5 -18t11.5 -38t-21.5 -38t-40.5 -16t-34.5 18t-11.5 38zM168 700h392l-14 -80h-306l-34 -200h286l-13 -80h-287l-45 -260h307l-14 -80h-389z
" />
    <glyph glyph-name="Igrave" unicode="&#xcc;" horiz-adv-x="237" 
d="M122 921l79 39l121 -161l-48 -29zM168 700h86l-121 -700h-82z" />
    <glyph glyph-name="Iacute" unicode="&#xcd;" horiz-adv-x="237" 
d="M375 918l-199 -148l-40 32l172 158zM168 700h86l-121 -700h-82z" />
    <glyph glyph-name="Icircumflex" unicode="&#xce;" horiz-adv-x="237" 
d="M242 864l-124 -94l-44 42l178 138l134 -141l-54 -39zM168 700h86l-121 -700h-82z" />
    <glyph glyph-name="Idieresis" unicode="&#xcf;" horiz-adv-x="237" 
d="M82 826q2 20 21.5 37.5t39.5 16.5q21 -2 35 -18.5t12 -37.5t-22 -38t-41 -16t-34 18t-11 38zM276 826q2 20 22 37.5t40 16.5q21 -1 34.5 -18t11.5 -38t-22 -38t-41 -16t-34 18t-11 38zM168 700h86l-121 -700h-82z" />
    <glyph glyph-name="Eth" unicode="&#xd0;" horiz-adv-x="659" 
d="M258 0h-207l52 310h-72l13 75h71l53 315h202q148 -3 226.5 -103.5t57.5 -246.5q-23 -151 -133.5 -249.5t-262.5 -100.5zM324 310h-137l-39 -225h118q118 2 201 75.5t103 189.5q18 112 -38.5 187t-169.5 78h-123l-39 -230h136z" />
    <glyph glyph-name="Ntilde" unicode="&#xd1;" horiz-adv-x="752" 
d="M316 794q16 34 47.5 57.5t65.5 22.5q26 -1 58 -24t55 -22q26 1 63 46l39 -44q-20 -30 -49.5 -50.5t-63.5 -19.5q-23 1 -55.5 24t-53.5 22q-36 -1 -58 -50zM684 700h84l-126 -734l-418 556l-90 -522h-85l126 734l419 -556z" />
    <glyph glyph-name="Ograve" unicode="&#xd2;" horiz-adv-x="766" 
d="M396 921l79 39l121 -161l-48 -29zM70 350q23 150 138 255t266 105q98 0 169.5 -51t102 -133t16.5 -176q-23 -150 -138 -255t-266 -105q-98 0 -169.5 51t-102 133t-16.5 176zM160 350q-17 -111 39 -192t167 -82q114 -1 200.5 79t105.5 195q17 111 -39 192t-167 82
q-114 1 -200.5 -79t-105.5 -195z" />
    <glyph glyph-name="Oacute" unicode="&#xd3;" horiz-adv-x="766" 
d="M630 918l-198 -147l-42 31l172 158zM70 350q23 150 138 255t266 105q98 0 169.5 -51t102 -133t16.5 -176q-23 -150 -138 -255t-266 -105q-98 0 -169.5 51t-102 133t-16.5 176zM160 350q-17 -111 39 -192t167 -82q114 -1 200.5 79t105.5 195q17 111 -39 192t-167 82
q-114 1 -200.5 -79t-105.5 -195z" />
    <glyph glyph-name="Ocircumflex" unicode="&#xd4;" horiz-adv-x="766" 
d="M506 864l-124 -94l-44 42l178 138l134 -141l-53 -39zM70 350q23 150 138 255t266 105q98 0 169.5 -51t102 -133t16.5 -176q-23 -150 -138 -255t-266 -105q-98 0 -169.5 51t-102 133t-16.5 176zM160 350q-17 -111 39 -192t167 -82q114 -1 200.5 79t105.5 195
q17 111 -39 192t-167 82q-114 1 -200.5 -79t-105.5 -195z" />
    <glyph glyph-name="Otilde" unicode="&#xd5;" horiz-adv-x="766" 
d="M333 808q0 30 40.5 55t72.5 25q26 -1 57.5 -24t54.5 -22q25 1 64 48l40 -44q-20 -30 -50 -51.5t-64 -20.5q-23 1 -55.5 24t-53.5 22q-37 -1 -59 -50zM70 350q23 150 138 255t266 105q98 0 169.5 -51t102 -133t16.5 -176q-23 -150 -138 -255t-266 -105q-98 0 -169.5 51
t-102 133t-16.5 176zM160 350q-17 -111 39 -192t167 -82q114 -1 200.5 79t105.5 195q17 111 -39 192t-167 82q-114 1 -200.5 -79t-105.5 -195z" />
    <glyph glyph-name="Odieresis" unicode="&#xd6;" horiz-adv-x="766" 
d="M540 826q2 21 21.5 38t40.5 16t34.5 -18t11.5 -38t-21.5 -38t-40.5 -16t-34.5 18t-11.5 38zM346 826q2 21 21.5 38t40.5 16t34.5 -18t11.5 -38t-21.5 -38t-40.5 -16t-34.5 18t-11.5 38zM70 350q23 150 138 255t266 105q98 0 169.5 -51t102 -133t16.5 -176
q-23 -150 -138 -255t-266 -105q-98 0 -169.5 51t-102 133t-16.5 176zM160 350q-17 -111 39 -192t167 -82q114 -1 200.5 79t105.5 195q17 111 -39 192t-167 82q-114 1 -200.5 -79t-105.5 -195z" />
    <glyph glyph-name="multiply" unicode="&#xd7;" horiz-adv-x="578" 
d="M96 22l-47 59l207 176l-146 177l62 54l140 -181l204 181l46 -59l-208 -176l148 -177l-62 -54l-141 181z" />
    <glyph glyph-name="Oslash" unicode="&#xd8;" horiz-adv-x="766" 
d="M70 350q23 150 138 255t266 105q110 0 188 -65l104 105l54 -42l-112 -112q75 -106 54 -246q-23 -150 -138 -255t-266 -105q-111 0 -190 66l-106 -106l-53 42l114 114q-74 105 -53 244zM160 350q-16 -102 30 -177l407 407q-55 44 -131 44q-114 1 -200.5 -79t-105.5 -195z
M672 350q16 103 -31 179l-408 -408q55 -45 133 -45q114 -1 200.5 79t105.5 195z" />
    <glyph glyph-name="Ugrave" unicode="&#xd9;" horiz-adv-x="607" 
d="M306 921l80 39l120 -161l-47 -29zM165 700h84l-81 -470q-10 -69 19.5 -114t98.5 -46q71 -1 118 44.5t60 115.5l80 470h84l-80 -470q-18 -103 -91.5 -171.5t-178.5 -68.5q-103 0 -155.5 70t-38.5 170z" />
    <glyph glyph-name="Uacute" unicode="&#xda;" horiz-adv-x="607" 
d="M560 918l-198 -147l-42 31l172 158zM165 700h84l-81 -470q-10 -69 19.5 -114t98.5 -46q71 -1 118 44.5t60 115.5l80 470h84l-80 -470q-18 -103 -91.5 -171.5t-178.5 -68.5q-103 0 -155.5 70t-38.5 170z" />
    <glyph glyph-name="Ucircumflex" unicode="&#xdb;" horiz-adv-x="607" 
d="M427 864l-124 -94l-44 42l178 138l134 -141l-54 -39zM165 700h84l-81 -470q-10 -69 19.5 -114t98.5 -46q71 -1 118 44.5t60 115.5l80 470h84l-80 -470q-18 -103 -91.5 -171.5t-178.5 -68.5q-103 0 -155.5 70t-38.5 170z" />
    <glyph glyph-name="Udieresis" unicode="&#xdc;" horiz-adv-x="607" 
d="M460 826q2 21 21.5 38t40.5 16t34.5 -18t11.5 -38t-21.5 -38t-40.5 -16t-34.5 18t-11.5 38zM266 826q2 21 21.5 38t40.5 16t34.5 -18t11.5 -38t-21.5 -38t-40.5 -16t-34.5 18t-11.5 38zM165 700h84l-81 -470q-10 -69 19.5 -114t98.5 -46q71 -1 118 44.5t60 115.5l80 470
h84l-80 -470q-18 -103 -91.5 -171.5t-178.5 -68.5q-103 0 -155.5 70t-38.5 170z" />
    <glyph glyph-name="Yacute" unicode="&#xdd;" horiz-adv-x="544" 
d="M528 918l-198 -148l-41 32l171 158zM538 700h96l-296 -400l-52 -300h-84l54 304l-158 396h91l119 -322z" />
    <glyph glyph-name="Thorn" unicode="&#xde;" horiz-adv-x="533" 
d="M168 700h86l-24 -140h98q97 -2 154.5 -60.5t43.5 -149.5q-15 -93 -89.5 -150.5t-174.5 -59.5h-105l-24 -140h-82zM320 480h-104l-45 -260h99q67 2 114.5 35.5t58.5 94.5q10 60 -24.5 94t-98.5 36z" />
    <glyph glyph-name="germandbls" unicode="&#xdf;" horiz-adv-x="565" 
d="M342 -12q-86 0 -147 68l49 60q50 -52 104 -52q44 0 74 31.5t30 75.5q0 31 -15.5 55.5t-37.5 42t-44 34.5t-37.5 42.5t-15.5 56.5q0 35 25.5 66.5t56.5 53t56.5 54.5t25.5 69q0 39 -27 57.5t-71 18.5q-120 0 -141 -133l-99 -590h-81l100 610q13 81 74.5 133.5t159.5 52.5
q75 0 122 -37.5t47 -104.5q0 -43 -16.5 -77t-40 -55t-47 -38t-40 -37t-16.5 -43q0 -19 15 -35.5t36.5 -31.5t43 -33t36.5 -49t15 -71q0 -81 -56 -137.5t-138 -56.5z" />
    <glyph glyph-name="agrave" unicode="&#xe0;" 
d="M198 681l78 39l121 -161l-47 -29zM45 230q15 103 89.5 172t171.5 68q106 -1 140 -104l16 94h76l-80 -460h-72l14 83q-68 -93 -170 -93q-95 0 -147 70t-38 170zM125 230q-11 -69 22.5 -116.5t98.5 -47.5q61 0 112.5 48t61.5 116q9 66 -22.5 114.5t-89.5 49.5
q-67 1 -119.5 -46t-63.5 -118z" />
    <glyph glyph-name="aacute" unicode="&#xe1;" 
d="M471 678l-199 -147l-42 31l172 158zM45 230q15 103 89.5 172t171.5 68q106 -1 140 -104l16 94h76l-80 -460h-72l14 83q-68 -93 -170 -93q-95 0 -147 70t-38 170zM125 230q-11 -69 22.5 -116.5t98.5 -47.5q61 0 112.5 48t61.5 116q9 66 -22.5 114.5t-89.5 49.5
q-67 1 -119.5 -46t-63.5 -118z" />
    <glyph glyph-name="acircumflex" unicode="&#xe2;" 
d="M357 624l-124 -94l-45 42l179 138l134 -141l-54 -39zM45 230q15 103 89.5 172t171.5 68q106 -1 140 -104l16 94h76l-80 -460h-72l14 83q-68 -93 -170 -93q-95 0 -147 70t-38 170zM125 230q-11 -69 22.5 -116.5t98.5 -47.5q61 0 112.5 48t61.5 116q9 66 -22.5 114.5
t-89.5 49.5q-67 1 -119.5 -46t-63.5 -118z" />
    <glyph glyph-name="atilde" unicode="&#xe3;" 
d="M184 568q15 34 46.5 57t65.5 23q26 0 58 -23.5t55 -22.5q24 1 63 48l40 -44q-20 -30 -50 -51.5t-64 -20.5q-23 1 -55 24t-53 22q-37 -1 -59 -50zM45 230q15 103 89.5 172t171.5 68q106 -1 140 -104l16 94h76l-80 -460h-72l14 83q-68 -93 -170 -93q-95 0 -147 70t-38 170z
M125 230q-11 -69 22.5 -116.5t98.5 -47.5q61 0 112.5 48t61.5 116q9 66 -22.5 114.5t-89.5 49.5q-67 1 -119.5 -46t-63.5 -118z" />
    <glyph glyph-name="adieresis" unicode="&#xe4;" 
d="M390 586q2 21 21.5 38t40.5 16t34.5 -18t11.5 -38t-21.5 -38t-40.5 -16t-34.5 18t-11.5 38zM196 586q2 21 21.5 38t40.5 16t34.5 -18t11.5 -38t-21.5 -38t-40.5 -16t-34.5 18t-11.5 38zM45 230q15 103 89.5 172t171.5 68q106 -1 140 -104l16 94h76l-80 -460h-72l14 83
q-68 -93 -170 -93q-95 0 -147 70t-38 170zM125 230q-11 -69 22.5 -116.5t98.5 -47.5q61 0 112.5 48t61.5 116q9 66 -22.5 114.5t-89.5 49.5q-67 1 -119.5 -46t-63.5 -118z" />
    <glyph glyph-name="aring" unicode="&#xe5;" 
d="M229 630q6 41 40.5 70t74.5 29t65 -30t19 -71t-40 -69.5t-74 -28.5t-65.5 30t-19.5 70zM279 629q-2 -20 9.5 -36t29.5 -16q19 0 38.5 16.5t21.5 36.5t-9 36t-29 16q-19 0 -39 -16.5t-22 -36.5zM45 230q15 103 89.5 172t171.5 68q106 -1 140 -104l16 94h76l-80 -460h-72
l14 83q-68 -93 -170 -93q-95 0 -147 70t-38 170zM125 230q-11 -69 22.5 -116.5t98.5 -47.5q61 0 112.5 48t61.5 116q9 66 -22.5 114.5t-89.5 49.5q-67 1 -119.5 -46t-63.5 -118z" />
    <glyph glyph-name="ae" unicode="&#xe6;" horiz-adv-x="800" 
d="M183 -10q-79 0 -121 36.5t-42 93.5q0 69 58.5 117.5t147.5 48.5q61 0 126 -35l10 59q6 44 -16 67t-63 23q-73 0 -137 -48l-39 61q77 57 176 57q63 0 100.5 -25t40.5 -71q72 96 189 96q77 0 125 -54.5t48 -146.5q0 -36 -10 -59h-352q-6 -63 23.5 -104t90.5 -41
q99 0 149 83l65 -41q-37 -56 -95.5 -86.5t-123.5 -30.5q-123 0 -166 101q-50 -101 -184 -101zM596 400q-109 0 -158 -122h266q-5 122 -108 122zM198 61q107 0 148 107v30q-51 27 -116 27q-56 0 -92.5 -26t-36.5 -69q0 -38 23 -53.5t74 -15.5z" />
    <glyph glyph-name="ccedilla" unicode="&#xe7;" horiz-adv-x="463" 
d="M120 230q-11 -66 22.5 -114.5t99.5 -49.5q51 -1 97 22.5t75 59.5l-16 -100q-63 -55 -156 -58l-31 -43h7q29 -3 46.5 -23t13.5 -52q-5 -40 -40.5 -66t-77.5 -26q-43 0 -83 38l39 38q26 -23 50 -23q21 0 38 12t19 29q2 16 -9.5 25.5t-31.5 9.5q-24 1 -61 -17l68 102
q-79 16 -120 83t-29 153q15 101 92 170.5t178 69.5q94 0 148 -60l-16 -99q-15 38 -52 60.5t-86 22.5q-68 0 -120 -47.5t-64 -116.5z" />
    <glyph glyph-name="egrave" unicode="&#xe8;" horiz-adv-x="499" 
d="M209 691l79 39l120 -161l-46 -29zM450 106q-47 -56 -101.5 -86.5t-128.5 -29.5q-62 1 -105.5 35.5t-60.5 88t-9 116.5q3 25 12 49q26 83 94.5 137t154.5 54q96 0 141.5 -67.5t32.5 -168.5q-2 -16 -4 -24h-353q-5 -63 23.5 -103t89.5 -41q85 -1 155 82zM299 400
q-56 1 -100.5 -33.5t-61.5 -88.5h263q1 54 -23 87.5t-78 34.5z" />
    <glyph glyph-name="eacute" unicode="&#xe9;" horiz-adv-x="499" 
d="M502 688l-199 -147l-41 31l171 158zM450 106q-47 -56 -101.5 -86.5t-128.5 -29.5q-62 1 -105.5 35.5t-60.5 88t-9 116.5q3 25 12 49q26 83 94.5 137t154.5 54q96 0 141.5 -67.5t32.5 -168.5q-2 -16 -4 -24h-353q-5 -63 23.5 -103t89.5 -41q85 -1 155 82zM299 400
q-56 1 -100.5 -33.5t-61.5 -88.5h263q1 54 -23 87.5t-78 34.5z" />
    <glyph glyph-name="ecircumflex" unicode="&#xea;" horiz-adv-x="499" 
d="M338 624l-124 -94l-44 42l178 138l134 -141l-54 -39zM450 106q-47 -56 -101.5 -86.5t-128.5 -29.5q-62 1 -105.5 35.5t-60.5 88t-9 116.5q3 25 12 49q26 83 94.5 137t154.5 54q96 0 141.5 -67.5t32.5 -168.5q-2 -16 -4 -24h-353q-5 -63 23.5 -103t89.5 -41q85 -1 155 82z
M299 400q-56 1 -100.5 -33.5t-61.5 -88.5h263q1 54 -23 87.5t-78 34.5z" />
    <glyph glyph-name="edieresis" unicode="&#xeb;" horiz-adv-x="499" 
d="M371 586q2 21 21.5 38t40.5 16t34.5 -18t11.5 -38t-21.5 -38t-40.5 -16t-34.5 18t-11.5 38zM177 586q2 21 21.5 38t40.5 16t34.5 -18t11.5 -38t-22 -38t-41 -16t-34 18t-11 38zM450 106q-47 -56 -101.5 -86.5t-128.5 -29.5q-62 1 -105.5 35.5t-60.5 88t-9 116.5
q3 25 12 49q26 83 94.5 137t154.5 54q96 0 141.5 -67.5t32.5 -168.5q-2 -16 -4 -24h-353q-5 -63 23.5 -103t89.5 -41q85 -1 155 82zM299 400q-56 1 -100.5 -33.5t-61.5 -88.5h263q1 54 -23 87.5t-78 34.5z" />
    <glyph glyph-name="igrave" unicode="&#xec;" horiz-adv-x="252" 
d="M62 701l80 39l120 -161l-48 -29zM137 460h81l-80 -460h-78z" />
    <glyph glyph-name="iacute" unicode="&#xed;" horiz-adv-x="252" 
d="M374 698l-198 -147l-42 31l172 158zM137 460h81l-80 -460h-78z" />
    <glyph glyph-name="icircumflex" unicode="&#xee;" horiz-adv-x="252" 
d="M210 634l-124 -94l-44 42l178 138l134 -141l-54 -39zM137 460h81l-80 -460h-78z" />
    <glyph glyph-name="idieresis" unicode="&#xef;" horiz-adv-x="252" 
d="M247 616q2 21 21.5 38t40.5 16t34.5 -18t11.5 -38t-21.5 -38t-40.5 -16t-34.5 18t-11.5 38zM53 616q2 21 21.5 38t40.5 16t34.5 -18t11.5 -38t-21.5 -38t-40.5 -16t-34.5 18t-11.5 38zM137 460h81l-80 -460h-78z" />
    <glyph glyph-name="eth" unicode="&#xf0;" horiz-adv-x="576" 
d="M263 -10q-97 0 -155 58.5t-58 156.5q0 106 76.5 179t170.5 73q57 0 109 -30q-30 65 -72 118l-110 -42l-18 47l94 36q-33 35 -87 83l48 56q63 -60 109 -112l116 44l18 -47l-100 -38q122 -154 122 -297q0 -115 -72.5 -200t-190.5 -85zM263 67q77 0 128 57t51 131
q0 66 -35.5 103t-93.5 37q-69 0 -125.5 -56.5t-56.5 -133.5q0 -62 37 -100t95 -38z" />
    <glyph glyph-name="ntilde" unicode="&#xf1;" horiz-adv-x="509" 
d="M164 568q16 34 47.5 57.5t65.5 22.5q26 -1 58 -24t55 -22q24 1 63 48l39 -44q-21 -31 -50.5 -52t-62.5 -20q-23 1 -55.5 24t-53.5 22q-36 -1 -58 -50zM380 280q14 111 -73 114q-50 1 -86 -31.5t-48 -79.5l-49 -283h-80l80 460h79l-10 -60q58 70 141 70q72 0 103.5 -50.5
t22.5 -129.5l-50 -290h-78z" />
    <glyph glyph-name="ograve" unicode="&#xf2;" horiz-adv-x="529" 
d="M201 701l79 39l120 -161l-46 -29zM45 230q15 100 92 170t178 70q98 0 153 -71t41 -169q-15 -100 -92 -170t-178 -70q-98 0 -153 71t-41 169zM125 230q-11 -66 22.5 -115t98.5 -49q68 0 120 47.5t63 116.5q11 66 -22.5 115t-98.5 49q-68 0 -120 -47.5t-63 -116.5z" />
    <glyph glyph-name="oacute" unicode="&#xf3;" horiz-adv-x="529" 
d="M513 698l-199 -147l-41 31l171 158zM45 230q15 100 92 170t178 70q98 0 153 -71t41 -169q-15 -100 -92 -170t-178 -70q-98 0 -153 71t-41 169zM125 230q-11 -66 22.5 -115t98.5 -49q68 0 120 47.5t63 116.5q11 66 -22.5 115t-98.5 49q-68 0 -120 -47.5t-63 -116.5z" />
    <glyph glyph-name="ocircumflex" unicode="&#xf4;" horiz-adv-x="529" 
d="M350 644l-124 -94l-44 42l178 138l134 -141l-53 -39zM45 230q15 100 92 170t178 70q98 0 153 -71t41 -169q-15 -100 -92 -170t-178 -70q-98 0 -153 71t-41 169zM125 230q-11 -66 22.5 -115t98.5 -49q68 0 120 47.5t63 116.5q11 66 -22.5 115t-98.5 49q-68 0 -120 -47.5
t-63 -116.5z" />
    <glyph glyph-name="otilde" unicode="&#xf5;" horiz-adv-x="529" 
d="M174 568q0 30 40.5 55t71.5 25q26 -1 58 -24t55 -22q24 1 63 48l40 -44q-21 -31 -50.5 -52t-62.5 -20q-23 1 -55.5 24t-53.5 22q-37 -1 -59 -50zM45 230q15 100 92 170t178 70q98 0 153 -71t41 -169q-15 -100 -92 -170t-178 -70q-98 0 -153 71t-41 169zM125 230
q-11 -66 22.5 -115t98.5 -49q68 0 120 47.5t63 116.5q11 66 -22.5 115t-98.5 49q-68 0 -120 -47.5t-63 -116.5z" />
    <glyph glyph-name="odieresis" unicode="&#xf6;" horiz-adv-x="529" 
d="M386 616q2 21 21.5 38t40.5 16t34.5 -18t11.5 -38t-21.5 -38t-40.5 -16t-34.5 18t-11.5 38zM192 616q2 21 21.5 38t40.5 16t34.5 -18t11.5 -38t-21.5 -38t-40.5 -16t-34.5 18t-11.5 38zM45 230q15 100 92 170t178 70q98 0 153 -71t41 -169q-15 -100 -92 -170t-178 -70
q-98 0 -153 71t-41 169zM125 230q-11 -66 22.5 -115t98.5 -49q68 0 120 47.5t63 116.5q11 66 -22.5 115t-98.5 49q-68 0 -120 -47.5t-63 -116.5z" />
    <glyph glyph-name="divide" unicode="&#xf7;" horiz-adv-x="604" 
d="M296 451q2 21 21.5 37.5t40.5 15.5q21 -2 34.5 -18t11.5 -37t-21.5 -37.5t-40.5 -15.5q-21 2 -34.5 18t-11.5 37zM70 226l13 79h487l-14 -80zM232 71q2 21 21.5 37.5t40.5 15.5q21 -2 34.5 -18t11.5 -37t-21.5 -37.5t-40.5 -15.5q-21 2 -34.5 18t-11.5 37z" />
    <glyph glyph-name="oslash" unicode="&#xf8;" horiz-adv-x="529" 
d="M45 230q15 100 92 170t178 70q64 0 113 -33l56 62l42 -21l-64 -72q63 -71 47 -176q-15 -100 -92 -170t-178 -70q-68 0 -117 36l-62 -69l-44 21l72 80q-57 70 -43 172zM125 230q-11 -63 19 -110l230 256q-29 18 -66 18q-68 0 -120 -47.5t-63 -116.5zM429 230
q11 67 -22 115l-231 -258q31 -21 70 -21q68 0 120 47.5t63 116.5z" />
    <glyph glyph-name="ugrave" unicode="&#xf9;" horiz-adv-x="509" 
d="M230 701l79 39l121 -161l-48 -29zM154 180q-14 -111 72 -114q48 -1 84 29.5t50 76.5l50 288h80l-80 -460h-80l10 59q-58 -69 -140 -69q-72 0 -103.5 50.5t-22.5 129.5l50 290h78z" />
    <glyph glyph-name="uacute" unicode="&#xfa;" horiz-adv-x="509" 
d="M464 698l-199 -148l-41 32l172 158zM154 180q-14 -111 72 -114q48 -1 84 29.5t50 76.5l50 288h80l-80 -460h-80l10 59q-58 -69 -140 -69q-72 0 -103.5 50.5t-22.5 129.5l50 290h78z" />
    <glyph glyph-name="ucircumflex" unicode="&#xfb;" horiz-adv-x="509" 
d="M340 644l-124 -94l-44 42l178 138l134 -141l-54 -39zM154 180q-14 -111 72 -114q48 -1 84 29.5t50 76.5l50 288h80l-80 -460h-80l10 59q-58 -69 -140 -69q-72 0 -103.5 50.5t-22.5 129.5l50 290h78z" />
    <glyph glyph-name="udieresis" unicode="&#xfc;" horiz-adv-x="509" 
d="M374 606q2 20 22 37.5t40 16.5q21 -1 34.5 -18t11.5 -38t-22 -38t-41 -16t-34 18t-11 38zM180 606q2 20 22 37.5t40 16.5q21 -1 34.5 -18t11.5 -38t-22 -38t-41 -16t-34 18t-11 38zM154 180q-14 -111 72 -114q48 -1 84 29.5t50 76.5l50 288h80l-80 -460h-80l10 59
q-58 -69 -140 -69q-72 0 -103.5 50.5t-22.5 129.5l50 290h78z" />
    <glyph glyph-name="yacute" unicode="&#xfd;" horiz-adv-x="426" 
d="M432 698l-198 -147l-42 31l172 158zM481 460l-409 -680h-90l174 288l-104 392h92l70 -316l176 316h91z" />
    <glyph glyph-name="thorn" unicode="&#xfe;" 
d="M82 -220h-80l172 1000h78l-67 -394q66 84 163 84q95 0 146.5 -70t37.5 -170q-15 -103 -89 -172t-171 -68q-101 1 -138 97zM452 230q11 69 -22 116.5t-98 47.5q-57 0 -106 -42t-65 -105l-4 -26q-6 -63 26 -108.5t87 -46.5q67 -1 119 46t63 118z" />
    <glyph glyph-name="ydieresis" unicode="&#xff;" horiz-adv-x="426" 
d="M330 586q2 21 21.5 38t40.5 16t34 -18t11 -38t-21.5 -38t-40.5 -16t-34 18t-11 38zM136 586q2 21 21.5 38t40.5 16t34 -18t11 -38t-21.5 -38t-40.5 -16t-34 18t-11 38zM481 460l-409 -680h-90l174 288l-104 392h92l70 -316l176 316h91z" />
    <glyph glyph-name="Amacron" unicode="&#x100;" horiz-adv-x="640" 
d="M260 796l12 74h341l-13 -75zM516 0l-51 210l-271 1l-123 -211h-96l443 736l190 -736h-92zM388 542l-147 -252h206z" />
    <glyph glyph-name="amacron" unicode="&#x101;" 
d="M159 540l12 75h341l-12 -75h-341zM45 230q15 103 89.5 172t171.5 68q106 -1 140 -104l16 94h76l-80 -460h-72l14 83q-68 -93 -170 -93q-95 0 -147 70t-38 170zM125 230q-11 -69 22.5 -116.5t98.5 -47.5q61 0 112.5 48t61.5 116q9 66 -22.5 114.5t-89.5 49.5
q-67 1 -119.5 -46t-63.5 -118z" />
    <glyph glyph-name="Abreve" unicode="&#x102;" horiz-adv-x="640" 
d="M298 935l70 -1q-2 -30 14 -52t55 -22q67 0 99 74h70q-16 -59 -61 -98.5t-113 -39.5q-69 0 -104 40t-30 99zM516 0l-51 210l-271 1l-123 -211h-96l443 736l190 -736h-92zM388 542l-147 -252h206z" />
    <glyph glyph-name="abreve" unicode="&#x103;" 
d="M168 670l69 -1q-1 -30 15.5 -52t55.5 -22q70 0 98 74l70 -1q-15 -59 -59.5 -98.5t-113.5 -39.5q-68 0 -103 40.5t-32 99.5zM45 230q15 103 89.5 172t171.5 68q106 -1 140 -104l16 94h76l-80 -460h-72l14 83q-68 -93 -170 -93q-95 0 -147 70t-38 170zM125 230
q-11 -69 22.5 -116.5t98.5 -47.5q61 0 112.5 48t61.5 116q9 66 -22.5 114.5t-89.5 49.5q-67 1 -119.5 -46t-63.5 -118z" />
    <glyph glyph-name="Aogonek" unicode="&#x104;" horiz-adv-x="640" 
d="M590 -130l25 -52q-42 -38 -91 -38q-54 -1 -82.5 27t-21.5 73q11 64 106 120h-10l-51 210l-271 1l-123 -211h-96l443 736l190 -735l2 -1q-101 -48 -109 -100q-5 -47 37 -50q21 -2 52 20zM388 542l-147 -252h206z" />
    <glyph glyph-name="aogonek" unicode="&#x105;" 
d="M45 230q15 103 89.5 172t171.5 68q106 -1 140 -104l16 94h76l-80 -459l1 -1q-100 -48 -108 -100q-5 -47 37 -50q21 -2 52 20l24 -52q-42 -38 -90 -38q-54 -1 -83 27t-22 73q11 68 118 127l13 76q-68 -93 -170 -93q-95 0 -147 70t-38 170zM125 230q-11 -69 22.5 -116.5
t98.5 -47.5q61 0 112.5 48t61.5 116q9 66 -22.5 114.5t-89.5 49.5q-67 1 -119.5 -46t-63.5 -118z" />
    <glyph glyph-name="Cacute" unicode="&#x106;" horiz-adv-x="664" 
d="M635 918l-199 -147l-41 31l171 158zM160 350q-17 -110 39.5 -191.5t161.5 -82.5q130 -1 239 102l-18 -112q-101 -76 -230 -76q-95 0 -165.5 51t-100.5 133t-16 176q23 150 137.5 254.5t262.5 105.5q126 0 208 -78l-18 -111q-68 103 -199 103q-109 0 -195.5 -80
t-105.5 -194z" />
    <glyph glyph-name="cacute" unicode="&#x107;" horiz-adv-x="463" 
d="M476 678l-199 -147l-41 31l171 158zM120 230q-11 -66 22.5 -114.5t99.5 -49.5q51 -1 97 22.5t75 59.5l-16 -100q-66 -58 -164 -58t-153 71t-41 169q15 101 92 170.5t178 69.5q94 0 148 -60l-16 -99q-15 38 -52 60.5t-86 22.5q-68 0 -120 -47.5t-64 -116.5z" />
    <glyph glyph-name="Ccircumflex" unicode="&#x108;" horiz-adv-x="664" 
d="M502 864l-124 -94l-44 42l178 138l134 -141l-54 -39zM160 350q-17 -110 39.5 -191.5t161.5 -82.5q130 -1 239 102l-18 -112q-101 -76 -230 -76q-95 0 -165.5 51t-100.5 133t-16 176q23 150 137.5 254.5t262.5 105.5q126 0 208 -78l-18 -111q-68 103 -199 103
q-109 0 -195.5 -80t-105.5 -194z" />
    <glyph glyph-name="ccircumflex" unicode="&#x109;" horiz-adv-x="463" 
d="M342 624l-124 -94l-44 42l178 138l134 -141l-54 -39zM120 230q-11 -66 22.5 -114.5t99.5 -49.5q51 -1 97 22.5t75 59.5l-16 -100q-66 -58 -164 -58t-153 71t-41 169q15 101 92 170.5t178 69.5q94 0 148 -60l-16 -99q-15 38 -52 60.5t-86 22.5q-68 0 -120 -47.5
t-64 -116.5z" />
    <glyph glyph-name="Cdotaccent" unicode="&#x10a;" horiz-adv-x="664" 
d="M438 826q2 21 21.5 38t40.5 16t34.5 -18t11.5 -38t-21.5 -38t-40.5 -16t-34.5 18t-11.5 38zM160 350q-17 -110 39.5 -191.5t161.5 -82.5q130 -1 239 102l-18 -112q-101 -76 -230 -76q-95 0 -165.5 51t-100.5 133t-16 176q23 150 137.5 254.5t262.5 105.5q126 0 208 -78
l-18 -111q-68 103 -199 103q-109 0 -195.5 -80t-105.5 -194z" />
    <glyph glyph-name="cdotaccent" unicode="&#x10b;" horiz-adv-x="463" 
d="M279 586q2 21 21.5 38t40.5 16t34 -18t11 -38t-21.5 -38t-40.5 -16t-34 18t-11 38zM120 230q-11 -66 22.5 -114.5t99.5 -49.5q51 -1 97 22.5t75 59.5l-16 -100q-66 -58 -164 -58t-153 71t-41 169q15 101 92 170.5t178 69.5q94 0 148 -60l-16 -99q-15 38 -52 60.5
t-86 22.5q-68 0 -120 -47.5t-64 -116.5z" />
    <glyph glyph-name="Ccaron" unicode="&#x10c;" horiz-adv-x="664" 
d="M494 856l124 94l44 -42l-178 -138l-134 141l54 39zM160 350q-17 -110 39.5 -191.5t161.5 -82.5q130 -1 239 102l-18 -112q-101 -76 -230 -76q-95 0 -165.5 51t-100.5 133t-16 176q23 150 137.5 254.5t262.5 105.5q126 0 208 -78l-18 -111q-68 103 -199 103
q-109 0 -195.5 -80t-105.5 -194z" />
    <glyph glyph-name="ccaron" unicode="&#x10d;" horiz-adv-x="463" 
d="M336 616l123 94l45 -42l-178 -138l-135 141l54 39zM120 230q-11 -66 22.5 -114.5t99.5 -49.5q51 -1 97 22.5t75 59.5l-16 -100q-66 -58 -164 -58t-153 71t-41 169q15 101 92 170.5t178 69.5q94 0 148 -60l-16 -99q-15 38 -52 60.5t-86 22.5q-68 0 -120 -47.5t-64 -116.5z
" />
    <glyph glyph-name="Dcaron" unicode="&#x10e;" horiz-adv-x="659" 
d="M436 856l124 94l44 -42l-178 -138l-134 141l54 39zM258 0h-207l117 700h202q148 -3 226.5 -103.5t57.5 -246.5q-23 -151 -133.5 -249.5t-262.5 -100.5zM362 615h-123l-91 -530h118q118 2 201 75.5t103 189.5q18 112 -38.5 187t-169.5 78z" />
    <glyph glyph-name="dcaron" unicode="&#x10f;" 
d="M45 230q15 103 89.5 172t171.5 68q102 -1 137 -96l69 406h81l-135 -780h-78l12 73q-65 -83 -162 -83q-95 0 -147 70t-38 170zM704 779l76 -31l-150 -247l-55 21zM125 230q-11 -69 22.5 -116.5t98.5 -47.5q55 0 103.5 40t65.5 101l6 38q5 61 -27 104.5t-86 44.5
q-67 1 -119.5 -46t-63.5 -118z" />
    <glyph glyph-name="Dcroat" unicode="&#x110;" horiz-adv-x="659" 
d="M258 0h-207l52 310h-72l13 75h71l53 315h202q148 -3 226.5 -103.5t57.5 -246.5q-23 -151 -133.5 -249.5t-262.5 -100.5zM324 310h-137l-39 -225h118q118 2 201 75.5t103 189.5q18 112 -38.5 187t-169.5 78h-123l-39 -230h136z" />
    <glyph glyph-name="dcroat" unicode="&#x111;" 
d="M45 230q15 103 89.5 172t171.5 68q102 -1 137 -96l37 216h-120l12 75h121l19 115h81l-20 -115h93l-14 -75h-92l-102 -590h-78l12 73q-65 -83 -162 -83q-95 0 -147 70t-38 170zM125 230q-11 -69 22.5 -116.5t98.5 -47.5q55 0 103.5 40t65.5 101l6 38q5 61 -27 104.5
t-86 44.5q-67 1 -119.5 -46t-63.5 -118z" />
    <glyph glyph-name="Emacron" unicode="&#x112;" horiz-adv-x="533" 
d="M206 770l13 75h341l-12 -75h-342zM168 700h392l-14 -80h-306l-34 -200h286l-13 -80h-287l-45 -260h307l-14 -80h-389z" />
    <glyph glyph-name="emacron" unicode="&#x113;" horiz-adv-x="499" 
d="M149 530l13 75h340l-12 -75h-341zM450 106q-47 -56 -101.5 -86.5t-128.5 -29.5q-62 1 -105.5 35.5t-60.5 88t-9 116.5q3 25 12 49q26 83 94.5 137t154.5 54q96 0 141.5 -67.5t32.5 -168.5q-2 -16 -4 -24h-353q-5 -63 23.5 -103t89.5 -41q85 -1 155 82zM299 400
q-56 1 -100.5 -33.5t-61.5 -88.5h263q1 54 -23 87.5t-78 34.5z" />
    <glyph glyph-name="Ebreve" unicode="&#x114;" horiz-adv-x="533" 
d="M246 910h68q-2 -30 14 -52t56 -22q67 0 99 74l71 -1q-16 -59 -61.5 -99t-114.5 -40t-103 40.5t-29 99.5zM168 700h392l-14 -80h-306l-34 -200h286l-13 -80h-287l-45 -260h307l-14 -80h-389z" />
    <glyph glyph-name="ebreve" unicode="&#x115;" horiz-adv-x="499" 
d="M188 670h70q-2 -30 14 -52t55 -22q67 0 99 74l70 -1q-16 -59 -61.5 -99t-113.5 -40q-69 0 -103.5 40.5t-29.5 99.5zM450 106q-47 -56 -101.5 -86.5t-128.5 -29.5q-62 1 -105.5 35.5t-60.5 88t-9 116.5q3 25 12 49q26 83 94.5 137t154.5 54q96 0 141.5 -67.5t32.5 -168.5
q-2 -16 -4 -24h-353q-5 -63 23.5 -103t89.5 -41q85 -1 155 82zM299 400q-56 1 -100.5 -33.5t-61.5 -88.5h263q1 54 -23 87.5t-78 34.5z" />
    <glyph glyph-name="Edotaccent" unicode="&#x116;" horiz-adv-x="533" 
d="M332 826q2 21 21.5 38t40.5 16t34.5 -18t11.5 -38t-22 -38t-41 -16t-34 18t-11 38zM168 700h392l-14 -80h-306l-34 -200h286l-13 -80h-287l-45 -260h307l-14 -80h-389z" />
    <glyph glyph-name="edotaccent" unicode="&#x117;" horiz-adv-x="499" 
d="M274 586q2 21 21.5 38t40.5 16t34.5 -18t11.5 -38t-21.5 -38t-40.5 -16t-34.5 18t-11.5 38zM450 106q-47 -56 -101.5 -86.5t-128.5 -29.5q-62 1 -105.5 35.5t-60.5 88t-9 116.5q3 25 12 49q26 83 94.5 137t154.5 54q96 0 141.5 -67.5t32.5 -168.5q-2 -16 -4 -24h-353
q-5 -63 23.5 -103t89.5 -41q85 -1 155 82zM299 400q-56 1 -100.5 -33.5t-61.5 -88.5h263q1 54 -23 87.5t-78 34.5z" />
    <glyph glyph-name="Eogonek" unicode="&#x118;" horiz-adv-x="533" 
d="M304 -130l24 -52q-42 -38 -90 -38q-54 -1 -83 27t-22 73q11 64 106 120h-188l117 700h392l-14 -80h-306l-34 -200h286l-13 -80h-287l-45 -260h307l-14 -80h-117q-100 -48 -108 -100q-5 -47 37 -50q21 -2 52 20z" />
    <glyph glyph-name="eogonek" unicode="&#x119;" horiz-adv-x="499" 
d="M240 -131l24 -51q-42 -38 -90 -38q-54 -1 -83 27t-22 73q10 61 101 117q-69 20 -102.5 85.5t-22.5 147.5q3 25 12 49q26 83 94.5 137t154.5 54q96 0 141.5 -67.5t32.5 -168.5q-2 -16 -4 -24h-353q-5 -63 23.5 -103t89.5 -41q85 -1 155 82l59 -42q-90 -108 -205 -115
q-88 -43 -95 -92q-5 -46 37 -49q23 -2 53 19zM299 400q-56 1 -100.5 -33.5t-61.5 -88.5h263q1 54 -23 87.5t-78 34.5z" />
    <glyph glyph-name="Ecaron" unicode="&#x11a;" horiz-adv-x="533" 
d="M388 856l124 94l44 -42l-178 -138l-134 141l54 39zM168 700h392l-14 -80h-306l-34 -200h286l-13 -80h-287l-45 -260h307l-14 -80h-389z" />
    <glyph glyph-name="ecaron" unicode="&#x11b;" horiz-adv-x="499" 
d="M330 616l124 94l44 -42l-178 -138l-134 141l54 39zM450 106q-47 -56 -101.5 -86.5t-128.5 -29.5q-62 1 -105.5 35.5t-60.5 88t-9 116.5q3 25 12 49q26 83 94.5 137t154.5 54q96 0 141.5 -67.5t32.5 -168.5q-2 -16 -4 -24h-353q-5 -63 23.5 -103t89.5 -41q85 -1 155 82z
M299 400q-56 1 -100.5 -33.5t-61.5 -88.5h263q1 54 -23 87.5t-78 34.5z" />
    <glyph glyph-name="Gcircumflex" unicode="&#x11c;" horiz-adv-x="752" 
d="M506 864l-124 -94l-44 42l178 138l134 -141l-53 -39zM412 275l14 80l316 -1q-27 -151 -130 -257.5t-254 -106.5q-98 0 -169.5 50.5t-102 132.5t-16.5 177q24 152 138 256t266 104q184 0 261 -150l-67 -54q-56 118 -202 118q-113 0 -199.5 -79t-106.5 -195
q-17 -112 40 -193t166 -81q96 0 166 56t108 143h-228z" />
    <glyph glyph-name="gcircumflex" unicode="&#x11d;" 
d="M338 624l-124 -94l-44 42l178 138l134 -141l-54 -39zM10 -30h78q-4 -53 27.5 -88.5t92.5 -35.5q62 -1 111.5 45t61.5 119l11 62q-66 -82 -162 -82q-95 0 -147 70t-38 170q15 103 89.5 172t171.5 68q102 -1 137 -96l15 86h80l-77 -450q-16 -105 -90.5 -172.5t-170.5 -67.5
q-95 0 -147 56t-43 144zM125 230q-11 -69 22.5 -116.5t98.5 -47.5q54 0 102.5 39.5t65.5 98.5l8 43q3 61 -28.5 103.5t-85.5 43.5q-67 1 -119.5 -46t-63.5 -118z" />
    <glyph glyph-name="Gbreve" unicode="&#x11e;" horiz-adv-x="752" 
d="M358 910h68q-2 -30 14 -52t56 -22q67 0 99 74l71 -1q-16 -59 -61.5 -99t-114.5 -40t-103 40.5t-29 99.5zM412 275l14 80l316 -1q-27 -151 -130 -257.5t-254 -106.5q-98 0 -169.5 50.5t-102 132.5t-16.5 177q24 152 138 256t266 104q184 0 261 -150l-67 -54
q-56 118 -202 118q-113 0 -199.5 -79t-106.5 -195q-17 -112 40 -193t166 -81q96 0 166 56t108 143h-228z" />
    <glyph glyph-name="gbreve" unicode="&#x11f;" 
d="M188 670h70q-2 -30 14 -52t55 -22q67 0 99 74l70 -1q-16 -59 -61.5 -99t-113.5 -40q-69 0 -103.5 40.5t-29.5 99.5zM10 -30h78q-4 -53 27.5 -88.5t92.5 -35.5q62 -1 111.5 45t61.5 119l11 62q-66 -82 -162 -82q-95 0 -147 70t-38 170q15 103 89.5 172t171.5 68
q102 -1 137 -96l15 86h80l-77 -450q-16 -105 -90.5 -172.5t-170.5 -67.5q-95 0 -147 56t-43 144zM125 230q-11 -69 22.5 -116.5t98.5 -47.5q54 0 102.5 39.5t65.5 98.5l8 43q3 61 -28.5 103.5t-85.5 43.5q-67 1 -119.5 -46t-63.5 -118z" />
    <glyph glyph-name="Gdotaccent" unicode="&#x120;" horiz-adv-x="752" 
d="M443 826q2 21 21.5 38t40.5 16t34.5 -18t11.5 -38t-21.5 -38t-40.5 -16t-34.5 18t-11.5 38zM412 275l14 80l316 -1q-27 -151 -130 -257.5t-254 -106.5q-98 0 -169.5 50.5t-102 132.5t-16.5 177q24 152 138 256t266 104q184 0 261 -150l-67 -54q-56 118 -202 118
q-113 0 -199.5 -79t-106.5 -195q-17 -112 40 -193t166 -81q96 0 166 56t108 143h-228z" />
    <glyph glyph-name="gdotaccent" unicode="&#x121;" 
d="M300 626q2 21 21.5 38t40.5 16t34.5 -18t11.5 -38t-21.5 -38t-40.5 -16t-34.5 18t-11.5 38zM10 -30h78q-4 -53 27.5 -88.5t92.5 -35.5q62 -1 111.5 45t61.5 119l11 62q-66 -82 -162 -82q-95 0 -147 70t-38 170q15 103 89.5 172t171.5 68q102 -1 137 -96l15 86h80
l-77 -450q-16 -105 -90.5 -172.5t-170.5 -67.5q-95 0 -147 56t-43 144zM125 230q-11 -69 22.5 -116.5t98.5 -47.5q54 0 102.5 39.5t65.5 98.5l8 43q3 61 -28.5 103.5t-85.5 43.5q-67 1 -119.5 -46t-63.5 -118z" />
    <glyph glyph-name="uni0122" unicode="&#x122;" horiz-adv-x="752" 
d="M412 275l14 80l316 -1q-27 -151 -130 -257.5t-254 -106.5q-98 0 -169.5 50.5t-102 132.5t-16.5 177q24 152 138 256t266 104q184 0 261 -150l-67 -54q-56 118 -202 118q-113 0 -199.5 -79t-106.5 -195q-17 -112 40 -193t166 -81q96 0 166 56t108 143h-228zM346 -71
l76 -31l-150 -247l-54 21z" />
    <glyph glyph-name="uni0123" unicode="&#x123;" 
d="M344 546l-71 45l181 226l51 -31zM9 -30h79q-4 -53 26.5 -88t91.5 -36q62 -1 112 45t62 119l10 60q-64 -80 -159 -80q-96 -1 -148.5 69.5t-38.5 170.5q14 103 88.5 172t171.5 68q102 -1 139 -97l15 87h80l-76 -450q-16 -105 -90 -172.5t-170 -67.5q-95 0 -148 56t-45 144z
M126 230q-11 -69 21.5 -116.5t96.5 -47.5q56 0 105 41.5t66 102.5l5 33q5 62 -25.5 106t-84.5 45q-67 1 -119.5 -46t-64.5 -118z" />
    <glyph glyph-name="Hcircumflex" unicode="&#x124;" horiz-adv-x="693" 
d="M470 864l-123 -94l-45 42l178 138l134 -141l-53 -39zM168 700h86l-48 -280h371l47 280h86l-121 -700h-82l57 340h-372l-59 -340h-82z" />
    <glyph glyph-name="hcircumflex" unicode="&#x125;" horiz-adv-x="509" 
d="M254 934l-124 -94l-44 42l178 138l134 -141l-54 -39zM380 280q14 111 -73 114q-50 1 -86 -31.5t-48 -78.5l-49 -284h-80l134 780h80l-65 -380q58 70 141 70q72 0 103.5 -50.5t22.5 -129.5l-50 -290h-78z" />
    <glyph glyph-name="Hbar" unicode="&#x126;" horiz-adv-x="693" 
d="M70 540l12 75h72l14 85h87l-15 -85h370l14 85h87l-15 -85h73l-12 -75h-74l-93 -540h-83l57 340h-372l-59 -340h-82l90 540h-71zM206 420h371l20 120h-370z" />
    <glyph glyph-name="hbar" unicode="&#x127;" horiz-adv-x="509" 
d="M380 280q14 111 -72 114q-50 1 -86.5 -31.5t-48.5 -79.5l-49 -283h-80l108 626h-67l12 74h67l14 80h80l-14 -80h158l-12 -74h-158l-41 -233q57 77 141 77q72 0 104.5 -50.5t23.5 -129.5l-50 -290h-78z" />
    <glyph glyph-name="Itilde" unicode="&#x128;" horiz-adv-x="237" 
d="M69 808q16 34 47.5 57.5t65.5 22.5q26 -1 57.5 -24t54.5 -22q25 1 64 48l40 -44q-20 -30 -50 -51.5t-64 -20.5q-23 1 -55.5 24t-53.5 22q-37 -1 -59 -50zM168 700h86l-121 -700h-82z" />
    <glyph glyph-name="itilde" unicode="&#x129;" horiz-adv-x="252" 
d="M35 568q16 34 47.5 57.5t65.5 22.5q26 -1 57.5 -24t54.5 -22q25 1 64 48l40 -44q-20 -30 -50 -51.5t-64 -20.5q-23 1 -55.5 24t-53.5 22q-37 -1 -59 -50zM137 460h81l-80 -460h-78z" />
    <glyph glyph-name="Imacron" unicode="&#x12a;" horiz-adv-x="237" 
d="M54 770l12 75h342l-13 -75h-341zM168 700h86l-121 -700h-82z" />
    <glyph glyph-name="imacron" unicode="&#x12b;" horiz-adv-x="252" 
d="M20 530l12 75h342l-13 -75h-341zM137 460h81l-80 -460h-78z" />
    <glyph glyph-name="Ibreve" unicode="&#x12c;" horiz-adv-x="237" 
d="M94 910h68q-2 -30 14 -52t56 -22q67 0 99 74l71 -1q-16 -59 -61.5 -99t-114.5 -40t-103 40.5t-29 99.5zM168 700h86l-121 -700h-82z" />
    <glyph glyph-name="ibreve" unicode="&#x12d;" horiz-adv-x="252" 
d="M59 670h69q-2 -30 14 -52t56 -22q66 0 98 74l71 -1q-16 -59 -61.5 -99t-113.5 -40q-69 0 -103.5 40.5t-29.5 99.5zM137 460h81l-80 -460h-78z" />
    <glyph glyph-name="Iogonek" unicode="&#x12e;" horiz-adv-x="237" 
d="M114 -130l26 -52q-42 -38 -91 -38q-54 -1 -83 27t-22 73q11 64 107 120l117 700h86l-121 -699l1 -1q-100 -48 -108 -100q-5 -47 36 -50q21 -2 52 20z" />
    <glyph glyph-name="iogonek" unicode="&#x12f;" horiz-adv-x="252" 
d="M156 651q2 21 21.5 37.5t40.5 15.5q21 -2 34.5 -18t11.5 -37t-21.5 -37.5t-40.5 -15.5q-21 2 -34.5 18t-11.5 37zM120 -130l24 -52q-42 -38 -90 -38q-54 -1 -83.5 27t-22.5 73q11 64 113 123l76 457h81l-80 -460q-100 -48 -108 -100q-5 -47 37 -50q22 -2 53 20z" />
    <glyph glyph-name="Idotaccent" unicode="&#x130;" horiz-adv-x="237" 
d="M178 826q2 21 21.5 38t40.5 16t34.5 -18t11.5 -38t-21.5 -38t-40.5 -16t-34.5 18t-11.5 38zM168 700h86l-121 -700h-82z" />
    <glyph glyph-name="dotlessi" unicode="&#x131;" horiz-adv-x="252" 
d="M137 460h81l-80 -460h-78z" />
    <glyph glyph-name="IJ" unicode="&#x132;" horiz-adv-x="475" 
d="M130 -104q25 -37 70 -36q30 2 54 26.5t30 63.5l128 750h80l-130 -760q-12 -74 -58 -117.5t-116 -42.5q-67 0 -110 51zM168 700h86l-121 -700h-82z" />
    <glyph glyph-name="ij" unicode="&#x133;" horiz-adv-x="494" 
d="M156 651q2 21 21.5 37.5t40.5 15.5q21 -2 34.5 -18t11.5 -37t-21.5 -37.5t-40.5 -15.5q-21 2 -34.5 18t-11.5 37zM398 651q2 20 22 37t41 16t34 -17.5t11 -37.5t-21.5 -37.5t-40.5 -15.5q-21 2 -34.5 18t-11.5 37zM187 -114q26 -26 43 -26q25 -1 41.5 25t21.5 65l88 510
h79l-88 -520q-11 -72 -51.5 -116.5t-104.5 -43.5q-48 0 -82 42zM137 460h81l-80 -460h-78z" />
    <glyph glyph-name="Jcircumflex" unicode="&#x134;" horiz-adv-x="232" 
d="M240 864l-124 -94l-44 42l178 138l134 -141l-54 -39zM-112 -104q25 -37 70 -36q30 2 53.5 26.5t29.5 63.5l129 750h79l-129 -760q-12 -73 -59 -117t-117 -43q-65 0 -108 51z" />
    <glyph glyph-name="jcircumflex" unicode="&#x135;" horiz-adv-x="242" 
d="M198 624l-123 -94l-45 42l178 138l134 -141l-53 -39zM-65 -114q17 -26 43 -26t42 25t21 65l87 510h80l-88 -520q-11 -72 -51.5 -116.5t-104.5 -43.5q-48 0 -82 42z" />
    <glyph glyph-name="uni0136" unicode="&#x136;" horiz-adv-x="548" 
d="M168 700h86l-52 -298l315 298h107l-354 -330l245 -370h-99l-224 340l-59 -340h-82zM275 -61l77 -31l-150 -247l-56 21z" />
    <glyph glyph-name="uni0137" unicode="&#x137;" horiz-adv-x="426" 
d="M360 460h102l-230 -192l166 -268h-94l-145 235l-41 -235h-77l131 780h82l-84 -479zM212 -61l76 -31l-150 -247l-54 21z" />
    <glyph glyph-name="kgreenlandic" unicode="&#x138;" horiz-adv-x="426" 
d="M118 460h80l-28 -159l190 159h102l-230 -192l166 -268h-94l-145 235l-41 -235h-77z" />
    <glyph glyph-name="Lacute" unicode="&#x139;" horiz-adv-x="436" 
d="M509 918l-199 -147l-42 31l172 158zM170 700h84l-106 -620h266l-14 -80h-350z" />
    <glyph glyph-name="lacute" unicode="&#x13a;" horiz-adv-x="223" 
d="M380 988l-198 -147l-42 31l172 158zM178 780h80l-135 -780h-77z" />
    <glyph glyph-name="uni013B" unicode="&#x13b;" horiz-adv-x="436" 
d="M170 700h84l-106 -620h266l-14 -80h-350zM217 -61l76 -31l-149 -247l-56 21z" />
    <glyph glyph-name="uni013C" unicode="&#x13c;" horiz-adv-x="223" 
d="M178 780h80l-135 -780h-77zM76 -61l76 -31l-150 -247l-54 21z" />
    <glyph glyph-name="Lcaron" unicode="&#x13d;" horiz-adv-x="436" 
d="M410 709l76 -31l-149 -247l-55 21zM170 700h84l-106 -620h266l-14 -80h-350z" />
    <glyph glyph-name="lcaron" unicode="&#x13e;" horiz-adv-x="223" 
d="M178 780h80l-135 -780h-77zM388 779l76 -31l-149 -247l-55 21z" />
    <glyph glyph-name="Ldot" unicode="&#x13f;" horiz-adv-x="436" 
d="M170 700h84l-106 -620h266l-14 -80h-350zM290 416q2 21 21.5 38t40.5 16t34.5 -18t11.5 -38t-21.5 -38t-40.5 -16t-34.5 18t-11.5 38z" />
    <glyph glyph-name="ldot" unicode="&#x140;" horiz-adv-x="359" 
d="M178 780h80l-135 -780h-77zM252 416q2 21 21.5 38t40.5 16t34.5 -18t11.5 -38t-21.5 -38t-40.5 -16t-34.5 18t-11.5 38z" />
    <glyph glyph-name="Lslash" unicode="&#x141;" horiz-adv-x="436" 
d="M36 340l-10 56l102 59l42 245h84l-33 -191l95 55l12 -55l-118 -69l-62 -360h266l-14 -80h-350l66 386z" />
    <glyph glyph-name="lslash" unicode="&#x142;" horiz-adv-x="223" 
d="M36 340l-10 56l96 53l56 331h80l-49 -283l85 47l10 -55l-107 -59l-74 -430h-77l65 381z" />
    <glyph glyph-name="Nacute" unicode="&#x143;" horiz-adv-x="752" 
d="M672 902l-200 -146l-41 30l172 158zM684 700h84l-126 -734l-418 556l-90 -522h-85l126 734l419 -556z" />
    <glyph glyph-name="nacute" unicode="&#x144;" horiz-adv-x="509" 
d="M480 678l-199 -148l-41 32l172 158zM380 280q14 111 -73 114q-50 1 -86 -31.5t-48 -79.5l-49 -283h-80l80 460h79l-12 -70q57 80 143 80q72 0 103.5 -50.5t22.5 -129.5l-50 -290h-78z" />
    <glyph glyph-name="uni0145" unicode="&#x145;" horiz-adv-x="752" 
d="M684 700h84l-126 -734l-418 556l-90 -522h-85l126 734l419 -556zM352 -36l76 -31l-150 -247l-54 21z" />
    <glyph glyph-name="uni0146" unicode="&#x146;" horiz-adv-x="509" 
d="M380 280q14 111 -73 114q-50 1 -86 -31.5t-48 -79.5l-49 -283h-80l80 460h79l-10 -60q58 70 141 70q72 0 103.5 -50.5t22.5 -129.5l-50 -290h-78zM219 -61l76 -31l-149 -247l-56 21z" />
    <glyph glyph-name="Ncaron" unicode="&#x147;" horiz-adv-x="752" 
d="M508 880l124 94l44 -40l-178 -139l-134 141l54 38zM684 700h84l-126 -734l-418 556l-90 -522h-85l126 734l419 -556z" />
    <glyph glyph-name="ncaron" unicode="&#x148;" horiz-adv-x="509" 
d="M330 616l124 94l44 -42l-178 -138l-134 141l53 39zM380 280q14 111 -73 114q-50 1 -86 -31.5t-48 -79.5l-49 -283h-80l80 460h79l-10 -60q58 70 141 70q72 0 103.5 -50.5t22.5 -129.5l-50 -290h-78z" />
    <glyph glyph-name="napostrophe" unicode="&#x149;" horiz-adv-x="616" 
d="M217 700h97l-138 -229h-56zM310 460l-10 -59q58 69 140 69q72 0 103.5 -50.5t22.5 -129.5l-50 -290h-77l47 280q14 111 -72 114q-48 1 -84 -29.5t-50 -76.5l-50 -288h-79l79 460h80z" />
    <glyph glyph-name="Eng" unicode="&#x14a;" horiz-adv-x="775" 
d="M480 -220q-57 0 -81 40l55 66q13 -26 44 -26q50 0 64 90l16 99l-371 472l-87 -521h-85l123 735l437 -556l87 521h85l-127 -760q-13 -76 -55 -118t-105 -42z" />
    <glyph glyph-name="eng" unicode="&#x14b;" horiz-adv-x="525" 
d="M235 -220q-59 0 -81 40l55 66q12 -26 45 -26q47 0 62 90l56 330q18 115 -79 115q-51 0 -89 -32t-47 -83l-47 -280h-80l77 460h80l-12 -72q60 82 151 82q75 0 108.5 -47.5t19.5 -132.5l-59 -350q-27 -160 -160 -160z" />
    <glyph glyph-name="Omacron" unicode="&#x14c;" horiz-adv-x="766" 
d="M318 770l12 75h342l-13 -75h-341zM70 350q23 150 138 255t266 105q98 0 169.5 -51t102 -133t16.5 -176q-23 -150 -138 -255t-266 -105q-98 0 -169.5 51t-102 133t-16.5 176zM160 350q-17 -111 39 -192t167 -82q114 -1 200.5 79t105.5 195q17 111 -39 192t-167 82
q-114 1 -200.5 -79t-105.5 -195z" />
    <glyph glyph-name="omacron" unicode="&#x14d;" horiz-adv-x="529" 
d="M159 530l12 75h341l-12 -75h-341zM45 230q15 100 92 170t178 70q98 0 153 -71t41 -169q-15 -100 -92 -170t-178 -70q-98 0 -153 71t-41 169zM125 230q-11 -66 22.5 -115t98.5 -49q68 0 120 47.5t63 116.5q11 66 -22.5 115t-98.5 49q-68 0 -120 -47.5t-63 -116.5z" />
    <glyph glyph-name="Obreve" unicode="&#x14e;" horiz-adv-x="766" 
d="M358 910h68q-2 -30 14 -52t56 -22q67 0 99 74l71 -1q-16 -59 -61.5 -99t-114.5 -40t-103 40.5t-29 99.5zM70 350q23 150 138 255t266 105q98 0 169.5 -51t102 -133t16.5 -176q-23 -150 -138 -255t-266 -105q-98 0 -169.5 51t-102 133t-16.5 176zM160 350
q-17 -111 39 -192t167 -82q114 -1 200.5 79t105.5 195q17 111 -39 192t-167 82q-114 1 -200.5 -79t-105.5 -195z" />
    <glyph glyph-name="obreve" unicode="&#x14f;" horiz-adv-x="529" 
d="M198 670h69q-2 -30 14 -52t55 -22q68 0 100 74l70 -1q-16 -59 -61.5 -99t-113.5 -40q-69 0 -103.5 40.5t-29.5 99.5zM45 230q15 100 92 170t178 70q98 0 153 -71t41 -169q-15 -100 -92 -170t-178 -70q-98 0 -153 71t-41 169zM125 230q-11 -66 22.5 -115t98.5 -49
q68 0 120 47.5t63 116.5q11 66 -22.5 115t-98.5 49q-68 0 -120 -47.5t-63 -116.5z" />
    <glyph glyph-name="Ohungarumlaut" unicode="&#x150;" horiz-adv-x="766" 
d="M402 770l-55 20l129 194l85 -22zM566 770l-54 20l128 194l87 -22zM70 350q23 150 138 255t266 105q98 0 169.5 -51t102 -133t16.5 -176q-23 -150 -138 -255t-266 -105q-98 0 -169.5 51t-102 133t-16.5 176zM160 350q-17 -111 39 -192t167 -82q114 -1 200.5 79t105.5 195
q17 111 -39 192t-167 82q-114 1 -200.5 -79t-105.5 -195z" />
    <glyph glyph-name="ohungarumlaut" unicode="&#x151;" horiz-adv-x="529" 
d="M246 529l-55 20l129 194l85 -22zM410 529l-54 20l128 194l87 -22zM52 230q14 100 90 170t176 70q98 0 154 -71t43 -169q-14 -100 -90 -170t-176 -70q-98 0 -154 71t-43 169zM131 230q-9 -67 25 -115.5t99 -48.5q67 0 118.5 47.5t62.5 116.5q9 66 -25.5 115t-99.5 49
q-67 0 -118 -47.5t-62 -116.5z" />
    <glyph glyph-name="OE" unicode="&#x152;" horiz-adv-x="955" 
d="M875 80l-13 -80h-508q-148 3 -226.5 103.5t-57.5 246.5q23 151 134.5 249.5t263.5 100.5h514l-15 -80h-305l-34 -200h286l-13 -80h-287l-45 -260h306zM362 80h124l92 540h-118q-117 -2 -201.5 -77.5t-104.5 -192.5q-18 -112 38.5 -189.5t169.5 -80.5z" />
    <glyph glyph-name="oe" unicode="&#x153;" horiz-adv-x="873" 
d="M45 230q15 102 89.5 171t171.5 69q66 0 105.5 -37t52.5 -99q35 62 94 99.5t130 36.5q87 -1 131.5 -70t33.5 -166q-1 -8 -5 -24h-352q-5 -63 24 -103t90 -41q84 -1 154 82l60 -42q-100 -116 -221 -116q-65 1 -109 38.5t-60 97.5q-31 -63 -83.5 -99.5t-120.5 -36.5
q-95 0 -147 70t-38 170zM673 400q-56 1 -100.5 -33.5t-61.5 -88.5h263q2 53 -22.5 87t-78.5 35zM125 230q-11 -69 22.5 -116.5t98.5 -47.5q59 0 106 47.5t58 116.5q9 67 -18.5 115t-83.5 49q-67 1 -119.5 -46t-63.5 -118z" />
    <glyph glyph-name="Racute" unicode="&#x154;" horiz-adv-x="543" 
d="M524 918l-200 -147l-41 31l172 158zM168 700h184q97 -2 154.5 -60.5t43.5 -149.5q-12 -77 -66 -130.5t-132 -71.5l154 -288h-100l-143 280h-82l-48 -280h-82zM344 624l-103 1l-47 -270h98q67 2 115 37.5t59 97.5q10 60 -24 96t-98 38z" />
    <glyph glyph-name="racute" unicode="&#x155;" horiz-adv-x="332" 
d="M416 678l-200 -148l-40 32l172 158zM324 372q-30 23 -56 23q-40 1 -62 -29t-33 -78l-49 -288h-80l80 460h79l-8 -46q48 56 101 56q43 0 80 -34z" />
    <glyph glyph-name="uni0156" unicode="&#x156;" horiz-adv-x="543" 
d="M168 700h184q97 -2 154.5 -60.5t43.5 -149.5q-12 -77 -66 -130.5t-132 -71.5l154 -288h-100l-143 280h-82l-48 -280h-82zM344 624l-103 1l-47 -270h98q67 2 115 37.5t59 97.5q10 60 -24 96t-98 38zM270 -61l76 -31l-149 -247l-55 21z" />
    <glyph glyph-name="uni0157" unicode="&#x157;" horiz-adv-x="332" 
d="M324 372q-30 23 -56 23q-40 1 -62 -29t-33 -78l-49 -288h-80l80 460h79l-8 -46q48 56 101 56q43 0 80 -34zM76 -61l76 -31l-150 -247l-54 21z" />
    <glyph glyph-name="Rcaron" unicode="&#x158;" horiz-adv-x="543" 
d="M364 856l124 94l44 -42l-178 -138l-134 141l54 39zM168 700h184q97 -2 154.5 -60.5t43.5 -149.5q-12 -77 -66 -130.5t-132 -71.5l154 -288h-100l-143 280h-82l-48 -280h-82zM344 624l-103 1l-47 -270h98q67 2 115 37.5t59 97.5q10 60 -24 96t-98 38z" />
    <glyph glyph-name="rcaron" unicode="&#x159;" horiz-adv-x="332" 
d="M275 616l124 94l44 -42l-178 -138l-134 141l54 39zM324 372q-30 23 -56 23q-40 1 -62 -29t-33 -78l-49 -288h-80l80 460h79l-8 -46q48 56 101 56q43 0 80 -34z" />
    <glyph glyph-name="Sacute" unicode="&#x15a;" horiz-adv-x="531" 
d="M575 918l-199 -147l-42 31l172 158zM119 226q22 -74 55.5 -115t93.5 -41q55 0 92 31t46 82q10 58 -26 92.5t-104 62.5q-157 68 -140 198q12 77 76.5 125.5t148.5 48.5q72 0 120.5 -43.5t66.5 -107.5l-74 -45q-19 52 -45 82.5t-75 31.5q-50 0 -87.5 -27.5t-44.5 -71.5
q-5 -25 4 -45.5t33 -37t42 -26t53 -24.5q157 -69 140 -206q-13 -89 -77.5 -144.5t-160.5 -55.5q-82 0 -137 54t-77 140z" />
    <glyph glyph-name="sacute" unicode="&#x15b;" horiz-adv-x="391" 
d="M462 678l-200 -147l-41 31l171 158zM88 160q6 -42 31 -68t66 -26q35 0 60 15t30 43q3 17 -2 31.5t-20.5 25.5t-27 17.5t-33.5 16.5q-55 26 -85 56t-23 79q8 53 57 86.5t107 33.5q52 0 93 -24.5t55 -66.5l-67 -39q-36 54 -89 54q-29 0 -51.5 -13t-26.5 -37q-1 -8 1 -15.5
t8.5 -14.5t12 -12t17 -10.5t18 -9t20 -9t17.5 -7.5q112 -54 102 -136q-9 -67 -61 -104t-124 -36q-62 0 -105 38t-50 96z" />
    <glyph glyph-name="Scircumflex" unicode="&#x15c;" horiz-adv-x="531" 
d="M393 864l-124 -94l-44 42l178 138l134 -141l-53 -39zM119 226q22 -74 55.5 -115t93.5 -41q55 0 92 31t46 82q10 58 -26 92.5t-104 62.5q-157 68 -140 198q12 77 76.5 125.5t148.5 48.5q72 0 120.5 -43.5t66.5 -107.5l-74 -45q-19 52 -45 82.5t-75 31.5q-50 0 -87.5 -27.5
t-44.5 -71.5q-5 -25 4 -45.5t33 -37t42 -26t53 -24.5q157 -69 140 -206q-13 -89 -77.5 -144.5t-160.5 -55.5q-82 0 -137 54t-77 140z" />
    <glyph glyph-name="scircumflex" unicode="&#x15d;" horiz-adv-x="391" 
d="M279 624l-123 -94l-45 42l178 138l134 -141l-53 -39zM88 160q6 -42 31.5 -68t66.5 -26q35 0 59.5 15t29.5 43q3 17 -2 31.5t-20.5 25.5t-27 17.5t-33.5 16.5q-55 26 -85 56t-23 79q8 53 57 86.5t107 33.5q52 0 93 -24.5t55 -66.5l-67 -39q-36 54 -89 54q-29 0 -51.5 -13
t-26.5 -37q-1 -8 1 -15.5t8.5 -14.5t12 -12t17 -10.5t18 -9t20 -9t17.5 -7.5q112 -54 102 -136q-9 -67 -61 -104t-124 -36q-62 0 -105 38t-50 96z" />
    <glyph glyph-name="Scedilla" unicode="&#x15e;" horiz-adv-x="531" 
d="M119 226q22 -74 55.5 -115t93.5 -41q55 0 92 31t46 82q10 58 -26 92.5t-104 62.5q-71 30 -110.5 73t-29.5 119q12 79 75 129.5t150 50.5q136 0 187 -151l-73 -45q-43 114 -131 114q-48 0 -81 -27.5t-41 -71.5q-4 -25 4.5 -45.5t32.5 -37.5t42 -26t53 -24
q157 -69 140 -206q-12 -81 -69.5 -135.5t-140.5 -62.5l-32 -45h6q29 -3 46.5 -23t13.5 -52q-5 -41 -40 -66.5t-77 -25.5q-43 0 -83 38l38 38q26 -23 50 -23q21 0 38.5 12t19.5 29q2 16 -9.5 25.5t-31.5 9.5q-24 1 -61 -17l66 100q-70 9 -117.5 61.5t-68.5 130.5z" />
    <glyph glyph-name="scedilla" unicode="&#x15f;" horiz-adv-x="391" 
d="M84 162q42 -95 106 -96q31 -1 56 14t29 42q3 17 -2.5 31t-20.5 25t-26.5 17.5t-33.5 16.5q-29 14 -45 23t-35 25t-25.5 38t-2.5 50q9 57 56.5 89.5t107.5 32.5q51 0 89.5 -24.5t58.5 -65.5l-67 -40q-39 58 -88 58q-30 0 -53 -12t-27 -36q-2 -13 2.5 -23.5t17 -19
t21.5 -13.5t28.5 -12.5t25.5 -10.5q114 -53 102 -141q-8 -58 -47.5 -93t-97.5 -43l-34 -46h6q29 -3 47 -23t15 -52q-4 -41 -40 -67t-79 -26q-42 0 -82 40l36 38q27 -24 51 -24q21 0 38 11.5t19 28.5q2 16 -9.5 26t-31.5 10q-22 1 -59 -17l66 101q-98 16 -138 131z" />
    <glyph glyph-name="Scaron" unicode="&#x160;" horiz-adv-x="531" 
d="M386 856l124 94l44 -42l-178 -138l-134 141l54 39zM119 226q22 -74 55.5 -115t93.5 -41q55 0 92 31t46 82q10 58 -26 92.5t-104 62.5q-157 68 -140 198q12 77 76.5 125.5t148.5 48.5q72 0 120.5 -43.5t66.5 -107.5l-74 -45q-19 52 -45 82.5t-75 31.5q-50 0 -87.5 -27.5
t-44.5 -71.5q-5 -25 4 -45.5t33 -37t42 -26t53 -24.5q157 -69 140 -206q-13 -89 -77.5 -144.5t-160.5 -55.5q-82 0 -137 54t-77 140z" />
    <glyph glyph-name="scaron" unicode="&#x161;" horiz-adv-x="391" 
d="M272 616l124 94l44 -42l-178 -138l-134 141l54 39zM88 160q6 -42 31.5 -68t66.5 -26q35 0 59.5 15t29.5 43q3 17 -2 31.5t-20.5 25.5t-27 17.5t-33.5 16.5q-55 26 -85 56t-23 79q8 53 57 86.5t107 33.5q52 0 93 -24.5t55 -66.5l-67 -39q-36 54 -89 54q-29 0 -51.5 -13
t-26.5 -37q-1 -8 1 -15.5t8.5 -14.5t12 -12t17 -10.5t18 -9t20 -9t17.5 -7.5q112 -54 102 -136q-9 -67 -61 -104t-124 -36q-62 0 -105 38t-50 96z" />
    <glyph glyph-name="uni0162" unicode="&#x162;" horiz-adv-x="451" 
d="M87 620l15 80h433l-14 -80h-175l-106 -620h-16l-75 -102h7q28 -3 46 -23t15 -52q-4 -41 -40 -67t-79 -26q-44 0 -82 40l38 38q27 -24 50 -24q21 0 38 11.5t19 28.5q2 16 -9.5 26t-31.5 10q-23 1 -60 -17l104 157h-8l106 620h-175z" />
    <glyph glyph-name="uni0163" unicode="&#x163;" horiz-adv-x="232" 
d="M58 460h70l27 160h81l-28 -160h74l-14 -75h-73l-67 -385h-13l-75 -102h7q28 -3 46 -23t15 -52q-4 -41 -40 -67t-79 -26q-44 0 -82 40l38 38q27 -24 50 -24q21 0 38 11.5t19 28.5q2 16 -9.5 26t-31.5 10q-23 1 -60 -17l104 157h-4l65 385h-72z" />
    <glyph glyph-name="Tcaron" unicode="&#x164;" horiz-adv-x="451" 
d="M342 856l124 94l44 -42l-178 -138l-134 141l53 39zM87 620l15 80h433l-14 -80h-175l-106 -620h-84l106 620h-175z" />
    <glyph glyph-name="tcaron" unicode="&#x165;" horiz-adv-x="339" 
d="M396 809l76 -31l-150 -247l-55 21zM56 460h72l27 160h81l-28 -160h72l-13 -75h-72l-67 -385h-77l65 385h-74z" />
    <glyph glyph-name="Tbar" unicode="&#x166;" horiz-adv-x="465" 
d="M111 380l19 75h104l28 165h-175l15 80h433l-14 -80h-175l-28 -165h121l-19 -75h-115l-65 -380h-84l65 380h-110z" />
    <glyph glyph-name="tbar" unicode="&#x167;" horiz-adv-x="240" 
d="M27 205l12 75h59l18 105h-72l14 75h70l27 160h81l-28 -160h74l-14 -75h-73l-18 -105h58l-12 -75h-59l-36 -205h-77l34 205h-58z" />
    <glyph glyph-name="Utilde" unicode="&#x168;" horiz-adv-x="607" 
d="M253 808q0 30 40.5 55t71.5 25q26 -1 58 -24t55 -22q25 1 64 48l40 -45q-19 -30 -49 -51t-63 -20q-23 1 -55.5 24t-53.5 22q-37 -1 -59 -50zM164 700h86l-82 -470q-10 -69 18.5 -114t97.5 -46q71 -1 118 44t60 116l82 470h85l-80 -470q-18 -103 -91 -171.5t-178 -68.5
q-103 0 -156.5 69.5t-39.5 170.5z" />
    <glyph glyph-name="utilde" unicode="&#x169;" horiz-adv-x="509" 
d="M163 569q15 33 46.5 56.5t65.5 22.5q26 -1 58 -24t55 -22q24 1 63 48l41 -45q-19 -30 -49 -51t-63 -20q-23 1 -55.5 24t-53.5 22q-37 -1 -59 -50zM154 180q-14 -111 72 -114q50 -1 86 32t49 81l49 281h80l-80 -460h-80l12 67q-55 -77 -140 -77q-72 0 -104.5 50.5
t-23.5 129.5l50 290h78z" />
    <glyph glyph-name="Umacron" unicode="&#x16a;" horiz-adv-x="607" 
d="M239 770l12 75h342l-12 -75h-342zM164 700h86l-82 -470q-10 -69 18.5 -114t97.5 -46q71 -1 118 44t60 116l82 470h85l-80 -470q-18 -103 -91 -171.5t-178 -68.5q-103 0 -156.5 69.5t-39.5 170.5z" />
    <glyph glyph-name="umacron" unicode="&#x16b;" horiz-adv-x="509" 
d="M149 530l12 75h342l-12 -75h-342zM154 180q-14 -111 72 -114q50 -1 86 32t49 81l49 281h80l-80 -460h-80l12 67q-55 -77 -140 -77q-72 0 -104.5 50.5t-23.5 129.5l50 290h78z" />
    <glyph glyph-name="Ubreve" unicode="&#x16c;" horiz-adv-x="607" 
d="M277 910h69q-2 -29 14 -51.5t55 -22.5q67 0 99 74l72 -2q-15 -59 -60 -98.5t-114 -39.5t-104 40.5t-31 99.5zM164 700h86l-82 -470q-10 -69 18.5 -114t97.5 -46q71 -1 118 44t60 116l82 470h85l-80 -470q-18 -103 -91 -171.5t-178 -68.5q-103 0 -156.5 69.5t-39.5 170.5z
" />
    <glyph glyph-name="ubreve" unicode="&#x16d;" horiz-adv-x="509" 
d="M187 670h69q-2 -29 14 -51.5t55 -22.5q67 0 99 74l72 -2q-15 -59 -60 -98.5t-114 -39.5t-104 40.5t-31 99.5zM154 180q-14 -111 72 -114q50 -1 86 32t49 81l49 281h80l-80 -460h-80l12 67q-55 -77 -140 -77q-72 0 -104.5 50.5t-23.5 129.5l50 290h78z" />
    <glyph glyph-name="Uring" unicode="&#x16e;" horiz-adv-x="607" 
d="M326 871q6 41 40 70t74 29t65.5 -30.5t19.5 -70.5q-6 -41 -40.5 -70t-74.5 -29t-65 30t-19 71zM376 870q-2 -20 9 -35.5t29 -16.5q19 -2 39 15t22 37q2 19 -9.5 34.5t-29.5 17.5t-38 -14.5t-22 -37.5zM165 700h84l-81 -470q-10 -69 19.5 -114t98.5 -46q71 -1 118 44.5
t60 115.5l80 470h84l-80 -470q-18 -103 -91.5 -171.5t-178.5 -68.5q-103 0 -155.5 70t-38.5 170z" />
    <glyph glyph-name="uring" unicode="&#x16f;" horiz-adv-x="509" 
d="M235 631q6 41 40.5 70t74.5 29t65.5 -30.5t19.5 -70.5q-6 -41 -40.5 -70t-74.5 -29t-65.5 30.5t-19.5 70.5zM285 630q-2 -20 9.5 -35t29.5 -17q19 -2 39 15t22 37q2 19 -9.5 34.5t-29.5 17.5q-19 2 -39 -15t-22 -37zM154 180q-14 -111 72 -114q48 -1 84 29.5t50 76.5
l50 288h80l-80 -460h-80l12 69q-55 -79 -142 -79q-72 0 -103.5 50.5t-22.5 129.5l50 290h78z" />
    <glyph glyph-name="Uhungarumlaut" unicode="&#x170;" horiz-adv-x="607" 
d="M327 770l-55 20l129 194l85 -22zM491 770l-54 20l128 194l87 -22zM165 700h84l-81 -470q-10 -69 19.5 -114.5t98.5 -45.5q77 0 121.5 44t56.5 116l80 470h84l-80 -470q-18 -106 -87 -173t-182 -67q-103 0 -156.5 70.5t-38.5 169.5z" />
    <glyph glyph-name="uhungarumlaut" unicode="&#x171;" horiz-adv-x="509" 
d="M237 529l-55 20l129 194l85 -22zM401 529l-54 20l128 194l87 -22zM154 180q-7 -51 9.5 -82.5t62.5 -31.5q51 0 88.5 31t45.5 79l50 284h80l-80 -460h-80l12 70q-54 -80 -142 -80q-72 0 -104.5 52t-21.5 128l50 290h78z" />
    <glyph glyph-name="Uogonek" unicode="&#x172;" horiz-adv-x="607" 
d="M300 -144l26 -51q-43 -39 -90 -39q-54 -1 -83.5 27t-23.5 73q10 67 116 126q-87 12 -131 80t-30 158l81 470h84l-81 -470q-10 -69 19.5 -114.5t98.5 -45.5q77 0 121.5 44t56.5 116l80 470h84l-80 -470q-17 -99 -78 -164.5t-162 -74.5l9 -5q-100 -48 -107 -100
q-3 -47 38 -50q21 -2 52 20z" />
    <glyph glyph-name="uogonek" unicode="&#x173;" horiz-adv-x="509" 
d="M154 180q-7 -51 9.5 -82.5t62.5 -31.5q51 0 88.5 31t45.5 79l50 284h80l-80 -460h-80l12 70q-39 -58 -98 -74l6 -4q-100 -48 -107 -100q-3 -47 38 -50q21 -2 52 20l26 -51q-43 -39 -90 -39q-54 -1 -83.5 27t-23.5 73q10 64 106 121q-55 12 -79 61.5t-15 115.5l50 290h78z
" />
    <glyph glyph-name="Wcircumflex" unicode="&#x174;" horiz-adv-x="960" 
d="M609 889l-124 -93l-45 41l176 138l136 -141l-53 -39zM681 179l268 521h98l-397 -738l-109 544l-298 -544l-141 738h92l90 -521l295 559z" />
    <glyph glyph-name="wcircumflex" unicode="&#x175;" horiz-adv-x="659" 
d="M413 649l-124 -93l-45 41l176 138l136 -141l-53 -39zM57 460h87l59 -296l180 334l71 -336l163 298h93l-282 -498l-76 334l-186 -334z" />
    <glyph glyph-name="Ycircumflex" unicode="&#x176;" horiz-adv-x="544" 
d="M397 864l-124 -94l-46 42l177 138l136 -142l-53 -38zM537 700h99l-298 -402l-51 -298h-85l54 306l-158 394h90l119 -322z" />
    <glyph glyph-name="ycircumflex" unicode="&#x177;" horiz-adv-x="426" 
d="M297 624l-124 -94l-45 42l176 138l136 -142l-53 -38zM482 460l-408 -680h-94l176 289l-104 391h92l70 -314l174 314h94z" />
    <glyph glyph-name="Ydieresis" unicode="&#x178;" horiz-adv-x="544" 
d="M236 826q2 20 21 37.5t39 16.5q21 -2 35 -18.5t12 -37.5t-22 -38t-41 -16t-33.5 18t-10.5 38zM430 826q2 20 21 37.5t39 16.5q21 -2 35.5 -18.5t12.5 -37.5q-2 -20 -22.5 -37.5t-41.5 -16.5t-33.5 18t-10.5 38zM538 700h96l-296 -400l-52 -300h-84l54 304l-158 396h91
l119 -322z" />
    <glyph glyph-name="Zacute" unicode="&#x179;" horiz-adv-x="528" 
d="M558 918l-200 -147l-41 31l172 158zM112 620l14 80h478l-463 -620h337l-14 -80h-479l463 620h-336z" />
    <glyph glyph-name="zacute" unicode="&#x17a;" horiz-adv-x="446" 
d="M486 698l-199 -147l-41 31l172 158zM328 384l-247 1l13 75h392l-343 -384l257 -1l-14 -75h-401z" />
    <glyph glyph-name="Zdotaccent" unicode="&#x17b;" horiz-adv-x="528" 
d="M332 826q2 21 21.5 38t40.5 16t34.5 -18t11.5 -38t-22 -38t-41 -16t-34 18t-11 38zM112 620l14 80h478l-463 -620h337l-14 -80h-479l463 620h-336z" />
    <glyph glyph-name="zdotaccent" unicode="&#x17c;" horiz-adv-x="446" 
d="M262 616q2 21 21.5 38t40.5 16t34.5 -18t11.5 -38t-21.5 -38t-40.5 -16t-34.5 18t-11.5 38zM328 384l-247 1l13 75h392l-343 -384l257 -1l-14 -75h-401z" />
    <glyph glyph-name="Zcaron" unicode="&#x17d;" horiz-adv-x="528" 
d="M388 856l124 94l44 -42l-178 -138l-134 141l54 39zM112 620l14 80h478l-463 -620h337l-14 -80h-479l463 620h-336z" />
    <glyph glyph-name="zcaron" unicode="&#x17e;" horiz-adv-x="446" 
d="M313 616l124 94l44 -42l-178 -138l-134 141l53 39zM328 384l-247 1l13 75h392l-343 -384l257 -1l-14 -75h-401z" />
    <glyph glyph-name="florin" unicode="&#x192;" horiz-adv-x="600" 
d="M159 -200q-43 1 -89 42l48 62q27 -26 44 -26q22 0 40 24t27 66l94 417h-62l16 75h62l37 166q16 74 56 119t95 44q43 -1 89 -42l-48 -62q-27 26 -44 26q-22 0 -40 -25t-27 -66l-38 -160h78l-16 -75h-78l-93 -423q-15 -74 -56 -118.5t-95 -43.5z" />
    <glyph glyph-name="uni0212" unicode="&#x212;" horiz-adv-x="543" 
d="M217 770q18 60 65 100.5t116 39.5q68 -1 99.5 -41.5t25.5 -98.5h-63q1 31 -15.5 52.5t-57.5 21.5q-67 0 -97 -74h-73zM168 700h184q97 -2 154.5 -60.5t43.5 -149.5q-12 -77 -66 -130.5t-132 -71.5l154 -288h-100l-143 280h-82l-48 -280h-82zM344 624l-103 1l-47 -270h98
q67 2 115 37.5t59 97.5q10 60 -24 96t-98 38z" />
    <glyph glyph-name="uni0213" unicode="&#x213;" horiz-adv-x="332" 
d="M110 530q18 60 65 100.5t116 39.5q68 -1 99.5 -41.5t25.5 -98.5h-63q1 31 -15.5 52.5t-57.5 21.5q-68 0 -98 -74h-72zM324 372q-30 23 -56 23q-40 1 -62 -29t-33 -78l-49 -288h-80l80 460h79l-8 -46q48 56 101 56q43 0 80 -34z" />
    <glyph glyph-name="uni0218" unicode="&#x218;" horiz-adv-x="531" 
d="M119 226q22 -74 55.5 -115t93.5 -41q55 0 92 31t46 82q10 58 -26 92.5t-104 62.5q-157 68 -140 198q12 77 76.5 125.5t148.5 48.5q72 0 120.5 -43.5t66.5 -107.5l-74 -45q-19 52 -45 82.5t-75 31.5q-50 0 -87.5 -27.5t-44.5 -71.5q-5 -25 4 -45.5t33 -37t42 -26t53 -24.5
q157 -69 140 -206q-13 -89 -77.5 -144.5t-160.5 -55.5q-82 0 -137 54t-77 140zM244 -71l76 -31l-149 -247l-55 21z" />
    <glyph glyph-name="uni0219" unicode="&#x219;" horiz-adv-x="391" 
d="M88 160q6 -42 31 -68t66 -26q35 0 60 15t30 43q3 17 -2 31.5t-20.5 25.5t-27 17.5t-33.5 16.5q-55 26 -85 56t-23 79q8 53 57 86.5t107 33.5q52 0 93 -24.5t55 -66.5l-67 -39q-36 54 -89 54q-29 0 -51.5 -13t-26.5 -37q-1 -8 1 -15.5t8.5 -14.5t12 -12t17 -10.5t18 -9
t20 -9t17.5 -7.5q112 -54 102 -136q-9 -67 -61 -104t-124 -36q-62 0 -105 38t-50 96zM162 -71l76 -31l-150 -247l-55 21z" />
    <glyph glyph-name="uni021A" unicode="&#x21a;" horiz-adv-x="451" 
d="M87 620l15 80h433l-14 -80h-175l-106 -620h-84l106 620h-175zM191 -60l76 -31l-150 -247l-55 21z" />
    <glyph glyph-name="uni021B" unicode="&#x21b;" horiz-adv-x="232" 
d="M58 460h70l27 160h81l-28 -160h74l-14 -75h-73l-67 -385h-77l65 385h-72zM82 -60l76 -31l-149 -247l-56 21z" />
    <glyph glyph-name="uni0237" unicode="&#x237;" horiz-adv-x="242" 
d="M-65 -114q17 -26 43 -26t42 25t21 65l87 510h80l-88 -520q-11 -72 -51.5 -116.5t-104.5 -43.5q-48 0 -82 42z" />
    <glyph glyph-name="circumflex" unicode="&#x2c6;" horiz-adv-x="465" 
d="M318 644l-124 -94l-44 42l178 138l134 -141l-53 -39z" />
    <glyph glyph-name="caron" unicode="&#x2c7;" horiz-adv-x="465" 
d="M315 656l123 94l45 -42l-178 -138l-134 141l53 39z" />
    <glyph glyph-name="breve" unicode="&#x2d8;" horiz-adv-x="529" 
d="M224 850h70q-1 -30 15 -52t55 -22q70 0 98 74l70 -1q-15 -59 -59.5 -99t-112.5 -40q-69 0 -104 40.5t-32 99.5z" />
    <glyph glyph-name="dotaccent" unicode="&#x2d9;" horiz-adv-x="291" 
d="M200 791q0 23 16 39t38 16q23 0 39.5 -16.5t16.5 -38.5t-16.5 -38.5t-39.5 -16.5q-22 0 -38 16t-16 39z" />
    <glyph glyph-name="ring" unicode="&#x2da;" horiz-adv-x="269" 
d="M142 786q6 41 40.5 69.5t74.5 28.5t65.5 -30t19.5 -70q-6 -41 -41 -69.5t-75 -28.5t-65 30t-19 70zM192 784q-2 -20 9.5 -35t29.5 -17t38.5 15.5t22.5 38.5q2 19 -10 34.5t-30 17.5t-38 -15.5t-22 -38.5z" />
    <glyph glyph-name="ogonek" unicode="&#x2db;" horiz-adv-x="252" 
d="M150 -130l26 -51q-43 -39 -90 -39q-54 -1 -83.5 27t-23.5 73q11 75 149 144l39 -24q-100 -48 -107 -100q-3 -47 38 -50q21 -2 52 20z" />
    <glyph glyph-name="tilde" unicode="&#x2dc;" horiz-adv-x="514" 
d="M175 626q15 34 46.5 57.5t65.5 22.5q26 -1 58 -24t55 -22q24 1 63 48l41 -44q-19 -30 -49 -51.5t-64 -20.5q-23 1 -56.5 24t-54.5 22q-16 0 -29 -10.5t-16.5 -17.5t-10.5 -22z" />
    <glyph glyph-name="hungarumlaut" unicode="&#x2dd;" horiz-adv-x="0" 
d="M55 508l-55 20l129 194l85 -22zM219 508l-54 20l128 194l87 -22z" />
    <glyph glyph-name="gravecomb" unicode="&#x300;" horiz-adv-x="0" 
d="M271 545l-155 150l77 40l123 -160z" />
    <glyph glyph-name="acutecomb" unicode="&#x301;" horiz-adv-x="0" 
d="M161 540l-50 35l177 160l78 -45z" />
    <glyph glyph-name="uni0302" unicode="&#x302;" horiz-adv-x="0" 
d="M138 546l-38 50l172 130l130 -130l-50 -49l-90 91z" />
    <glyph glyph-name="tildecomb" unicode="&#x303;" horiz-adv-x="0" 
d="M152 583l-48 42q13 36 46 59t68 23q31 0 62 -23.5t54 -23.5q29 0 68 48l40 -48q-18 -31 -48.5 -52t-65.5 -21q-26 0 -60.5 23.5t-53.5 23.5q-27 0 -43.5 -17.5t-18.5 -33.5z" />
    <glyph glyph-name="uni0304" unicode="&#x304;" horiz-adv-x="0" 
d="M100 600l13 75h350l-13 -75h-350z" />
    <glyph glyph-name="uni0306" unicode="&#x306;" horiz-adv-x="0" 
d="M254 540q-70 0 -110 40t-30 100h71q-5 -32 16 -53.5t58 -21.5q35 0 65 22t35 53h71q-11 -61 -59.5 -100.5t-116.5 -39.5z" />
    <glyph glyph-name="uni0307" unicode="&#x307;" horiz-adv-x="0" 
d="M160 570q-23 0 -39.5 16.5t-16.5 38.5t16.5 38.5t39.5 16.5q22 0 38 -16t16 -39t-16 -39t-38 -16z" />
    <glyph glyph-name="uni0308" unicode="&#x308;" horiz-adv-x="0" 
d="M266 605q-24 0 -40 15.5t-16 39.5t16 39.5t40 15.5t39 -15.5t15 -39.5t-15 -39.5t-39 -15.5z" />
    <glyph glyph-name="uni030A" unicode="&#x30a;" horiz-adv-x="0" 
d="M199 520q-46 0 -73.5 32t-19.5 78q7 46 45 78t85 32t74 -32t20 -78t-45.5 -78t-85.5 -32zM208 572q23 0 42 17t24 41q4 24 -10 41t-37 17t-41.5 -17t-23.5 -41q-4 -24 9.5 -41t36.5 -17z" />
    <glyph glyph-name="uni030B" unicode="&#x30b;" horiz-adv-x="0" 
d="M55 508l-55 20l129 194l85 -22zM219 508l-54 20l128 194l87 -22z" />
    <glyph glyph-name="uni030C" unicode="&#x30c;" horiz-adv-x="0" 
d="M242 547l-128 131l48 48l91 -91l124 93l39 -50z" />
    <glyph glyph-name="uni0312" unicode="&#x312;" horiz-adv-x="0" 
d="M164 500l-76 30l152 250l55 -21z" />
    <glyph glyph-name="uni0326" unicode="&#x326;" horiz-adv-x="0" 
d="M8 -224l-41 27l128 180l55 -37z" />
    <glyph glyph-name="uni0327" unicode="&#x327;" horiz-adv-x="0" 
d="M52 -220q-50 0 -84 28l30 45q31 -19 63 -19q51 0 57 40q3 18 -8 27t-36 9q-37 0 -58 -3l106 153h66l-79 -107h6q32 0 51 -24t14 -55q-7 -42 -41 -68t-87 -26z" />
    <glyph glyph-name="uni0328" unicode="&#x328;" horiz-adv-x="0" 
d="M86 -220q-55 0 -84.5 28t-21.5 72q14 80 151 145l42 -25q-43 -17 -74 -45t-35 -55q-4 -25 7 -37.5t32 -12.5q28 0 53 20l25 -50q-36 -40 -95 -40z" />
    <glyph glyph-name="uni0394" unicode="&#x394;" horiz-adv-x="600" 
d="M-27 0l416 800l147 -800h-563zM106 76h324l-77 499z" />
    <glyph glyph-name="uni03A9" unicode="&#x3a9;" horiz-adv-x="600" 
d="M21 0l11 68h88q-65 118 -43 249q17 104 94.5 173t176.5 69t153 -69t37 -173q-11 -62 -44.5 -128.5t-81.5 -120.5h88l-12 -68h-193l13 78q48 34 88.5 101t50.5 132q26 155 -114 155q-142 0 -168 -155q-11 -66 7 -132.5t55 -100.5l-13 -78h-193z" />
    <glyph glyph-name="uni03BC" unicode="&#x3bc;" horiz-adv-x="525" 
d="M204 460l-53 -291q-6 -47 12.5 -75t62.5 -28q52 1 89 32t45 78l50 284h80l-80 -460h-80l10 60q-58 -70 -140 -70q-45 0 -74 20l-58 -330h-76l131 780h81z" />
    <glyph glyph-name="pi" unicode="&#x3c0;" horiz-adv-x="524" 
d="M80 460h458l-14 -75h-76l-44 -244q-4 -37 4.5 -50.5t35.5 -19.5l-12 -79q-65 3 -91.5 31.5t-17.5 97.5l45 264h-163l-67 -385h-78l64 385h-58z" />
    <glyph glyph-name="uni0400" unicode="&#x400;" horiz-adv-x="533" 
d="M233 920l78 40l124 -162l-47 -28zM168 700h392l-13 -80h-306l-35 -200h287l-13 -80h-288l-45 -260h307l-12 -80h-391z" />
    <glyph glyph-name="uni0401" unicode="&#x401;" horiz-adv-x="533" 
d="M440 826q2 20 21.5 37t40.5 16t34.5 -17.5t11.5 -37.5t-21 -38t-40 -16t-35 18t-12 38zM246 826q2 20 21.5 37t40.5 16t34.5 -17.5t11.5 -37.5t-21 -38t-40 -16t-35 18t-12 38zM168 700h392l-13 -80h-306l-35 -200h287l-13 -80h-288l-45 -260h307l-12 -80h-391z" />
    <glyph glyph-name="uni0403" unicode="&#x403;" horiz-adv-x="422" 
d="M534 917l-197 -147l-41 30l169 158zM167 700h339l-14 -80h-252l-107 -620h-82z" />
    <glyph glyph-name="uni040C" unicode="&#x40c;" horiz-adv-x="548" 
d="M594 916l-198 -146l-43 32l171 158zM168 700h87l-51 -295l312 295h110l-356 -332l244 -368h-98l-224 341l-59 -341h-82z" />
    <glyph glyph-name="uni040D" unicode="&#x40d;" horiz-adv-x="752" 
d="M342 896l78 40l122 -162l-46 -29zM254 700l-89 -517l613 559l-130 -742h-85l89 516l-612 -557l129 741h85z" />
    <glyph glyph-name="uni040E" unicode="&#x40e;" horiz-adv-x="548" 
d="M244 910h69q-1 -30 15.5 -52.5t55.5 -22.5q70 0 98 74l70 -1q-15 -59 -59.5 -98.5t-113.5 -39.5q-68 0 -103 40.5t-32 99.5zM644 700l-440 -700h-98l127 211l-140 489h98l105 -409l250 409h98z" />
    <glyph glyph-name="uni0410" unicode="&#x410;" horiz-adv-x="640" 
d="M516 0l-51 210l-270 1l-123 -211h-98l444 738l190 -738h-92zM389 542l-148 -252h206z" />
    <glyph glyph-name="uni0411" unicode="&#x411;" horiz-adv-x="531" 
d="M167 700h369l-14 -80h-282l-35 -200h97q98 -2 156 -60t45 -150q-14 -93 -88.5 -150.5t-174.5 -59.5h-189zM297 340h-105l-45 -260h97q67 2 114.5 35.5t59.5 94.5q10 59 -23.5 93.5t-97.5 36.5z" />
    <glyph glyph-name="uni0412" unicode="&#x412;" horiz-adv-x="541" 
d="M502 204q-13 -96 -86 -149t-176 -55h-191l120 700h171q90 -2 140.5 -48t37.5 -128q-9 -55 -47.5 -91.5t-96.5 -51.5q67 -17 102.5 -61.5t25.5 -115.5zM241 625l-36 -209l87 1q53 2 92.5 29t48.5 74q8 45 -20 73.5t-77 30.5zM297 342l-104 2l-46 -269l96 1q68 2 115.5 37
t59.5 97q10 60 -23.5 95t-97.5 37z" />
    <glyph glyph-name="uni0413" unicode="&#x413;" horiz-adv-x="422" 
d="M167 700h339l-14 -80h-252l-107 -620h-82z" />
    <glyph glyph-name="uni0414" unicode="&#x414;" horiz-adv-x="771" 
d="M630 0h-544l-19 -110h-75l32 190h86l372 658l144 -658h90l-33 -190h-73zM452 542l-251 -462h341z" />
    <glyph glyph-name="uni0415" unicode="&#x415;" horiz-adv-x="533" 
d="M168 700h392l-13 -80h-306l-35 -200h287l-13 -80h-288l-45 -260h307l-12 -80h-391z" />
    <glyph glyph-name="uni0416" unicode="&#x416;" horiz-adv-x="868" 
d="M212 700l224 -314l52 314h87l-53 -305l314 305h110l-355 -332l243 -368h-98l-221 352l-61 -352h-82l57 345l-346 -345h-109l376 376l-236 324h98z" />
    <glyph glyph-name="uni0417" unicode="&#x417;" horiz-adv-x="588" 
d="M280 -10q-108 0 -167.5 53t-51.5 142l84 -1q0 -114 139 -114q73 0 122 33t60 92q12 64 -36 96t-127 35l3 20l8 54q74 4 125 35.5t63 85.5q9 50 -20.5 80.5t-87.5 30.5q-60 1 -104 -28.5t-59 -77.5l-81 1q18 83 85 133t162 50q92 0 147.5 -54t43.5 -132q-10 -58 -54 -98.5
t-111 -60.5q68 -20 103 -65t24 -116q-14 -90 -88.5 -142t-181.5 -52z" />
    <glyph glyph-name="uni0418" unicode="&#x418;" horiz-adv-x="752" 
d="M254 700l-89 -517l613 559l-130 -742h-85l89 516l-612 -557l129 741h85z" />
    <glyph glyph-name="uni0419" unicode="&#x419;" horiz-adv-x="752" 
d="M357 906h69q-1 -30 15.5 -52t55.5 -22q69 0 97 74l71 -1q-15 -59 -60 -99t-113 -40t-103 40.5t-32 99.5zM254 700l-89 -517l613 559l-130 -742h-85l89 516l-612 -557l129 741h85z" />
    <glyph glyph-name="uni041A" unicode="&#x41a;" horiz-adv-x="548" 
d="M168 700h87l-51 -295l312 295h110l-356 -332l244 -368h-98l-224 341l-59 -341h-82z" />
    <glyph glyph-name="uni041B" unicode="&#x41b;" horiz-adv-x="638" 
d="M655 700l-121 -700h-84l106 620h-298l-64 -380q-18 -100 -71.5 -166t-140.5 -73l12 71q96 19 122 188l75 440h464z" />
    <glyph glyph-name="uni041C" unicode="&#x41c;" horiz-adv-x="786" 
d="M227 472l-131 -472h-87l210 736l184 -506l363 511l-46 -741h-84l30 466l-288 -403z" />
    <glyph glyph-name="uni041D" unicode="&#x41d;" horiz-adv-x="693" 
d="M168 700h87l-49 -280h371l47 280h87l-121 -700h-83l57 340h-372l-59 -340h-82z" />
    <glyph glyph-name="uni041E" unicode="&#x41e;" horiz-adv-x="766" 
d="M70 350q23 150 137.5 255t264.5 105q147 0 229 -107.5t61 -252.5q-23 -150 -138 -255t-265 -105q-147 0 -228.5 107.5t-60.5 252.5zM160 350q-17 -110 38.5 -191.5t165.5 -82.5q114 -1 201 79.5t107 194.5q17 110 -38.5 191.5t-165.5 82.5q-114 1 -201 -79.5t-107 -194.5
z" />
    <glyph glyph-name="uni041F" unicode="&#x41f;" horiz-adv-x="693" 
d="M614 620h-374l-106 -620h-86l121 700h541l-120 -700h-83z" />
    <glyph glyph-name="uni0420" unicode="&#x420;" horiz-adv-x="531" 
d="M168 700h182q98 -2 156 -60t45 -150q-14 -93 -89 -150.5t-175 -59.5h-105l-49 -280h-82zM345 620h-104l-45 -260h96q67 2 114.5 35.5t59.5 94.5q10 59 -23.5 93.5t-97.5 36.5z" />
    <glyph glyph-name="uni0421" unicode="&#x421;" horiz-adv-x="664" 
d="M160 350q-17 -109 39 -191t161 -83q130 -1 240 102l-17 -112q-99 -76 -229 -76q-144 1 -224.5 108t-59.5 252q23 150 136.5 254.5t261.5 105.5q126 0 210 -78l-17 -111q-67 103 -199 103q-108 0 -195 -80t-107 -194z" />
    <glyph glyph-name="uni0422" unicode="&#x422;" horiz-adv-x="451" 
d="M86 620l15 80h435l-14 -80h-175l-107 -620h-84l106 620h-176z" />
    <glyph glyph-name="uni0423" unicode="&#x423;" horiz-adv-x="548" 
d="M644 700l-440 -700h-98l127 211l-140 489h98l105 -409l250 409h98z" />
    <glyph glyph-name="uni0424" unicode="&#x424;" horiz-adv-x="759" 
d="M428 700h88l-14 -81q125 -6 198 -79.5t55 -189.5q-19 -121 -116.5 -194t-230.5 -76l-14 -80h-82l13 80q-125 6 -199 79.5t-56 190.5q19 121 115.5 193t229.5 77zM154 350q-16 -85 37.5 -133t148.5 -51l61 368q-97 -6 -164.5 -53t-82.5 -131zM670 350q16 84 -36 132
t-147 52l-64 -368q97 5 164.5 52t82.5 132z" />
    <glyph glyph-name="uni0425" unicode="&#x425;" horiz-adv-x="538" 
d="M507 700h103l-262 -337l152 -363h-94l-110 290l-214 -290h-104l289 371l-139 329h94l97 -256z" />
    <glyph glyph-name="uni0426" unicode="&#x426;" horiz-adv-x="737" 
d="M145 80h373l107 620h85l-106 -620h83l-33 -190h-75l19 110h-549l121 700h82z" />
    <glyph glyph-name="uni0427" unicode="&#x427;" horiz-adv-x="596" 
d="M250 700l-33 -182q-11 -67 14 -115t83 -48h155l57 345h88l-122 -700h-82l46 280h-154q-90 0 -134 70t-30 168l31 182h81z" />
    <glyph glyph-name="uni0428" unicode="&#x428;" horiz-adv-x="955" 
d="M780 80l107 620h85l-120 -700h-803l120 700h85l-106 -620h274l106 620h86l-107 -620h273z" />
    <glyph glyph-name="uni0429" unicode="&#x429;" horiz-adv-x="999" 
d="M780 80l107 620h85l-106 -620h83l-33 -190h-75l19 110h-811l120 700h85l-106 -620h274l106 620h86l-107 -620h273z" />
    <glyph glyph-name="uni042A" unicode="&#x42a;" horiz-adv-x="638" 
d="M264 620h-178l15 80h260l-48 -280h96q97 0 155.5 -59t45.5 -151q-14 -94 -89 -152t-175 -58h-188zM404 340h-105l-45 -260h96q67 2 115.5 35.5t60.5 94.5q10 60 -24 95t-98 35z" />
    <glyph glyph-name="uni042B" unicode="&#x42b;" horiz-adv-x="742" 
d="M672 700h88l-122 -700h-82zM168 700h87l-49 -280h96q97 0 155.5 -59t45.5 -151q-14 -94 -88.5 -152t-174.5 -58h-189zM297 340h-105l-45 -260h97q67 2 114.5 35.5t59.5 94.5q10 60 -24 95t-97 35z" />
    <glyph glyph-name="uni042C" unicode="&#x42c;" horiz-adv-x="531" 
d="M168 700h87l-49 -280h96q97 0 155.5 -59t45.5 -151q-14 -94 -88.5 -152t-174.5 -58h-189zM297 340h-105l-45 -260h97q67 2 114.5 35.5t59.5 94.5q10 60 -24 95t-97 35z" />
    <glyph glyph-name="uni042D" unicode="&#x42d;" horiz-adv-x="664" 
d="M154 310l13 80h407q2 97 -53.5 165t-150.5 69q-130 1 -240 -102l17 112q99 76 229 76q144 -1 224.5 -108t59.5 -252q-23 -150 -136.5 -254.5t-261.5 -105.5q-126 0 -210 78l17 111q67 -103 199 -103q98 0 179.5 67t112.5 167h-406z" />
    <glyph glyph-name="uni042E" unicode="&#x42e;" horiz-adv-x="999" 
d="M168 700h87l-49 -280h114q42 126 148 208t238 82q97 0 169 -51t102.5 -133t16.5 -176q-23 -150 -137.5 -255t-264.5 -105q-144 0 -225.5 104t-64.5 246h-110l-59 -340h-82zM393 350q-17 -110 39 -191.5t166 -82.5q114 -1 200.5 79t106.5 195q17 110 -39 191.5t-166 82.5
q-114 1 -200.5 -79t-106.5 -195z" />
    <glyph glyph-name="uni042F" unicode="&#x42f;" horiz-adv-x="543" 
d="M560 700l-120 -700h-86l48 280h-76l-238 -280h-110l256 291q-67 20 -102.5 73t-25.5 126q14 94 89 152t175 58h190zM311 356l104 -1l47 270h-96q-66 0 -115 -36.5t-61 -98.5q-10 -59 23.5 -95.5t97.5 -38.5z" />
    <glyph glyph-name="uni0430" unicode="&#x430;" horiz-adv-x="470" 
d="M142 352l-29 62q90 56 178 56q73 0 117.5 -38t33.5 -102l-56 -330h-80l12 67q-56 -77 -162 -77q-65 0 -103 39t-29 103q11 72 70 113t144 41q64 0 112 -35l14 79q6 31 -18 49.5t-62 19.5q-60 1 -142 -47zM104 135q-5 -34 17.5 -53t60.5 -20q59 -1 99.5 28.5t55.5 85.5
l4 22q-47 26 -104 26q-54 0 -90 -23.5t-43 -65.5z" />
    <glyph glyph-name="uni0431" unicode="&#x431;" horiz-adv-x="529" 
d="M54 234q0 151 69 264t191 158q118 44 159 124l79 -1q-39 -123 -220 -188q-77 -27 -133 -97.5t-71 -151.5q64 128 192 128q98 0 153.5 -70t42.5 -170q-14 -100 -90 -170t-176 -70q-99 0 -147.5 71t-48.5 173l74 -30q0 -55 32.5 -96t93.5 -42q67 -1 118.5 47t62.5 117
q11 70 -25 117.5t-102 47.5q-68 0 -124 -53t-56 -138l-4 3z" />
    <glyph glyph-name="uni0432" unicode="&#x432;" horiz-adv-x="439" 
d="M122 460h164q64 0 104.5 -32.5t31.5 -93.5q-11 -74 -96 -102q92 -23 80 -108q-8 -56 -51.5 -90t-110.5 -34h-198zM280 390h-88l-22 -124l83 1q33 0 59 17.5t30 45.5q4 27 -13.5 43.5t-48.5 16.5zM257 198h-99l-22 -128h92q38 0 66.5 18t33.5 48q4 28 -15.5 45t-55.5 17z
" />
    <glyph glyph-name="uni0433" unicode="&#x433;" horiz-adv-x="320" 
d="M126 460h242l-13 -75h-159l-68 -385h-77z" />
    <glyph glyph-name="uni0434" unicode="&#x434;" horiz-adv-x="635" 
d="M490 0h-394l-16 -90h-86l30 165h77l271 423l125 -423h83l-30 -165h-77zM346 322l-153 -247h221z" />
    <glyph glyph-name="uni0435" unicode="&#x435;" horiz-adv-x="499" 
d="M458 106q-48 -56 -101 -86.5t-127 -29.5q-93 1 -141.5 72t-36.5 168q3 27 10 49q25 83 92.5 137t153.5 54q95 0 142 -67.5t36 -168.5q-2 -16 -4 -24h-353q-3 -64 26.5 -104t90.5 -40q84 0 152 82zM302 400q-56 1 -99.5 -33.5t-59.5 -88.5h263q3 53 -23 87t-81 35z" />
    <glyph glyph-name="uni0436" unicode="&#x436;" horiz-adv-x="655" 
d="M165 460l148 -174l29 174h74l-28 -166l198 166h106l-244 -203l178 -257h-93l-153 248l-42 -248h-74l41 240l-232 -240h-105l273 264l-168 196h92z" />
    <glyph glyph-name="uni0437" unicode="&#x437;" horiz-adv-x="459" 
d="M215 -10q-74 0 -116.5 43t-44.5 112h79q5 -39 24 -61.5t62 -23.5t76 20t39 55q7 36 -19.5 54t-73.5 21l3 20l8 50q88 5 96 61q3 25 -13.5 40.5t-46.5 15.5q-37 1 -61 -20.5t-35 -50.5l-82 2q14 59 63.5 100.5t116.5 41.5q63 0 105 -38.5t33 -92.5q-11 -67 -91 -94
q88 -31 76 -111q-9 -64 -67.5 -104t-130.5 -40z" />
    <glyph glyph-name="uni0438" unicode="&#x438;" horiz-adv-x="528" 
d="M208 460l-51 -293l357 335l-89 -502h-81l51 294l-355 -335l88 501h80z" />
    <glyph glyph-name="uni0439" unicode="&#x439;" horiz-adv-x="528" 
d="M198 686h69q-1 -30 15.5 -52t55.5 -22q69 0 97 74l71 -1q-15 -59 -60 -99t-113 -40t-103 40.5t-32 99.5zM208 460l-51 -293l357 335l-89 -502h-81l51 294l-355 -335l88 501h80z" />
    <glyph glyph-name="uni043A" unicode="&#x43a;" horiz-adv-x="426" 
d="M116 460h84l-28 -156l186 156h106l-232 -193l166 -267h-93l-145 235l-42 -235h-76z" />
    <glyph glyph-name="uni043B" unicode="&#x43b;" horiz-adv-x="541" 
d="M517 460l-79 -460h-81l67 385h-226l-38 -225q-13 -78 -56.5 -116.5t-121.5 -43.5l12 72q72 11 85 88l52 300h386z" />
    <glyph glyph-name="uni043C" unicode="&#x43c;" horiz-adv-x="589" 
d="M-26 0l206 499l107 -366l240 367l30 -500h-88l-7 263l-201 -296l-96 300l-99 -267h-92z" />
    <glyph glyph-name="uni043D" unicode="&#x43d;" horiz-adv-x="548" 
d="M122 460h82l-31 -180h244l29 180h84l-82 -460h-76l33 206h-245l-36 -206h-78z" />
    <glyph glyph-name="uni043E" unicode="&#x43e;" horiz-adv-x="529" 
d="M44 230q15 100 92 170t178 70q99 0 154.5 -71t41.5 -169q-15 -100 -92 -170t-178 -70q-99 0 -154.5 71t-41.5 169zM126 230q-11 -66 21 -114.5t97 -49.5q68 -1 120 47t64 117q11 66 -21 114.5t-97 49.5q-68 1 -120 -47t-64 -117z" />
    <glyph glyph-name="uni043F" unicode="&#x43f;" horiz-adv-x="509" 
d="M490 460l-80 -460h-80l66 385h-205l-67 -385h-80l79 460h367z" />
    <glyph glyph-name="uni0440" unicode="&#x440;" 
d="M84 -220h-83l118 680h77l-12 -75q64 85 162 85q95 1 147.5 -69.5t38.5 -170.5q-14 -103 -87.5 -172t-170.5 -68q-104 1 -139 97zM452 230q11 69 -22 116.5t-97 47.5q-59 0 -110 -46t-64 -112l-1 -9q-8 -65 22.5 -112.5t87.5 -48.5q67 -1 119.5 46t64.5 118z" />
    <glyph glyph-name="uni0441" unicode="&#x441;" horiz-adv-x="463" 
d="M120 230q-11 -66 22 -114.5t98 -49.5q51 -1 97.5 22.5t75.5 59.5l-15 -100q-66 -58 -162 -58q-99 0 -154.5 71t-41.5 169q15 101 91.5 170.5t177.5 69.5q94 0 149 -60l-14 -99q-15 38 -52.5 60.5t-86.5 22.5q-68 0 -120.5 -47.5t-64.5 -116.5z" />
    <glyph glyph-name="uni0442" unicode="&#x442;" horiz-adv-x="271" 
d="M55 460h265l-14 -75h-91l-67 -385h-78l63 385h-91z" />
    <glyph glyph-name="uni0443" unicode="&#x443;" horiz-adv-x="426" 
d="M482 460l-408 -680h-94l176 289l-104 391h92l70 -314l174 314h94z" />
    <glyph glyph-name="uni0444" unicode="&#x444;" horiz-adv-x="568" 
d="M45 230q13 94 83.5 160.5t168.5 77.5l15 92h82l-16 -94q89 -14 136.5 -80t33.5 -156q-14 -95 -84 -161t-169 -77l-16 -92h-77l16 93q-90 14 -138.5 80.5t-34.5 156.5zM468 230q11 60 -17.5 104.5t-86.5 55.5l-55 -320q62 13 105.5 56.5t53.5 103.5zM126 230
q-11 -60 17.5 -105t86.5 -56l54 321q-61 -13 -104 -56.5t-54 -103.5z" />
    <glyph glyph-name="uni0445" unicode="&#x445;" horiz-adv-x="407" 
d="M359 460h95l-196 -226l121 -234h-85l-85 172l-146 -172h-95l208 240l-114 220h85l79 -158z" />
    <glyph glyph-name="uni0446" unicode="&#x446;" horiz-adv-x="548" 
d="M422 74h80l-28 -164h-70l15 90h-375l80 460h80l-67 -385h206l67 385h78z" />
    <glyph glyph-name="uni0447" unicode="&#x447;" horiz-adv-x="470" 
d="M180 460l-24 -132q-9 -57 7.5 -85.5t68.5 -28.5l97 1l40 245h83l-81 -460h-77l23 140h-97q-94 0 -126.5 46.5t-17.5 141.5l23 132h81z" />
    <glyph glyph-name="uni0448" unicode="&#x448;" horiz-adv-x="756" 
d="M402 74l188 1l67 385h81l-80 -460h-614l80 460h80l-67 -385h187l67 385h77z" />
    <glyph glyph-name="uni0449" unicode="&#x449;" horiz-adv-x="795" 
d="M402 74l188 1l67 385h81l-67 -385h78l-28 -165h-70l15 90h-622l80 460h80l-67 -385h187l67 385h77z" />
    <glyph glyph-name="uni044A" unicode="&#x44a;" horiz-adv-x="560" 
d="M205 386l-163 -1l13 75h241l-30 -174h101q71 0 112.5 -38t31.5 -106t-61.5 -105t-123.5 -37h-188zM362 216h-108l-26 -146h102q39 0 67 20t35 54q6 33 -13 52.5t-57 19.5z" />
    <glyph glyph-name="uni044B" unicode="&#x44b;" horiz-adv-x="625" 
d="M524 460h83l-81 -460h-77zM122 460h82l-30 -174h101q71 0 112 -38t31 -106t-61 -105t-123 -37h-188zM270 216h-108l-26 -146h102q39 0 67 20t35 54q6 33 -13 52.5t-57 19.5z" />
    <glyph glyph-name="uni044C" unicode="&#x44c;" horiz-adv-x="468" 
d="M122 460h82l-30 -174h101q71 0 112 -38t31 -106t-61 -105t-123 -37h-188zM270 216h-108l-26 -146h102q39 0 67 20t35 54q6 33 -13 52.5t-57 19.5z" />
    <glyph glyph-name="uni044D" unicode="&#x44d;" horiz-adv-x="463" 
d="M150 266h220q-2 54 -34 90.5t-88 37.5q-51 1 -97 -22.5t-75 -59.5l14 100q66 58 162 58q99 0 154.5 -71t41.5 -169q-15 -101 -91 -170.5t-177 -69.5q-98 0 -150 60l15 99q15 -38 52.5 -60.5t86.5 -22.5q58 0 105.5 36t68.5 92h-220z" />
    <glyph glyph-name="uni044E" unicode="&#x44e;" horiz-adv-x="723" 
d="M122 460h82l-31 -180h78q29 83 99.5 136.5t157.5 53.5q99 0 154.5 -71t41.5 -169q-15 -100 -91.5 -170t-177.5 -70q-92 0 -147.5 62.5t-50.5 153.5h-77l-36 -206h-78zM320 230q-11 -66 21 -114.5t97 -49.5q68 -1 120.5 47t64.5 117q11 66 -21.5 114.5t-97.5 49.5
q-68 1 -120 -47t-64 -117z" />
    <glyph glyph-name="uni044F" unicode="&#x44f;" horiz-adv-x="468" 
d="M114 0h-94l166 191q-46 13 -69.5 46t-16.5 85q9 67 60 101.5t124 36.5h187l-75 -460h-83l32 184h-75zM249 254h109l24 136h-103q-40 0 -67.5 -17.5t-33.5 -50.5t14 -50.5t57 -17.5z" />
    <glyph glyph-name="uni0450" unicode="&#x450;" horiz-adv-x="499" 
d="M178 680l78 39l123 -161l-47 -28zM458 106q-48 -56 -101 -86.5t-127 -29.5q-93 1 -141.5 72t-36.5 168q3 27 10 49q25 83 92.5 137t153.5 54q95 0 142 -67.5t36 -168.5q-2 -16 -4 -24h-353q-3 -64 26.5 -104t90.5 -40q84 0 152 82zM302 400q-56 1 -99.5 -33.5
t-59.5 -88.5h263q3 53 -23 87t-81 35z" />
    <glyph glyph-name="uni0451" unicode="&#x451;" horiz-adv-x="499" 
d="M369 585q2 20 21.5 37.5t40.5 16.5t34.5 -18t11.5 -38q-2 -20 -21 -37t-40 -16t-35 17.5t-12 37.5zM175 585q2 20 21.5 37.5t40.5 16.5t34.5 -18t11.5 -38q-2 -20 -21 -37t-40 -16t-35 17.5t-12 37.5zM458 106q-48 -56 -101 -86.5t-127 -29.5q-93 1 -141.5 72t-36.5 168
q3 27 10 49q25 83 92.5 137t153.5 54q95 0 142 -67.5t36 -168.5q-2 -16 -4 -24h-353q-3 -64 26.5 -104t90.5 -40q84 0 152 82zM302 400q-56 1 -99.5 -33.5t-59.5 -88.5h263q3 53 -23 87t-81 35z" />
    <glyph glyph-name="uni0453" unicode="&#x453;" horiz-adv-x="320" 
d="M461 676l-198 -146l-43 32l171 158zM126 460h242l-13 -75h-159l-68 -385h-77z" />
    <glyph glyph-name="uni045C" unicode="&#x45c;" horiz-adv-x="426" 
d="M502 676l-198 -146l-42 32l170 158zM116 460h84l-28 -156l186 156h106l-232 -193l166 -267h-93l-145 235l-42 -235h-76z" />
    <glyph glyph-name="uni045D" unicode="&#x45d;" horiz-adv-x="528" 
d="M179 697l78 39l124 -161l-47 -29zM208 460l-51 -293l357 335l-89 -502h-81l51 294l-355 -335l88 501h80z" />
    <glyph glyph-name="uni045E" unicode="&#x45e;" horiz-adv-x="426" 
d="M146 670h69q-2 -29 14 -51.5t55 -22.5q67 0 99 74l71 -2q-15 -59 -59.5 -98.5t-113.5 -39.5t-104 40.5t-31 99.5zM482 460l-408 -680h-94l176 289l-104 391h92l70 -314l174 314h94z" />
    <glyph glyph-name="Wgrave" unicode="&#x1e80;" horiz-adv-x="960" 
d="M587 797l-155 150l77 40l123 -160zM690 182l258 518h96l-382 -737l-120 544l-288 -544l-154 737h92l99 -518l286 555z" />
    <glyph glyph-name="wgrave" unicode="&#x1e81;" horiz-adv-x="659" 
d="M393 557l-155 150l77 40l123 -160zM57 460h87l59 -296l180 333l71 -335l164 298h91l-281 -497l-76 335l-186 -335z" />
    <glyph glyph-name="Wacute" unicode="&#x1e82;" horiz-adv-x="960" 
d="M587 797l-50 35l177 160l78 -45zM690 182l258 518h96l-382 -737l-120 544l-288 -544l-154 737h92l99 -518l286 555z" />
    <glyph glyph-name="wacute" unicode="&#x1e83;" horiz-adv-x="659" 
d="M393 557l-50 35l177 160l78 -45zM57 460h87l59 -296l180 333l71 -335l164 298h91l-281 -497l-76 335l-186 -335z" />
    <glyph glyph-name="Wdieresis" unicode="&#x1e84;" horiz-adv-x="960" 
d="M640 853q2 20 21 37t40 16t35 -17.5t12 -37.5q-2 -20 -21.5 -37t-40.5 -16t-34.5 17.5t-11.5 37.5zM446 853q2 20 21 37t40 16t35 -17.5t12 -37.5q-2 -20 -21.5 -37t-40.5 -16t-34.5 17.5t-11.5 37.5zM690 182l258 518h96l-382 -737l-120 544l-288 -544l-154 737h92
l99 -518l286 555z" />
    <glyph glyph-name="wdieresis" unicode="&#x1e85;" horiz-adv-x="659" 
d="M446 613q2 20 21 37t40 16t35 -17.5t12 -37.5q-2 -20 -21.5 -37t-40.5 -16t-34.5 17.5t-11.5 37.5zM252 613q2 20 21 37t40 16t35 -17.5t12 -37.5q-2 -20 -21.5 -37t-40.5 -16t-34.5 17.5t-11.5 37.5zM57 460h87l59 -296l180 333l71 -335l164 298h91l-281 -497l-76 335
l-186 -335z" />
    <glyph glyph-name="uni1E86" unicode="&#x1e86;" horiz-adv-x="960" 
d="M542 852q0 23 16 39t38 16q23 0 39.5 -16.5t16.5 -38.5t-16.5 -38.5t-39.5 -16.5q-22 0 -38 16t-16 39zM690 182l258 518h96l-382 -737l-120 544l-288 -544l-154 737h92l99 -518l286 555z" />
    <glyph glyph-name="uni1E87" unicode="&#x1e87;" horiz-adv-x="659" 
d="M348 612q0 23 16 39t38 16q23 0 39.5 -16.5t16.5 -38.5t-16.5 -38.5t-39.5 -16.5q-22 0 -38 16t-16 39zM57 460h87l59 -296l180 333l71 -335l164 298h91l-281 -497l-76 335l-186 -335z" />
    <glyph glyph-name="uni1E88" unicode="&#x1e88;" horiz-adv-x="960" 
d="M690 182l258 518h96l-382 -737l-120 544l-288 -544l-154 737h92l99 -518l286 555zM384 -152q0 23 16 39t38 16q23 0 39.5 -16.5t16.5 -38.5t-16.5 -38.5t-39.5 -16.5q-22 0 -38 16t-16 39z" />
    <glyph glyph-name="uni1E89" unicode="&#x1e89;" horiz-adv-x="659" 
d="M57 460h87l59 -296l180 333l71 -335l164 298h91l-281 -497l-76 335l-186 -335zM223 -152q0 23 16 39t38 16q23 0 39.5 -16.5t16.5 -38.5t-16.5 -38.5t-39.5 -16.5q-22 0 -38 16t-16 39z" />
    <glyph glyph-name="uni1E9E" unicode="&#x1e9e;" horiz-adv-x="716" 
d="M422 -12q-109 0 -192 66l40 72q77 -52 158 -52q67 0 112.5 25t45.5 77q0 29 -17 48.5t-41 30.5t-47.5 22t-40.5 30t-17 48t18 51.5t43.5 36l51 27t43.5 32t18 42.5q0 35 -31.5 59.5t-97.5 24.5q-102 0 -176 -64t-93 -182l-63 -384h-86l65 391q24 153 123.5 236.5
t232.5 83.5q98 0 157 -38.5t59 -108.5q0 -48 -26 -83.5t-57 -51.5t-57 -32.5t-26 -30.5q0 -15 16 -25.5t39.5 -20t46.5 -23t39 -42.5t16 -71q0 -85 -71.5 -139.5t-184.5 -54.5z" />
    <glyph glyph-name="Ygrave" unicode="&#x1ef2;" horiz-adv-x="544" 
d="M359 770l-155 150l77 40l123 -160zM538 700h96l-296 -400l-52 -300h-84l54 304l-158 396h91l119 -322z" />
    <glyph glyph-name="ygrave" unicode="&#x1ef3;" horiz-adv-x="426" 
d="M259 529l-155 150l77 40l123 -160zM481 460l-409 -680h-90l174 288l-104 392h88l74 -317l176 317h91z" />
    <glyph glyph-name="uni2010" unicode="&#x2010;" horiz-adv-x="203" 
d="M12 200l12 75h196l-12 -75h-196z" />
    <glyph glyph-name="figuredash" unicode="&#x2012;" horiz-adv-x="572" 
d="M76 200l12 75h438l-12 -75h-438z" />
    <glyph glyph-name="endash" unicode="&#x2013;" horiz-adv-x="718" 
d="M76 200l12 75h584l-13 -75h-583z" />
    <glyph glyph-name="emdash" unicode="&#x2014;" horiz-adv-x="863" 
d="M76 200l12 75h729l-13 -75h-728z" />
    <glyph glyph-name="quoteleft" unicode="&#x2018;" horiz-adv-x="266" 
d="M215 470h-97l138 229h56z" />
    <glyph glyph-name="quoteright" unicode="&#x2019;" horiz-adv-x="266" 
d="M198 700h96l-138 -229h-55z" />
    <glyph glyph-name="quotesinglbase" unicode="&#x201a;" horiz-adv-x="266" 
d="M102 80h96l-138 -229h-55z" />
    <glyph glyph-name="quotedblleft" unicode="&#x201c;" horiz-adv-x="460" 
d="M215 470h-97l138 229h56zM409 470h-97l138 229h56z" />
    <glyph glyph-name="quotedblright" unicode="&#x201d;" horiz-adv-x="460" 
d="M198 700h96l-138 -229h-55zM392 700h96l-138 -229h-55z" />
    <glyph glyph-name="quotedblbase" unicode="&#x201e;" horiz-adv-x="460" 
d="M96 80h97l-138 -229h-55zM290 80h98l-138 -229h-56z" />
    <glyph glyph-name="dagger" unicode="&#x2020;" 
d="M153 540h150l24 160h81l-25 -160h150l-13 -75h-149l-96 -615h-77l93 615h-151z" />
    <glyph glyph-name="daggerdbl" unicode="&#x2021;" 
d="M88 120h151l52 345h-151l13 75h150l24 160h81l-25 -160h150l-13 -75h-149l-54 -345h151l-12 -75h-150l-31 -195h-77l30 195h-152z" />
    <glyph glyph-name="bullet" unicode="&#x2022;" horiz-adv-x="291" 
d="M135 416q0 22 16.5 38.5t38.5 16.5t38 -16t16 -39q0 -22 -16 -38t-38 -16q-23 0 -39 16t-16 38z" />
    <glyph glyph-name="ellipsis" unicode="&#x2026;" horiz-adv-x="873" 
d="M72 41q2 21 21.5 37.5t40.5 15.5t34 -17.5t11 -37.5t-21.5 -37.5t-40.5 -15.5t-34 17.5t-11 37.5zM362 41q2 21 21.5 37.5t40.5 15.5q21 -2 34.5 -18t11.5 -37t-21.5 -37.5t-40.5 -15.5q-21 2 -34.5 18t-11.5 37zM654 41q2 21 21.5 37.5t40.5 15.5q21 -2 34.5 -18
t11.5 -37t-21.5 -37.5t-40.5 -15.5q-21 2 -34.5 18t-11.5 37z" />
    <glyph glyph-name="perthousand" unicode="&#x2030;" horiz-adv-x="1097" 
d="M100 550q10 66 60.5 113t117.5 47t103 -47.5t27 -112.5q-10 -66 -60.5 -113t-117.5 -47t-103 47.5t-27 112.5zM636 700h78l-557 -700h-75zM170 550q-6 -37 11.5 -65t54.5 -29q38 -1 67 27.5t35 66.5q6 37 -11 65t-54 29q-38 1 -67.5 -27.5t-35.5 -66.5zM754 150
q10 66 61 113t119 47q67 0 102.5 -47.5t26.5 -112.5q-10 -66 -61 -113t-118 -47t-103 47.5t-27 112.5zM386 150q10 66 60.5 113t117.5 47t103 -47.5t27 -112.5q-10 -66 -60.5 -113t-117.5 -47t-103 47.5t-27 112.5zM824 150q-6 -37 11.5 -65t54.5 -29q38 -1 67.5 27.5
t35.5 66.5q6 37 -11 65t-54 29q-38 1 -68 -27.5t-36 -66.5zM456 150q-6 -37 11.5 -65t54.5 -29q38 -1 67 27.5t35 66.5q6 37 -11.5 65t-54.5 29q-38 1 -67 -27.5t-35 -66.5z" />
    <glyph glyph-name="uni2031" unicode="&#x2031;" horiz-adv-x="1466" 
d="M100 550q10 66 60.5 113t117.5 47t103 -47.5t27 -112.5q-10 -66 -60.5 -113t-117.5 -47t-103 47.5t-27 112.5zM636 700h78l-557 -700h-75zM170 550q-6 -37 11.5 -65t54.5 -29q38 -1 67 27.5t35 66.5q6 37 -11 65t-54 29q-38 1 -67.5 -27.5t-35.5 -66.5zM1124 150
q10 66 60.5 113t117.5 47t103 -47.5t27 -112.5q-10 -66 -61 -113t-118 -47t-102.5 47.5t-26.5 112.5zM754 150q10 66 61 113t119 47q67 0 102.5 -47.5t26.5 -112.5q-10 -66 -61 -113t-118 -47t-103 47.5t-27 112.5zM386 150q10 66 60.5 113t117.5 47t103 -47.5t27 -112.5
q-10 -66 -60.5 -113t-117.5 -47t-103 47.5t-27 112.5zM824 150q-6 -37 11.5 -65t54.5 -29q38 -1 67.5 27.5t35.5 66.5q6 37 -11 65t-54 29q-38 1 -68 -27.5t-36 -66.5zM1193 150q-6 -37 11.5 -65t54.5 -29q38 -1 67.5 27.5t35.5 66.5q6 37 -11.5 65t-54.5 29
q-38 1 -67.5 -27.5t-35.5 -66.5zM456 150q-6 -37 11.5 -65t54.5 -29q38 -1 67 27.5t35 66.5q6 37 -11.5 65t-54.5 29q-38 1 -67 -27.5t-35 -66.5z" />
    <glyph glyph-name="guilsinglleft" unicode="&#x2039;" horiz-adv-x="339" 
d="M143 258l113 -194l-55 -44l-146 238l223 232l44 -46z" />
    <glyph glyph-name="guilsinglright" unicode="&#x203a;" horiz-adv-x="339" 
d="M229 252l-113 194l55 44l147 -238l-224 -232l-43 46z" />
    <glyph glyph-name="uni203D" unicode="&#x203d;" horiz-adv-x="540" 
d="M252 510h101l-35 -152q56 18 95 55t49 87q11 59 -21.5 96.5t-95.5 37.5q-87 0 -155 -82l-58 42q48 56 101.5 86.5t128.5 29.5q89 -1 141 -62.5t39 -147.5q-14 -84 -82.5 -141.5t-157.5 -67.5l-28 -121h-59zM168 41q2 21 21.5 37.5t40.5 15.5q21 -2 34.5 -18t11.5 -37
t-21.5 -37.5t-40.5 -15.5q-21 2 -34.5 18t-11.5 37z" />
    <glyph glyph-name="fraction" unicode="&#x2044;" horiz-adv-x="684" 
d="M653 699l65 -1l-622 -698h-66z" />
    <glyph glyph-name="uni2070" unicode="&#x2070;" horiz-adv-x="361" 
d="M84 490q11 86 63 151t124 65q48 0 78 -34t38.5 -81t2.5 -101q-11 -86 -63 -151t-124 -65q-48 0 -78 34t-38.5 81t-2.5 101zM136 490q-18 -166 70 -168q52 -1 87 49.5t45 118.5q18 166 -70 168q-52 1 -87 -49.5t-45 -118.5z" />
    <glyph glyph-name="uni2074" unicode="&#x2074;" horiz-adv-x="374" 
d="M64 365l1 1h-1l282 333l22 1l-49 -291l63 -1l-6 -44h-65l-14 -84h-51l14 84zM298 582l-144 -174l114 1z" />
    <glyph glyph-name="uni2075" unicode="&#x2075;" horiz-adv-x="345" 
d="M361 416q-9 -64 -56 -104t-109 -40q-91 0 -133 89l45 29q31 -70 90 -70q43 0 73.5 27.5t36.5 68.5q6 40 -14 67t-58 29q-43 2 -102 -30l-16 -12l96 228h194l-8 -44l-152 -1l-46 -109q28 14 58 14q54 -1 81.5 -43t19.5 -99z" />
    <glyph glyph-name="uni2076" unicode="&#x2076;" horiz-adv-x="335" 
d="M288 697l66 -1l-142 -154q20 10 46 10q51 -1 78.5 -42t20.5 -94q-9 -60 -55 -102t-106 -42q-59 0 -93 42.5t-25 101.5q7 48 40 87zM126 416q-6 -39 13.5 -68t58.5 -30q40 -1 72.5 28t38.5 70q6 39 -13.5 68t-58.5 30q-40 1 -72.5 -28t-38.5 -70z" />
    <glyph glyph-name="uni2077" unicode="&#x2077;" horiz-adv-x="343" 
d="M113 652l7 48h289l-267 -419h-54l235 371h-210z" />
    <glyph glyph-name="uni2078" unicode="&#x2078;" horiz-adv-x="312" 
d="M68 394q6 40 32 69.5t64 42.5q-55 26 -46 94q7 44 45 75t85 31q46 0 74 -32t22 -76q-9 -69 -78 -95q31 -14 47 -43t11 -66q-8 -49 -50 -84.5t-96 -35.5q-52 0 -85 36t-25 84zM165 592q-4 -26 11 -45.5t41 -20.5q27 -1 50.5 20t28.5 48q4 27 -10.5 46t-41.5 20
q-28 1 -51 -19.5t-28 -48.5zM118 400q-5 -33 13 -56t50 -24q34 -1 62.5 22.5t33.5 57.5q5 31 -13.5 55t-49.5 25q-32 1 -61.5 -23.5t-34.5 -56.5z" />
    <glyph glyph-name="uni2079" unicode="&#x2079;" horiz-adv-x="335" 
d="M178 283l-65 1l141 154q-19 -10 -45 -10q-51 1 -78.5 42t-20.5 94q9 61 55 102.5t105 41.5t93 -42.5t25 -101.5q-7 -48 -40 -87zM340 564q6 39 -13.5 68t-58.5 30q-40 1 -72 -28t-38 -70q-6 -39 13.5 -68t58.5 -30q40 -1 72 28t38 70z" />
    <glyph glyph-name="uni2080" unicode="&#x2080;" horiz-adv-x="361" 
d="M37 210q11 86 63 151t124 65q48 0 78 -34t38 -81t2 -101q-11 -86 -63 -151t-124 -65q-48 0 -78 34t-38 81t-2 101zM88 210q-18 -166 70 -168q52 -1 87 49.5t45 118.5q18 166 -69 168q-52 1 -87.5 -49.5t-45.5 -118.5z" />
    <glyph glyph-name="uni2081" unicode="&#x2081;" horiz-adv-x="304" 
d="M118 339l8 52l149 37l-74 -426h-51l61 362z" />
    <glyph glyph-name="uni2082" unicode="&#x2082;" horiz-adv-x="335" 
d="M-2 3l226 211q53 49 60 92q5 29 -10 51t-48 23q-40 2 -69 -27.5t-39 -73.5h-51q14 65 56.5 107.5t105.5 41.5q58 0 86 -38.5t20 -87.5q-10 -59 -73 -116l-152 -136h183l-7 -48z" />
    <glyph glyph-name="uni2083" unicode="&#x2083;" horiz-adv-x="302" 
d="M128 -6q-57 0 -86 33t-26 84h50q0 -30 16.5 -49t49.5 -20q34 -1 60.5 21.5t31.5 54.5q6 36 -18 55t-64 22l2 13l6 32q84 9 96 73q5 27 -7.5 46.5t-40.5 20.5t-50.5 -18t-30.5 -45l-49 1q12 47 47 78t85 30q49 -1 77 -34.5t20 -77.5q-13 -70 -94 -95q83 -27 71 -109
q-7 -50 -49 -83t-97 -33z" />
    <glyph glyph-name="uni2084" unicode="&#x2084;" horiz-adv-x="374" 
d="M16 85l1 1h-1l282 333l22 1l-49 -291l64 -1l-7 -44h-65l-14 -84h-51l14 84zM250 302l-144 -174l115 1z" />
    <glyph glyph-name="uni2085" unicode="&#x2085;" horiz-adv-x="345" 
d="M314 136q-9 -64 -56.5 -104t-109.5 -40q-91 0 -133 89l45 29q31 -70 90 -70q43 0 74 27.5t37 68.5q6 39 -14 66.5t-59 29.5q-43 2 -102 -30l-16 -12l96 228h194l-8 -44l-152 -1l-46 -109q30 14 59 14q54 -1 81.5 -43t19.5 -99z" />
    <glyph glyph-name="uni2086" unicode="&#x2086;" horiz-adv-x="335" 
d="M240 417l65 -1l-142 -154q22 10 45 10q51 -1 79 -42t21 -94q-9 -60 -55 -102t-106 -42q-59 0 -93 42.5t-25 101.5q7 46 41 87zM78 136q-6 -39 13.5 -68t58.5 -30q40 -1 72 28t38 70q6 39 -13.5 68t-58.5 30q-40 1 -72 -28t-38 -70z" />
    <glyph glyph-name="uni2087" unicode="&#x2087;" horiz-adv-x="343" 
d="M65 372l8 48h289l-268 -420h-54l235 372h-210z" />
    <glyph glyph-name="uni2088" unicode="&#x2088;" horiz-adv-x="312" 
d="M20 114q6 40 32 69.5t64 42.5q-55 26 -46 94q7 44 45 75t85 31q46 0 74.5 -32t22.5 -76q-4 -33 -25.5 -58.5t-53.5 -36.5q31 -14 47 -43t11 -66q-8 -49 -50 -84.5t-96 -35.5q-52 0 -85 36t-25 84zM118 312q-4 -26 10.5 -45.5t40.5 -20.5q27 -1 50.5 20t28.5 48
q4 27 -10.5 46t-41.5 20q-28 1 -50.5 -19.5t-27.5 -48.5zM70 120q-5 -33 13.5 -56t50.5 -24q34 -1 62.5 22.5t33.5 57.5q5 31 -14 55t-50 25q-32 1 -61.5 -23.5t-34.5 -56.5z" />
    <glyph glyph-name="uni2089" unicode="&#x2089;" horiz-adv-x="335" 
d="M114 3l-66 1l142 154q-20 -10 -46 -10q-51 1 -78.5 42t-20.5 94q9 60 55 102t106 42q59 0 93 -42.5t25 -101.5q-7 -48 -40 -87zM276 284q6 39 -13.5 68t-58.5 30q-40 1 -72.5 -28t-38.5 -70q-6 -39 13.5 -68t58.5 -30q40 -1 72.5 28t38.5 70z" />
    <glyph glyph-name="Euro" unicode="&#x20ac;" horiz-adv-x="562" 
d="M36 288l8 46h54q0 2 1 7.5t1 8.5q4 29 12 58h-56l8 46h63q43 112 129 184t194 72q70 0 142 -41l-16 -101q-59 62 -134 62t-134.5 -49t-93.5 -127h338l-8 -46h-347q-8 -26 -13 -58q0 -3 -1 -8.5t-1 -7.5h324l-8 -46h-318q0 -93 39.5 -155t121.5 -63q79 0 159 61l-16 -100
q-79 -41 -151 -41q-116 0 -177.5 86.5t-59.5 211.5h-60z" />
    <glyph glyph-name="trademark" unicode="&#x2122;" horiz-adv-x="645" 
d="M672 722l-2 -8l-24 -364h-42l15 230l-144 -199l-75 204l-66 -235l-42 1l104 364v2l91 -251l183 253l1 3v-2zM116 660l7 40h217l-6 -40h-88l-53 -310h-43l52 310h-86z" />
    <glyph glyph-name="uni2150" unicode="&#x2150;" horiz-adv-x="817" 
d="M106 612l8 52l149 36l-73 -426h-52l62 364zM642 699l65 -1l-623 -698h-65zM539 372l7 48h289l-267 -420h-54l234 372h-209z" />
    <glyph glyph-name="uni2151" unicode="&#x2151;" horiz-adv-x="760" 
d="M106 612l8 52l149 36l-73 -426h-52l62 364zM642 699l65 -1l-623 -698h-65zM556 3l-66 1l141 154q-19 -10 -45 -10q-51 1 -79 42t-21 94q9 60 55.5 102t106.5 42q59 0 93 -42.5t25 -101.5q-7 -48 -40 -87zM717 284q6 39 -13.5 68t-58.5 30q-40 1 -72.5 -28t-38.5 -70
q-6 -39 13.5 -68t58.5 -30q40 -1 72.5 28t38.5 70z" />
    <glyph glyph-name="uni2152" unicode="&#x2152;" horiz-adv-x="1048" 
d="M106 612l8 52l149 36l-73 -426h-52l62 364zM642 699l65 -1l-623 -698h-65zM504 339l8 52l149 37l-74 -426h-51l62 362zM724 210q11 86 62.5 151t123.5 65q48 0 78 -34t38 -81t2 -101q-11 -86 -62.5 -151t-123.5 -65q-48 0 -78 34t-38 81t-2 101zM775 210
q-18 -166 70 -168q52 -1 87.5 49.5t45.5 118.5q18 166 -70 168q-52 1 -87.5 -49.5t-45.5 -118.5z" />
    <glyph glyph-name="onethird" unicode="&#x2153;" horiz-adv-x="732" 
d="M106 612l8 52l149 36l-73 -426h-52l62 364zM642 699l65 -1l-623 -698h-65zM554 -6q-57 0 -87 33t-27 84h51q0 -30 16.5 -49t49.5 -20q34 -1 60 21t31 55q6 36 -17.5 55t-63.5 22l6 33l2 12q84 9 96 73q5 27 -8 46.5t-41 20.5t-50 -18t-30 -45l-49 1q12 47 47.5 78
t85.5 30q49 -1 76.5 -34t19.5 -78q-13 -69 -94 -96q83 -27 71 -108q-7 -51 -48.5 -83.5t-96.5 -32.5z" />
    <glyph glyph-name="twothirds" unicode="&#x2154;" horiz-adv-x="855" 
d="M50 283l226 211q54 50 61 92q5 29 -10.5 51t-48.5 23q-40 2 -68.5 -27.5t-38.5 -73.5h-51q14 65 56.5 107.5t105.5 41.5q58 0 86 -38.5t20 -87.5q-10 -58 -74 -116l-151 -136h183l-8 -48zM765 699l65 -1l-622 -698h-66zM677 -6q-57 0 -86.5 33t-26.5 84h50
q0 -30 16.5 -49t49.5 -20q34 -1 60.5 21.5t31.5 54.5q6 36 -18 55t-64 22l6 33l2 12q84 9 96 73q5 27 -7.5 46.5t-40.5 20.5t-50 -18t-30 -45l-50 1q12 47 47.5 78t85.5 30q49 -1 76.5 -34t19.5 -78q-13 -69 -94 -96q83 -27 71 -108q-7 -51 -48.5 -83.5t-96.5 -32.5z" />
    <glyph glyph-name="uni2155" unicode="&#x2155;" horiz-adv-x="722" 
d="M106 612l8 52l149 36l-73 -426h-52l62 364zM642 699l65 -1l-623 -698h-65zM577 373l-46 -109q30 14 59 14q53 -1 80.5 -43t19.5 -99q-9 -64 -56.5 -104t-109.5 -40q-90 0 -132 89l45 29q31 -70 91 -70q43 0 73.5 27.5t36.5 68.5q6 39 -14 66.5t-59 29.5q-43 2 -99 -28
l-19 -14l97 228h192l-6 -44z" />
    <glyph glyph-name="uni2156" unicode="&#x2156;" horiz-adv-x="845" 
d="M50 283l226 211q54 50 61 92q5 29 -10.5 51t-48.5 23q-40 2 -68.5 -27.5t-38.5 -73.5h-51q14 65 56.5 107.5t105.5 41.5q58 0 86 -38.5t20 -87.5q-10 -58 -74 -116l-151 -136h183l-8 -48zM765 699l65 -1l-622 -698h-66zM700 373l-46 -109q28 14 58 14q54 -1 81.5 -43
t19.5 -99q-9 -64 -56 -104t-109 -40q-91 0 -133 89l45 29q31 -70 90 -70q43 0 73.5 27.5t36.5 68.5q6 40 -14 67t-58 29q-43 2 -102 -30l-16 -12l96 228h194l-8 -44z" />
    <glyph glyph-name="uni2157" unicode="&#x2157;" horiz-adv-x="806" 
d="M182 274q-57 0 -87 33t-27 84h50q0 -30 16.5 -49t49.5 -20q34 -1 60.5 21.5t31.5 54.5q6 36 -17.5 55t-63.5 22l5 33l2 12q84 9 96 73q5 27 -7.5 46.5t-40.5 20.5t-50 -18t-30 -45l-50 1q12 47 47.5 78t85.5 30q49 -1 77 -34.5t20 -77.5q-13 -69 -94 -96q83 -27 71 -108
q-7 -51 -48.5 -83.5t-96.5 -32.5zM726 699l66 -1l-623 -698h-65zM661 373l-45 -109q30 14 58 14q53 -1 80.5 -43t19.5 -99q-9 -64 -56 -104t-109 -40q-91 0 -133 89l46 29q31 -70 90 -70q43 0 73.5 27.5t36.5 68.5q6 40 -14 67t-58 29q-43 2 -99 -28l-19 -14l96 228h193
l-7 -44z" />
    <glyph glyph-name="uni2158" unicode="&#x2158;" horiz-adv-x="840" 
d="M64 365l1 1h-1l282 333l22 1l-49 -291l63 -1l-6 -44h-65l-14 -84h-51l14 84zM760 699l66 -1l-623 -698h-65zM298 582l-144 -174l114 1zM695 373l-45 -109q30 14 58 14q53 -1 80.5 -43t19.5 -99q-9 -64 -56 -104t-109 -40q-91 0 -133 89l46 29q31 -70 90 -70
q43 0 73.5 27.5t36.5 68.5q6 40 -14 67t-58 29q-43 2 -99 -28l-19 -14l96 228h193l-7 -44z" />
    <glyph glyph-name="uni2159" unicode="&#x2159;" horiz-adv-x="712" 
d="M106 612l8 52l149 36l-73 -426h-52l62 364zM642 699l65 -1l-623 -698h-65zM617 417l65 -1l-142 -154q23 10 46 10q51 -1 79 -42t21 -94q-9 -60 -55.5 -102t-106.5 -42q-59 0 -93 42.5t-25 101.5q7 46 41 87zM455 136q-6 -39 13.5 -68t58.5 -30q40 -1 72.5 28t38.5 70
q6 39 -13.5 68t-58.5 30q-40 1 -72.5 -28t-38.5 -70z" />
    <glyph glyph-name="uni215A" unicode="&#x215a;" horiz-adv-x="830" 
d="M760 699l66 -1l-623 -698h-65zM361 416q-9 -64 -56 -104t-109 -40q-91 0 -133 89l45 29q31 -70 90 -70q43 0 73.5 27.5t36.5 68.5q6 40 -14 67t-58 29q-43 2 -102 -30l-16 -12l96 228h194l-8 -44l-152 -1l-46 -109q28 14 58 14q54 -1 81.5 -43t19.5 -99zM735 417l65 -1
l-142 -154q23 10 46 10q51 -1 79 -42t21 -94q-9 -60 -55 -102t-106 -42q-59 0 -93 42.5t-25 101.5q7 48 40 87zM574 136q-6 -39 13.5 -68t58.5 -30q40 -1 72 28t38 70q6 39 -13.5 68t-58.5 30q-40 1 -72 -28t-38 -70z" />
    <glyph glyph-name="oneeighth" unicode="&#x215b;" horiz-adv-x="737" 
d="M106 612l8 52l149 36l-73 -426h-52l62 364zM642 699l65 -1l-623 -698h-65zM446 114q5 39 31 68.5t64 42.5q-54 27 -45 95q7 44 44 75t84 31q46 0 75 -32t23 -76q-9 -68 -78 -95q31 -14 47 -43t11 -66q-8 -49 -50 -84.5t-96 -35.5q-52 0 -85 36t-25 84zM542 312
q-4 -26 11 -45.5t41 -20.5q27 -1 50 19.5t28 48.5q4 27 -9.5 46t-40.5 20q-28 1 -51.5 -19.5t-28.5 -48.5zM495 120q-5 -33 13 -56t50 -24q34 -1 62.5 22.5t33.5 57.5q5 31 -13.5 55t-49.5 25q-32 1 -61.5 -23.5t-34.5 -56.5z" />
    <glyph glyph-name="threeeighths" unicode="&#x215c;" horiz-adv-x="821" 
d="M182 274q-57 0 -87 33t-27 84h50q0 -30 16.5 -49t49.5 -20q34 -1 60.5 21.5t31.5 54.5q6 36 -17.5 55t-63.5 22l5 33l2 12q84 9 96 73q5 27 -7.5 46.5t-40.5 20.5t-50 -18t-30 -45l-50 1q12 47 47.5 78t85.5 30q49 -1 77 -34.5t20 -77.5q-13 -69 -94 -96q83 -27 71 -108
q-7 -51 -48.5 -83.5t-96.5 -32.5zM726 699l66 -1l-623 -698h-65zM530 114q5 39 31 68.5t64 42.5q-54 28 -45 95q7 44 44.5 75t84.5 31q46 0 74.5 -32t22.5 -76q-9 -68 -78 -95q31 -14 47 -43t11 -66q-8 -49 -50 -84.5t-96 -35.5q-52 0 -85 36t-25 84zM627 312
q-4 -26 10.5 -45.5t40.5 -20.5q27 -1 50.5 20t28.5 48q4 27 -10 46t-41 20q-28 1 -51 -19.5t-28 -48.5zM580 120q-5 -33 13 -56t50 -24q33 -1 61.5 22.5t33.5 57.5q5 31 -13 55t-49 25q-32 1 -61.5 -23.5t-34.5 -56.5z" />
    <glyph glyph-name="fiveeighths" unicode="&#x215d;" horiz-adv-x="855" 
d="M760 699l66 -1l-623 -698h-65zM361 416q-9 -64 -56 -104t-109 -40q-91 0 -133 89l45 29q31 -70 90 -70q43 0 73.5 27.5t36.5 68.5q6 40 -14 67t-58 29q-43 2 -102 -30l-16 -12l96 228h194l-8 -44l-152 -1l-46 -109q28 14 58 14q54 -1 81.5 -43t19.5 -99zM564 114
q5 39 31 68.5t64 42.5q-54 28 -45 95q7 44 44.5 75t84.5 31q46 0 74.5 -32t22.5 -76q-9 -68 -78 -95q31 -14 47 -43t11 -66q-8 -49 -50 -84.5t-96 -35.5q-52 0 -85 36t-25 84zM661 312q-4 -26 10.5 -45.5t40.5 -20.5q27 -1 50.5 20t28.5 48q4 27 -10 46t-41 20
q-28 1 -51 -19.5t-28 -48.5zM614 120q-5 -33 13 -56t50 -24q33 -1 61.5 22.5t33.5 57.5q5 31 -13.5 55t-49.5 25q-32 1 -61 -23.5t-34 -56.5z" />
    <glyph glyph-name="seveneighths" unicode="&#x215e;" horiz-adv-x="749" 
d="M113 652l7 48h289l-267 -419h-54l235 371h-210zM653 699l65 -1l-622 -698h-66zM458 114q5 39 31 68.5t64 42.5q-55 28 -46 95q7 44 44.5 75t84.5 31q46 0 75 -32t23 -76q-9 -68 -78 -95q31 -14 46.5 -43t10.5 -66q-8 -49 -50.5 -84.5t-95.5 -35.5q-52 0 -84.5 36
t-24.5 84zM554 312q-4 -26 11 -45.5t41 -20.5q27 -1 50 19.5t28 48.5q4 27 -10 46t-41 20q-28 1 -51 -19.5t-28 -48.5zM506 120q-5 -33 13.5 -56t50.5 -24q34 -1 62.5 22.5t33.5 57.5q5 31 -14 55t-50 25q-32 1 -61.5 -23.5t-34.5 -56.5z" />
    <glyph glyph-name="partialdiff" unicode="&#x2202;" horiz-adv-x="561" 
d="M256 -10q-97 0 -155.5 59t-58.5 156q0 106 77 179t171 73q57 0 109 -31q-56 125 -193 243l48 56q142 -135 203 -241t61 -209q0 -115 -72 -200t-190 -85zM256 67q77 0 127.5 57t50.5 131q0 66 -35 103t-93 37q-69 0 -125.5 -56.5t-56.5 -133.5q0 -62 37 -100t95 -38z" />
    <glyph glyph-name="emptyset" unicode="&#x2205;" horiz-adv-x="600" 
d="M109 40l-37 36l44 39q-30 49 -30 107q0 95 73.5 164.5t170.5 69.5q72 0 123 -45l38 33l38 -36l-42 -37q32 -47 32 -109q0 -92 -70 -163t-174 -71q-73 0 -126 47zM148 222q0 -37 16 -65l242 212q-31 25 -76 25q-71 0 -126.5 -51t-55.5 -121zM275 90q78 0 130 54t52 118
q0 37 -17 68l-244 -214q34 -26 79 -26z" />
    <glyph glyph-name="product" unicode="&#x220f;" horiz-adv-x="600" 
d="M130 0l110 630h-85l10 70h450l-10 -70h-85l-110 -630h-80l110 630h-120l-110 -630h-80z" />
    <glyph glyph-name="summation" unicode="&#x2211;" horiz-adv-x="600" 
d="M55 0l231 356l-114 344h400l-12 -72h-284l93 -276l-181 -280h279l-12 -72h-400z" />
    <glyph glyph-name="minus" unicode="&#x2212;" horiz-adv-x="572" 
d="M76 200l12 75h438l-12 -75h-438z" />
    <glyph glyph-name="uni2215" unicode="&#x2215;" horiz-adv-x="499" 
d="M498 700h82l-540 -850l-78 1z" />
    <glyph glyph-name="uni2219" unicode="&#x2219;" horiz-adv-x="291" 
d="M136 416q2 21 21.5 38t40.5 16t34 -18t11 -38t-21.5 -38t-40.5 -16t-34 18t-11 38z" />
    <glyph glyph-name="radical" unicode="&#x221a;" horiz-adv-x="600" 
d="M164 -200l-54 361l-71 -17l-4 57l138 33l19 -181l222 647h158l-10 -72h-93z" />
    <glyph glyph-name="infinity" unicode="&#x221e;" horiz-adv-x="750" 
d="M154 48q-67 0 -108.5 54.5t-29.5 127.5t71 126.5t127 53.5q94 0 166 -120q114 120 204 120q68 0 109 -53.5t29 -126.5t-71.5 -127.5t-127.5 -54.5q-92 0 -164 120q-114 -120 -205 -120zM178 126q66 0 148 104q-45 103 -114 103q-38 0 -71.5 -31t-40.5 -72t17 -72.5
t61 -31.5zM525 126q37 0 71.5 31.5t41.5 72.5t-16.5 72t-61.5 31q-68 0 -148 -103q46 -104 113 -104z" />
    <glyph glyph-name="integral" unicode="&#x222b;" horiz-adv-x="600" 
d="M126 -200q-43 1 -82 42l53 62q23 -26 39 -26q46 0 68 90l148 658q17 77 59.5 120.5t97.5 42.5q43 -1 82 -42l-53 -62q-23 26 -40 26q-46 0 -68 -91l-148 -658q-17 -77 -59 -120t-97 -42z" />
    <glyph glyph-name="approxequal" unicode="&#x2248;" horiz-adv-x="600" 
d="M416 372q-49 0 -112 48q-43 33 -80 33q-33 0 -51 -22t-13 -55l-74 5q-6 53 40 99.5t106 46.5q50 0 115 -48q44 -32 73 -32q27 0 42 23t8 53l78 -5q5 -56 -36 -101t-96 -45zM374 122q-49 0 -112 48q-44 33 -80 33q-33 0 -51 -22t-13 -55l-73 5q-6 53 39.5 99.5t105.5 46.5
q55 0 120 -48q44 -32 68 -32q27 0 42 23t8 53l78 -5q5 -56 -36 -101t-96 -45z" />
    <glyph glyph-name="notequal" unicode="&#x2260;" horiz-adv-x="600" 
d="M44 140l12 75h172l55 75h-215l13 75h258l95 127l58 -38l-66 -89h140l-12 -75h-184l-56 -75h227l-13 -75h-269l-79 -106l-59 38l51 68h-128z" />
    <glyph glyph-name="lessequal" unicode="&#x2264;" horiz-adv-x="600" 
d="M524 115l-473 220l7 45l548 220l-14 -80l-404 -158l350 -167zM-5 0l13 80h510l-13 -80h-510z" />
    <glyph glyph-name="greaterequal" unicode="&#x2265;" horiz-adv-x="600" 
d="M39 115l13 80l405 158l-350 167l13 80l474 -220l-8 -45zM20 0l14 80h510l-14 -80h-510z" />
    <glyph glyph-name="lozenge" unicode="&#x25ca;" horiz-adv-x="600" 
d="M264 15l-150 341l264 340l136 -340zM287 172l137 184l-76 184l-142 -184z" />
    <glyph glyph-name="uniFF10" unicode="&#xff10;" horiz-adv-x="562" 
d="M61 350q21 146 105.5 253t205.5 107q62 0 106 -32.5t63.5 -84.5t27.5 -116t-2 -127q-21 -146 -105.5 -253t-205.5 -107q-62 0 -106 32.5t-63.5 84.5t-27.5 116t2 127zM145 350q-8 -46 -5 -95t13 -90t38.5 -67.5t72.5 -27.5q86 -1 144 82.5t75 197.5q5 65 3 126.5t-33 107
t-88 46.5q-86 1 -144.5 -83t-75.5 -197z" />
    <glyph glyph-name="uniFF11" unicode="&#xff11;" horiz-adv-x="562" 
d="M178 562l17 89l245 59l-122 -710h-84l104 606z" />
    <glyph glyph-name="uniFF12" unicode="&#xff12;" horiz-adv-x="562" 
d="M-2 0l378 353q87 81 100 153q8 48 -18.5 85.5t-81.5 38.5q-68 1 -115.5 -47.5t-62.5 -122.5l-83 1q20 109 91.5 179.5t177.5 69.5q96 0 143 -64.5t33 -146.5q-15 -93 -121 -192l-256 -227h309l-13 -80h-481z" />
    <glyph glyph-name="uniFF13" unicode="&#xff13;" horiz-adv-x="562" 
d="M266 -10q-93 0 -144.5 55.5t-43.5 139.5l84 -1q-3 -50 26.5 -82t84.5 -32q57 0 99.5 35.5t51.5 89.5q11 61 -28 93.5t-106 36.5l8 55h1l3 20q62 5 105 36.5t53 84.5q8 46 -12.5 78t-67.5 33q-48 1 -84.5 -30t-49.5 -76l-80 1q17 80 76.5 131.5t143.5 51.5q82 0 127 -55.5
t33 -130.5q-10 -57 -50.5 -98t-101.5 -62q133 -45 114 -180q-13 -86 -81.5 -140t-160.5 -54z" />
    <glyph glyph-name="uniFF14" unicode="&#xff14;" horiz-adv-x="562" 
d="M533 140h-108l-24 -140h-84l25 140h-330l473 559l35 1l-82 -485h108zM404 506l-240 -292l191 1z" />
    <glyph glyph-name="uniFF15" unicode="&#xff15;" horiz-adv-x="562" 
d="M530 230q-15 -108 -94 -174t-184 -66q-155 0 -220 148l78 48q20 -50 59 -83t91 -33q71 0 120.5 45t61.5 115q11 66 -23 112.5t-99 47.5q-47 1 -88 -13.5t-95 -46.5l-9 -7l158 377h322l-12 -74l-256 -1l-78 -182q49 23 101 23q89 0 134.5 -70t32.5 -166z" />
    <glyph glyph-name="uniFF16" unicode="&#xff16;" horiz-adv-x="562" 
d="M412 700h109l-237 -260q32 16 76 16q86 -1 132 -69t34 -157q-15 -103 -92 -171.5t-178 -68.5q-99 0 -153.5 70t-40.5 170q12 81 66 145zM142 230q-11 -66 22.5 -114t98.5 -48q68 0 120 47t63 115q11 66 -23 115t-99 49q-68 0 -119.5 -47.5t-62.5 -116.5z" />
    <glyph glyph-name="uniFF17" unicode="&#xff17;" horiz-adv-x="562" 
d="M134 620l14 80h478l-446 -700h-90l394 620h-350z" />
    <glyph glyph-name="uniFF18" unicode="&#xff18;" horiz-adv-x="562" 
d="M74 190q9 65 52.5 114t105.5 71q-43 21 -63 62.5t-12 94.5q12 74 74 126t141 52q77 0 124.5 -53.5t36.5 -126.5q-8 -55 -42.5 -96.5t-85.5 -61.5q51 -24 77 -72t17 -110q-14 -83 -84 -141.5t-159 -58.5q-88 0 -141 60t-41 140zM234 521q-7 -44 18.5 -77t69.5 -34
q46 -1 84 32t46 79q8 45 -16 78.5t-70 34.5q-48 1 -86 -32.5t-46 -80.5zM156 200q-9 -56 21.5 -94.5t84.5 -39.5q56 -1 103.5 38t56.5 96q8 52 -24 92.5t-84 41.5q-54 1 -101.5 -39.5t-56.5 -94.5z" />
    <glyph glyph-name="uniFF19" unicode="&#xff19;" horiz-adv-x="562" 
d="M216 0h-109l237 259q-34 -15 -76 -15q-86 1 -132 69t-34 157q15 103 92 171.5t178 68.5q99 0 153.5 -70t40.5 -170q-12 -81 -66 -145zM486 470q11 66 -22 114t-98 48q-68 0 -120.5 -47t-63.5 -115q-11 -66 23 -115t99 -49q68 0 119.5 47.5t62.5 116.5z" />
    <glyph glyph-name="a.alt" horiz-adv-x="468" 
d="M136 353l-29 61q92 56 181 56q75 0 119 -38t33 -102l-56 -330h-80l11 64q-27 -35 -69.5 -54.5t-88.5 -19.5q-64 0 -103 41t-30 105q11 69 68 109.5t138 40.5q70 0 119 -36l13 74q6 37 -18 55.5t-66 19.5q-64 1 -142 -46zM104 138q-5 -36 18 -56.5t62 -21.5
q56 -1 96.5 32.5t55.5 87.5v-1l3 18q-48 27 -105 27q-52 0 -87.5 -22.5t-42.5 -63.5z" />
    <glyph glyph-name="agrave.alt" horiz-adv-x="470" 
d="M174 681l78 39l121 -161l-47 -29zM142 352l-29 62q90 56 178 56q73 0 116.5 -37.5t34.5 -102.5l-56 -330h-80l12 67q-56 -77 -162 -77q-66 0 -104.5 37.5t-29.5 98.5q10 75 71.5 117.5t144.5 42.5q64 0 112 -35l14 79q0 33 -21.5 50.5t-58.5 18.5q-60 1 -142 -47z
M104 135q-6 -35 15 -53.5t63 -19.5q60 -1 100 28.5t55 85.5l4 22q-47 26 -104 26q-54 0 -90 -23t-43 -66z" />
    <glyph glyph-name="aacute.alt" horiz-adv-x="470" 
d="M486 678l-200 -147l-41 31l172 158zM142 352l-29 62q90 56 178 56q73 0 116.5 -37.5t34.5 -102.5l-56 -330h-80l12 67q-56 -77 -162 -77q-66 0 -104.5 37.5t-29.5 98.5q10 75 71.5 117.5t144.5 42.5q64 0 112 -35l14 79q0 33 -21.5 50.5t-58.5 18.5q-60 1 -142 -47z
M104 135q-6 -35 15 -53.5t63 -19.5q60 -1 100 28.5t55 85.5l4 22q-47 26 -104 26q-54 0 -90 -23t-43 -66z" />
    <glyph glyph-name="acircumflex.alt" horiz-adv-x="470" 
d="M323 624l-124 -94l-45 42l179 138l134 -141l-54 -39zM142 352l-29 62q90 56 178 56q73 0 116.5 -37.5t34.5 -102.5l-56 -330h-80l12 67q-56 -77 -162 -77q-66 0 -104.5 37.5t-29.5 98.5q10 75 71.5 117.5t144.5 42.5q64 0 112 -35l14 79q0 33 -21.5 50.5t-58.5 18.5
q-60 1 -142 -47zM104 135q-6 -35 15 -53.5t63 -19.5q60 -1 100 28.5t55 85.5l4 22q-47 26 -104 26q-54 0 -90 -23t-43 -66z" />
    <glyph glyph-name="atilde.alt" horiz-adv-x="470" 
d="M150 568q16 34 47 57.5t65 22.5q26 -1 58 -24t55 -22q24 1 63 48l40 -44q-20 -30 -50 -51.5t-64 -20.5q-23 1 -55 24t-53 22q-37 -1 -59 -50zM142 352l-29 62q90 56 178 56q73 0 116.5 -37.5t34.5 -102.5l-56 -330h-80l12 67q-56 -77 -162 -77q-66 0 -104.5 37.5
t-29.5 98.5q10 75 71.5 117.5t144.5 42.5q64 0 112 -35l14 79q0 33 -21.5 50.5t-58.5 18.5q-60 1 -142 -47zM104 135q-6 -35 15 -53.5t63 -19.5q60 -1 100 28.5t55 85.5l4 22q-47 26 -104 26q-54 0 -90 -23t-43 -66z" />
    <glyph glyph-name="adieresis.alt" horiz-adv-x="470" 
d="M356 586q2 21 21.5 38t40.5 16t34.5 -18t11.5 -38t-21.5 -38t-40.5 -16t-34.5 18t-11.5 38zM162 586q2 21 21.5 38t40.5 16t34.5 -18t11.5 -38t-21.5 -38t-40.5 -16t-34.5 18t-11.5 38zM142 352l-29 62q90 56 178 56q73 0 116.5 -37.5t34.5 -102.5l-56 -330h-80l12 67
q-56 -77 -162 -77q-66 0 -104.5 37.5t-29.5 98.5q10 75 71.5 117.5t144.5 42.5q64 0 112 -35l14 79q0 33 -21.5 50.5t-58.5 18.5q-60 1 -142 -47zM104 135q-6 -35 15 -53.5t63 -19.5q60 -1 100 28.5t55 85.5l4 22q-47 26 -104 26q-54 0 -90 -23t-43 -66z" />
    <glyph glyph-name="aring.alt" horiz-adv-x="470" 
d="M222 631q6 41 40 70t74 29t65.5 -30.5t19.5 -70.5q-6 -41 -40.5 -70t-74.5 -29t-65 30t-19 71zM272 630q-2 -20 9 -35.5t29 -16.5q19 -2 39 15t22 37q2 19 -9.5 34.5t-29.5 17.5t-38 -14.5t-22 -37.5zM142 352l-29 62q90 56 178 56q73 0 116.5 -37.5t34.5 -102.5
l-56 -330h-80l12 67q-56 -77 -162 -77q-66 0 -104.5 37.5t-29.5 98.5q10 75 71.5 117.5t144.5 42.5q64 0 112 -35l14 79q0 33 -21.5 50.5t-58.5 18.5q-60 1 -142 -47zM104 135q-6 -35 15 -53.5t63 -19.5q60 -1 100 28.5t55 85.5l4 22q-47 26 -104 26q-54 0 -90 -23t-43 -66z
" />
    <glyph glyph-name="amacron.alt" horiz-adv-x="470" 
d="M138 550l12 75h342l-13 -75h-341zM142 352l-29 62q90 56 178 56q73 0 116.5 -37.5t34.5 -102.5l-56 -330h-80l12 67q-56 -77 -162 -77q-66 0 -104.5 37.5t-29.5 98.5q10 75 71.5 117.5t144.5 42.5q64 0 112 -35l14 79q0 33 -21.5 50.5t-58.5 18.5q-60 1 -142 -47z
M104 135q-6 -35 15 -53.5t63 -19.5q60 -1 100 28.5t55 85.5l4 22q-47 26 -104 26q-54 0 -90 -23t-43 -66z" />
    <glyph glyph-name="abreve.alt" horiz-adv-x="470" 
d="M174 670h68q-2 -30 14 -52t56 -22q67 0 99 74l71 -1q-16 -59 -61.5 -99t-114.5 -40t-103 40.5t-29 99.5zM142 352l-29 62q90 56 178 56q73 0 116.5 -37.5t34.5 -102.5l-56 -330h-80l12 67q-56 -77 -162 -77q-66 0 -104.5 37.5t-29.5 98.5q10 75 71.5 117.5t144.5 42.5
q64 0 112 -35l14 79q0 33 -21.5 50.5t-58.5 18.5q-60 1 -142 -47zM104 135q-6 -35 15 -53.5t63 -19.5q60 -1 100 28.5t55 85.5l4 22q-47 26 -104 26q-54 0 -90 -23t-43 -66z" />
    <glyph glyph-name="aogonek.alt" horiz-adv-x="470" 
d="M142 352l-29 62q90 56 178 56q73 0 116.5 -37.5t34.5 -102.5l-56 -330q-100 -48 -108 -100q-5 -47 36 -50q22 -2 53 20l25 -52q-42 -38 -90 -38q-54 -1 -83.5 27t-22.5 73q11 63 110 122l12 65q-56 -77 -162 -77q-65 0 -103 39t-29 103q11 72 70 113t144 41q64 0 112 -35
l14 79q0 33 -21.5 50.5t-58.5 18.5q-60 1 -142 -47zM104 135q-5 -34 17.5 -53t60.5 -20q59 -1 99.5 28.5t55.5 85.5l4 22q-47 26 -104 26q-54 0 -90 -23.5t-43 -65.5z" />
    </font>
</defs>
</svg>
