<?xml version="1.0" standalone="no"?>
<!DOCTYPE svg PUBLIC "-//W3C//DTD SVG 1.1//EN" "http://www.w3.org/Graphics/SVG/1.1/DTD/svg11.dtd" >
<svg xmlns="http://www.w3.org/2000/svg" xmlns:xlink="http://www.w3.org/1999/xlink" version="1.1">
<metadata>
Created by FontForge 20170731 at Tue Dec 31 03:22:24 2019
 By Aleksey,,,
Copyright 2019 indestructible type* (https://github.com/indestructible-type)
</metadata>
<defs>
<font id="Jost-Light" horiz-adv-x="505" >
  <font-face 
    font-family="Jost* 300 Light"
    font-weight="300"
    font-stretch="normal"
    units-per-em="1000"
    panose-1="0 0 0 0 0 0 0 0 0 0"
    ascent="800"
    descent="-200"
    x-height="460"
    cap-height="700"
    bbox="-120 -340 1448 1020"
    underline-thickness="50"
    underline-position="-200"
    unicode-range="U+000D-FF19"
  />
<missing-glyph horiz-adv-x="500" 
d="M50 -200v1000h400v-1000h-400zM100 -150h300v900h-300v-900z" />
    <glyph glyph-name=".notdef" horiz-adv-x="500" 
d="M50 -200v1000h400v-1000h-400zM100 -150h300v900h-300v-900z" />
    <glyph glyph-name="uni0000" horiz-adv-x="300" 
 />
    <glyph glyph-name="uni0000" horiz-adv-x="300" 
 />
    <glyph glyph-name="uni000D" unicode="&#xd;" horiz-adv-x="300" 
 />
    <glyph glyph-name="space" unicode=" " horiz-adv-x="300" 
 />
    <glyph glyph-name="exclam" unicode="!" horiz-adv-x="284" 
d="M110 700h65l-13 -500h-39zM105 24q0 16 11 27t26 11t26.5 -11t11.5 -27q0 -15 -11.5 -26t-26.5 -11t-26 10.5t-11 26.5z" />
    <glyph glyph-name="quotedbl" unicode="&#x22;" horiz-adv-x="440" 
d="M134 700h62l-76 -292h-36zM314 700h62l-76 -292h-36z" />
    <glyph glyph-name="numbersign" unicode="#" horiz-adv-x="591" 
d="M35 216v43h109l45 187h-114v43h125l51 211h49l-51 -211h160l52 211h49l-51 -211h97v-43h-108l-45 -187h113v-43h-124l-52 -216h-49l53 216h-161l-53 -216h-49l52 216h-98zM193 259h161l46 187h-161z" />
    <glyph glyph-name="dollar" unicode="$" horiz-adv-x="580" 
d="M436 528q-54 128 -158 128q-63 0 -98.5 -31t-35.5 -85q0 -31 13.5 -55.5t41 -43t52 -30t63.5 -26.5q174 -63 174 -201q0 -83 -46.5 -135t-137.5 -57v-104h-49v105q-73 9 -125.5 62t-80.5 132l47 27q65 -171 192 -171q72 0 107.5 36.5t35.5 100.5q0 34 -14 61.5t-40.5 47
t-51 32t-59.5 25.5q-180 66 -180 198q0 66 48 111.5t121 52.5v110h48v-111q67 -8 113 -51.5t65 -99.5z" />
    <glyph glyph-name="percent" unicode="%" horiz-adv-x="731" 
d="M35 554q0 67 42.5 111.5t111.5 44.5t111.5 -44.5t42.5 -111.5t-42.5 -111.5t-111.5 -44.5t-111.5 44.5t-42.5 111.5zM567 700h50l-453 -700h-50zM82 554q0 -48 29 -80.5t78 -32.5t78 32.5t29 80.5t-29 80.5t-78 32.5t-78 -32.5t-29 -80.5zM388 146q0 67 42.5 111.5
t111.5 44.5t111.5 -44.5t42.5 -111.5t-42.5 -111.5t-111.5 -44.5t-111.5 44.5t-42.5 111.5zM435 146q0 -48 29 -80.5t78 -32.5t78 32.5t29 80.5t-29 80.5t-78 32.5t-78 -32.5t-29 -80.5z" />
    <glyph glyph-name="ampersand" unicode="&#x26;" horiz-adv-x="675" 
d="M207 401q-2 2 -21 23t-26 30.5t-20 29.5t-18 39.5t-5 40.5q0 65 44.5 106t118.5 41q72 0 114 -44t42 -105q0 -92 -146 -180l-1 -1l192 -221q40 43 121 156l41 -25q-102 -136 -130 -167l108 -124h-62l-79 90q-105 -100 -223 -100q-90 0 -153.5 51.5t-63.5 137.5
q0 44 15.5 79t46 61t53.5 40t60 33zM247 429l12 -13q124 72 124 146q0 43 -27 72.5t-76 29.5q-52 0 -80.5 -28t-28.5 -72q0 -12 2 -22.5t7.5 -22t9 -18.5t13 -19.5t13 -17t16.5 -18.5t15 -17zM95 182q0 -66 47 -105t118 -39q95 0 188 88l-203 232q-34 -18 -54 -31t-45.5 -35
t-38 -49.5t-12.5 -60.5z" />
    <glyph glyph-name="quotesingle" unicode="'" horiz-adv-x="260" 
d="M134 700h62l-76 -292h-36z" />
    <glyph glyph-name="parenleft" unicode="(" horiz-adv-x="282" 
d="M205 780h47q-104 -222 -104 -490t104 -490h-47q-115 216 -115 490t115 490z" />
    <glyph glyph-name="parenright" unicode=")" horiz-adv-x="282" 
d="M77 -200h-47q104 222 104 490t-104 490h47q115 -216 115 -490t-115 -490z" />
    <glyph glyph-name="asterisk" unicode="*" horiz-adv-x="592" 
d="M205 348l-38 28l101 128l-157 44l14 45l154 -56l-6 163h46l-6 -163l154 56l14 -45l-157 -44l101 -128l-38 -28l-91 136z" />
    <glyph glyph-name="plus" unicode="+" horiz-adv-x="589" 
d="M65 229v52h200v211h55v-211h200v-52h-200v-211h-55v211h-200z" />
    <glyph glyph-name="comma" unicode="," horiz-adv-x="295" 
d="M159 104l52 -20l-110 -250l-37 13z" />
    <glyph glyph-name="hyphen" unicode="-" horiz-adv-x="210" 
d="M5 226v49h200v-49h-200z" />
    <glyph glyph-name="period" unicode="." horiz-adv-x="284" 
d="M105 24q0 16 11 27t26 11t26 -11t11 -27t-11 -26.5t-26 -10.5t-26 10.5t-11 26.5z" />
    <glyph glyph-name="slash" unicode="/" horiz-adv-x="499" 
d="M431 700h53l-416 -850h-53z" />
    <glyph glyph-name="zero" unicode="0" horiz-adv-x="580" 
d="M46 350q0 156 67.5 258t176.5 102t176.5 -102t67.5 -258t-67.5 -258t-176.5 -102t-176.5 102t-67.5 258zM101 350q0 -133 51.5 -220.5t137.5 -87.5t137.5 87.5t51.5 220.5t-51.5 220.5t-137.5 87.5t-137.5 -87.5t-51.5 -220.5z" />
    <glyph glyph-name="one" unicode="1" horiz-adv-x="434" 
d="M86 599v57l216 52v-708h-55v641z" />
    <glyph glyph-name="two" unicode="2" horiz-adv-x="547" 
d="M22 0l327 345q81 86 81 166q0 57 -40 102.5t-112 45.5q-76 0 -120.5 -54t-44.5 -145h-55q0 113 59 182t161 69q100 0 154.5 -62.5t54.5 -135.5q0 -101 -95 -198l-255 -263h363v-52h-478z" />
    <glyph glyph-name="three" unicode="3" horiz-adv-x="548" 
d="M281 -10q-99 0 -159 55.5t-60 139.5h56q0 -63 44.5 -103t118.5 -40q72 0 115 40t43 105q0 72 -57 112t-131 40v49q69 0 118.5 39t49.5 99q0 57 -35 95.5t-98 38.5q-62 0 -101.5 -38t-39.5 -96h-53q0 82 53.5 133t139.5 51t138 -53.5t52 -128.5q0 -57 -38 -100.5
t-100 -62.5q71 -18 114.5 -64.5t43.5 -119.5q0 -86 -60 -138.5t-154 -52.5z" />
    <glyph glyph-name="four" unicode="4" horiz-adv-x="571" 
d="M22 140l386 560h21v-511h110v-49h-110v-140h-55v140h-352zM114 189h260v384z" />
    <glyph glyph-name="five" unicode="5" horiz-adv-x="561" 
d="M510 230q0 -115 -67 -177.5t-170 -62.5q-159 0 -233 147l47 31q26 -56 74.5 -91t111.5 -35q82 0 131 50t49 138q0 79 -48.5 128.5t-121.5 49.5q-56 0 -98.5 -18.5t-90.5 -62.5l92 373h330v-49h-288l-60 -243q57 50 137 50q88 0 146.5 -64t58.5 -164z" />
    <glyph glyph-name="six" unicode="6" horiz-adv-x="560" 
d="M330 700h69l-209 -285q42 34 113 34q86 0 146.5 -65t60.5 -158q0 -105 -64 -170.5t-166 -65.5t-166 65.5t-64 170.5q0 84 49 151zM103 226q0 -81 49.5 -133.5t127.5 -52.5t127.5 52.5t49.5 133.5q0 77 -50.5 129.5t-122.5 52.5q-81 0 -131 -52.5t-50 -129.5z" />
    <glyph glyph-name="seven" unicode="7" horiz-adv-x="521" 
d="M32 648v52h482l-349 -700h-58l324 648h-399z" />
    <glyph glyph-name="eight" unicode="8" horiz-adv-x="534" 
d="M59 188q0 68 38 116t99 68q-51 18 -82.5 61.5t-31.5 101.5q0 72 53 123.5t132 51.5t132 -51.5t53 -123.5q0 -58 -31.5 -101.5t-82.5 -61.5q61 -20 99 -68t38 -116q0 -84 -58 -141t-150 -57t-150 57t-58 141zM135 529q0 -56 41 -94.5t91 -38.5t91 38.5t41 94.5t-37.5 94
t-94.5 38t-94.5 -38t-37.5 -94zM112 194q0 -69 44 -112t111 -43t111 43t44 112q0 64 -47.5 108.5t-107.5 44.5t-107.5 -44.5t-47.5 -108.5z" />
    <glyph glyph-name="nine" unicode="9" horiz-adv-x="560" 
d="M230 0h-69l209 285q-42 -34 -113 -34q-86 0 -146.5 65t-60.5 158q0 105 64 170.5t166 65.5t166 -65.5t64 -170.5q0 -84 -49 -151zM457 474q0 81 -49.5 133.5t-127.5 52.5t-127.5 -52.5t-49.5 -133.5q0 -77 50.5 -129.5t122.5 -52.5q81 0 131 52.5t50 129.5z" />
    <glyph glyph-name="colon" unicode=":" horiz-adv-x="300" 
d="M105 392q0 16 11 26.5t26 10.5t26 -10.5t11 -26.5t-11 -27t-26 -11t-26 11t-11 27zM105 24q0 16 11 27t26 11t26 -11t11 -27t-11 -26.5t-26 -10.5t-26 10.5t-11 26.5z" />
    <glyph glyph-name="semicolon" unicode=";" horiz-adv-x="308" 
d="M135 392q0 16 11 26.5t26 10.5t26 -10.5t11 -26.5t-11 -27t-26 -11t-26 11t-11 27zM159 104l52 -20l-110 -250l-37 13z" />
    <glyph glyph-name="less" unicode="&#x3c;" horiz-adv-x="640" 
d="M151 260l424 -181v-52l-510 216v29l510 216v-52z" />
    <glyph glyph-name="equal" unicode="=" horiz-adv-x="615" 
d="M65 298v49h485v-49h-485zM65 158v49h485v-49h-485z" />
    <glyph glyph-name="greater" unicode="&#x3e;" horiz-adv-x="640" 
d="M489 255l-424 181v52l510 -216v-29l-510 -216v52z" />
    <glyph glyph-name="question" unicode="?" horiz-adv-x="551" 
d="M430 508q0 70 -43.5 111.5t-119.5 41.5q-103 0 -162 -95l-43 27q38 58 85.5 87.5t125.5 29.5q93 0 151.5 -57.5t58.5 -144.5q0 -80 -64.5 -138t-153.5 -61l-4 -139h-39l-14 175h16q90 0 148 48.5t58 114.5zM203 24q0 16 11 27t26 11t26 -11t11 -27t-11 -26.5t-26 -10.5
t-26 10.5t-11 26.5z" />
    <glyph glyph-name="at" unicode="@" horiz-adv-x="770" 
d="M35 320q0 166 107 277.5t273 111.5q76 0 138 -27.5t101 -72.5t60 -101.5t21 -117.5q0 -116 -56.5 -177.5t-122.5 -61.5q-38 0 -61 25.5t-25 67.5q-49 -83 -137 -83q-58 0 -97.5 42.5t-39.5 114.5q0 98 56 154.5t126 56.5q42 0 71 -26t43 -69l13 86h50l-41 -231
q-2 -14 -2 -30q0 -64 50 -64q43 0 85 52t42 143q0 113 -73 194.5t-201 81.5q-148 0 -241 -98.5t-93 -247.5q0 -132 75.5 -209t204.5 -77q125 0 217 55l24 -39q-107 -59 -241 -59q-155 0 -240.5 88.5t-85.5 240.5zM246 320q0 -51 26.5 -81.5t71.5 -30.5q52 0 91.5 43.5
t39.5 118.5q0 49 -27 81t-70 32q-52 0 -92 -44.5t-40 -118.5z" />
    <glyph glyph-name="A" unicode="A" horiz-adv-x="636" 
d="M565 0l-97 235h-301l-96 -235h-62l309 727l309 -727h-62zM318 600l-129 -313h258z" />
    <glyph glyph-name="B" unicode="B" horiz-adv-x="532" 
d="M479 203q0 -100 -63.5 -151.5t-169.5 -51.5h-162v700h152q95 0 149.5 -43.5t54.5 -125.5q0 -58 -33 -95t-92 -52q72 -14 118 -60.5t46 -120.5zM236 651h-97v-243h97q65 0 107 30.5t42 89.5q0 57 -40.5 90t-108.5 33zM139 49h107q82 0 129.5 40.5t47.5 116.5
q0 71 -51.5 112t-125.5 41h-107v-310z" />
    <glyph glyph-name="C" unicode="C" horiz-adv-x="685" 
d="M103 350q0 -132 81.5 -217.5t201.5 -85.5q140 0 225 96v-74q-46 -40 -98.5 -59t-126.5 -19q-146 0 -244 101.5t-98 257.5t98 257.5t244 101.5q74 0 126.5 -19t98.5 -59v-73q-82 95 -225 95q-120 0 -201.5 -85.5t-81.5 -217.5z" />
    <glyph glyph-name="D" unicode="D" horiz-adv-x="662" 
d="M274 0h-190v700h190q153 0 248.5 -97t95.5 -253t-95.5 -253t-248.5 -97zM274 645h-135v-590h135q131 0 210 80.5t79 214.5t-79 214.5t-210 80.5z" />
    <glyph glyph-name="E" unicode="E" horiz-adv-x="534" 
d="M84 700h376v-52h-321v-238h301v-52h-301v-306h321v-52h-376v700z" />
    <glyph glyph-name="F" unicode="F" horiz-adv-x="480" 
d="M84 700h336v-52h-281v-243h271v-52h-271v-353h-55v700z" />
    <glyph glyph-name="G" unicode="G" horiz-adv-x="771" 
d="M411 297v52h311q0 -149 -90 -253.5t-239 -104.5q-151 0 -250 101.5t-99 257.5t99 257.5t250 101.5q189 0 286 -150l-40 -35q-35 60 -99 95t-147 35q-125 0 -208 -85.5t-83 -218.5t83 -218.5t208 -85.5q113 0 185 72t84 179h-251z" />
    <glyph glyph-name="H" unicode="H" horiz-adv-x="687" 
d="M84 700h55v-293h409v293h56v-700h-56v355h-409v-355h-55v700z" />
    <glyph glyph-name="I" unicode="I" horiz-adv-x="219" 
d="M82 700h55v-700h-55v700z" />
    <glyph glyph-name="J" unicode="J" horiz-adv-x="222" 
d="M-91 -126q33 -42 91 -42q86 0 86 118v750h53v-760q0 -160 -141 -160q-36 0 -70.5 17t-47.5 35z" />
    <glyph glyph-name="K" unicode="K" horiz-adv-x="520" 
d="M82 700h55v-312l290 312h70l-308 -328l323 -372h-70l-305 353v-353h-55v700z" />
    <glyph glyph-name="L" unicode="L" horiz-adv-x="442" 
d="M84 700h55v-648h289v-52h-344v700z" />
    <glyph glyph-name="M" unicode="M" horiz-adv-x="818" 
d="M163 554l-60 -554h-55l81 727l280 -538l280 538l81 -727h-55l-60 554l-246 -473z" />
    <glyph glyph-name="N" unicode="N" horiz-adv-x="755" 
d="M616 700h55v-727l-532 611v-584h-55v727l532 -613v586z" />
    <glyph glyph-name="O" unicode="O" horiz-adv-x="783" 
d="M44 350q0 155 99 257t249 102t249 -102t99 -257t-99 -257t-249 -102t-249 102t-99 257zM102 350q0 -131 82 -217.5t208 -86.5t207.5 86t81.5 218t-81.5 218t-207.5 86t-208 -86.5t-82 -217.5z" />
    <glyph glyph-name="P" unicode="P" horiz-adv-x="520" 
d="M84 700h164q100 0 164.5 -56t64.5 -151t-64.5 -151t-164.5 -56h-109v-286h-55v700zM248 648h-109v-310h109q78 0 125.5 40.5t47.5 114.5t-47.5 114.5t-125.5 40.5z" />
    <glyph glyph-name="Q" unicode="Q" horiz-adv-x="782" 
d="M44 350q0 155 99 257t249 102t249 -102t99 -257q0 -141 -84 -241l112 -109h-73l-75 73q-95 -82 -228 -82q-150 0 -249 102t-99 257zM102 350q0 -131 82 -217.5t208 -86.5q109 0 187 67l-192 187h73l154 -150q67 81 67 200q0 132 -81.5 218t-207.5 86t-208 -86.5
t-82 -217.5z" />
    <glyph glyph-name="R" unicode="R" horiz-adv-x="523" 
d="M84 700h160q104 0 170.5 -54.5t66.5 -148.5q0 -83 -52.5 -135.5t-138.5 -64.5l213 -297h-68l-204 294h-92v-294h-55v700zM244 651h-105v-308h105q83 0 132.5 40t49.5 114t-50 114t-132 40z" />
    <glyph glyph-name="S" unicode="S" horiz-adv-x="524" 
d="M89 202q59 -159 188 -159q66 0 105.5 37t39.5 96q0 36 -12.5 63.5t-38 47t-48.5 31t-60 25.5q-38 14 -64.5 27.5t-57.5 36.5t-47.5 56.5t-16.5 75.5q0 75 52.5 122.5t135.5 47.5q77 0 129 -41t76 -99l-48 -27q-52 114 -160 114q-60 0 -93.5 -30.5t-33.5 -79.5
q0 -56 41 -92.5t129 -67.5q174 -62 174 -204q0 -84 -58 -137.5t-145 -53.5q-85 0 -145 52t-87 131z" />
    <glyph glyph-name="T" unicode="T" horiz-adv-x="451" 
d="M14 648v52h423v-52h-184v-648h-55v648h-184z" />
    <glyph glyph-name="U" unicode="U" horiz-adv-x="606" 
d="M79 700h55v-474q0 -85 44.5 -134.5t124.5 -49.5t124.5 49.5t44.5 134.5v474h55v-474q0 -106 -60 -171t-164 -65t-164 65t-60 171v474z" />
    <glyph glyph-name="V" unicode="V" horiz-adv-x="636" 
d="M318 101l247 599h62l-309 -727l-309 727h62z" />
    <glyph glyph-name="W" unicode="W" horiz-adv-x="974" 
d="M700 121l199 579h61l-259 -727l-214 603l-214 -603l-259 727h61l202 -579l210 606z" />
    <glyph glyph-name="X" unicode="X" horiz-adv-x="533" 
d="M438 700h66l-207 -333l222 -367h-66l-184 318l-189 -318h-66l227 367l-202 333h66l165 -285z" />
    <glyph glyph-name="Y" unicode="Y" horiz-adv-x="539" 
d="M468 700h62l-235 -412v-288h-55v287l-231 413h62l196 -362z" />
    <glyph glyph-name="Z" unicode="Z" horiz-adv-x="541" 
d="M37 648v52h486l-412 -648h396v-52h-490l412 648h-392z" />
    <glyph glyph-name="bracketleft" unicode="[" horiz-adv-x="284" 
d="M152 731v-902h112v-49h-164v1000h164v-49h-112z" />
    <glyph glyph-name="backslash" unicode="\" horiz-adv-x="483" 
d="M15 700h56l397 -700h-56z" />
    <glyph glyph-name="bracketright" unicode="]" horiz-adv-x="284" 
d="M132 -171v902h-112v49h164v-1000h-164v49h112z" />
    <glyph glyph-name="asciicircum" unicode="^" horiz-adv-x="510" 
d="M255 650l-136 -190h-54l178 250h24l178 -250h-54z" />
    <glyph glyph-name="underscore" unicode="_" horiz-adv-x="500" 
d="M0 -123v37h500v-37h-500z" />
    <glyph glyph-name="grave" unicode="`" horiz-adv-x="366" 
d="M85 673l48 27l158 -160l-29 -20z" />
    <glyph glyph-name="a" unicode="a" horiz-adv-x="462" 
d="M89 376l-26 39q75 55 170 55q78 0 122 -37.5t44 -106.5v-326h-52v86q-19 -46 -63.5 -71t-94.5 -25q-64 0 -109.5 38.5t-45.5 107.5q0 67 46.5 106t126.5 39q81 0 140 -39v77q0 45 -28 75t-90 30q-77 0 -140 -48zM87 138q0 -50 33 -76.5t83 -26.5q61 0 102.5 41.5
t41.5 115.5v14q-57 33 -132 33q-59 0 -93.5 -25.5t-34.5 -75.5z" />
    <glyph glyph-name="b" unicode="b" horiz-adv-x="558" 
d="M519 230q0 -108 -63.5 -174t-158.5 -66q-58 0 -102.5 31.5t-68.5 86.5v-108h-52v780h52v-428q24 55 68.5 86.5t102.5 31.5q95 0 158.5 -66t63.5 -174zM467 230q0 87 -51 139t-126 52q-66 0 -115 -55t-49 -136t49 -136t115 -55q75 0 126 52t51 139z" />
    <glyph glyph-name="c" unicode="c" horiz-adv-x="482" 
d="M87 230q0 -83 52.5 -137t130.5 -54q53 0 97 22.5t61 52.5v-65q-22 -25 -65.5 -42t-92.5 -17q-101 0 -168.5 68t-67.5 172t67.5 172t168.5 68q49 0 92.5 -17t65.5 -42v-65q-17 30 -61 52.5t-97 22.5q-78 0 -130.5 -54t-52.5 -137z" />
    <glyph glyph-name="d" unicode="d" horiz-adv-x="558" 
d="M39 230q0 108 63.5 174t158.5 66q58 0 102.5 -31.5t68.5 -86.5v428h52v-780h-52v108q-24 -55 -68.5 -86.5t-102.5 -31.5q-95 0 -158.5 66t-63.5 174zM92 230q0 -87 50.5 -139t125.5 -52q66 0 115 55t49 136t-49 136t-115 55q-75 0 -125.5 -52t-50.5 -139z" />
    <glyph glyph-name="e" unicode="e" horiz-adv-x="509" 
d="M252 -10q-93 0 -153 68t-60 173t62 172t159 67q94 0 152.5 -63.5t58.5 -164.5q0 -15 -2 -25h-377q5 -81 50 -129.5t116 -48.5q103 0 163 95l42 -27q-76 -117 -211 -117zM260 424q-69 0 -113.5 -43.5t-52.5 -118.5h321q-1 70 -45 116t-110 46z" />
    <glyph glyph-name="f" unicode="f" horiz-adv-x="282" 
d="M44 460h45v178q0 72 30.5 111.5t92.5 39.5q55 0 87 -43l-29 -42q-22 33 -61 33q-68 0 -68 -105v-172h119v-49h-119v-411h-52v411h-45v49z" />
    <glyph glyph-name="g" unicode="g" horiz-adv-x="558" 
d="M50 -30h53q0 -65 44.5 -108t116.5 -43q70 0 119 49t49 142v98q-24 -55 -68.5 -86.5t-102.5 -31.5q-95 0 -158.5 66t-63.5 174t63.5 174t158.5 66q58 0 102.5 -31.5t68.5 -86.5v108h52v-450q0 -114 -64 -177t-156 -63q-95 0 -154.5 55.5t-59.5 144.5zM92 230
q0 -87 50.5 -139t125.5 -52q66 0 115 55.5t49 137.5q0 78 -49 133.5t-115 55.5q-75 0 -125.5 -52t-50.5 -139z" />
    <glyph glyph-name="h" unicode="h" 
d="M374 296q0 125 -108 125q-58 0 -96.5 -41t-38.5 -100v-280h-52v780h52v-410q21 46 59.5 73t87.5 27q71 0 109.5 -44t38.5 -124v-302h-52v296z" />
    <glyph glyph-name="i" unicode="i" horiz-adv-x="232" 
d="M79 668q0 15 10.5 26t26.5 11t26.5 -11t10.5 -26t-10.5 -26t-26.5 -11t-26.5 11t-10.5 26zM90 460h52v-460h-52v460z" />
    <glyph glyph-name="j" unicode="j" horiz-adv-x="222" 
d="M67 668q0 15 10.5 25.5t26.5 10.5t26 -10.5t10 -25.5t-10 -25.5t-26 -10.5t-26.5 10.5t-10.5 25.5zM-49 -134q23 -34 61 -34q68 0 68 105v523h52v-529q0 -69 -31 -110t-92 -41q-55 0 -87 43z" />
    <glyph glyph-name="k" unicode="k" horiz-adv-x="412" 
d="M323 460h67l-217 -190l236 -270h-66l-217 248v-248h-52v780h52v-493z" />
    <glyph glyph-name="l" unicode="l" horiz-adv-x="210" 
d="M79 780h52v-780h-52v780z" />
    <glyph glyph-name="m" unicode="m" horiz-adv-x="744" 
d="M665 302v-302h-52v296q0 125 -94 125q-51 0 -86 -40.5t-35 -100.5v-280h-52v296q0 125 -94 125q-51 0 -86 -40t-35 -101v-280h-52v460h52v-93q18 49 53.5 76t79.5 27q49 0 81.5 -28t43.5 -78q20 50 58 78t84 28q64 0 99 -44.5t35 -123.5z" />
    <glyph glyph-name="n" unicode="n" 
d="M374 296q0 125 -108 125q-58 0 -96.5 -40.5t-38.5 -100.5v-280h-52v460h52v-96q20 50 58 78t89 28q71 0 109.5 -45t38.5 -123v-302h-52v296z" />
    <glyph glyph-name="o" unicode="o" horiz-adv-x="550" 
d="M39 230q0 104 67.5 172t168.5 68t168.5 -68t67.5 -172t-67.5 -172t-168.5 -68t-168.5 68t-67.5 172zM92 230q0 -83 52.5 -137t130.5 -54t130.5 54t52.5 137t-52.5 137t-130.5 54t-130.5 -54t-52.5 -137z" />
    <glyph glyph-name="p" unicode="p" horiz-adv-x="558" 
d="M126 -220h-52v680h52v-108q24 55 68.5 86.5t102.5 31.5q95 0 158.5 -66t63.5 -174t-63.5 -174t-158.5 -66q-58 0 -102.5 31.5t-68.5 86.5v-328zM467 230q0 87 -51 139t-126 52q-66 0 -115 -55t-49 -136t49 -136t115 -55q75 0 126 52t51 139z" />
    <glyph glyph-name="q" unicode="q" horiz-adv-x="558" 
d="M39 230q0 108 63.5 174t158.5 66q58 0 102.5 -31.5t68.5 -86.5v108h52v-680h-52v328q-24 -55 -68.5 -86.5t-102.5 -31.5q-95 0 -158.5 66t-63.5 174zM92 230q0 -87 50.5 -139t125.5 -52q66 0 115 55t49 136t-49 136t-115 55q-75 0 -125.5 -52t-50.5 -139z" />
    <glyph glyph-name="r" unicode="r" horiz-adv-x="321" 
d="M131 460v-67q37 77 105 77q48 0 77 -28l-29 -43q-31 22 -60 22q-48 0 -70.5 -39t-22.5 -102v-280h-52v460h52z" />
    <glyph glyph-name="s" unicode="s" horiz-adv-x="403" 
d="M78 131q37 -93 133 -93q43 0 68 21.5t25 59.5q0 37 -30 59.5t-84 40.5q-62 21 -96.5 49.5t-34.5 84.5q0 55 40.5 85.5t97.5 30.5q56 0 97 -26.5t60 -67.5l-43 -26q-41 74 -120 74q-35 0 -58 -17.5t-23 -49.5q0 -26 17 -45t36 -27.5t55 -21.5q67 -25 103 -54.5t36 -82.5
q0 -60 -41.5 -97.5t-107.5 -37.5q-67 0 -112 34t-60 83z" />
    <glyph glyph-name="t" unicode="t" horiz-adv-x="220" 
d="M9 460h75v160h52v-160h75v-49h-75v-411h-52v411h-75v49z" />
    <glyph glyph-name="u" unicode="u" 
d="M131 168q0 -129 108 -129q58 0 96.5 40.5t38.5 100.5v280h52v-460h-52v96q-20 -51 -58 -78.5t-89 -27.5q-71 0 -109.5 45.5t-38.5 126.5v298h52v-292z" />
    <glyph glyph-name="v" unicode="v" horiz-adv-x="432" 
d="M4 460h59l153 -375l153 375h59l-212 -487z" />
    <glyph glyph-name="w" unicode="w" horiz-adv-x="656" 
d="M9 460h58l124 -356l132 383l142 -384l124 357h58l-179 -487l-144 383l-136 -383z" />
    <glyph glyph-name="x" unicode="x" horiz-adv-x="404" 
d="M330 460h60l-159 -223l169 -237h-60l-138 196l-138 -196h-60l169 237l-159 223h60l128 -182z" />
    <glyph glyph-name="y" unicode="y" horiz-adv-x="434" 
d="M430 460l-300 -680h-58l118 267l-186 413h62l154 -363l152 363h58z" />
    <glyph glyph-name="z" unicode="z" horiz-adv-x="448" 
d="M332 411h-289v49h384l-315 -411h307v-49h-402z" />
    <glyph glyph-name="braceleft" unicode="{" horiz-adv-x="299" 
d="M166 652v-186q0 -147 -62 -176q62 -29 62 -176v-186q0 -82 62 -82h29v-46h-44q-45 0 -72 34.5t-27 105.5v210q0 103 -52 120v40q52 17 52 120v210q0 71 27 105.5t72 34.5h44v-46h-29q-62 0 -62 -82z" />
    <glyph glyph-name="bar" unicode="|" horiz-adv-x="248" 
d="M100 785h48v-1000h-48v1000z" />
    <glyph glyph-name="braceright" unicode="}" horiz-adv-x="299" 
d="M138 -72v186q0 147 62 176q-62 29 -62 176v186q0 82 -62 82h-29v46h44q45 0 72 -34.5t27 -105.5v-210q0 -103 52 -120v-40q-52 -17 -52 -120v-210q0 -71 -27 -105.5t-72 -34.5h-44v46h29q62 0 62 82z" />
    <glyph glyph-name="asciitilde" unicode="~" horiz-adv-x="575" 
d="M120 177l-48 4q-3 11 -3 24q0 44 25 76q35 46 96 46q54 0 121 -60q52 -46 85 -46q60 0 60 73q0 16 -5 28l51 -4q4 -16 4 -28q0 -48 -22 -76q-32 -42 -86 -42q-47 0 -113 57q-56 50 -96 50q-35 0 -54 -21.5t-19 -58.5q0 -11 4 -22z" />
    <glyph glyph-name="uni00A0" unicode="&#xa0;" horiz-adv-x="300" 
 />
    <glyph glyph-name="exclamdown" unicode="&#xa1;" horiz-adv-x="300" 
d="M195 431q0 -16 -11 -27t-26 -11t-26.5 11t-11.5 27q0 15 11.5 26t26.5 11t26 -10.5t11 -26.5zM190 -245h-65l13 500h39z" />
    <glyph glyph-name="cent" unicode="&#xa2;" horiz-adv-x="580" 
d="M136 230q0 -82 52 -136.5t131 -54.5q53 0 97 22.5t61 52.5v-65q-20 -23 -59 -39.5t-84 -19.5l2 -102h-44l2 103q-92 9 -151.5 75.5t-59.5 163.5t59.5 163.5t151.5 75.5l-2 109h44l-2 -108q45 -3 84 -19.5t59 -39.5v-65q-17 30 -61 52.5t-97 22.5q-79 0 -131 -54.5
t-52 -136.5z" />
    <glyph glyph-name="sterling" unicode="&#xa3;" horiz-adv-x="580" 
d="M75 344h127q-3 5 -19.5 28t-23 34t-17 32t-14.5 42.5t-4 45.5q0 81 53.5 132.5t139.5 51.5q62 0 107 -36t63.5 -80.5t21.5 -89.5l-47 -17q-4 66 -40 117.5t-105 51.5q-59 0 -98 -35.5t-39 -93.5q0 -38 13 -68.5t38.5 -65t33.5 -49.5h150v-49h-132q3 -15 3 -31
q0 -59 -36.5 -116.5t-83.5 -95.5h343v-52h-433l32 36t31 35.5t25.5 30.5t24.5 31.5t17.5 28t15.5 31.5t7.5 29.5t3.5 32.5q0 22 -6 40h-152v49z" />
    <glyph glyph-name="currency" unicode="&#xa4;" horiz-adv-x="572" 
d="M79 55l-34 34l58 58q-51 64 -51 153t51 153l-58 58l34 34l57 -58q64 53 150 53q87 0 152 -54l59 59l33 -34l-60 -60q50 -63 50 -151q0 -89 -50 -151l60 -60l-33 -34l-59 59q-65 -54 -152 -54q-86 0 -150 53zM105 300q0 -82 52 -136.5t129 -54.5t129 54.5t52 136.5
t-52 136.5t-129 54.5t-129 -54.5t-52 -136.5z" />
    <glyph glyph-name="yen" unicode="&#xa5;" horiz-adv-x="574" 
d="M39 142v49h213v91h-213v49h189l-207 369h62l197 -362l200 362h62l-211 -369h190v-49h-213v-91h213v-49h-213v-142h-56v142h-213z" />
    <glyph glyph-name="brokenbar" unicode="&#xa6;" horiz-adv-x="248" 
d="M100 695h48v-240h-48v240zM148 245v-240h-48v240h48z" />
    <glyph glyph-name="section" unicode="&#xa7;" horiz-adv-x="404" 
d="M73 147q9 -45 50 -76.5t92 -31.5q45 0 75 18t30 57q0 15 -4 27.5t-16 23.5t-18.5 17t-28 16t-26 12t-29.5 12q-29 12 -49.5 23t-43 27.5t-34.5 38.5t-12 48q0 44 28.5 75t83.5 41q-52 21 -82 47.5t-30 70.5q0 54 44 85.5t103 31.5q55 0 103 -26t61 -64l-41 -26
q-14 30 -49 48t-73 18q-40 0 -68 -17t-28 -50q0 -8 2.5 -15.5t8 -14t11 -12t15.5 -11.5t17 -10t19 -9.5t18.5 -8.5t19.5 -8t18 -7q61 -25 97.5 -55.5t36.5 -75.5q0 -102 -110 -122q110 -49 110 -126q0 -65 -44.5 -96.5t-117.5 -31.5q-64 0 -118 38.5t-64 94.5zM111 365
q0 -27 19 -48.5t38.5 -31.5t52.5 -22q44 7 71.5 34.5t27.5 64.5q0 24 -19 44t-38.5 30t-53.5 24q-48 -13 -73 -38.5t-25 -56.5z" />
    <glyph glyph-name="dieresis" unicode="&#xa8;" horiz-adv-x="450" 
d="M288 672q0 16 11 26.5t26 10.5t26.5 -11t11.5 -26q0 -16 -11.5 -27t-26.5 -11t-26 11t-11 27zM88 672q0 16 11 26.5t26 10.5t26.5 -11t11.5 -26q0 -16 -11.5 -27t-26.5 -11t-26 11t-11 27z" />
    <glyph glyph-name="copyright" unicode="&#xa9;" horiz-adv-x="800" 
d="M40 350q0 156 103 258t257 102t257 -102t103 -258t-103 -258t-257 -102t-257 102t-103 258zM77 350q0 -140 93 -233t230 -93t230 93t93 233t-93 233t-230 93t-230 -93t-93 -233zM223 350q0 -80 48 -131t122 -51q86 0 135 57v-44q-53 -47 -135 -47q-88 0 -147 61.5
t-59 154.5t59 154.5t147 61.5q82 0 135 -47v-44q-49 57 -135 57q-74 0 -122 -51t-48 -131z" />
    <glyph glyph-name="ordfeminine" unicode="&#xaa;" horiz-adv-x="238" 
d="M56 652l-13 21q36 30 84 30q37 0 58 -19.5t21 -52.5v-171h-26v42q-19 -47 -79 -47q-32 0 -55.5 20t-23.5 55t28.5 56.5t66.5 21.5t63 -19v42q0 23 -14.5 36t-38.5 13q-38 0 -71 -28zM49 530q0 -51 58 -51q31 0 52 18t21 49v25q-27 17 -62 17q-29 0 -49 -16t-20 -42z" />
    <glyph glyph-name="guillemotleft" unicode="&#xab;" horiz-adv-x="500" 
d="M258 257l172 -207l-33 -30l-197 235l197 235l33 -30zM98 257l172 -207l-33 -30l-197 235l197 235l33 -30z" />
    <glyph glyph-name="logicalnot" unicode="&#xac;" horiz-adv-x="620" 
d="M65 326v49h490v-200h-49v151h-441z" />
    <glyph glyph-name="uni00AD" unicode="&#xad;" horiz-adv-x="210" 
d="M5 226v49h200v-49h-200z" />
    <glyph glyph-name="registered" unicode="&#xae;" horiz-adv-x="800" 
d="M40 350q0 156 103 258t257 102t257 -102t103 -258t-103 -258t-257 -102t-257 102t-103 258zM77 350q0 -140 93 -233t230 -93t230 93t93 233t-93 233t-230 93t-230 -93t-93 -233zM284 570h96q62 0 102.5 -33t40.5 -89q0 -50 -31.5 -81.5t-82.5 -38.5l127 -178h-41
l-123 176h-54v-176h-34v420zM380 540h-62v-185h62q50 0 80 24t30 69q0 44 -30 68t-80 24z" />
    <glyph glyph-name="macron" unicode="&#xaf;" horiz-adv-x="510" 
d="M80 626v49h350v-49h-350z" />
    <glyph glyph-name="degree" unicode="&#xb0;" horiz-adv-x="278" 
d="M20 600q0 52 34 86t85 34t85 -34t34 -86t-34 -86t-85 -34t-85 34t-34 86zM48 600q0 -41 26 -67t65 -26t65 26t26 67t-26 67t-65 26t-65 -26t-26 -67z" />
    <glyph glyph-name="plusminus" unicode="&#xb1;" horiz-adv-x="613" 
d="M65 359v52h214v209h55v-209h214v-52h-214v-209h-55v209h-214zM65 0v52h483v-52h-483z" />
    <glyph glyph-name="uni00B2" unicode="&#xb2;" horiz-adv-x="340" 
d="M27 282l196 208q49 52 49 99q0 35 -23 62t-66 27q-46 0 -73.5 -33t-27.5 -87h-33q0 67 36.5 109t97.5 42q60 0 91 -37.5t31 -84.5q0 -58 -56 -116l-153 -158h217v-31h-286z" />
    <glyph glyph-name="uni00B3" unicode="&#xb3;" horiz-adv-x="310" 
d="M159 274q-59 0 -95.5 33.5t-36.5 83.5h34q0 -38 27 -62t71 -24q43 0 69 24t26 63q0 43 -34 67t-79 24v30q41 0 71 23.5t30 59.5q0 34 -21 57t-59 23q-37 0 -61 -22.5t-24 -57.5h-32q0 49 32.5 79.5t84.5 30.5t82.5 -32.5t30.5 -77.5q0 -34 -22.5 -59.5t-59.5 -37.5
q42 -10 68 -38t26 -72q0 -51 -35.5 -83t-92.5 -32z" />
    <glyph glyph-name="acute" unicode="&#xb4;" horiz-adv-x="366" 
d="M281 673l-177 -153l-29 20l158 160z" />
    <glyph glyph-name="mu" unicode="&#xb5;" 
d="M131 460v-292q0 -129 108 -129q58 0 96.5 41t38.5 100v280h52v-460h-52v90q-20 -46 -59 -73t-88 -27q-65 0 -96 44v-354h-52v780h52z" />
    <glyph glyph-name="paragraph" unicode="&#xb6;" horiz-adv-x="526" 
d="M288 270q-98 0 -163 57t-65 158t65 158t163 57h178v-920h-46v877h-86v-877h-46v490z" />
    <glyph glyph-name="periodcentered" unicode="&#xb7;" horiz-adv-x="276" 
d="M101 232q0 16 11 27t26 11t26.5 -11t11.5 -27q0 -15 -11.5 -26t-26.5 -11t-26 10.5t-11 26.5z" />
    <glyph glyph-name="cedilla" unicode="&#xb8;" horiz-adv-x="350" 
d="M188 36h41l-60 -98q20 10 33 10q28 0 50.5 -20t22.5 -54q0 -44 -31.5 -69t-75.5 -25q-51 0 -89 38l23 26q34 -28 66 -28q30 0 49.5 15.5t19.5 42.5q0 47 -55 47q-36 0 -67 -21z" />
    <glyph glyph-name="uni00B9" unicode="&#xb9;" horiz-adv-x="470" 
d="M148 633v35l130 31v-425h-33v385z" />
    <glyph glyph-name="ordmasculine" unicode="&#xba;" horiz-adv-x="278" 
d="M20 580q0 52 34 86t85 34t85 -34t34 -86t-34 -86t-85 -34t-85 34t-34 86zM48 580q0 -41 26 -67t65 -26t65 26t26 67t-26 67t-65 26t-65 -26t-26 -67z" />
    <glyph glyph-name="guillemotright" unicode="&#xbb;" horiz-adv-x="500" 
d="M242 253l-172 207l33 30l197 -235l-197 -235l-33 30zM402 253l-172 207l33 30l197 -235l-197 -235l-33 30z" />
    <glyph glyph-name="onequarter" unicode="&#xbc;" horiz-adv-x="754" 
d="M639 700h44l-541 -700h-44zM26 633v35l130 31v-425h-33v385zM611 0v84h-212l232 336h13v-307h66v-29h-66v-84h-33zM611 344l-157 -231h157v231z" />
    <glyph glyph-name="onehalf" unicode="&#xbd;" horiz-adv-x="819" 
d="M639 700h44l-541 -700h-44zM26 633v35l130 31v-425h-33v385zM494 2l196 207q49 53 49 100q0 35 -22.5 62t-65.5 27q-46 0 -74 -33t-28 -87h-33q0 67 37 109t98 42q60 0 91 -38t31 -85q0 -56 -57 -115l-153 -158h218v-31h-287z" />
    <glyph glyph-name="threequarters" unicode="&#xbe;" horiz-adv-x="820" 
d="M164 274q-59 0 -95.5 33.5t-36.5 83.5h34q0 -38 27 -62t71 -24q43 0 69 24t26 63q0 43 -34 67t-79 24v30q41 0 71 23.5t30 59.5q0 34 -21 57t-59 23q-37 0 -61 -22.5t-24 -57.5h-32q0 49 32.5 79.5t84.5 30.5t82.5 -32.5t30.5 -77.5q0 -34 -22.5 -59.5t-59.5 -37.5
q42 -10 68 -38t26 -72q0 -51 -35.5 -83t-92.5 -32zM706 700h44l-541 -700h-44zM678 0v84h-212l232 336h13v-307h66v-29h-66v-84h-33zM678 344l-157 -231h157v231z" />
    <glyph glyph-name="questiondown" unicode="&#xbf;" horiz-adv-x="551" 
d="M348 676q0 -16 -11 -27t-26 -11t-26 11t-11 27t11 26.5t26 10.5t26 -10.5t11 -26.5zM121 192q0 -70 43.5 -111.5t119.5 -41.5q103 0 162 95l43 -27q-38 -58 -85.5 -87.5t-125.5 -29.5q-93 0 -151.5 57.5t-58.5 144.5q0 80 64.5 138t153.5 61l4 139h39l14 -175h-15
q-90 0 -148.5 -49t-58.5 -114z" />
    <glyph glyph-name="Agrave" unicode="&#xc0;" horiz-adv-x="636" 
d="M186 940l48 27l158 -160l-29 -20zM565 0l-97 235h-301l-96 -235h-62l309 727l309 -727h-62zM318 600l-129 -313h258z" />
    <glyph glyph-name="Aacute" unicode="&#xc1;" horiz-adv-x="636" 
d="M450 940l-177 -153l-29 20l158 160zM565 0l-97 235h-301l-96 -235h-62l309 727l309 -727h-62zM318 600l-129 -313h258z" />
    <glyph glyph-name="Acircumflex" unicode="&#xc2;" horiz-adv-x="636" 
d="M318 874l-127 -111l-33 27l160 140l160 -140l-33 -27zM565 0l-97 235h-301l-96 -235h-62l309 727l309 -727h-62zM318 600l-129 -313h258z" />
    <glyph glyph-name="Atilde" unicode="&#xc3;" horiz-adv-x="636" 
d="M169 806q5 31 29.5 51.5t57.5 20.5q31 0 64.5 -23.5t59.5 -23.5q29 0 56 48l31 -27q-28 -65 -90 -65q-29 0 -64.5 23.5t-56.5 23.5q-27 0 -39.5 -16t-12.5 -35zM565 0l-97 235h-301l-96 -235h-62l309 727l309 -727h-62zM318 600l-129 -313h258z" />
    <glyph glyph-name="Adieresis" unicode="&#xc4;" horiz-adv-x="636" 
d="M381 832q0 16 11 27t26 11t26 -11t11 -27t-11 -26.5t-26 -10.5t-26 10.5t-11 26.5zM181 832q0 16 11 27t26 11t26 -11t11 -27t-11 -26.5t-26 -10.5t-26 10.5t-11 26.5zM565 0l-97 235h-301l-96 -235h-62l309 727l309 -727h-62zM318 600l-129 -313h258z" />
    <glyph glyph-name="Aring" unicode="&#xc5;" horiz-adv-x="636" 
d="M216 802q0 43 30.5 71.5t71.5 28.5t71.5 -28.5t30.5 -71.5q0 -41 -27 -68.5t-65 -30.5l299 -703h-62l-97 235h-301l-96 -235h-62l299 703q-38 3 -65 30.5t-27 68.5zM251 802q0 -30 20 -49t47 -19t47 19t20 49t-20 49t-47 19t-47 -19t-20 -49zM318 600l-129 -313h258z" />
    <glyph glyph-name="AE" unicode="&#xc6;" horiz-adv-x="934" 
d="M860 52v-52h-370v238h-270l-153 -238h-62l450 700h405v-52h-315v-238h295v-52h-295v-306h315zM254 290h236v367z" />
    <glyph glyph-name="Ccedilla" unicode="&#xc7;" horiz-adv-x="685" 
d="M103 350q0 -132 81.5 -217.5t201.5 -85.5q140 0 225 96v-74q-87 -77 -220 -78l-33 -54q20 10 34 10q27 0 49.5 -20t22.5 -54q0 -44 -31 -69t-75 -25q-52 0 -90 38l23 26q34 -28 67 -28q30 0 49 15.5t19 42.5q0 47 -55 47q-36 0 -67 -21l51 93q-135 11 -223 111t-88 247
q0 156 98 257.5t244 101.5q74 0 126.5 -19t98.5 -59v-73q-82 95 -225 95q-120 0 -201.5 -85.5t-81.5 -217.5z" />
    <glyph glyph-name="Egrave" unicode="&#xc8;" horiz-adv-x="534" 
d="M132 922l48 27l158 -160l-29 -20zM84 700h376v-52h-321v-238h301v-52h-301v-306h321v-52h-376v700z" />
    <glyph glyph-name="Eacute" unicode="&#xc9;" horiz-adv-x="534" 
d="M412 922l-177 -153l-29 20l158 160zM84 700h376v-52h-321v-238h301v-52h-301v-306h321v-52h-376v700z" />
    <glyph glyph-name="Ecircumflex" unicode="&#xca;" horiz-adv-x="534" 
d="M278 880l-127 -111l-33 27l160 140l160 -140l-33 -27zM84 700h376v-52h-321v-238h301v-52h-301v-306h321v-52h-376v700z" />
    <glyph glyph-name="Edieresis" unicode="&#xcb;" horiz-adv-x="534" 
d="M341 827q0 16 11 26.5t26 10.5t26 -10.5t11 -26.5t-11 -27t-26 -11t-26 11t-11 27zM141 827q0 16 11 26.5t26 10.5t26 -10.5t11 -26.5t-11 -27t-26 -11t-26 11t-11 27zM84 700h376v-52h-321v-238h301v-52h-301v-306h321v-52h-376v700z" />
    <glyph glyph-name="Igrave" unicode="&#xcc;" horiz-adv-x="219" 
d="M-31 922l49 27l158 -160l-30 -20zM82 700h55v-700h-55v700z" />
    <glyph glyph-name="Iacute" unicode="&#xcd;" horiz-adv-x="219" 
d="M250 922l-178 -153l-28 20l158 160zM82 700h55v-700h-55v700z" />
    <glyph glyph-name="Icircumflex" unicode="&#xce;" horiz-adv-x="219" 
d="M109 880l-127 -111l-33 27l160 140l160 -140l-33 -27zM82 700h55v-700h-55v700z" />
    <glyph glyph-name="Idieresis" unicode="&#xcf;" horiz-adv-x="219" 
d="M160 815q0 16 11 26.5t26 10.5t26.5 -11t11.5 -26q0 -16 -11.5 -27t-26.5 -11t-26 11t-11 27zM-16 815q0 16 11 26.5t26 10.5t26.5 -11t11.5 -26q0 -16 -11.5 -27t-26.5 -11t-26 11t-11 27zM82 700h55v-700h-55v700z" />
    <glyph glyph-name="Eth" unicode="&#xd0;" horiz-adv-x="680" 
d="M274 0h-190v324h-79v49h79v327h190q153 0 248.5 -97t95.5 -253t-95.5 -253t-248.5 -97zM305 324h-166v-269h135q131 0 210 80.5t79 214.5t-79 214.5t-210 80.5h-135v-272h166v-49z" />
    <glyph glyph-name="Ntilde" unicode="&#xd1;" horiz-adv-x="731" 
d="M211 778q5 31 29.5 51.5t57.5 20.5q31 0 64.5 -23.5t59.5 -23.5q29 0 56 48l31 -27q-28 -65 -90 -65q-29 0 -64.5 23.5t-56.5 23.5q-27 0 -39.5 -16t-12.5 -35zM600 700h55v-727l-532 611v-584h-55v727l532 -613v586z" />
    <glyph glyph-name="Ograve" unicode="&#xd2;" horiz-adv-x="783" 
d="M266 922l48 27l158 -160l-29 -20zM44 350q0 155 99 257t249 102t249 -102t99 -257t-99 -257t-249 -102t-249 102t-99 257zM102 350q0 -131 82 -217.5t208 -86.5t207.5 86t81.5 218t-81.5 218t-207.5 86t-208 -86.5t-82 -217.5z" />
    <glyph glyph-name="Oacute" unicode="&#xd3;" horiz-adv-x="783" 
d="M518 922l-177 -153l-29 20l158 160zM44 350q0 155 99 257t249 102t249 -102t99 -257t-99 -257t-249 -102t-249 102t-99 257zM102 350q0 -131 82 -217.5t208 -86.5t207.5 86t81.5 218t-81.5 218t-207.5 86t-208 -86.5t-82 -217.5z" />
    <glyph glyph-name="Ocircumflex" unicode="&#xd4;" horiz-adv-x="783" 
d="M392 880l-127 -111l-33 27l160 140l160 -140l-33 -27zM44 350q0 155 99 257t249 102t249 -102t99 -257t-99 -257t-249 -102t-249 102t-99 257zM102 350q0 -131 82 -217.5t208 -86.5t207.5 86t81.5 218t-81.5 218t-207.5 86t-208 -86.5t-82 -217.5z" />
    <glyph glyph-name="Otilde" unicode="&#xd5;" horiz-adv-x="783" 
d="M243 800q5 31 29.5 51.5t57.5 20.5q31 0 64.5 -23.5t59.5 -23.5q29 0 56 48l31 -27q-28 -65 -90 -65q-29 0 -64.5 23.5t-56.5 23.5q-27 0 -39.5 -16t-12.5 -35zM44 350q0 155 99 257t249 102t249 -102t99 -257t-99 -257t-249 -102t-249 102t-99 257zM102 350
q0 -131 82 -217.5t208 -86.5t207.5 86t81.5 218t-81.5 218t-207.5 86t-208 -86.5t-82 -217.5z" />
    <glyph glyph-name="Odieresis" unicode="&#xd6;" horiz-adv-x="783" 
d="M458 819q0 15 11.5 26t26.5 11t26 -10.5t11 -26.5t-11 -27t-26 -11t-26.5 11t-11.5 27zM250 819q0 15 11.5 26t26.5 11t26 -10.5t11 -26.5t-11 -27t-26 -11t-26.5 11t-11.5 27zM44 350q0 155 99 257t249 102t249 -102t99 -257t-99 -257t-249 -102t-249 102t-99 257z
M102 350q0 -131 82 -217.5t208 -86.5t207.5 86t81.5 218t-81.5 218t-207.5 86t-208 -86.5t-82 -217.5z" />
    <glyph glyph-name="multiply" unicode="&#xd7;" horiz-adv-x="588" 
d="M108 32l-37 36l190 187l-190 187l36 36l187 -190l187 190l37 -36l-191 -187l190 -187l-36 -36l-187 190z" />
    <glyph glyph-name="Oslash" unicode="&#xd8;" horiz-adv-x="790" 
d="M44 350q0 155 99 257t249 102q124 0 216 -72l90 106l39 -26l-95 -111q98 -103 98 -256q0 -155 -99 -257t-249 -102q-122 0 -214 71l-90 -105l-38 26l94 110q-100 102 -100 257zM102 350q0 -129 79 -214l390 458q-76 60 -179 60q-126 0 -208 -86.5t-82 -217.5zM681 350
q0 126 -76 212l-391 -457q77 -59 178 -59q126 0 207.5 86t81.5 218z" />
    <glyph glyph-name="Ugrave" unicode="&#xd9;" horiz-adv-x="606" 
d="M171 922l48 27l158 -160l-29 -20zM79 700h55v-474q0 -85 44.5 -134.5t124.5 -49.5t124.5 49.5t44.5 134.5v474h55v-474q0 -106 -60 -171t-164 -65t-164 65t-60 171v474z" />
    <glyph glyph-name="Uacute" unicode="&#xda;" horiz-adv-x="606" 
d="M435 922l-177 -153l-29 20l158 160zM79 700h55v-474q0 -85 44.5 -134.5t124.5 -49.5t124.5 49.5t44.5 134.5v474h55v-474q0 -106 -60 -171t-164 -65t-164 65t-60 171v474z" />
    <glyph glyph-name="Ucircumflex" unicode="&#xdb;" horiz-adv-x="606" 
d="M303 880l-127 -111l-33 27l160 140l160 -140l-33 -27zM79 700h55v-474q0 -85 44.5 -134.5t124.5 -49.5t124.5 49.5t44.5 134.5v474h55v-474q0 -106 -60 -171t-164 -65t-164 65t-60 171v474z" />
    <glyph glyph-name="Udieresis" unicode="&#xdc;" horiz-adv-x="606" 
d="M362 807q0 16 11 26.5t26 10.5t26 -10.5t11 -26.5t-11 -27t-26 -11t-26 11t-11 27zM170 807q0 16 11 26.5t26 10.5t26 -10.5t11 -26.5t-11 -27t-26 -11t-26 11t-11 27zM79 700h55v-474q0 -85 44.5 -134.5t124.5 -49.5t124.5 49.5t44.5 134.5v474h55v-474q0 -106 -60 -171
t-164 -65t-164 65t-60 171v474z" />
    <glyph glyph-name="Yacute" unicode="&#xdd;" horiz-adv-x="539" 
d="M410 922l-178 -153l-28 20l158 160zM468 700h62l-235 -412v-288h-55v287l-231 413h62l196 -362z" />
    <glyph glyph-name="Thorn" unicode="&#xde;" horiz-adv-x="538" 
d="M80 700h55v-140h123q103 0 170.5 -57.5t67.5 -152.5t-67.5 -152.5t-170.5 -57.5h-123v-140h-55v700zM258 508h-123v-316h123q80 0 131.5 43t51.5 115q0 74 -51 116t-132 42z" />
    <glyph glyph-name="germandbls" unicode="&#xdf;" horiz-adv-x="551" 
d="M325 -11q-45 0 -86.5 17t-67.5 46l32 38q52 -52 126 -52q58 0 95.5 42t37.5 103q0 40 -19 68.5t-46 45t-54.5 30.5t-46.5 35t-19 49q0 27 19 54.5t41.5 48t41.5 53.5t19 69q0 52 -36.5 81t-90.5 29q-64 0 -104 -42.5t-40 -118.5l1 -586h-53v596q0 87 56.5 143t147.5 56
q77 0 125 -40.5t48 -113.5q0 -44 -18.5 -80t-40.5 -55.5t-40.5 -44.5t-18.5 -49q0 -19 18.5 -34t45.5 -28t54 -30t45.5 -50t18.5 -79q0 -86 -54.5 -143.5t-136.5 -57.5z" />
    <glyph glyph-name="agrave" unicode="&#xe0;" horiz-adv-x="465" 
d="M92 691l48 27l158 -160l-29 -20zM100 369l-26 40q77 61 168 61q74 0 116.5 -38.5t42.5 -105.5v-326h-52v83q-19 -43 -61.5 -68t-97.5 -25q-68 0 -112 36.5t-44 102.5q0 74 54 114.5t136 40.5q73 0 125 -37v79q0 46 -29.5 72t-77.5 26q-78 0 -142 -55zM87 135
q0 -50 31.5 -74t83.5 -24q65 0 106 36t41 99v39q-53 32 -123 32q-63 0 -101 -28.5t-38 -79.5z" />
    <glyph glyph-name="aacute" unicode="&#xe1;" horiz-adv-x="465" 
d="M384 691l-177 -153l-29 20l158 160zM100 369l-26 40q77 61 168 61q74 0 116.5 -38.5t42.5 -105.5v-326h-52v83q-19 -43 -61.5 -68t-97.5 -25q-68 0 -112 36.5t-44 102.5q0 74 54 114.5t136 40.5q73 0 125 -37v79q0 46 -29.5 72t-77.5 26q-78 0 -142 -55zM87 135
q0 -50 31.5 -74t83.5 -24q65 0 106 36t41 99v39q-53 32 -123 32q-63 0 -101 -28.5t-38 -79.5z" />
    <glyph glyph-name="acircumflex" unicode="&#xe2;" horiz-adv-x="465" 
d="M242 645l-127 -111l-33 27l160 140l160 -140l-33 -27zM100 369l-26 40q77 61 168 61q74 0 116.5 -38.5t42.5 -105.5v-326h-52v83q-19 -43 -61.5 -68t-97.5 -25q-68 0 -112 36.5t-44 102.5q0 74 54 114.5t136 40.5q73 0 125 -37v79q0 46 -29.5 72t-77.5 26q-78 0 -142 -55
zM87 135q0 -50 31.5 -74t83.5 -24q65 0 106 36t41 99v39q-53 32 -123 32q-63 0 -101 -28.5t-38 -79.5z" />
    <glyph glyph-name="atilde" unicode="&#xe3;" horiz-adv-x="465" 
d="M89 573q5 31 29.5 51.5t57.5 20.5q31 0 64.5 -23.5t59.5 -23.5q29 0 56 48l31 -27q-28 -65 -90 -65q-29 0 -64.5 23.5t-56.5 23.5q-27 0 -39.5 -16t-12.5 -35zM100 369l-26 40q77 61 168 61q74 0 116.5 -38.5t42.5 -105.5v-326h-52v83q-19 -43 -61.5 -68t-97.5 -25
q-68 0 -112 36.5t-44 102.5q0 74 54 114.5t136 40.5q73 0 125 -37v79q0 46 -29.5 72t-77.5 26q-78 0 -142 -55zM87 135q0 -50 31.5 -74t83.5 -24q65 0 106 36t41 99v39q-53 32 -123 32q-63 0 -101 -28.5t-38 -79.5z" />
    <glyph glyph-name="adieresis" unicode="&#xe4;" horiz-adv-x="465" 
d="M293 575q0 16 11 27t26 11t26 -11t11 -27t-11 -26.5t-26 -10.5t-26 10.5t-11 26.5zM109 575q0 16 11 27t26 11t26 -11t11 -27t-11 -26.5t-26 -10.5t-26 10.5t-11 26.5zM100 369l-26 40q77 61 168 61q74 0 116.5 -38.5t42.5 -105.5v-326h-52v83q-19 -43 -61.5 -68
t-97.5 -25q-68 0 -112 36.5t-44 102.5q0 74 54 114.5t136 40.5q73 0 125 -37v79q0 46 -29.5 72t-77.5 26q-78 0 -142 -55zM87 135q0 -50 31.5 -74t83.5 -24q65 0 106 36t41 99v39q-53 32 -123 32q-63 0 -101 -28.5t-38 -79.5z" />
    <glyph glyph-name="aring" unicode="&#xe5;" horiz-adv-x="465" 
d="M140 630q0 43 30.5 71.5t71.5 28.5t71.5 -28.5t30.5 -71.5t-30.5 -71.5t-71.5 -28.5t-71.5 28.5t-30.5 71.5zM175 630q0 -30 20 -49t47 -19t47 19t20 49t-20 49t-47 19t-47 -19t-20 -49zM100 369l-26 40q77 61 168 61q74 0 116.5 -38.5t42.5 -105.5v-326h-52v83
q-19 -43 -61.5 -68t-97.5 -25q-68 0 -112 36.5t-44 102.5q0 74 54 114.5t136 40.5q73 0 125 -37v79q0 46 -29.5 72t-77.5 26q-78 0 -142 -55zM87 135q0 -50 31.5 -74t83.5 -24q65 0 106 36t41 99v39q-53 32 -123 32q-63 0 -101 -28.5t-38 -79.5z" />
    <glyph glyph-name="ae" unicode="&#xe6;" horiz-adv-x="825" 
d="M202 -10q-76 0 -122 38t-46 100q0 70 53 113t139 43q65 0 123 -34v58q0 56 -27.5 86t-78.5 30q-79 0 -143 -55l-26 40q75 61 170 61q131 0 143 -127q26 58 78.5 92.5t117.5 34.5q89 0 147.5 -64.5t58.5 -163.5q0 -1 -3 -25h-384q4 -83 48.5 -130.5t118.5 -47.5
q110 0 170 95l42 -27q-74 -117 -218 -117q-138 0 -186 131q-13 -61 -59.5 -96t-115.5 -35zM574 424q-69 0 -116 -45t-55 -117h330q-1 72 -45.5 117t-113.5 45zM202 37q126 0 150 132l-2 41q-48 33 -122 33q-66 0 -103.5 -29t-37.5 -80q0 -46 30 -71.5t85 -25.5z" />
    <glyph glyph-name="ccedilla" unicode="&#xe7;" horiz-adv-x="482" 
d="M87 230q0 -83 52.5 -137t130.5 -54q53 0 97 22.5t61 52.5v-65q-21 -25 -63 -41.5t-90 -17.5l-33 -53q18 9 34 9q27 0 49.5 -20t22.5 -54q0 -44 -31 -69t-75 -25q-52 0 -90 38l23 27q34 -28 67 -28q30 0 49 15t19 42q0 47 -55 47q-36 0 -67 -21l51 94q-89 11 -147 77
t-58 161q0 104 67.5 172t168.5 68q49 0 92.5 -17t65.5 -42v-65q-17 30 -61 52.5t-97 22.5q-78 0 -130.5 -54t-52.5 -137z" />
    <glyph glyph-name="egrave" unicode="&#xe8;" horiz-adv-x="509" 
d="M118 689l48 27l158 -160l-29 -20zM463 107q-37 -56 -83 -86.5t-128 -30.5q-91 0 -152 68.5t-61 172.5q0 37 6 60q17 81 75 130t140 49q91 0 151 -63.5t60 -164.5q0 -9 -2 -25h-377q4 -81 49.5 -129.5t116.5 -48.5q104 0 163 95zM260 424q-66 0 -114.5 -44.5t-52.5 -117.5
h321q-1 71 -44 116.5t-110 45.5z" />
    <glyph glyph-name="eacute" unicode="&#xe9;" horiz-adv-x="509" 
d="M414 689l-177 -153l-29 20l158 160zM463 107q-37 -56 -83 -86.5t-128 -30.5q-91 0 -152 68.5t-61 172.5q0 37 6 60q17 81 75 130t140 49q91 0 151 -63.5t60 -164.5q0 -9 -2 -25h-377q4 -81 49.5 -129.5t116.5 -48.5q104 0 163 95zM260 424q-66 0 -114.5 -44.5
t-52.5 -117.5h321q-1 71 -44 116.5t-110 45.5z" />
    <glyph glyph-name="ecircumflex" unicode="&#xea;" horiz-adv-x="509" 
d="M260 641l-127 -111l-33 27l160 140l160 -140l-33 -27zM463 107q-37 -56 -83 -86.5t-128 -30.5q-91 0 -152 68.5t-61 172.5q0 37 6 60q17 81 75 130t140 49q91 0 151 -63.5t60 -164.5q0 -9 -2 -25h-377q4 -81 49.5 -129.5t116.5 -48.5q104 0 163 95zM260 424
q-66 0 -114.5 -44.5t-52.5 -117.5h321q-1 71 -44 116.5t-110 45.5z" />
    <glyph glyph-name="edieresis" unicode="&#xeb;" horiz-adv-x="509" 
d="M322 567q0 16 11.5 27t26.5 11t26 -11t11 -27t-11 -26.5t-26 -10.5t-26.5 11t-11.5 26zM122 567q0 16 11.5 27t26.5 11t26 -11t11 -27t-11 -26.5t-26 -10.5t-26.5 11t-11.5 26zM463 107q-37 -56 -83 -86.5t-128 -30.5q-91 0 -152 68.5t-61 172.5q0 37 6 60q17 81 75 130
t140 49q91 0 151 -63.5t60 -164.5q0 -9 -2 -25h-377q4 -81 49.5 -129.5t116.5 -48.5q104 0 163 95zM260 424q-66 0 -114.5 -44.5t-52.5 -117.5h321q-1 71 -44 116.5t-110 45.5z" />
    <glyph glyph-name="igrave" unicode="&#xec;" horiz-adv-x="232" 
d="M-42 695l48 27l158 -160l-29 -20zM90 460h52v-460h-52v460z" />
    <glyph glyph-name="iacute" unicode="&#xed;" horiz-adv-x="232" 
d="M274 695l-177 -153l-29 20l158 160zM90 460h52v-460h-52v460z" />
    <glyph glyph-name="icircumflex" unicode="&#xee;" horiz-adv-x="232" 
d="M116 647l-127 -111l-33 27l160 140l160 -140l-33 -27zM90 460h52v-460h-52v460z" />
    <glyph glyph-name="idieresis" unicode="&#xef;" horiz-adv-x="232" 
d="M171 585q0 16 11 27t26 11t26 -11t11 -27t-11 -26.5t-26 -10.5t-26 10.5t-11 26.5zM-13 585q0 16 11 27t26 11t26 -11t11 -27t-11 -26.5t-26 -10.5t-26 10.5t-11 26.5zM90 460h52v-460h-52v460z" />
    <glyph glyph-name="eth" unicode="&#xf0;" horiz-adv-x="560" 
d="M280 -10q-102 0 -166 66t-64 170q0 95 59.5 159t147.5 64q72 0 138 -39q-43 72 -103 145l-110 -45l-13 32l100 40q-46 53 -86 97l32 36q75 -88 97 -115l124 50l13 -32l-114 -46q97 -121 136 -198t39 -148q0 -104 -64 -170t-166 -66zM280 40q78 0 127.5 52.5t49.5 133.5
q0 79 -51.5 130.5t-129.5 51.5q-73 0 -123 -52.5t-50 -129.5q0 -81 49.5 -133.5t127.5 -52.5z" />
    <glyph glyph-name="ntilde" unicode="&#xf1;" 
d="M104 561q5 31 29.5 51.5t57.5 20.5q31 0 64.5 -23.5t59.5 -23.5q29 0 56 48l31 -27q-28 -65 -90 -65q-29 0 -64.5 23.5t-56.5 23.5q-27 0 -39.5 -16t-12.5 -35zM374 296q0 125 -108 125q-58 0 -96.5 -41t-38.5 -100v-280h-52v460h52v-81q23 42 61.5 66.5t85.5 24.5
q71 0 109.5 -44t38.5 -124v-302h-52v296z" />
    <glyph glyph-name="ograve" unicode="&#xf2;" horiz-adv-x="550" 
d="M125 695l48 27l158 -160l-29 -20zM39 230q0 104 67.5 172t168.5 68t168.5 -68t67.5 -172t-67.5 -172t-168.5 -68t-168.5 68t-67.5 172zM92 230q0 -83 52.5 -137t130.5 -54t130.5 54t52.5 137t-52.5 137t-130.5 54t-130.5 -54t-52.5 -137z" />
    <glyph glyph-name="oacute" unicode="&#xf3;" horiz-adv-x="550" 
d="M425 695l-177 -153l-29 20l158 160zM39 230q0 104 67.5 172t168.5 68t168.5 -68t67.5 -172t-67.5 -172t-168.5 -68t-168.5 68t-67.5 172zM92 230q0 -83 52.5 -137t130.5 -54t130.5 54t52.5 137t-52.5 137t-130.5 54t-130.5 -54t-52.5 -137z" />
    <glyph glyph-name="ocircumflex" unicode="&#xf4;" horiz-adv-x="550" 
d="M275 661l-127 -111l-33 27l160 140l160 -140l-33 -27zM39 230q0 104 67.5 172t168.5 68t168.5 -68t67.5 -172t-67.5 -172t-168.5 -68t-168.5 68t-67.5 172zM92 230q0 -83 52.5 -137t130.5 -54t130.5 54t52.5 137t-52.5 137t-130.5 54t-130.5 -54t-52.5 -137z" />
    <glyph glyph-name="otilde" unicode="&#xf5;" horiz-adv-x="550" 
d="M126 561q5 31 29.5 51.5t57.5 20.5q31 0 64.5 -23.5t59.5 -23.5q29 0 56 48l31 -27q-28 -65 -90 -65q-29 0 -64.5 23.5t-56.5 23.5q-27 0 -39.5 -16t-12.5 -35zM39 230q0 104 67.5 172t168.5 68t168.5 -68t67.5 -172t-67.5 -172t-168.5 -68t-168.5 68t-67.5 172zM92 230
q0 -83 52.5 -137t130.5 -54t130.5 54t52.5 137t-52.5 137t-130.5 54t-130.5 -54t-52.5 -137z" />
    <glyph glyph-name="odieresis" unicode="&#xf6;" horiz-adv-x="550" 
d="M338 593q0 16 11 27t26 11t26 -11t11 -27t-11 -26.5t-26 -10.5t-26 10.5t-11 26.5zM138 593q0 16 11 27t26 11t26 -11t11 -27t-11 -26.5t-26 -10.5t-26 10.5t-11 26.5zM39 230q0 104 67.5 172t168.5 68t168.5 -68t67.5 -172t-67.5 -172t-168.5 -68t-168.5 68t-67.5 172z
M92 230q0 -83 52.5 -137t130.5 -54t130.5 54t52.5 137t-52.5 137t-130.5 54t-130.5 -54t-52.5 -137z" />
    <glyph glyph-name="divide" unicode="&#xf7;" horiz-adv-x="623" 
d="M273 450q0 16 11 27t26 11t26 -11t11 -27t-11 -26.5t-26 -10.5t-26 10.5t-11 26.5zM60 229v52h500v-52h-500zM273 54q0 16 11 27t26 11t26 -11t11 -27t-11 -26.5t-26 -10.5t-26 10.5t-11 26.5z" />
    <glyph glyph-name="oslash" unicode="&#xf8;" horiz-adv-x="546" 
d="M39 230q0 104 67.5 172t168.5 68q71 0 126 -35l46 62l31 -14l-50 -67q83 -70 83 -186q0 -104 -67.5 -172t-168.5 -68q-77 0 -134 40l-53 -71l-31 14l58 77q-76 70 -76 180zM92 230q0 -83 53 -138l226 303q-43 26 -96 26q-78 0 -130.5 -54t-52.5 -137zM458 230
q0 90 -60 145l-227 -305q45 -31 104 -31q78 0 130.5 54t52.5 137z" />
    <glyph glyph-name="ugrave" unicode="&#xf9;" 
d="M118 699l49 27l158 -160l-30 -20zM131 168q0 -129 108 -129q58 0 96.5 41t38.5 100v280h52v-460h-52v81q-23 -42 -61.5 -66.5t-85.5 -24.5q-71 0 -109.5 44.5t-38.5 127.5v298h52v-292z" />
    <glyph glyph-name="uacute" unicode="&#xfa;" 
d="M386 699l-177 -153l-28 20l158 160zM131 168q0 -129 108 -129q58 0 96.5 41t38.5 100v280h52v-460h-52v81q-23 -42 -61.5 -66.5t-85.5 -24.5q-71 0 -109.5 44.5t-38.5 127.5v298h52v-292z" />
    <glyph glyph-name="ucircumflex" unicode="&#xfb;" 
d="M252 657l-127 -111l-33 27l160 140l160 -140l-33 -27zM131 168q0 -129 108 -129q58 0 96.5 41t38.5 100v280h52v-460h-52v81q-23 -42 -61.5 -66.5t-85.5 -24.5q-71 0 -109.5 44.5t-38.5 127.5v298h52v-292z" />
    <glyph glyph-name="udieresis" unicode="&#xfc;" 
d="M307 587q0 16 11 27t26 11t26.5 -11t11.5 -27q0 -15 -11.5 -26t-26.5 -11t-26 10.5t-11 26.5zM123 587q0 16 11 27t26 11t26.5 -11t11.5 -27q0 -15 -11.5 -26t-26.5 -11t-26 10.5t-11 26.5zM131 168q0 -129 108 -129q58 0 96.5 41t38.5 100v280h52v-460h-52v81
q-23 -42 -61.5 -66.5t-85.5 -24.5q-71 0 -109.5 44.5t-38.5 127.5v298h52v-292z" />
    <glyph glyph-name="yacute" unicode="&#xfd;" horiz-adv-x="434" 
d="M357 695l-177 -153l-29 20l158 160zM430 460l-300 -680h-58l118 267l-186 413h62l154 -363l152 363h58z" />
    <glyph glyph-name="thorn" unicode="&#xfe;" horiz-adv-x="558" 
d="M126 -220h-52v1000h52v-428q24 55 68.5 86.5t102.5 31.5q95 0 158.5 -66t63.5 -174t-63.5 -174t-158.5 -66q-58 0 -102.5 31.5t-68.5 86.5v-328zM467 230q0 87 -51 139t-126 52q-66 0 -115 -55t-49 -136t49 -136t115 -55q75 0 126 52t51 139z" />
    <glyph glyph-name="ydieresis" unicode="&#xff;" horiz-adv-x="434" 
d="M272 575q0 16 11 27t26 11t26.5 -11t11.5 -27q0 -15 -11.5 -26t-26.5 -11t-26 10.5t-11 26.5zM88 575q0 16 11 27t26 11t26.5 -11t11.5 -27q0 -15 -11.5 -26t-26.5 -11t-26 10.5t-11 26.5zM430 460l-300 -680h-58l118 267l-186 413h62l154 -363l152 363h58z" />
    <glyph glyph-name="Amacron" unicode="&#x100;" horiz-adv-x="636" 
d="M143 795v49h350v-49h-350zM565 0l-97 235h-301l-96 -235h-62l309 727l309 -727h-62zM318 600l-129 -313h258z" />
    <glyph glyph-name="amacron" unicode="&#x101;" horiz-adv-x="465" 
d="M67 550v49h350v-49h-350zM100 369l-26 40q77 61 168 61q74 0 116.5 -38.5t42.5 -105.5v-326h-52v83q-19 -43 -61.5 -68t-97.5 -25q-68 0 -112 36.5t-44 102.5q0 74 54 114.5t136 40.5q73 0 125 -37v79q0 46 -29.5 72t-77.5 26q-78 0 -142 -55zM87 135q0 -50 31.5 -74
t83.5 -24q65 0 106 36t41 99v39q-53 32 -123 32q-63 0 -101 -28.5t-38 -79.5z" />
    <glyph glyph-name="Abreve" unicode="&#x102;" horiz-adv-x="636" 
d="M160 931h47q0 -37 28.5 -67t82.5 -30t82.5 30t28.5 67h47q0 -56 -42 -98t-116 -42t-116 42t-42 98zM565 0l-97 235h-301l-96 -235h-62l309 727l309 -727h-62zM318 600l-129 -313h258z" />
    <glyph glyph-name="abreve" unicode="&#x103;" horiz-adv-x="465" 
d="M80 674h47q0 -37 28.5 -67t82.5 -30t82.5 30t28.5 67h47q0 -56 -42 -98t-116 -42t-116 42t-42 98zM100 369l-26 40q77 61 168 61q74 0 116.5 -38.5t42.5 -105.5v-326h-52v83q-19 -43 -61.5 -68t-97.5 -25q-68 0 -112 36.5t-44 102.5q0 74 54 114.5t136 40.5q73 0 125 -37
v79q0 46 -29.5 72t-77.5 26q-78 0 -142 -55zM87 135q0 -50 31.5 -74t83.5 -24q65 0 106 36t41 99v39q-53 32 -123 32q-63 0 -101 -28.5t-38 -79.5z" />
    <glyph glyph-name="Aogonek" unicode="&#x104;" horiz-adv-x="636" 
d="M644 -147l22 -33q-30 -40 -92 -40q-56 0 -85.5 25t-29.5 67q0 67 106 128l-97 235h-301l-96 -235h-62l309 727l309 -727q-48 -22 -82 -53t-34 -63q0 -29 18 -43.5t48 -14.5q42 0 67 27zM318 600l-129 -313h258z" />
    <glyph glyph-name="aogonek" unicode="&#x105;" horiz-adv-x="465" 
d="M100 369l-26 40q77 61 168 61q74 0 116.5 -38.5t42.5 -105.5v-326q-48 -22 -82 -53t-34 -63q0 -29 18 -43.5t48 -14.5q42 0 67 27l22 -33q-30 -40 -92 -40q-56 0 -85.5 25t-29.5 67q0 67 116 134v77q-19 -43 -61.5 -68t-97.5 -25q-66 0 -111 36.5t-45 106.5q0 71 53 111
t137 40q73 0 125 -37v79q0 46 -29.5 72t-77.5 26q-78 0 -142 -55zM87 135q0 -49 33 -73.5t82 -24.5q65 0 106 36t41 99v39q-53 32 -123 32q-63 0 -101 -28.5t-38 -79.5z" />
    <glyph glyph-name="Cacute" unicode="&#x106;" horiz-adv-x="685" 
d="M518 922l-177 -153l-29 20l158 160zM103 350q0 -132 81.5 -217.5t201.5 -85.5q140 0 225 96v-74q-46 -40 -98.5 -59t-126.5 -19q-146 0 -244 101.5t-98 257.5t98 257.5t244 101.5q74 0 126.5 -19t98.5 -59v-73q-82 95 -225 95q-120 0 -201.5 -85.5t-81.5 -217.5z" />
    <glyph glyph-name="cacute" unicode="&#x107;" horiz-adv-x="482" 
d="M406 687l-177 -153l-29 20l158 160zM87 230q0 -83 52.5 -137t130.5 -54q53 0 97 22.5t61 52.5v-65q-22 -25 -65.5 -42t-92.5 -17q-101 0 -168.5 68t-67.5 172t67.5 172t168.5 68q49 0 92.5 -17t65.5 -42v-65q-17 30 -61 52.5t-97 22.5q-78 0 -130.5 -54t-52.5 -137z" />
    <glyph glyph-name="Ccircumflex" unicode="&#x108;" horiz-adv-x="685" 
d="M386 880l-127 -111l-33 27l160 140l160 -140l-33 -27zM103 350q0 -132 81.5 -217.5t201.5 -85.5q140 0 225 96v-74q-46 -40 -98.5 -59t-126.5 -19q-146 0 -244 101.5t-98 257.5t98 257.5t244 101.5q74 0 126.5 -19t98.5 -59v-73q-82 95 -225 95q-120 0 -201.5 -85.5
t-81.5 -217.5z" />
    <glyph glyph-name="ccircumflex" unicode="&#x109;" horiz-adv-x="482" 
d="M270 641l-127 -111l-33 27l160 140l160 -140l-33 -27zM87 230q0 -83 52.5 -137t130.5 -54q53 0 97 22.5t61 52.5v-65q-22 -25 -65.5 -42t-92.5 -17q-101 0 -168.5 68t-67.5 172t67.5 172t168.5 68q49 0 92.5 -17t65.5 -42v-65q-17 30 -61 52.5t-97 22.5q-78 0 -130.5 -54
t-52.5 -137z" />
    <glyph glyph-name="Cdotaccent" unicode="&#x10a;" horiz-adv-x="685" 
d="M349 811q0 16 11 26.5t26 10.5t26 -10.5t11 -26.5t-11 -27t-26 -11t-26 11t-11 27zM103 350q0 -132 81.5 -217.5t201.5 -85.5q140 0 225 96v-74q-46 -40 -98.5 -59t-126.5 -19q-146 0 -244 101.5t-98 257.5t98 257.5t244 101.5q74 0 126.5 -19t98.5 -59v-73
q-82 95 -225 95q-120 0 -201.5 -85.5t-81.5 -217.5z" />
    <glyph glyph-name="cdotaccent" unicode="&#x10b;" horiz-adv-x="482" 
d="M233 571q0 16 11 27t26 11t26 -11t11 -27t-11 -26.5t-26 -10.5t-26 10.5t-11 26.5zM87 230q0 -83 52.5 -137t130.5 -54q53 0 97 22.5t61 52.5v-65q-22 -25 -65.5 -42t-92.5 -17q-101 0 -168.5 68t-67.5 172t67.5 172t168.5 68q49 0 92.5 -17t65.5 -42v-65
q-17 30 -61 52.5t-97 22.5q-78 0 -130.5 -54t-52.5 -137z" />
    <glyph glyph-name="Ccaron" unicode="&#x10c;" horiz-adv-x="685" 
d="M386 829l127 111l33 -27l-160 -140l-160 140l33 27zM103 350q0 -132 81.5 -217.5t201.5 -85.5q140 0 225 96v-74q-46 -40 -98.5 -59t-126.5 -19q-146 0 -244 101.5t-98 257.5t98 257.5t244 101.5q74 0 126.5 -19t98.5 -59v-73q-82 95 -225 95q-120 0 -201.5 -85.5
t-81.5 -217.5z" />
    <glyph glyph-name="ccaron" unicode="&#x10d;" horiz-adv-x="482" 
d="M270 594l127 111l33 -27l-160 -140l-160 140l33 27zM87 230q0 -83 52.5 -137t130.5 -54q53 0 97 22.5t61 52.5v-65q-22 -25 -65.5 -42t-92.5 -17q-101 0 -168.5 68t-67.5 172t67.5 172t168.5 68q49 0 92.5 -17t65.5 -42v-65q-17 30 -61 52.5t-97 22.5q-78 0 -130.5 -54
t-52.5 -137z" />
    <glyph glyph-name="Dcaron" unicode="&#x10e;" horiz-adv-x="662" 
d="M325 837l127 111l33 -27l-160 -140l-160 140l33 27zM274 0h-190v700h190q153 0 248.5 -97t95.5 -253t-95.5 -253t-248.5 -97zM274 645h-135v-590h135q131 0 210 80.5t79 214.5t-79 214.5t-210 80.5z" />
    <glyph glyph-name="dcaron" unicode="&#x10f;" horiz-adv-x="570" 
d="M39 230q0 108 63.5 174t158.5 66q58 0 102.5 -31.5t68.5 -86.5v428h52v-780h-52v108q-24 -55 -68.5 -86.5t-102.5 -31.5q-95 0 -158.5 66t-63.5 174zM633 774l52 -20l-110 -250l-37 13zM92 230q0 -87 50.5 -139t125.5 -52q66 0 115 55t49 136t-49 136t-115 55
q-75 0 -125.5 -52t-50.5 -139z" />
    <glyph glyph-name="Dcroat" unicode="&#x110;" horiz-adv-x="680" 
d="M274 0h-190v324h-79v49h79v327h190q153 0 248.5 -97t95.5 -253t-95.5 -253t-248.5 -97zM305 324h-166v-269h135q131 0 210 80.5t79 214.5t-79 214.5t-210 80.5h-135v-272h166v-49z" />
    <glyph glyph-name="dcroat" unicode="&#x111;" horiz-adv-x="558" 
d="M39 230q0 109 63.5 174.5t158.5 65.5q57 0 102 -31t69 -86v263h-137v49h137v115h52v-115h111v-49h-111v-616h-52v107q-24 -55 -69 -86t-102 -31q-95 0 -158.5 65.5t-63.5 174.5zM92 230q0 -87 50.5 -139t125.5 -52q67 0 115.5 56t48.5 135t-48.5 135t-115.5 56
q-75 0 -125.5 -52t-50.5 -139z" />
    <glyph glyph-name="Emacron" unicode="&#x112;" horiz-adv-x="534" 
d="M105 796v49h350v-49h-350zM84 700h376v-52h-321v-238h301v-52h-301v-306h321v-52h-376v700z" />
    <glyph glyph-name="emacron" unicode="&#x113;" horiz-adv-x="509" 
d="M85 530v49h350v-49h-350zM463 107q-37 -56 -83 -86.5t-128 -30.5q-91 0 -152 68.5t-61 172.5q0 37 6 60q17 81 75 130t140 49q91 0 151 -63.5t60 -164.5q0 -9 -2 -25h-377q4 -81 49.5 -129.5t116.5 -48.5q104 0 163 95zM260 424q-66 0 -114.5 -44.5t-52.5 -117.5h321
q-1 71 -44 116.5t-110 45.5z" />
    <glyph glyph-name="Ebreve" unicode="&#x114;" horiz-adv-x="534" 
d="M118 909h47q0 -37 28.5 -67t82.5 -30t82.5 30t28.5 67h47q0 -56 -42 -98t-116 -42t-116 42t-42 98zM84 700h376v-52h-321v-238h301v-52h-301v-306h321v-52h-376v700z" />
    <glyph glyph-name="ebreve" unicode="&#x115;" horiz-adv-x="509" 
d="M102 670h46q0 -37 29 -67t83 -30t82.5 30t28.5 67h47q0 -56 -42 -98t-116 -42t-116 42t-42 98zM463 107q-37 -56 -83 -86.5t-128 -30.5q-91 0 -152 68.5t-61 172.5q0 37 6 60q17 81 75 130t140 49q91 0 151 -63.5t60 -164.5q0 -9 -2 -25h-377q4 -81 49.5 -129.5
t116.5 -48.5q104 0 163 95zM260 424q-66 0 -114.5 -44.5t-52.5 -117.5h321q-1 71 -44 116.5t-110 45.5z" />
    <glyph glyph-name="Edotaccent" unicode="&#x116;" horiz-adv-x="534" 
d="M235 807q0 16 11 26.5t26 10.5t26 -10.5t11 -26.5t-11 -27t-26 -11t-26 11t-11 27zM84 700h376v-52h-321v-238h301v-52h-301v-306h321v-52h-376v700z" />
    <glyph glyph-name="edotaccent" unicode="&#x117;" horiz-adv-x="509" 
d="M222 567q0 16 11.5 27t26.5 11t26 -11t11 -27t-11 -26.5t-26 -10.5t-26.5 11t-11.5 26zM463 107q-37 -56 -83 -86.5t-128 -30.5q-91 0 -152 68.5t-61 172.5q0 37 6 60q17 81 75 130t140 49q91 0 151 -63.5t60 -164.5q0 -9 -2 -25h-377q4 -81 49.5 -129.5t116.5 -48.5
q104 0 163 95zM260 424q-66 0 -114.5 -44.5t-52.5 -117.5h321q-1 71 -44 116.5t-110 45.5z" />
    <glyph glyph-name="Eogonek" unicode="&#x118;" horiz-adv-x="534" 
d="M405 -147l22 -33q-30 -40 -92 -40q-56 0 -85.5 25t-29.5 67q0 67 106 128h-242v700h376v-52h-321v-238h301v-52h-301v-306h321v-52h-72q-48 -22 -82 -53t-34 -63q0 -29 18 -43.5t48 -14.5q42 0 67 27z" />
    <glyph glyph-name="eogonek" unicode="&#x119;" horiz-adv-x="509" 
d="M295 -147l22 -33q-30 -40 -92 -40q-56 0 -85.5 25t-29.5 67q0 63 103 122q-76 14 -125 80t-49 157q0 37 6 60q17 81 75 130t140 49q91 0 151 -63.5t60 -164.5q0 -9 -2 -25h-377q4 -81 49.5 -129.5t116.5 -48.5q104 0 163 95l42 -27q-35 -53 -78 -83.5t-117 -33.5
q-106 -48 -106 -106q0 -29 18 -43.5t48 -14.5q42 0 67 27zM260 424q-66 0 -114.5 -44.5t-52.5 -117.5h321q-1 71 -44 116.5t-110 45.5z" />
    <glyph glyph-name="Ecaron" unicode="&#x11a;" horiz-adv-x="534" 
d="M272 825l127 111l33 -27l-160 -140l-160 140l33 27zM84 700h376v-52h-321v-238h301v-52h-301v-306h321v-52h-376v700z" />
    <glyph glyph-name="ecaron" unicode="&#x11b;" horiz-adv-x="509" 
d="M260 586l127 111l33 -27l-160 -140l-160 140l33 27zM463 107q-37 -56 -83 -86.5t-128 -30.5q-91 0 -152 68.5t-61 172.5q0 37 6 60q17 81 75 130t140 49q91 0 151 -63.5t60 -164.5q0 -9 -2 -25h-377q4 -81 49.5 -129.5t116.5 -48.5q104 0 163 95zM260 424
q-66 0 -114.5 -44.5t-52.5 -117.5h321q-1 71 -44 116.5t-110 45.5z" />
    <glyph glyph-name="Gcircumflex" unicode="&#x11c;" horiz-adv-x="771" 
d="M393 880l-127 -111l-33 27l160 140l160 -140l-33 -27zM411 297v52h311q0 -149 -90 -253.5t-239 -104.5q-151 0 -250 101.5t-99 257.5t99 257.5t250 101.5q189 0 286 -150l-40 -35q-35 60 -99 95t-147 35q-125 0 -208 -85.5t-83 -218.5t83 -218.5t208 -85.5q113 0 185 72
t84 179h-251z" />
    <glyph glyph-name="gcircumflex" unicode="&#x11d;" horiz-adv-x="558" 
d="M261 641l-127 -111l-33 27l160 140l160 -140l-33 -27zM50 -30h53q0 -65 44.5 -108t116.5 -43q70 0 119 49t49 142v98q-24 -55 -68.5 -86.5t-102.5 -31.5q-95 0 -158.5 66t-63.5 174t63.5 174t158.5 66q58 0 102.5 -31.5t68.5 -86.5v108h52v-450q0 -114 -64 -177t-156 -63
q-95 0 -154.5 55.5t-59.5 144.5zM92 230q0 -87 50.5 -139t125.5 -52q66 0 115 55.5t49 137.5q0 78 -49 133.5t-115 55.5q-75 0 -125.5 -52t-50.5 -139z" />
    <glyph glyph-name="Gbreve" unicode="&#x11e;" horiz-adv-x="771" 
d="M235 909h47q0 -37 28.5 -67t82.5 -30t82.5 30t28.5 67h47q0 -56 -42 -98t-116 -42t-116 42t-42 98zM411 297v52h311q0 -149 -90 -253.5t-239 -104.5q-151 0 -250 101.5t-99 257.5t99 257.5t250 101.5q189 0 286 -150l-40 -35q-35 60 -99 95t-147 35q-125 0 -208 -85.5
t-83 -218.5t83 -218.5t208 -85.5q113 0 185 72t84 179h-251z" />
    <glyph glyph-name="gbreve" unicode="&#x11f;" horiz-adv-x="558" 
d="M103 670h47q0 -37 28.5 -67t82.5 -30t82.5 30t28.5 67h47q0 -56 -42 -98t-116 -42t-116 42t-42 98zM50 -30h53q0 -65 44.5 -108t116.5 -43q70 0 119 49t49 142v98q-24 -55 -68.5 -86.5t-102.5 -31.5q-95 0 -158.5 66t-63.5 174t63.5 174t158.5 66q58 0 102.5 -31.5
t68.5 -86.5v108h52v-450q0 -114 -64 -177t-156 -63q-95 0 -154.5 55.5t-59.5 144.5zM92 230q0 -87 50.5 -139t125.5 -52q66 0 115 55.5t49 137.5q0 78 -49 133.5t-115 55.5q-75 0 -125.5 -52t-50.5 -139z" />
    <glyph glyph-name="Gdotaccent" unicode="&#x120;" horiz-adv-x="771" 
d="M356 807q0 16 11 26.5t26 10.5t26 -10.5t11 -26.5t-11 -27t-26 -11t-26 11t-11 27zM411 297v52h311q0 -149 -90 -253.5t-239 -104.5q-151 0 -250 101.5t-99 257.5t99 257.5t250 101.5q189 0 286 -150l-40 -35q-35 60 -99 95t-147 35q-125 0 -208 -85.5t-83 -218.5
t83 -218.5t208 -85.5q113 0 185 72t84 179h-251z" />
    <glyph glyph-name="gdotaccent" unicode="&#x121;" horiz-adv-x="558" 
d="M236 591q0 16 11 27t26 11t26 -11t11 -27t-11 -26.5t-26 -10.5t-26 10.5t-11 26.5zM50 -30h53q0 -65 44.5 -108t116.5 -43q70 0 119 49t49 142v98q-24 -55 -68.5 -86.5t-102.5 -31.5q-95 0 -158.5 66t-63.5 174t63.5 174t158.5 66q58 0 102.5 -31.5t68.5 -86.5v108h52
v-450q0 -114 -64 -177t-156 -63q-95 0 -154.5 55.5t-59.5 144.5zM92 230q0 -87 50.5 -139t125.5 -52q66 0 115 55.5t49 137.5q0 78 -49 133.5t-115 55.5q-75 0 -125.5 -52t-50.5 -139z" />
    <glyph glyph-name="uni0122" unicode="&#x122;" horiz-adv-x="771" 
d="M411 297v52h311q0 -149 -90 -253.5t-239 -104.5q-151 0 -250 101.5t-99 257.5t99 257.5t250 101.5q189 0 286 -150l-40 -35q-35 60 -99 95t-147 35q-125 0 -208 -85.5t-83 -218.5t83 -218.5t208 -85.5q113 0 185 72t84 179h-251zM414 -69l53 -20l-110 -250l-38 13z" />
    <glyph glyph-name="uni0123" unicode="&#x123;" horiz-adv-x="570" 
d="M272 554l-48 28l147 230l35 -19zM50 -30h53q0 -65 44.5 -108t116.5 -43q70 0 119 49t49 142v98q-24 -55 -68.5 -86.5t-102.5 -31.5q-95 0 -158.5 66t-63.5 174t63.5 174t158.5 66q58 0 102.5 -31.5t68.5 -86.5v108h52v-450q0 -114 -64 -177t-156 -63q-95 0 -154.5 55.5
t-59.5 144.5zM92 230q0 -87 50.5 -139t125.5 -52q66 0 115 55.5t49 137.5q0 78 -49 133.5t-115 55.5q-75 0 -125.5 -52t-50.5 -139z" />
    <glyph glyph-name="Hcircumflex" unicode="&#x124;" horiz-adv-x="687" 
d="M344 880l-127 -111l-33 27l160 140l160 -140l-33 -27zM84 700h55v-293h409v293h56v-700h-56v355h-409v-355h-55v700z" />
    <glyph glyph-name="hcircumflex" unicode="&#x125;" 
d="M112 951l-127 -111l-33 27l160 140l160 -140l-33 -27zM374 296q0 125 -108 125q-58 0 -96.5 -41t-38.5 -100v-280h-52v780h52v-401q23 42 61.5 66.5t85.5 24.5q71 0 109.5 -44t38.5 -124v-302h-52v296z" />
    <glyph glyph-name="Hbar" unicode="&#x126;" horiz-adv-x="687" 
d="M5 566v49h79v85h55v-85h409v85h56v-85h79v-49h-79v-566h-56v355h-409v-355h-55v566h-79zM139 407h409v159h-409v-159z" />
    <glyph glyph-name="hbar" unicode="&#x127;" horiz-adv-x="525" 
d="M374 296q0 125 -108 125q-58 0 -96.5 -41t-38.5 -100v-280h-52v651h-74v49h74v80h52v-80h186v-49h-186v-281q21 46 59.5 73t87.5 27q71 0 109.5 -44t38.5 -124v-302h-52v296z" />
    <glyph glyph-name="Itilde" unicode="&#x128;" horiz-adv-x="219" 
d="M-35 817q5 31 29.5 51.5t57.5 20.5q31 0 64.5 -23.5t59.5 -23.5q29 0 56 48l31 -27q-28 -65 -90 -65q-29 0 -64.5 23.5t-56.5 23.5q-27 0 -39.5 -16t-12.5 -35zM82 700h55v-700h-55v700z" />
    <glyph glyph-name="itilde" unicode="&#x129;" horiz-adv-x="232" 
d="M-28 577q5 31 29.5 51.5t57.5 20.5q31 0 64.5 -23.5t59.5 -23.5q29 0 56 48l31 -27q-28 -65 -90 -65q-29 0 -64.5 23.5t-56.5 23.5q-27 0 -39.5 -16t-12.5 -35zM90 460h52v-460h-52v460z" />
    <glyph glyph-name="Imacron" unicode="&#x12a;" horiz-adv-x="219" 
d="M-52 796v49h350v-49h-350zM82 700h55v-700h-55v700z" />
    <glyph glyph-name="imacron" unicode="&#x12b;" horiz-adv-x="232" 
d="M-45 556v49h350v-49h-350zM90 460h52v-460h-52v460z" />
    <glyph glyph-name="Ibreve" unicode="&#x12c;" horiz-adv-x="219" 
d="M-49 910h47q0 -37 28.5 -67t82.5 -30t82.5 30t28.5 67h47q0 -56 -42 -98t-116 -42t-116 42t-42 98zM82 700h55v-700h-55v700z" />
    <glyph glyph-name="ibreve" unicode="&#x12d;" horiz-adv-x="232" 
d="M-42 670h47q0 -37 28.5 -67t82.5 -30t82.5 30t28.5 67h47q0 -56 -42 -98t-116 -42t-116 42t-42 98zM90 460h52v-460h-52v460z" />
    <glyph glyph-name="Iogonek" unicode="&#x12e;" horiz-adv-x="219" 
d="M154 -147l22 -33q-30 -40 -92 -40q-56 0 -85.5 25t-29.5 67q0 68 113 132v696h55v-700q-48 -22 -82 -53t-34 -63q0 -29 18 -43.5t48 -14.5q42 0 67 27z" />
    <glyph glyph-name="iogonek" unicode="&#x12f;" horiz-adv-x="232" 
d="M79 668q0 15 10.5 26t26.5 11t26.5 -11t10.5 -26t-10.5 -26t-26.5 -11t-26.5 11t-10.5 26zM159 -147l22 -33q-30 -40 -92 -40q-56 0 -85.5 25t-29.5 67q0 67 116 134v454h52v-460q-48 -22 -82 -53t-34 -63q0 -29 18 -43.5t48 -14.5q42 0 67 27z" />
    <glyph glyph-name="Idotaccent" unicode="&#x130;" horiz-adv-x="219" 
d="M72 809q0 16 11 27t26 11t26.5 -11t11.5 -27q0 -15 -11.5 -26t-26.5 -11t-26 10.5t-11 26.5zM82 700h55v-700h-55v700z" />
    <glyph glyph-name="dotlessi" unicode="&#x131;" horiz-adv-x="232" 
d="M90 460h52v-460h-52v460z" />
    <glyph glyph-name="IJ" unicode="&#x132;" horiz-adv-x="490" 
d="M159 -126q33 -42 91 -42q86 0 86 118v750h53v-760q0 -160 -141 -160q-36 0 -70.5 17t-47.5 35zM82 700h55v-700h-55v700z" />
    <glyph glyph-name="ij" unicode="&#x133;" horiz-adv-x="510" 
d="M329 668q0 15 10.5 26t26.5 11t26.5 -11t10.5 -26t-10.5 -26t-26.5 -11t-26.5 11t-10.5 26zM79 668q0 15 10.5 26t26.5 11t26.5 -11t10.5 -26t-10.5 -26t-26.5 -11t-26.5 11t-10.5 26zM211 -134q23 -34 61 -34q68 0 68 105v523h52v-529q0 -72 -30.5 -111.5t-92.5 -39.5
q-55 0 -87 43zM90 460h52v-460h-52v460z" />
    <glyph glyph-name="Jcircumflex" unicode="&#x134;" horiz-adv-x="222" 
d="M113 880l-128 -111l-32 27l160 140l160 -140l-33 -27zM-91 -126q33 -42 91 -42q86 0 86 118v750h53v-760q0 -160 -141 -160q-36 0 -70.5 17t-47.5 35z" />
    <glyph glyph-name="jcircumflex" unicode="&#x135;" horiz-adv-x="222" 
d="M106 641l-127 -111l-33 27l160 140l160 -140l-33 -27zM-49 -134q23 -34 61 -34q68 0 68 105v523h52v-529q0 -72 -30.5 -111.5t-92.5 -39.5q-55 0 -87 43z" />
    <glyph glyph-name="uni0136" unicode="&#x136;" horiz-adv-x="520" 
d="M82 700h55v-312l290 312h70l-308 -328l323 -372h-70l-305 353v-353h-55v700zM318 -60l52 -20l-110 -250l-37 13z" />
    <glyph glyph-name="uni0137" unicode="&#x137;" horiz-adv-x="412" 
d="M323 460h67l-217 -190l236 -270h-66l-217 248v-248h-52v780h52v-493zM263 -60l52 -20l-110 -250l-37 13z" />
    <glyph glyph-name="kgreenlandic" unicode="&#x138;" horiz-adv-x="412" 
d="M74 460h52v-173l197 173h67l-217 -190l236 -270h-66l-217 248v-248h-52v460z" />
    <glyph glyph-name="Lacute" unicode="&#x139;" horiz-adv-x="442" 
d="M404 922l-177 -153l-29 20l158 160zM84 700h55v-648h289v-52h-344v700z" />
    <glyph glyph-name="lacute" unicode="&#x13a;" horiz-adv-x="210" 
d="M253 993l-177 -153l-29 20l158 160zM79 780h52v-780h-52v780z" />
    <glyph glyph-name="uni013B" unicode="&#x13b;" horiz-adv-x="442" 
d="M84 700h55v-648h289v-52h-344v700zM261 -60l53 -20l-110 -250l-38 13z" />
    <glyph glyph-name="uni013C" unicode="&#x13c;" horiz-adv-x="210" 
d="M79 780h52v-780h-52v780zM118 -60l53 -20l-110 -250l-38 13z" />
    <glyph glyph-name="Lcaron" unicode="&#x13d;" horiz-adv-x="442" 
d="M335 709l52 -20l-110 -250l-37 14zM84 700h55v-648h289v-52h-344v700z" />
    <glyph glyph-name="lcaron" unicode="&#x13e;" horiz-adv-x="230" 
d="M79 780h52v-780h-52v780zM304 774l52 -20l-110 -250l-37 13z" />
    <glyph glyph-name="Ldot" unicode="&#x13f;" horiz-adv-x="442" 
d="M84 700h55v-648h289v-52h-344v700zM261 415q0 16 11 26.5t26 10.5t26 -10.5t11 -26.5t-11 -27t-26 -11t-26 11t-11 27z" />
    <glyph glyph-name="ldot" unicode="&#x140;" horiz-adv-x="370" 
d="M79 780h52v-780h-52v780zM221 407q0 16 11 27t26 11t26.5 -11t11.5 -27q0 -15 -11.5 -26t-26.5 -11t-26 10.5t-11 26.5z" />
    <glyph glyph-name="Lslash" unicode="&#x141;" horiz-adv-x="420" 
d="M-1 359l-14 36l95 60v245h55v-211l120 76l14 -36l-134 -84v-393h275v-52h-330v410z" />
    <glyph glyph-name="lslash" unicode="&#x142;" horiz-adv-x="202" 
d="M0 359l-15 36l90 61v324h52v-289l80 54l15 -36l-95 -64v-445h-52v410z" />
    <glyph glyph-name="Nacute" unicode="&#x143;" horiz-adv-x="731" 
d="M526 908l-177 -153l-29 20l158 160zM600 700h55v-727l-532 611v-584h-55v727l532 -613v586z" />
    <glyph glyph-name="nacute" unicode="&#x144;" 
d="M394 687l-177 -153l-28 20l158 160zM374 296q0 125 -108 125q-58 0 -96.5 -41t-38.5 -100v-280h-52v460h52v-90q21 46 59.5 73t87.5 27q71 0 109.5 -44t38.5 -124v-302h-52v296z" />
    <glyph glyph-name="uni0145" unicode="&#x145;" horiz-adv-x="731" 
d="M600 700h55v-727l-532 611v-584h-55v727l532 -613v586zM376 -39l53 -20l-110 -250l-38 13z" />
    <glyph glyph-name="uni0146" unicode="&#x146;" 
d="M374 296q0 125 -108 125q-58 0 -96.5 -41t-38.5 -100v-280h-52v460h52v-81q23 42 61.5 66.5t85.5 24.5q71 0 109.5 -44t38.5 -124v-302h-52v296zM261 -52l53 -20l-110 -250l-37 13z" />
    <glyph glyph-name="Ncaron" unicode="&#x147;" horiz-adv-x="731" 
d="M376 839l127 111l33 -27l-160 -140l-160 140l33 27zM600 700h55v-727l-532 611v-584h-55v727l532 -613v586z" />
    <glyph glyph-name="ncaron" unicode="&#x148;" 
d="M252 586l127 111l33 -27l-160 -140l-160 140l34 27zM374 296q0 125 -108 125q-58 0 -96.5 -41t-38.5 -100v-280h-52v460h52v-81q23 42 61.5 66.5t85.5 24.5q71 0 109.5 -44t38.5 -124v-302h-52v296z" />
    <glyph glyph-name="napostrophe" unicode="&#x149;" horiz-adv-x="627" 
d="M147 700h62l-98 -230h-37zM233 460v-81q23 42 61.5 66.5t85.5 24.5q71 0 109.5 -44t38.5 -124v-302h-52v296q0 125 -108 125q-58 0 -96.5 -41t-38.5 -100v-280h-52v460h52z" />
    <glyph glyph-name="Eng" unicode="&#x14a;" horiz-adv-x="755" 
d="M548 -220q-55 0 -87 43l29 43q23 -34 61 -34q68 0 68 105v92l-480 555v-584h-55v727l532 -613v586h55v-769q0 -69 -31 -110t-92 -41z" />
    <glyph glyph-name="eng" unicode="&#x14b;" 
d="M303 -220q-55 0 -87 43l29 43q24 -34 61 -34q68 0 68 105v359q0 125 -108 125q-57 0 -96 -40.5t-39 -100.5v-280h-52v460h52v-96q19 49 58.5 77.5t88.5 28.5q71 0 109.5 -43.5t38.5 -124.5v-371q0 -74 -31.5 -112.5t-91.5 -38.5z" />
    <glyph glyph-name="Omacron" unicode="&#x14c;" horiz-adv-x="783" 
d="M217 777v49h350v-49h-350zM44 350q0 155 99 257t249 102t249 -102t99 -257t-99 -257t-249 -102t-249 102t-99 257zM102 350q0 -131 82 -217.5t208 -86.5t207.5 86t81.5 218t-81.5 218t-207.5 86t-208 -86.5t-82 -217.5z" />
    <glyph glyph-name="omacron" unicode="&#x14d;" horiz-adv-x="550" 
d="M100 538v49h350v-49h-350zM39 230q0 104 67.5 172t168.5 68t168.5 -68t67.5 -172t-67.5 -172t-168.5 -68t-168.5 68t-67.5 172zM92 230q0 -83 52.5 -137t130.5 -54t130.5 54t52.5 137t-52.5 137t-130.5 54t-130.5 -54t-52.5 -137z" />
    <glyph glyph-name="Obreve" unicode="&#x14e;" horiz-adv-x="783" 
d="M234 909h46q0 -37 29 -67t83 -30t82.5 30t28.5 67h47q0 -56 -42 -98t-116 -42t-116 42t-42 98zM44 350q0 155 99 257t249 102t249 -102t99 -257t-99 -257t-249 -102t-249 102t-99 257zM102 350q0 -131 82 -217.5t208 -86.5t207.5 86t81.5 218t-81.5 218t-207.5 86
t-208 -86.5t-82 -217.5z" />
    <glyph glyph-name="obreve" unicode="&#x14f;" horiz-adv-x="550" 
d="M117 670h47q0 -37 28.5 -67t82.5 -30t82.5 30t28.5 67h47q0 -56 -42 -98t-116 -42t-116 42t-42 98zM39 230q0 104 67.5 172t168.5 68t168.5 -68t67.5 -172t-67.5 -172t-168.5 -68t-168.5 68t-67.5 172zM92 230q0 -83 52.5 -137t130.5 -54t130.5 54t52.5 137t-52.5 137
t-130.5 54t-130.5 -54t-52.5 -137z" />
    <glyph glyph-name="Ohungarumlaut" unicode="&#x150;" horiz-adv-x="783" 
d="M324 769l-34 12l104 199l54 -14zM462 769l-33 12l104 199l54 -14zM44 350q0 155 99 257t249 102t249 -102t99 -257t-99 -257t-249 -102t-249 102t-99 257zM102 350q0 -131 82 -217.5t208 -86.5t207.5 86t81.5 218t-81.5 218t-207.5 86t-208 -86.5t-82 -217.5z" />
    <glyph glyph-name="ohungarumlaut" unicode="&#x151;" horiz-adv-x="550" 
d="M207 530l-34 12l104 199l54 -14zM345 530l-33 12l104 199l54 -14zM39 230q0 104 67.5 172t168.5 68t168.5 -68t67.5 -172t-67.5 -172t-168.5 -68t-168.5 68t-67.5 172zM92 230q0 -83 52.5 -137t130.5 -54t130.5 54t52.5 137t-52.5 137t-130.5 54t-130.5 -54t-52.5 -137z
" />
    <glyph glyph-name="OE" unicode="&#x152;" horiz-adv-x="971" 
d="M898 52v-52h-508q-153 0 -251.5 97t-98.5 253t98 253t252 97h507v-52h-327v-238h307v-52h-307v-306h328zM390 52h125v596h-125q-130 0 -212.5 -83t-82.5 -215t83 -215t212 -83z" />
    <glyph glyph-name="oe" unicode="&#x153;" horiz-adv-x="910" 
d="M39 230q0 109 63 174.5t157 65.5q69 0 121 -41t72 -113q23 71 78.5 112.5t131.5 41.5q85 0 147 -64t62 -164q0 -17 -1 -25h-386q4 -82 51 -130t121 -48q107 0 165 95l42 -27q-77 -117 -207 -117q-74 0 -128 42t-76 112q-20 -72 -72 -113t-121 -41q-94 0 -157 65.5
t-63 174.5zM656 424q-70 0 -118 -46t-53 -116h331q-4 70 -46.5 116t-113.5 46zM92 230q0 -88 49.5 -139.5t124.5 -51.5q65 0 112.5 53t47.5 138t-47.5 138t-112.5 53q-75 0 -124.5 -51.5t-49.5 -139.5z" />
    <glyph glyph-name="Racute" unicode="&#x154;" horiz-adv-x="523" 
d="M388 922l-177 -153l-29 20l158 160zM84 700h160q104 0 170.5 -54.5t66.5 -148.5q0 -83 -52.5 -135.5t-138.5 -64.5l213 -297h-68l-204 294h-92v-294h-55v700zM244 651h-105v-308h105q83 0 132.5 40t49.5 114t-50 114t-132 40z" />
    <glyph glyph-name="racute" unicode="&#x155;" horiz-adv-x="321" 
d="M328 683l-178 -153l-28 20l158 160zM131 460v-67q37 77 105 77q48 0 77 -28l-29 -43q-31 22 -60 22q-48 0 -70.5 -39t-22.5 -102v-280h-52v460h52z" />
    <glyph glyph-name="uni0156" unicode="&#x156;" horiz-adv-x="523" 
d="M84 700h160q104 0 170.5 -54.5t66.5 -148.5q0 -83 -52.5 -135.5t-138.5 -64.5l213 -297h-68l-204 294h-92v-294h-55v700zM244 651h-105v-308h105q83 0 132.5 40t49.5 114t-50 114t-132 40zM295 -60l52 -20l-110 -250l-37 13z" />
    <glyph glyph-name="uni0157" unicode="&#x157;" horiz-adv-x="321" 
d="M131 460v-67q37 77 105 77q48 0 77 -28l-29 -43q-31 22 -60 22q-48 0 -70.5 -39t-22.5 -102v-280h-52v460h52zM110 -60l53 -20l-110 -250l-38 13z" />
    <glyph glyph-name="Rcaron" unicode="&#x158;" horiz-adv-x="523" 
d="M244 825l127 111l33 -27l-160 -140l-160 140l33 27zM84 700h160q104 0 170.5 -54.5t66.5 -148.5q0 -83 -52.5 -135.5t-138.5 -64.5l213 -297h-68l-204 294h-92v-294h-55v700zM244 651h-105v-308h105q83 0 132.5 40t49.5 114t-50 114t-132 40z" />
    <glyph glyph-name="rcaron" unicode="&#x159;" horiz-adv-x="321" 
d="M196 586l126 111l34 -27l-160 -140l-160 140l33 27zM131 460v-67q37 77 105 77q48 0 77 -28l-29 -43q-31 22 -60 22q-48 0 -70.5 -39t-22.5 -102v-280h-52v460h52z" />
    <glyph glyph-name="Sacute" unicode="&#x15a;" horiz-adv-x="524" 
d="M438 922l-177 -153l-29 20l158 160zM87 214q66 -171 192 -171q72 0 107.5 36.5t35.5 100.5q0 34 -14 61.5t-40.5 47t-51 32t-59.5 25.5q-180 66 -180 195q0 75 55 121.5t136 46.5q78 0 130.5 -45.5t73.5 -107.5l-45 -28q-54 128 -158 128q-59 0 -96.5 -33t-37.5 -86
q0 -29 13.5 -53t40.5 -42t52.5 -30.5t63.5 -26.5q174 -63 174 -201q0 -87 -51.5 -140t-151.5 -53q-85 0 -145 54.5t-91 141.5z" />
    <glyph glyph-name="sacute" unicode="&#x15b;" horiz-adv-x="403" 
d="M371 683l-177 -153l-30 20l158 160zM75 155q10 -50 44 -83t86 -33q45 0 71.5 21.5t26.5 60.5q0 26 -17.5 46.5t-38.5 30.5t-57 23q-30 10 -49.5 19.5t-40.5 24.5t-31 37t-10 51q0 53 42 84.5t100 31.5q55 0 97 -27t56 -67l-43 -26q-16 31 -45 51t-65 20q-40 0 -65 -18
t-25 -52q0 -16 7.5 -29t16 -21t29 -17.5t29.5 -13.5t36 -13q128 -47 128 -131q0 -66 -42 -100.5t-113 -34.5q-67 0 -113.5 41t-57.5 100z" />
    <glyph glyph-name="Scircumflex" unicode="&#x15c;" horiz-adv-x="524" 
d="M268 880l-127 -111l-33 27l160 140l160 -140l-33 -27zM87 214q66 -171 192 -171q72 0 107.5 36.5t35.5 100.5q0 34 -14 61.5t-40.5 47t-51 32t-59.5 25.5q-180 66 -180 195q0 75 55 121.5t136 46.5q78 0 130.5 -45.5t73.5 -107.5l-45 -28q-54 128 -158 128
q-59 0 -96.5 -33t-37.5 -86q0 -29 13.5 -53t40.5 -42t52.5 -30.5t63.5 -26.5q174 -63 174 -201q0 -87 -51.5 -140t-151.5 -53q-85 0 -145 54.5t-91 141.5z" />
    <glyph glyph-name="scircumflex" unicode="&#x15d;" horiz-adv-x="403" 
d="M201 641l-128 -111l-32 27l160 140l160 -140l-33 -27zM75 155q10 -50 44 -83t86 -33q45 0 71.5 21.5t26.5 60.5q0 26 -17.5 46.5t-38.5 30.5t-57 23q-30 10 -49.5 19.5t-40.5 24.5t-31 37t-10 51q0 53 42 84.5t100 31.5q55 0 97 -27t56 -67l-43 -26q-16 31 -45 51t-65 20
q-40 0 -65 -18t-25 -52q0 -16 7.5 -29t16 -21t29 -17.5t29.5 -13.5t36 -13q128 -47 128 -131q0 -66 -42 -100.5t-113 -34.5q-67 0 -113.5 41t-57.5 100z" />
    <glyph glyph-name="Scedilla" unicode="&#x15e;" horiz-adv-x="524" 
d="M87 214q66 -171 192 -171q72 0 107.5 36.5t35.5 100.5q0 34 -14 61.5t-40.5 47t-51 32t-59.5 25.5q-36 13 -60.5 25t-55.5 34.5t-47.5 56t-16.5 76.5q0 76 53.5 123.5t137.5 47.5q78 0 128.5 -43.5t75.5 -109.5l-45 -28q-54 128 -164 128q-58 0 -93 -32.5t-35 -86.5
q0 -29 13.5 -53t40.5 -42t52.5 -30.5t63.5 -26.5q174 -63 174 -201q0 -82 -48.5 -135t-137.5 -58l-33 -54q20 10 34 10q27 0 49.5 -20t22.5 -54q0 -44 -31 -69t-75 -25q-52 0 -90 38l23 26q34 -28 67 -28q30 0 49 15.5t19 42.5q0 47 -55 47q-36 0 -67 -21l51 93
q-78 6 -133 59.5t-84 135.5z" />
    <glyph glyph-name="scedilla" unicode="&#x15f;" horiz-adv-x="403" 
d="M73 157q21 -51 55 -84t80 -33q42 0 68.5 21t26.5 59q0 37 -29 59t-84 41q-27 9 -40.5 14.5t-34 17t-30.5 23.5t-18 32t-8 45q0 57 41.5 87.5t100.5 30.5q54 0 94 -26.5t59 -67.5l-43 -26q-16 31 -45 51.5t-65 20.5q-40 0 -65.5 -17t-25.5 -51q0 -10 2 -18t7 -15.5
t8.5 -12.5t13 -11t14.5 -9t17.5 -8l17.5 -7t20 -7t19 -7q59 -22 93.5 -52.5t34.5 -81.5q0 -61 -36 -95t-95 -38l-34 -55q20 10 33 10q28 0 51 -20t23 -54q0 -44 -32 -69t-76 -25q-50 0 -88 38l22 26q34 -28 66 -28q30 0 49.5 15.5t19.5 42.5q0 47 -55 47q-35 0 -66 -21
l49 93q-58 6 -98 44.5t-59 95.5z" />
    <glyph glyph-name="Scaron" unicode="&#x160;" horiz-adv-x="524" 
d="M268 829l127 111l33 -27l-160 -140l-160 140l33 27zM87 214q66 -171 192 -171q72 0 107.5 36.5t35.5 100.5q0 34 -14 61.5t-40.5 47t-51 32t-59.5 25.5q-180 66 -180 195q0 75 55 121.5t136 46.5q78 0 130.5 -45.5t73.5 -107.5l-45 -28q-54 128 -158 128q-59 0 -96.5 -33
t-37.5 -86q0 -29 13.5 -53t40.5 -42t52.5 -30.5t63.5 -26.5q174 -63 174 -201q0 -87 -51.5 -140t-151.5 -53q-85 0 -145 54.5t-91 141.5z" />
    <glyph glyph-name="scaron" unicode="&#x161;" horiz-adv-x="403" 
d="M201 586l126 111l34 -27l-160 -140l-160 140l33 27zM75 155q10 -50 44 -83t86 -33q45 0 71.5 21.5t26.5 60.5q0 26 -17.5 46.5t-38.5 30.5t-57 23q-30 10 -49.5 19.5t-40.5 24.5t-31 37t-10 51q0 53 42 84.5t100 31.5q55 0 97 -27t56 -67l-43 -26q-16 31 -45 51t-65 20
q-40 0 -65 -18t-25 -52q0 -16 7.5 -29t16 -21t29 -17.5t29.5 -13.5t36 -13q128 -47 128 -131q0 -66 -42 -100.5t-113 -34.5q-67 0 -113.5 41t-57.5 100z" />
    <glyph glyph-name="uni0162" unicode="&#x162;" horiz-adv-x="451" 
d="M14 648v52h423v-52h-184v-648h-11l-56 -92q20 10 33 10q28 0 50.5 -20t22.5 -54q0 -44 -31.5 -69t-75.5 -25q-51 0 -89 38l23 26q34 -28 66 -28q30 0 49.5 15.5t19.5 42.5q0 47 -55 47q-36 0 -67 -21l70 130h-4v648h-184z" />
    <glyph glyph-name="uni0163" unicode="&#x163;" horiz-adv-x="220" 
d="M9 460h75v160h52v-160h75v-49h-75v-411h-12l-54 -89q20 10 33 10q28 0 50.5 -20t22.5 -54q0 -44 -31.5 -69t-75.5 -25q-51 0 -89 38l23 26q34 -28 66 -28q30 0 49.5 15.5t19.5 42.5q0 47 -55 47q-36 0 -67 -21l68 127v411h-75v49z" />
    <glyph glyph-name="Tcaron" unicode="&#x164;" horiz-adv-x="451" 
d="M226 825l126 111l34 -27l-160 -140l-160 140l33 27zM14 648v52h423v-52h-184v-648h-55v648h-184z" />
    <glyph glyph-name="tcaron" unicode="&#x165;" horiz-adv-x="322" 
d="M287 796l52 -20l-110 -250l-37 13zM9 460h75v160h52v-160h75v-49h-75v-411h-52v411h-75v49z" />
    <glyph glyph-name="Tbar" unicode="&#x166;" horiz-adv-x="451" 
d="M67 406v49h131v193h-184v52h423v-52h-184v-193h129v-49h-129v-406h-55v406h-131z" />
    <glyph glyph-name="tbar" unicode="&#x167;" horiz-adv-x="220" 
d="M18 259v49h66v103h-75v49h75v160h52v-160h75v-49h-75v-103h66v-49h-66v-259h-52v259h-66z" />
    <glyph glyph-name="Utilde" unicode="&#x168;" horiz-adv-x="606" 
d="M154 792q5 31 29.5 51.5t57.5 20.5q31 0 64.5 -23.5t59.5 -23.5q29 0 56 48l31 -27q-28 -65 -90 -65q-29 0 -64.5 23.5t-56.5 23.5q-27 0 -39.5 -16t-12.5 -35zM79 700h55v-474q0 -85 44.5 -134.5t124.5 -49.5t124.5 49.5t44.5 134.5v474h55v-474q0 -106 -60 -171
t-164 -65t-164 65t-60 171v474z" />
    <glyph glyph-name="utilde" unicode="&#x169;" 
d="M103 553q5 31 29.5 51.5t57.5 20.5q31 0 64.5 -23.5t59.5 -23.5q29 0 56 48l32 -27q-28 -65 -90 -65q-29 0 -64.5 23.5t-56.5 23.5q-27 0 -39.5 -16t-12.5 -35zM131 168q0 -129 108 -129q58 0 96.5 41t38.5 100v280h52v-460h-52v90q-21 -46 -59.5 -73t-87.5 -27
q-71 0 -109.5 44.5t-38.5 127.5v298h52v-292z" />
    <glyph glyph-name="Umacron" unicode="&#x16a;" horiz-adv-x="606" 
d="M128 769v49h350v-49h-350zM79 700h55v-474q0 -85 44.5 -134.5t124.5 -49.5t124.5 49.5t44.5 134.5v474h55v-474q0 -106 -60 -171t-164 -65t-164 65t-60 171v474z" />
    <glyph glyph-name="umacron" unicode="&#x16b;" 
d="M78 530v49h350v-49h-350zM131 168q0 -129 108 -129q58 0 96.5 41t38.5 100v280h52v-460h-52v90q-21 -46 -59.5 -73t-87.5 -27q-71 0 -109.5 44.5t-38.5 127.5v298h52v-292z" />
    <glyph glyph-name="Ubreve" unicode="&#x16c;" horiz-adv-x="606" 
d="M145 909h47q0 -37 28.5 -67t82.5 -30t82.5 30t28.5 67h47q0 -56 -42 -98t-116 -42t-116 42t-42 98zM79 700h55v-474q0 -85 44.5 -134.5t124.5 -49.5t124.5 49.5t44.5 134.5v474h55v-474q0 -106 -60 -171t-164 -65t-164 65t-60 171v474z" />
    <glyph glyph-name="ubreve" unicode="&#x16d;" 
d="M94 670h47q0 -37 28.5 -67t82.5 -30t83 30t29 67h46q0 -56 -42 -98t-116 -42t-116 42t-42 98zM131 168q0 -129 108 -129q58 0 96.5 41t38.5 100v280h52v-460h-52v90q-21 -46 -59.5 -73t-87.5 -27q-71 0 -109.5 44.5t-38.5 127.5v298h52v-292z" />
    <glyph glyph-name="Uring" unicode="&#x16e;" horiz-adv-x="606" 
d="M201 869q0 43 30.5 71.5t71.5 28.5t71.5 -28.5t30.5 -71.5t-30.5 -71.5t-71.5 -28.5t-71.5 28.5t-30.5 71.5zM236 869q0 -30 20 -49t47 -19t47 19t20 49t-20 49t-47 19t-47 -19t-20 -49zM79 700h55v-474q0 -85 44.5 -134.5t124.5 -49.5t124.5 49.5t44.5 134.5v474h55
v-474q0 -106 -60 -171t-164 -65t-164 65t-60 171v474z" />
    <glyph glyph-name="uring" unicode="&#x16f;" 
d="M150 630q0 43 30.5 71.5t71.5 28.5t71.5 -28.5t30.5 -71.5t-30.5 -71.5t-71.5 -28.5t-71.5 28.5t-30.5 71.5zM185 630q0 -30 20 -49t47 -19t47.5 19t20.5 49t-20.5 49t-47.5 19t-47 -19t-20 -49zM131 168q0 -129 108 -129q58 0 96.5 41t38.5 100v280h52v-460h-52v90
q-21 -46 -59.5 -73t-87.5 -27q-71 0 -109.5 44.5t-38.5 127.5v298h52v-292z" />
    <glyph glyph-name="Uhungarumlaut" unicode="&#x170;" horiz-adv-x="606" 
d="M235 769l-34 12l104 199l54 -14zM373 769l-33 12l104 199l54 -14zM79 700h55v-474q0 -85 44.5 -134.5t124.5 -49.5t124.5 49.5t44.5 134.5v474h55v-474q0 -106 -60 -171t-164 -65t-164 65t-60 171v474z" />
    <glyph glyph-name="uhungarumlaut" unicode="&#x171;" 
d="M185 530l-34 12l104 199l54 -14zM323 530l-33 12l104 199l54 -14zM131 168q0 -129 108 -129q58 0 96.5 40.5t38.5 100.5v280h52v-460h-52v96q-20 -51 -58 -78.5t-89 -27.5q-71 0 -109.5 45.5t-38.5 126.5v298h52v-292z" />
    <glyph glyph-name="Uogonek" unicode="&#x172;" horiz-adv-x="606" 
d="M350 -167l23 -33q-30 -40 -92 -40q-56 0 -85.5 25t-29.5 67q0 71 124 138q-98 4 -154.5 68.5t-56.5 167.5v474h55v-474q0 -85 44.5 -134.5t124.5 -49.5t124.5 49.5t44.5 134.5v474h55v-474q0 -102 -55.5 -166.5t-152.5 -69.5l15 -10q-48 -22 -82 -53t-34 -63
q0 -29 18 -43.5t48 -14.5q41 0 66 27z" />
    <glyph glyph-name="uogonek" unicode="&#x173;" 
d="M131 168q0 -129 108 -129q58 0 96.5 40.5t38.5 100.5v280h52v-460h-52v96q-37 -98 -134 -106l15 -10q-48 -22 -82 -53t-34 -63q0 -29 18 -43.5t48 -14.5q41 0 66 27l23 -33q-30 -40 -92 -40q-56 0 -85.5 25t-29.5 67q0 71 124 139q-64 5 -98 50t-34 121v298h52v-292z" />
    <glyph glyph-name="Wcircumflex" unicode="&#x174;" horiz-adv-x="974" 
d="M487 898l-127 -111l-33 27l160 140l160 -140l-33 -27zM698 115l201 585h61l-259 -727l-214 603l-214 -603l-259 727h61l201 -585l211 612z" />
    <glyph glyph-name="wcircumflex" unicode="&#x175;" horiz-adv-x="656" 
d="M323 658l-127 -111l-33 27l160 140l160 -140l-33 -27zM9 460h58l124 -356l132 383l142 -384l124 357h58l-179 -487l-144 383l-136 -383z" />
    <glyph glyph-name="Ycircumflex" unicode="&#x176;" horiz-adv-x="539" 
d="M270 880l-128 -111l-32 27l160 140l160 -140l-33 -27zM468 700h62l-235 -412v-288h-55v287l-231 413h62l196 -362z" />
    <glyph glyph-name="ycircumflex" unicode="&#x177;" horiz-adv-x="434" 
d="M217 641l-127 -111l-33 27l160 140l160 -140l-33 -27zM430 460l-300 -680h-58l118 267l-186 413h62l154 -363l152 363h58z" />
    <glyph glyph-name="Ydieresis" unicode="&#x178;" horiz-adv-x="539" 
d="M136 807q0 15 11.5 26t26.5 11t26.5 -11t11.5 -26q0 -16 -11.5 -27t-26.5 -11t-26.5 11t-11.5 27zM328 807q0 15 11.5 26t26.5 11t26.5 -11t11.5 -26q0 -16 -11.5 -27t-26.5 -11t-26.5 11t-11.5 27zM468 700h62l-235 -412v-288h-55v287l-231 413h62l196 -362z" />
    <glyph glyph-name="Zacute" unicode="&#x179;" horiz-adv-x="541" 
d="M434 922l-177 -153l-29 20l158 160zM37 648v52h486l-412 -648h396v-52h-490l412 648h-392z" />
    <glyph glyph-name="zacute" unicode="&#x17a;" horiz-adv-x="448" 
d="M389 695l-177 -153l-29 20l158 160zM332 411h-289v49h384l-315 -411h307v-49h-402z" />
    <glyph glyph-name="Zdotaccent" unicode="&#x17b;" horiz-adv-x="541" 
d="M243 807q0 16 11 26.5t26 10.5t26 -10.5t11 -26.5t-11 -27t-26 -11t-26 11t-11 27zM37 648v52h486l-412 -648h396v-52h-490l412 648h-392z" />
    <glyph glyph-name="zdotaccent" unicode="&#x17c;" horiz-adv-x="448" 
d="M198 597q0 16 11 27t26 11t26 -11t11 -27t-11 -26.5t-26 -10.5t-26 10.5t-11 26.5zM332 411h-289v49h384l-315 -411h307v-49h-402z" />
    <glyph glyph-name="Zcaron" unicode="&#x17d;" horiz-adv-x="541" 
d="M280 825l127 111l33 -27l-160 -140l-160 140l33 27zM37 648v52h486l-412 -648h396v-52h-490l412 648h-392z" />
    <glyph glyph-name="zcaron" unicode="&#x17e;" horiz-adv-x="448" 
d="M235 586l127 111l33 -27l-160 -140l-160 140l33 27zM332 411h-289v49h384l-315 -411h307v-49h-402z" />
    <glyph glyph-name="florin" unicode="&#x192;" horiz-adv-x="600" 
d="M191 -200q-43 1 -87 44l28 40q33 -33 57 -33q30 0 48 27.5t21 77.5l26 455h-74l4 49h73l9 176q4 70 36.5 111.5t83.5 40.5q43 -1 87 -44l-28 -40q-33 33 -57 33q-30 0 -48 -27.5t-21 -77.5l-10 -172h81l-4 -49h-80l-25 -459q-4 -70 -36.5 -111.5t-83.5 -40.5z" />
    <glyph glyph-name="uni0212" unicode="&#x212;" horiz-adv-x="523" 
d="M110 769q0 56 42 98t116 42t116 -42t42 -98h-46q0 37 -29 67t-83 30t-82.5 -30t-28.5 -67h-47zM84 700h160q104 0 170.5 -54.5t66.5 -148.5q0 -83 -52.5 -135.5t-138.5 -64.5l213 -297h-68l-204 294h-92v-294h-55v700zM244 651h-105v-308h105q83 0 132.5 40t49.5 114
t-50 114t-132 40z" />
    <glyph glyph-name="uni0213" unicode="&#x213;" horiz-adv-x="321" 
d="M38 538q0 56 42 98t116 42t116 -42t42 -98h-46q0 37 -29 67t-83 30t-82.5 -30t-28.5 -67h-47zM131 460v-67q37 77 105 77q48 0 77 -28l-29 -43q-31 22 -60 22q-48 0 -70.5 -39t-22.5 -102v-280h-52v460h52z" />
    <glyph glyph-name="uni0218" unicode="&#x218;" horiz-adv-x="524" 
d="M87 214q66 -171 192 -171q72 0 107.5 36.5t35.5 100.5q0 34 -14 61.5t-40.5 47t-51 32t-59.5 25.5q-180 66 -180 195q0 75 55 121.5t136 46.5q78 0 130.5 -45.5t73.5 -107.5l-45 -28q-54 128 -158 128q-59 0 -96.5 -33t-37.5 -86q0 -29 13.5 -53t40.5 -42t52.5 -30.5
t63.5 -26.5q174 -63 174 -201q0 -87 -51.5 -140t-151.5 -53q-85 0 -145 54.5t-91 141.5zM297 -69l53 -20l-110 -250l-38 13z" />
    <glyph glyph-name="uni0219" unicode="&#x219;" horiz-adv-x="403" 
d="M75 155q10 -50 44 -83t86 -33q45 0 71.5 21.5t26.5 60.5q0 26 -17.5 46.5t-38.5 30.5t-57 23q-30 10 -49.5 19.5t-40.5 24.5t-31 37t-10 51q0 53 42 84.5t100 31.5q55 0 97 -27t56 -67l-43 -26q-16 31 -45 51t-65 20q-40 0 -65 -18t-25 -52q0 -16 7.5 -29t16 -21
t29 -17.5t29.5 -13.5t36 -13q128 -47 128 -131q0 -66 -42 -100.5t-113 -34.5q-67 0 -113.5 41t-57.5 100zM223 -70l53 -20l-110 -250l-37 13z" />
    <glyph glyph-name="uni021A" unicode="&#x21a;" horiz-adv-x="451" 
d="M14 648v52h423v-52h-184v-648h-55v648h-184zM247 -60l52 -20l-110 -250l-37 13z" />
    <glyph glyph-name="uni021B" unicode="&#x21b;" horiz-adv-x="220" 
d="M9 460h75v160h52v-160h75v-49h-75v-411h-52v411h-75v49zM131 -60l53 -20l-110 -250l-38 13z" />
    <glyph glyph-name="uni0237" unicode="&#x237;" horiz-adv-x="222" 
d="M-49 -134q23 -34 61 -34q68 0 68 105v523h52v-529q0 -72 -30.5 -111.5t-92.5 -39.5q-55 0 -87 43z" />
    <glyph glyph-name="circumflex" unicode="&#x2c6;" horiz-adv-x="480" 
d="M240 674l-127 -111l-33 27l160 140l160 -140l-33 -27z" />
    <glyph glyph-name="caron" unicode="&#x2c7;" horiz-adv-x="480" 
d="M240 626l127 111l33 -27l-160 -140l-160 140l33 27z" />
    <glyph glyph-name="breve" unicode="&#x2d8;" horiz-adv-x="546" 
d="M115 850h47q0 -37 28.5 -67t82.5 -30t82.5 30t28.5 67h47q0 -56 -42 -98t-116 -42t-116 42t-42 98z" />
    <glyph glyph-name="dotaccent" unicode="&#x2d9;" horiz-adv-x="276" 
d="M101 774q0 16 11 27t26 11t26.5 -11t11.5 -27q0 -15 -11.5 -26t-26.5 -11t-26 10.5t-11 26.5z" />
    <glyph glyph-name="ring" unicode="&#x2da;" horiz-adv-x="278" 
d="M37 785q0 43 30.5 71.5t71.5 28.5t71.5 -28.5t30.5 -71.5t-30.5 -71.5t-71.5 -28.5t-71.5 28.5t-30.5 71.5zM72 785q0 -30 20 -49t47 -19t47 19t20 49t-20 49t-47 19t-47 -19t-20 -49z" />
    <glyph glyph-name="ogonek" unicode="&#x2db;" horiz-adv-x="256" 
d="M200 -147l23 -33q-30 -40 -92 -40q-56 0 -85.5 25t-29.5 67q0 75 140 147l28 -19q-48 -22 -82 -53t-34 -63q0 -29 18 -43.5t48 -14.5q41 0 66 27z" />
    <glyph glyph-name="tilde" unicode="&#x2dc;" horiz-adv-x="530" 
d="M117 635q5 31 29.5 51.5t57.5 20.5q31 0 64.5 -23.5t59.5 -23.5q29 0 56 48l31 -27q-28 -65 -90 -65q-29 0 -64.5 23.5t-56.5 23.5q-27 0 -39.5 -16t-12.5 -35z" />
    <glyph glyph-name="hungarumlaut" unicode="&#x2dd;" horiz-adv-x="0" 
d="M34 518l-34 12l104 199l54 -14zM172 518l-33 12l104 199l54 -14z" />
    <glyph glyph-name="gravecomb" unicode="&#x300;" horiz-adv-x="0" 
d="M177 541l-177 153l48 27l158 -160z" />
    <glyph glyph-name="acutecomb" unicode="&#x301;" horiz-adv-x="0" 
d="M44 541l-29 20l158 160l48 -27z" />
    <glyph glyph-name="uni0302" unicode="&#x302;" horiz-adv-x="0" 
d="M27 561l-27 33l155 134l154 -134l-27 -33l-127 111z" />
    <glyph glyph-name="tildecomb" unicode="&#x303;" horiz-adv-x="0" 
d="M35 612l-35 23q5 31 29.5 51.5t57.5 20.5q31 0 64.5 -23.5t59.5 -23.5q29 0 56 48l31 -27q-28 -65 -90 -65q-29 0 -64 23.5t-57 23.5q-25 0 -38.5 -16t-13.5 -35z" />
    <glyph glyph-name="uni0304" unicode="&#x304;" horiz-adv-x="0" 
d="M0 626v49h350v-49h-350z" />
    <glyph glyph-name="uni0306" unicode="&#x306;" horiz-adv-x="0" 
d="M158 558q-69 0 -113.5 37t-44.5 95h47q0 -38 31.5 -63.5t79.5 -25.5t79.5 25.5t31.5 63.5h47q0 -58 -44.5 -95t-113.5 -37z" />
    <glyph glyph-name="uni0307" unicode="&#x307;" horiz-adv-x="0" 
d="M37 604q-15 0 -26 11t-11 26t11 26t26 11t26.5 -11t11.5 -26t-11.5 -26t-26.5 -11z" />
    <glyph glyph-name="uni0308" unicode="&#x308;" horiz-adv-x="0" 
d="M37 610q-16 0 -26.5 10.5t-10.5 27.5q0 16 10 26.5t27 10.5t27.5 -10.5t10.5 -26.5t-10.5 -27t-27.5 -11zM237 610q-16 0 -26.5 10.5t-10.5 27.5q0 16 10 26.5t27 10.5t27.5 -10.5t10.5 -26.5t-10.5 -27t-27.5 -11z" />
    <glyph glyph-name="uni030A" unicode="&#x30a;" horiz-adv-x="0" 
d="M108 524q-45 0 -76.5 31t-31.5 75t31.5 75t76.5 31t77 -31t32 -75t-32 -75t-77 -31zM108 559q29 0 49.5 21t20.5 50t-20.5 50t-49.5 21t-49.5 -21t-20.5 -50t20.5 -50t49.5 -21z" />
    <glyph glyph-name="uni030B" unicode="&#x30b;" horiz-adv-x="0" 
d="M34 518l-34 12l104 199l54 -14zM172 518l-33 12l104 199l54 -14z" />
    <glyph glyph-name="uni030C" unicode="&#x30c;" horiz-adv-x="0" 
d="M155 561l-155 135l27 32l128 -111l127 111l27 -32z" />
    <glyph glyph-name="uni0312" unicode="&#x312;" horiz-adv-x="0" 
d="M52 508l-52 20l110 250l37 -14z" />
    <glyph glyph-name="uni0326" unicode="&#x326;" horiz-adv-x="0" 
d="M26 -216l-26 14l90 184l37 -21z" />
    <glyph glyph-name="uni0327" unicode="&#x327;" horiz-adv-x="0" 
d="M89 -220q-50 0 -89 32l17 30q36 -26 72 -26q32 0 50.5 15.5t18.5 42.5q0 47 -55 47q-39 0 -64 -12l70 127h41l-51 -88q11 3 24 3q32 0 53 -23t21 -54q0 -40 -30.5 -67t-77.5 -27z" />
    <glyph glyph-name="uni0328" unicode="&#x328;" horiz-adv-x="0" 
d="M115 -220q-56 0 -85.5 25t-29.5 67q0 75 140 147l28 -19q-48 -22 -82 -53t-34 -63q0 -29 18 -43.5t48 -14.5q41 0 66 27l23 -33q-30 -40 -92 -40z" />
    <glyph glyph-name="uni0394" unicode="&#x394;" horiz-adv-x="600" 
d="M25 0l274 770l274 -770h-548zM104 49h392l-197 577z" />
    <glyph glyph-name="uni03A9" unicode="&#x3a9;" horiz-adv-x="600" 
d="M66 0v44h119q-52 52 -84 126.5t-32 144.5q0 104 66 174t165 70t164.5 -70t65.5 -174q0 -70 -32 -144.5t-84 -126.5h119v-44h-194v48q56 36 94.5 111.5t38.5 151.5q0 87 -46.5 138t-125.5 51q-80 0 -127 -51t-47 -138q0 -75 39 -151t95 -112v-48h-194z" />
    <glyph glyph-name="uni03BC" unicode="&#x3bc;" 
d="M131 460v-292q0 -129 108 -129q58 0 96.5 41t38.5 100v280h52v-460h-52v90q-20 -46 -59 -73t-88 -27q-65 0 -96 44v-354h-52v780h52z" />
    <glyph glyph-name="pi" unicode="&#x3c0;" horiz-adv-x="512" 
d="M30 460h442v-49h-80v-278q0 -56 11.5 -73t41.5 -17v-52q-57 0 -81 26t-24 104v290h-198v-411h-52v411h-60v49z" />
    <glyph glyph-name="uni0400" unicode="&#x400;" horiz-adv-x="550" 
d="M110 933l48 27l158 -160l-29 -20zM84 700h376v-52h-321v-238h301v-52h-301v-306h321v-52h-376v700z" />
    <glyph glyph-name="uni0401" unicode="&#x401;" horiz-adv-x="550" 
d="M333 837q0 16 11 26.5t26 10.5t26.5 -11t11.5 -26q0 -16 -11.5 -27t-26.5 -11t-26 11t-11 27zM133 837q0 16 11 26.5t26 10.5t26.5 -11t11.5 -26q0 -16 -11.5 -27t-26.5 -11t-26 11t-11 27zM84 700h376v-52h-321v-238h301v-52h-301v-306h321v-52h-376v700z" />
    <glyph glyph-name="uni0403" unicode="&#x403;" horiz-adv-x="435" 
d="M414 933l-178 -153l-28 20l158 160zM80 700h345v-52h-290v-648h-55v700z" />
    <glyph glyph-name="uni040C" unicode="&#x40c;" horiz-adv-x="565" 
d="M474 933l-178 -153l-28 20l158 160zM82 700h55v-312l290 312h70l-308 -328l323 -372h-70l-305 353v-353h-55v700z" />
    <glyph glyph-name="uni040D" unicode="&#x40d;" horiz-adv-x="755" 
d="M229 908l48 27l158 -160l-29 -20zM139 700v-589l532 624v-735h-55v589l-532 -624v735h55z" />
    <glyph glyph-name="uni040E" unicode="&#x40e;" horiz-adv-x="531" 
d="M109 909h47q0 -37 28.5 -67t82.5 -30t82.5 30t28.5 67h47q0 -56 -42 -98t-116 -42t-116 42t-42 98zM531 700l-329 -700h-61l96 214l-237 486h67l203 -433l200 433h61z" />
    <glyph glyph-name="uni0410" unicode="&#x410;" horiz-adv-x="660" 
d="M565 0l-97 235h-301l-96 -235h-62l309 727l309 -727h-62zM318 600l-129 -313h258z" />
    <glyph glyph-name="uni0411" unicode="&#x411;" horiz-adv-x="532" 
d="M80 700h359v-52h-304v-228h119q103 0 170.5 -57.5t67.5 -152.5t-67.5 -152.5t-170.5 -57.5h-174v700zM254 368h-119v-316h119q81 0 132 42t51 116t-51 116t-132 42z" />
    <glyph glyph-name="uni0412" unicode="&#x412;" horiz-adv-x="558" 
d="M479 203q0 -100 -63.5 -151.5t-169.5 -51.5h-162v700h152q95 0 149.5 -43.5t54.5 -125.5q0 -58 -33 -95t-92 -52q72 -14 118 -60.5t46 -120.5zM236 651h-97v-243h97q65 0 107 30.5t42 89.5q0 57 -40.5 90t-108.5 33zM139 49h107q82 0 129.5 40.5t47.5 116.5
q0 71 -51.5 112t-125.5 41h-107v-310z" />
    <glyph glyph-name="uni0413" unicode="&#x413;" horiz-adv-x="435" 
d="M80 700h345v-52h-290v-648h-55v700z" />
    <glyph glyph-name="uni0414" unicode="&#x414;" horiz-adv-x="795" 
d="M701 0h-612v-110h-49v162h82l273 683l273 -683h82v-162h-49v110zM395 607l-214 -555h428z" />
    <glyph glyph-name="uni0415" unicode="&#x415;" horiz-adv-x="550" 
d="M84 700h376v-52h-321v-238h301v-52h-301v-306h321v-52h-376v700z" />
    <glyph glyph-name="uni0416" unicode="&#x416;" horiz-adv-x="793" 
d="M89 700l285 -319v319h55v-318l275 318h69l-293 -329l308 -371h-69l-290 358v-358h-55v358l-300 -358h-69l312 371l-297 329h69z" />
    <glyph glyph-name="uni0417" unicode="&#x417;" horiz-adv-x="606" 
d="M313 -10q-120 0 -186.5 55t-66.5 140h56q3 -64 53.5 -103.5t143.5 -39.5q92 0 142 40.5t50 108.5q0 75 -61.5 111t-160.5 36v49q91 0 146.5 38t55.5 97q0 60 -45 99t-122 39t-126 -38t-49 -96h-53q0 82 63 133t164 51t162.5 -54.5t61.5 -131.5q0 -55 -40 -97.5
t-111 -62.5q171 -34 171 -179q0 -90 -66 -142.5t-182 -52.5z" />
    <glyph glyph-name="uni0418" unicode="&#x418;" horiz-adv-x="755" 
d="M139 700v-589l532 624v-735h-55v589l-532 -624v735h55z" />
    <glyph glyph-name="uni0419" unicode="&#x419;" horiz-adv-x="755" 
d="M240 903h47q0 -37 28.5 -67t82.5 -30t83 30t29 67h46q0 -56 -42 -98t-116 -42t-116 42t-42 98zM139 700v-589l532 624v-735h-55v589l-532 -624v735h55z" />
    <glyph glyph-name="uni041A" unicode="&#x41a;" horiz-adv-x="565" 
d="M82 700h55v-312l290 312h70l-308 -328l323 -372h-70l-305 353v-353h-55v700z" />
    <glyph glyph-name="uni041B" unicode="&#x41b;" horiz-adv-x="640" 
d="M560 700v-700h-55v648h-350v-408q0 -102 -38.5 -171t-106.5 -69v48q43 0 68 60t25 144v448h457z" />
    <glyph glyph-name="uni041C" unicode="&#x41c;" horiz-adv-x="810" 
d="M163 554l-60 -554h-55l81 727l280 -538l280 538l81 -727h-55l-60 554l-246 -473z" />
    <glyph glyph-name="uni041D" unicode="&#x41d;" horiz-adv-x="715" 
d="M84 700h55v-293h409v293h56v-700h-56v355h-409v-355h-55v700z" />
    <glyph glyph-name="uni041E" unicode="&#x41e;" horiz-adv-x="790" 
d="M44 350q0 155 99 257t249 102t249 -102t99 -257t-99 -257t-249 -102t-249 102t-99 257zM102 350q0 -131 82 -217.5t208 -86.5t207.5 86t81.5 218t-81.5 218t-207.5 86t-208 -86.5t-82 -217.5z" />
    <glyph glyph-name="uni041F" unicode="&#x41f;" horiz-adv-x="685" 
d="M550 648h-415v-648h-55v700h525v-700h-55v648z" />
    <glyph glyph-name="uni0420" unicode="&#x420;" horiz-adv-x="548" 
d="M84 700h164q100 0 164.5 -56t64.5 -151t-64.5 -151t-164.5 -56h-109v-286h-55v700zM248 648h-109v-310h109q78 0 125.5 40.5t47.5 114.5t-47.5 114.5t-125.5 40.5z" />
    <glyph glyph-name="uni0421" unicode="&#x421;" horiz-adv-x="685" 
d="M103 350q0 -132 81.5 -217.5t201.5 -85.5q140 0 225 96v-74q-46 -40 -98.5 -59t-126.5 -19q-146 0 -244 101.5t-98 257.5t98 257.5t244 101.5q74 0 126.5 -19t98.5 -59v-73q-82 95 -225 95q-120 0 -201.5 -85.5t-81.5 -217.5z" />
    <glyph glyph-name="uni0422" unicode="&#x422;" horiz-adv-x="465" 
d="M14 648v52h423v-52h-184v-648h-55v648h-184z" />
    <glyph glyph-name="uni0423" unicode="&#x423;" horiz-adv-x="531" 
d="M531 700l-329 -700h-61l96 214l-237 486h67l203 -433l200 433h61z" />
    <glyph glyph-name="uni0424" unicode="&#x424;" horiz-adv-x="761" 
d="M353 700h55v-80q139 -2 226.5 -74.5t87.5 -195.5t-87.5 -195.5t-226.5 -74.5v-80h-55v80q-138 2 -225.5 74.5t-87.5 195.5t87.5 195.5t225.5 74.5v80zM667 350q0 100 -71.5 156.5t-187.5 58.5v-430q116 2 187.5 58.5t71.5 156.5zM95 350q0 -100 71 -156.5t187 -58.5v430
q-116 -2 -187 -58.5t-71 -156.5z" />
    <glyph glyph-name="uni0425" unicode="&#x425;" horiz-adv-x="555" 
d="M438 700h66l-207 -333l222 -367h-66l-184 318l-189 -318h-66l227 367l-202 333h66l165 -285z" />
    <glyph glyph-name="uni0426" unicode="&#x426;" horiz-adv-x="730" 
d="M135 52h415v648h55v-648h85v-162h-49v110h-561v700h55v-648z" />
    <glyph glyph-name="uni0427" unicode="&#x427;" horiz-adv-x="585" 
d="M132 700v-182q0 -83 41.5 -136t116.5 -53h160v371h55v-700h-55v280h-160q-101 0 -155.5 66.5t-54.5 171.5v182h52z" />
    <glyph glyph-name="uni0428" unicode="&#x428;" horiz-adv-x="954" 
d="M820 52v648h55v-700h-795v700h55v-648h315v648h55v-648h315z" />
    <glyph glyph-name="uni0429" unicode="&#x429;" horiz-adv-x="1000" 
d="M820 52v648h55v-648h85v-162h-49v110h-831v700h55v-648h315v648h55v-648h315z" />
    <glyph glyph-name="uni042A" unicode="&#x42a;" horiz-adv-x="641" 
d="M190 648h-180v52h235v-280h118q103 0 170.5 -57.5t67.5 -152.5t-67.5 -152.5t-170.5 -57.5h-173v648zM363 368h-118v-316h118q81 0 132 42t51 116t-51 116t-132 42z" />
    <glyph glyph-name="uni042B" unicode="&#x42b;" horiz-adv-x="733" 
d="M596 700h55v-700h-55v700zM78 700h55v-280h118q103 0 170.5 -57.5t67.5 -152.5t-67.5 -152.5t-170.5 -57.5h-173v700zM251 368h-118v-316h118q81 0 132 42t51 116t-51 116t-132 42z" />
    <glyph glyph-name="uni042C" unicode="&#x42c;" horiz-adv-x="529" 
d="M78 700h55v-280h118q103 0 170.5 -57.5t67.5 -152.5t-67.5 -152.5t-170.5 -57.5h-173v700zM251 368h-118v-316h118q81 0 132 42t51 116t-51 116t-132 42z" />
    <glyph glyph-name="uni042D" unicode="&#x42d;" horiz-adv-x="685" 
d="M144 324v52h437q-9 122 -89 199.5t-193 77.5q-143 0 -225 -95v73q88 78 225 78q146 0 244 -101.5t98 -257.5t-98 -257.5t-244 -101.5q-137 0 -225 78v74q85 -96 225 -96q114 0 194 77.5t88 199.5h-437z" />
    <glyph glyph-name="uni042E" unicode="&#x42e;" horiz-adv-x="1027" 
d="M288 351v3h-153v-354h-55v700h55v-294h157q17 134 112.5 219t231.5 85q150 0 249 -102t99 -257t-99 -258t-249 -103t-249 103t-99 258zM346 351q0 -132 82 -218.5t208 -86.5t207.5 86.5t81.5 218.5t-81.5 218t-207.5 86t-208 -86.5t-82 -217.5z" />
    <glyph glyph-name="uni042F" unicode="&#x42f;" horiz-adv-x="523" 
d="M439 700v-700h-55v294h-91l-204 -294h-69l213 297q-86 12 -138.5 64.5t-52.5 135.5q0 94 66.5 148.5t170.5 54.5h160zM279 343h105v308h-105q-82 0 -132 -40t-50 -114t49.5 -114t132.5 -40z" />
    <glyph glyph-name="uni0430" unicode="&#x430;" horiz-adv-x="485" 
d="M100 369l-26 40q77 61 168 61q74 0 116.5 -38.5t42.5 -105.5v-326h-52v83q-19 -43 -61.5 -68t-97.5 -25q-66 0 -111 36.5t-45 106.5q0 71 53 111t137 40q73 0 125 -37v79q0 46 -29.5 72t-77.5 26q-78 0 -142 -55zM87 135q0 -49 33 -73.5t82 -24.5q65 0 106 36t41 99v39
q-53 32 -123 32q-63 0 -101 -28.5t-38 -79.5z" />
    <glyph glyph-name="uni0431" unicode="&#x431;" horiz-adv-x="546" 
d="M35 290q0 149 46.5 238t161.5 128q124 42 141 124h51q-15 -111 -179 -167q-93 -32 -133 -103t-42 -181q24 66 75.5 103.5t116.5 37.5q102 0 170 -68t68 -172t-68 -172t-170 -68q-106 0 -172 78t-66 222zM91 230q0 -83 52.5 -137t129.5 -54q78 0 131.5 54t53.5 137
t-53 137t-132 54q-68 0 -125 -52.5t-57 -138.5z" />
    <glyph glyph-name="uni0432" unicode="&#x432;" horiz-adv-x="436" 
d="M75 460h153q69 0 113.5 -31t44.5 -94q0 -79 -89 -103q109 -15 109 -107q0 -56 -36.5 -90.5t-111.5 -34.5h-183v460zM228 414h-101v-160h101q41 0 73.5 19.5t32.5 58.5t-29 60.5t-77 21.5zM238 209h-111v-163h119q54 0 81 24t27 61q0 78 -116 78z" />
    <glyph glyph-name="uni0433" unicode="&#x433;" horiz-adv-x="318" 
d="M80 460h233v-49h-181v-411h-52v460z" />
    <glyph glyph-name="uni0434" unicode="&#x434;" horiz-adv-x="655" 
d="M558 0h-463v-90h-55v139h73l212 446l212 -446h73v-139h-52v90zM325 381l-154 -332h308z" />
    <glyph glyph-name="uni0435" unicode="&#x435;" horiz-adv-x="515" 
d="M463 107q-37 -56 -83 -86.5t-128 -30.5q-91 0 -152 68.5t-61 172.5q0 37 6 60q17 81 75 130t140 49q91 0 151 -63.5t60 -164.5q0 -9 -2 -25h-377q4 -81 49.5 -129.5t116.5 -48.5q104 0 163 95zM260 424q-66 0 -114.5 -44.5t-52.5 -117.5h321q-1 71 -44 116.5t-110 45.5z
" />
    <glyph glyph-name="uni0436" unicode="&#x436;" horiz-adv-x="586" 
d="M89 460l180 -177v177h49v-177l179 177h66l-199 -196l219 -264h-66l-199 253v-253h-49v254l-200 -254h-65l218 264l-198 196h65z" />
    <glyph glyph-name="uni0437" unicode="&#x437;" horiz-adv-x="473" 
d="M250 -10q-79 0 -130 43.5t-59 111.5h53q8 -48 42 -78.5t94 -30.5q54 0 90.5 25t36.5 70t-36.5 68t-96.5 23v46q54 0 82.5 21t28.5 56q0 36 -28.5 57t-74.5 21q-52 0 -83.5 -28.5t-31.5 -64.5h-53q0 57 49 98.5t120 41.5q66 0 110.5 -34.5t44.5 -86.5q0 -75 -84 -102
q104 -25 104 -115q0 -65 -51.5 -103.5t-126.5 -38.5z" />
    <glyph glyph-name="uni0438" unicode="&#x438;" horiz-adv-x="517" 
d="M132 460v-355l305 390v-495h-52v355l-305 -390v495h52z" />
    <glyph glyph-name="uni0439" unicode="&#x439;" horiz-adv-x="517" 
d="M101 695h47q0 -37 28.5 -67t82.5 -30t82.5 30t28.5 67h47q0 -56 -42 -98t-116 -42t-116 42t-42 98zM132 460v-355l305 390v-495h-52v355l-305 -390v495h52z" />
    <glyph glyph-name="uni043A" unicode="&#x43a;" horiz-adv-x="440" 
d="M74 460h52v-173l197 173h67l-217 -190l236 -270h-66l-217 248v-248h-52v460z" />
    <glyph glyph-name="uni043B" unicode="&#x43b;" horiz-adv-x="530" 
d="M450 460v-460h-52v411h-263v-251q0 -160 -125 -160v48q32 0 52.5 28t20.5 84v300h367z" />
    <glyph glyph-name="uni043C" unicode="&#x43c;" horiz-adv-x="607" 
d="M5 0l120 495l177 -409l180 409l120 -495h-59l-75 340l-166 -371l-163 370l-74 -339h-60z" />
    <glyph glyph-name="uni043D" unicode="&#x43d;" horiz-adv-x="537" 
d="M75 460h52v-192h283v192h52v-460h-52v219h-283v-219h-52v460z" />
    <glyph glyph-name="uni043E" unicode="&#x43e;" horiz-adv-x="546" 
d="M39 230q0 104 67.5 172t168.5 68t168.5 -68t67.5 -172t-67.5 -172t-168.5 -68t-168.5 68t-67.5 172zM92 230q0 -83 52.5 -137t130.5 -54t130.5 54t52.5 137t-52.5 137t-130.5 54t-130.5 -54t-52.5 -137z" />
    <glyph glyph-name="uni043F" unicode="&#x43f;" horiz-adv-x="497" 
d="M422 460v-460h-52v411h-243v-411h-52v460h347z" />
    <glyph glyph-name="uni0440" unicode="&#x440;" horiz-adv-x="570" 
d="M126 -220h-52v680h52v-108q24 55 68.5 86.5t102.5 31.5q95 0 158.5 -66t63.5 -174t-63.5 -174t-158.5 -66q-58 0 -102.5 31.5t-68.5 86.5v-328zM467 230q0 87 -51 139t-126 52q-66 0 -115 -55t-49 -136t49 -136t115 -55q75 0 126 52t51 139z" />
    <glyph glyph-name="uni0441" unicode="&#x441;" horiz-adv-x="478" 
d="M87 230q0 -83 52.5 -137t130.5 -54q53 0 97 22.5t61 52.5v-65q-22 -25 -65.5 -42t-92.5 -17q-101 0 -168.5 68t-67.5 172t67.5 172t168.5 68q49 0 92.5 -17t65.5 -42v-65q-17 30 -61 52.5t-97 22.5q-78 0 -130.5 -54t-52.5 -137z" />
    <glyph glyph-name="uni0442" unicode="&#x442;" horiz-adv-x="280" 
d="M5 460h270v-49h-109v-411h-52v411h-109v49z" />
    <glyph glyph-name="uni0443" unicode="&#x443;" horiz-adv-x="440" 
d="M430 460l-300 -680h-58l118 267l-186 413h62l154 -363l152 363h58z" />
    <glyph glyph-name="uni0444" unicode="&#x444;" horiz-adv-x="586" 
d="M35 230q0 99 63.5 165t168.5 74v91h52v-91q105 -8 168.5 -74t63.5 -165t-63.5 -165t-168.5 -74v-91h-52v91q-105 8 -168.5 74t-63.5 165zM88 230q0 -76 48 -129t131 -61v380q-83 -8 -131 -61t-48 -129zM498 230q0 76 -48 129t-131 61v-380q83 8 131 61t48 129z" />
    <glyph glyph-name="uni0445" unicode="&#x445;" horiz-adv-x="420" 
d="M330 460h60l-159 -223l169 -237h-60l-138 196l-138 -196h-60l169 237l-159 223h60l128 -182z" />
    <glyph glyph-name="uni0446" unicode="&#x446;" horiz-adv-x="537" 
d="M422 49h80v-139h-46v90h-381v460h52v-411h243v411h52v-411z" />
    <glyph glyph-name="uni0447" unicode="&#x447;" horiz-adv-x="457" 
d="M102 460v-132q0 -77 28 -108t100 -31h100v271h52v-460h-52v140h-100q-102 0 -141 42.5t-39 145.5v132h52z" />
    <glyph glyph-name="uni0448" unicode="&#x448;" horiz-adv-x="752" 
d="M402 49h223v411h52v-460h-602v460h52v-411h223v411h52v-411z" />
    <glyph glyph-name="uni0449" unicode="&#x449;" horiz-adv-x="792" 
d="M402 49h223v411h52v-411h80v-139h-46v90h-636v460h52v-411h223v411h52v-411z" />
    <glyph glyph-name="uni044A" unicode="&#x44a;" horiz-adv-x="552" 
d="M170 411h-165v49h217v-174h112q75 0 121.5 -36t46.5 -107t-46.5 -107t-121.5 -36h-164v411zM334 240h-112v-194h112q54 0 85 24.5t31 72.5q0 47 -31 72t-85 25z" />
    <glyph glyph-name="uni044B" unicode="&#x44b;" horiz-adv-x="607" 
d="M480 460h52v-460h-52v460zM75 460h52v-174h110q75 0 121.5 -36t46.5 -107t-46.5 -107t-121.5 -36h-162v460zM237 240h-110v-194h110q54 0 85 24.5t31 72.5q0 47 -31 72t-85 25z" />
    <glyph glyph-name="uni044C" unicode="&#x44c;" horiz-adv-x="455" 
d="M75 460h52v-174h110q75 0 121.5 -36t46.5 -107t-46.5 -107t-121.5 -36h-162v460zM237 240h-110v-194h110q54 0 85 24.5t31 72.5q0 47 -31 72t-85 25z" />
    <glyph glyph-name="uni044D" unicode="&#x44d;" horiz-adv-x="482" 
d="M137 254h257q-8 74 -59 120.5t-123 46.5q-53 0 -97 -22.5t-61 -52.5v65q22 25 65.5 42t92.5 17q101 0 168.5 -68t67.5 -172t-67.5 -172t-168.5 -68q-49 0 -92.5 17t-65.5 42v65q17 -30 61 -52.5t97 -22.5q72 0 123 46.5t59 120.5h-257v48z" />
    <glyph glyph-name="uni044E" unicode="&#x44e;" horiz-adv-x="750" 
d="M75 460h52v-194h114q12 90 77.5 147t156.5 57q101 0 168.5 -68t67.5 -172t-67.5 -172t-168.5 -68q-98 0 -164.5 64t-71.5 163h-112v-217h-52v460zM292 230q0 -83 52.5 -137t130.5 -54t130.5 54t52.5 137t-52.5 137t-130.5 54t-130.5 -54t-52.5 -137z" />
    <glyph glyph-name="uni044F" unicode="&#x44f;" horiz-adv-x="455" 
d="M111 0h-58l137 189q-115 22 -115 133q0 71 46 104.5t122 33.5h162v-460h-52v184h-109zM243 230h110v184h-110q-116 0 -116 -92t116 -92z" />
    <glyph glyph-name="uni0450" unicode="&#x450;" horiz-adv-x="515" 
d="M123 693l48 27l158 -160l-29 -20zM463 107q-37 -56 -83 -86.5t-128 -30.5q-91 0 -152 68.5t-61 172.5q0 37 6 60q17 81 75 130t140 49q91 0 151 -63.5t60 -164.5q0 -9 -2 -25h-377q4 -81 49.5 -129.5t116.5 -48.5q104 0 163 95zM260 424q-66 0 -114.5 -44.5t-52.5 -117.5
h321q-1 71 -44 116.5t-110 45.5z" />
    <glyph glyph-name="uni0451" unicode="&#x451;" horiz-adv-x="515" 
d="M316 597q0 16 11 26.5t26 10.5t26.5 -11t11.5 -26q0 -16 -11.5 -27t-26.5 -11t-26 11t-11 27zM116 597q0 16 11 26.5t26 10.5t26.5 -11t11.5 -26q0 -16 -11.5 -27t-26.5 -11t-26 11t-11 27zM463 107q-37 -56 -83 -86.5t-128 -30.5q-91 0 -152 68.5t-61 172.5q0 37 6 60
q17 81 75 130t140 49q91 0 151 -63.5t60 -164.5q0 -9 -2 -25h-377q4 -81 49.5 -129.5t116.5 -48.5q104 0 163 95zM260 424q-66 0 -114.5 -44.5t-52.5 -117.5h321q-1 71 -44 116.5t-110 45.5z" />
    <glyph glyph-name="uni0453" unicode="&#x453;" horiz-adv-x="318" 
d="M351 683l-177 -153l-30 20l158 160zM80 460h233v-49h-181v-411h-52v460z" />
    <glyph glyph-name="uni045C" unicode="&#x45c;" horiz-adv-x="440" 
d="M406 693l-177 -153l-29 20l158 160zM74 460h52v-173l197 173h67l-217 -190l236 -270h-66l-217 248v-248h-52v460z" />
    <glyph glyph-name="uni045D" unicode="&#x45d;" horiz-adv-x="517" 
d="M101 708l48 27l158 -160l-29 -20zM132 460v-355l305 390v-495h-52v355l-305 -390v495h52z" />
    <glyph glyph-name="uni045E" unicode="&#x45e;" horiz-adv-x="440" 
d="M62 670h47q0 -37 28.5 -67t82.5 -30t82.5 30t28.5 67h47q0 -56 -42 -98t-116 -42t-116 42t-42 98zM430 460l-300 -680h-58l118 267l-186 413h62l154 -363l152 363h58z" />
    <glyph glyph-name="Wgrave" unicode="&#x1e80;" horiz-adv-x="974" 
d="M486 787l-177 153l48 27l158 -160zM700 121l199 579h61l-259 -727l-214 603l-214 -603l-259 727h61l202 -579l210 606z" />
    <glyph glyph-name="wgrave" unicode="&#x1e81;" horiz-adv-x="656" 
d="M322 547l-177 153l48 27l158 -160zM9 460h58l124 -356l132 383l142 -384l124 357h58l-179 -487l-144 383l-136 -383z" />
    <glyph glyph-name="Wacute" unicode="&#x1e82;" horiz-adv-x="974" 
d="M488 787l-29 20l158 160l48 -27zM700 121l199 579h61l-259 -727l-214 603l-214 -603l-259 727h61l202 -579l210 606z" />
    <glyph glyph-name="wacute" unicode="&#x1e83;" horiz-adv-x="656" 
d="M324 547l-29 20l158 160l48 -27zM9 460h58l124 -356l132 383l142 -384l124 357h58l-179 -487l-144 383l-136 -383z" />
    <glyph glyph-name="Wdieresis" unicode="&#x1e84;" horiz-adv-x="974" 
d="M550 825q0 16 11 26.5t26 10.5t26.5 -11t11.5 -26q0 -16 -11.5 -27t-26.5 -11t-26 11t-11 27zM350 825q0 16 11 26.5t26 10.5t26.5 -11t11.5 -26q0 -16 -11.5 -27t-26.5 -11t-26 11t-11 27zM700 121l199 579h61l-259 -727l-214 603l-214 -603l-259 727h61l202 -579
l210 606z" />
    <glyph glyph-name="wdieresis" unicode="&#x1e85;" horiz-adv-x="656" 
d="M386 585q0 16 11 26.5t26 10.5t26.5 -11t11.5 -26q0 -16 -11.5 -27t-26.5 -11t-26 11t-11 27zM186 585q0 16 11 26.5t26 10.5t26.5 -11t11.5 -26q0 -16 -11.5 -27t-26.5 -11t-26 11t-11 27zM9 460h58l124 -356l132 383l142 -384l124 357h58l-179 -487l-144 383l-136 -383
z" />
    <glyph glyph-name="uni1E86" unicode="&#x1e86;" horiz-adv-x="974" 
d="M450 824q0 16 11 27t26 11t26.5 -11t11.5 -27q0 -15 -11.5 -26t-26.5 -11t-26 10.5t-11 26.5zM700 121l199 579h61l-259 -727l-214 603l-214 -603l-259 727h61l202 -579l210 606z" />
    <glyph glyph-name="uni1E87" unicode="&#x1e87;" horiz-adv-x="656" 
d="M286 584q0 16 11 27t26 11t26.5 -11t11.5 -27q0 -15 -11.5 -26t-26.5 -11t-26 10.5t-11 26.5zM9 460h58l124 -356l132 383l142 -384l124 357h58l-179 -487l-144 383l-136 -383z" />
    <glyph glyph-name="uni1E88" unicode="&#x1e88;" horiz-adv-x="974" 
d="M700 121l199 579h61l-259 -727l-214 603l-214 -603l-259 727h61l202 -579l210 606zM450 -125q0 16 11 27t26 11t26.5 -11t11.5 -27q0 -15 -11.5 -26t-26.5 -11t-26 10.5t-11 26.5z" />
    <glyph glyph-name="uni1E89" unicode="&#x1e89;" horiz-adv-x="656" 
d="M9 460h58l124 -356l132 383l142 -384l124 357h58l-179 -487l-144 383l-136 -383zM291 -125q0 16 11 27t26 11t26.5 -11t11.5 -27q0 -15 -11.5 -26t-26.5 -11t-26 10.5t-11 26.5z" />
    <glyph glyph-name="uni1E9E" unicode="&#x1e9e;" horiz-adv-x="696" 
d="M422 -11q-111 0 -193 65l27 46q77 -56 170 -56q77 0 126.5 34t49.5 94q0 36 -20.5 60t-49.5 36t-58 22.5t-49.5 28t-20.5 43.5t21.5 47.5t47.5 34.5t47.5 37.5t21.5 56.5q0 48 -42 82t-125 34q-106 0 -173 -62t-67 -184l1 -409h-56v416q0 74 25 132t67.5 92.5t96 52
t114.5 17.5q100 0 158.5 -44.5t58.5 -116.5q0 -42 -21 -74t-45.5 -46.5t-45.5 -30.5t-21 -31t20 -26t48.5 -21.5t56.5 -25t48 -44.5t20 -73q0 -82 -66.5 -134.5t-171.5 -52.5z" />
    <glyph glyph-name="Ygrave" unicode="&#x1ef2;" horiz-adv-x="539" 
d="M269 769l-177 153l48 27l158 -160zM468 700h62l-235 -412v-288h-55v287l-231 413h62l196 -362z" />
    <glyph glyph-name="ygrave" unicode="&#x1ef3;" horiz-adv-x="434" 
d="M216 530l-177 153l48 27l158 -160zM430 460l-300 -680h-58l118 267l-186 413h62l154 -363l152 363h58z" />
    <glyph glyph-name="uni2010" unicode="&#x2010;" horiz-adv-x="210" 
d="M5 226v49h200v-49h-200z" />
    <glyph glyph-name="figuredash" unicode="&#x2012;" horiz-adv-x="590" 
d="M70 226v49h450v-49h-450z" />
    <glyph glyph-name="endash" unicode="&#x2013;" horiz-adv-x="740" 
d="M70 226v49h600v-49h-600z" />
    <glyph glyph-name="emdash" unicode="&#x2014;" horiz-adv-x="890" 
d="M70 226v49h750v-49h-750z" />
    <glyph glyph-name="quoteleft" unicode="&#x2018;" horiz-adv-x="255" 
d="M128 470h-62l98 230h37z" />
    <glyph glyph-name="quoteright" unicode="&#x2019;" horiz-adv-x="263" 
d="M135 700h62l-98 -230h-37z" />
    <glyph glyph-name="quotesinglbase" unicode="&#x201a;" horiz-adv-x="263" 
d="M133 80h62l-98 -230h-37z" />
    <glyph glyph-name="quotedblleft" unicode="&#x201c;" horiz-adv-x="439" 
d="M136 470h-62l98 230h37zM312 470h-62l98 230h37z" />
    <glyph glyph-name="quotedblright" unicode="&#x201d;" horiz-adv-x="439" 
d="M127 700h62l-98 -230h-37zM303 700h62l-98 -230h-37z" />
    <glyph glyph-name="quotedblbase" unicode="&#x201e;" horiz-adv-x="439" 
d="M127 80h62l-98 -230h-37zM303 80h62l-98 -230h-37z" />
    <glyph glyph-name="dagger" unicode="&#x2020;" horiz-adv-x="542" 
d="M90 540h155v160h52v-160h155v-49h-155v-641h-52v641h-155v49z" />
    <glyph glyph-name="daggerdbl" unicode="&#x2021;" horiz-adv-x="542" 
d="M90 120h155v371h-155v49h155v160h52v-160h155v-49h-155v-371h155v-49h-155v-221h-52v221h-155v49z" />
    <glyph glyph-name="bullet" unicode="&#x2022;" horiz-adv-x="300" 
d="M105 399q0 16 11 27t26 11t26 -11t11 -27t-11 -26.5t-26 -10.5t-26 10.5t-11 26.5z" />
    <glyph glyph-name="ellipsis" unicode="&#x2026;" horiz-adv-x="864" 
d="M105 24q0 16 11 27t26 11t26.5 -11t11.5 -27q0 -15 -11.5 -26t-26.5 -11t-26 10.5t-11 26.5zM395 24q0 16 11 27t26 11t26.5 -11t11.5 -27q0 -15 -11.5 -26t-26.5 -11t-26 10.5t-11 26.5zM685 24q0 16 11 27t26 11t26.5 -11t11.5 -27q0 -15 -11.5 -26t-26.5 -11t-26 10.5
t-11 26.5z" />
    <glyph glyph-name="perthousand" unicode="&#x2030;" horiz-adv-x="1107" 
d="M35 554q0 67 42.5 111.5t111.5 44.5t111.5 -44.5t42.5 -111.5t-42.5 -111.5t-111.5 -44.5t-111.5 44.5t-42.5 111.5zM567 700h50l-453 -700h-50zM82 554q0 -48 29 -80.5t78 -32.5t78 32.5t29 80.5t-29 80.5t-78 32.5t-78 -32.5t-29 -80.5zM764 146q0 67 42.5 111.5
t111.5 44.5t111.5 -44.5t42.5 -111.5t-42.5 -111.5t-111.5 -44.5t-111.5 44.5t-42.5 111.5zM388 146q0 67 42.5 111.5t111.5 44.5t111.5 -44.5t42.5 -111.5t-42.5 -111.5t-111.5 -44.5t-111.5 44.5t-42.5 111.5zM811 146q0 -48 29 -80.5t78 -32.5t78 32.5t29 80.5t-29 80.5
t-78 32.5t-78 -32.5t-29 -80.5zM435 146q0 -48 29 -80.5t78 -32.5t78 32.5t29 80.5t-29 80.5t-78 32.5t-78 -32.5t-29 -80.5z" />
    <glyph glyph-name="uni2031" unicode="&#x2031;" horiz-adv-x="1483" 
d="M35 554q0 67 42.5 111.5t111.5 44.5t111.5 -44.5t42.5 -111.5t-42.5 -111.5t-111.5 -44.5t-111.5 44.5t-42.5 111.5zM567 700h50l-453 -700h-50zM82 554q0 -48 29 -80.5t78 -32.5t78 32.5t29 80.5t-29 80.5t-78 32.5t-78 -32.5t-29 -80.5zM1140 146q0 67 42.5 111.5
t111.5 44.5t111.5 -44.5t42.5 -111.5t-42.5 -111.5t-111.5 -44.5t-111.5 44.5t-42.5 111.5zM764 146q0 67 42.5 111.5t111.5 44.5t111.5 -44.5t42.5 -111.5t-42.5 -111.5t-111.5 -44.5t-111.5 44.5t-42.5 111.5zM388 146q0 67 42.5 111.5t111.5 44.5t111.5 -44.5
t42.5 -111.5t-42.5 -111.5t-111.5 -44.5t-111.5 44.5t-42.5 111.5zM1187 146q0 -48 29 -80.5t78 -32.5t78 32.5t29 80.5t-29 80.5t-78 32.5t-78 -32.5t-29 -80.5zM811 146q0 -48 29 -80.5t78 -32.5t78 32.5t29 80.5t-29 80.5t-78 32.5t-78 -32.5t-29 -80.5zM435 146
q0 -48 29 -80.5t78 -32.5t78 32.5t29 80.5t-29 80.5t-78 32.5t-78 -32.5t-29 -80.5z" />
    <glyph glyph-name="guilsinglleft" unicode="&#x2039;" horiz-adv-x="340" 
d="M98 257l172 -207l-33 -30l-197 235l197 235l33 -30z" />
    <glyph glyph-name="guilsinglright" unicode="&#x203a;" horiz-adv-x="350" 
d="M252 253l-172 207l33 30l197 -235l-197 -235l-33 30z" />
    <glyph glyph-name="uni203D" unicode="&#x203d;" horiz-adv-x="557" 
d="M220 510h64l-6 -161q68 12 110 57.5t42 101.5q0 70 -43.5 111.5t-119.5 41.5q-103 0 -162 -95l-43 27q38 58 85.5 87.5t125.5 29.5q93 0 151.5 -57.5t58.5 -144.5q0 -80 -61.5 -138t-145.5 -61l-5 -139h-38zM215 24q0 16 11 27t26 11t26 -11t11 -27t-11 -26.5t-26 -10.5
t-26 10.5t-11 26.5z" />
    <glyph glyph-name="fraction" unicode="&#x2044;" horiz-adv-x="705" 
d="M601 700h44l-541 -700h-44z" />
    <glyph glyph-name="uni2070" unicode="&#x2070;" horiz-adv-x="352" 
d="M32 490q0 94 40.5 155t105.5 61t106 -61.5t41 -154.5t-41 -154.5t-106 -61.5t-105.5 61t-40.5 155zM65 490q0 -80 30.5 -132.5t82.5 -52.5t82.5 52.5t30.5 132.5t-30.5 132.5t-82.5 52.5t-82.5 -52.5t-30.5 -132.5z" />
    <glyph glyph-name="uni2074" unicode="&#x2074;" horiz-adv-x="380" 
d="M243 280v84h-211l232 336h13v-307h65v-29h-65v-84h-34zM243 624l-156 -231h156v231z" />
    <glyph glyph-name="uni2075" unicode="&#x2075;" horiz-adv-x="350" 
d="M314 416q0 -69 -40.5 -106.5t-102.5 -37.5q-93 0 -139 88l28 19q35 -76 111 -76q49 0 78.5 30t29.5 83q0 48 -28.5 77.5t-72.5 29.5q-61 0 -114 -49l55 224h198v-29h-173l-35 -141q36 25 82 25q53 0 88 -38.5t35 -98.5z" />
    <glyph glyph-name="uni2076" unicode="&#x2076;" horiz-adv-x="340" 
d="M206 698h42l-127 -172q25 21 69 21q51 0 87.5 -38.5t36.5 -94.5q0 -63 -38.5 -102.5t-99.5 -39.5t-99.5 39.5t-38.5 102.5q0 50 29 90zM69 414q0 -49 30 -80.5t77 -31.5q46 0 76 31.5t30 80.5q0 47 -29.5 78t-73.5 31q-49 0 -79.5 -31.5t-30.5 -77.5z" />
    <glyph glyph-name="uni2077" unicode="&#x2077;" horiz-adv-x="353" 
d="M32 669v31h289l-209 -420h-35l195 389h-240z" />
    <glyph glyph-name="uni2078" unicode="&#x2078;" horiz-adv-x="314" 
d="M32 393q0 40 23 69t59 41q-31 12 -49.5 37.5t-18.5 60.5q0 43 32 74t79 31t79 -31t32 -74q0 -35 -18.5 -60.5t-49.5 -37.5q36 -12 59 -41t23 -69q0 -50 -35 -84.5t-90 -34.5t-90 34.5t-35 84.5zM78 598q0 -34 24.5 -57t54.5 -23t54.5 23t24.5 57t-22.5 56.5t-56.5 22.5
t-56.5 -22.5t-22.5 -56.5zM64 396q0 -42 26.5 -67.5t66.5 -25.5t66.5 25.5t26.5 67.5q0 39 -28.5 65.5t-64.5 26.5t-64.5 -26.5t-28.5 -65.5z" />
    <glyph glyph-name="uni2079" unicode="&#x2079;" horiz-adv-x="340" 
d="M146 282h-42l126 172q-25 -21 -68 -21q-51 0 -88 38.5t-37 94.5q0 63 38.5 102.5t99.5 39.5t100 -39.5t39 -102.5q0 -49 -30 -90zM282 566q0 49 -30 80.5t-77 31.5q-46 0 -76 -31.5t-30 -80.5q0 -47 30 -78t74 -31q48 0 78.5 31.5t30.5 77.5z" />
    <glyph glyph-name="uni2080" unicode="&#x2080;" horiz-adv-x="356" 
d="M32 210q0 94 40.5 155t105.5 61t106 -61.5t41 -154.5t-41 -154.5t-106 -61.5t-105.5 61t-40.5 155zM65 210q0 -80 30.5 -132.5t82.5 -52.5t82.5 52.5t30.5 132.5t-30.5 132.5t-82.5 52.5t-82.5 -52.5t-30.5 -132.5z" />
    <glyph glyph-name="uni2081" unicode="&#x2081;" horiz-adv-x="303" 
d="M92 360v35l130 31v-425h-33v385z" />
    <glyph glyph-name="uni2082" unicode="&#x2082;" horiz-adv-x="340" 
d="M27 2l196 208q49 52 49 99q0 35 -23 62t-66 27q-46 0 -73.5 -33t-27.5 -87h-33q0 67 36.5 109t97.5 42q60 0 91 -37.5t31 -84.5q0 -58 -56 -116l-153 -158h217v-31h-286z" />
    <glyph glyph-name="uni2083" unicode="&#x2083;" horiz-adv-x="314" 
d="M159 -6q-59 0 -95.5 33.5t-36.5 83.5h34q0 -38 27 -62t71 -24q43 0 69 24t26 63q0 43 -34 67t-79 24v30q41 0 71 23.5t30 59.5q0 34 -21 57t-59 23q-37 0 -61 -22.5t-24 -57.5h-32q0 49 32.5 79.5t84.5 30.5t82.5 -32.5t30.5 -77.5q0 -34 -22.5 -59.5t-59.5 -37.5
q42 -10 68 -38t26 -72q0 -51 -35.5 -83t-92.5 -32z" />
    <glyph glyph-name="uni2084" unicode="&#x2084;" horiz-adv-x="380" 
d="M243 0v84h-211l232 336h13v-307h65v-29h-65v-84h-34zM243 344l-156 -231h156v231z" />
    <glyph glyph-name="uni2085" unicode="&#x2085;" horiz-adv-x="350" 
d="M314 136q0 -69 -40.5 -106.5t-102.5 -37.5q-93 0 -139 88l28 19q35 -76 111 -76q49 0 78.5 30t29.5 83q0 48 -28.5 77.5t-72.5 29.5q-61 0 -114 -49l55 224h198v-29h-173l-35 -141q36 25 82 25q53 0 88 -38.5t35 -98.5z" />
    <glyph glyph-name="uni2086" unicode="&#x2086;" horiz-adv-x="340" 
d="M205 418h42l-126 -172q25 21 68 21q51 0 87.5 -38.5t36.5 -94.5q0 -63 -38.5 -102.5t-99.5 -39.5t-99.5 39.5t-38.5 102.5q0 49 30 90zM69 134q0 -49 30 -80.5t76 -31.5q47 0 77 31.5t30 80.5q0 47 -30 78t-74 31q-48 0 -78.5 -31.5t-30.5 -77.5z" />
    <glyph glyph-name="uni2087" unicode="&#x2087;" horiz-adv-x="353" 
d="M32 389v31h289l-209 -420h-35l195 389h-240z" />
    <glyph glyph-name="uni2088" unicode="&#x2088;" horiz-adv-x="314" 
d="M32 113q0 40 23 69t59 41q-31 12 -49.5 37.5t-18.5 60.5q0 43 32 74t79 31t79 -31t32 -74q0 -35 -18.5 -60.5t-49.5 -37.5q36 -12 59 -41t23 -69q0 -50 -35 -84.5t-90 -34.5t-90 34.5t-35 84.5zM78 318q0 -34 24.5 -57t54.5 -23t54.5 23t24.5 57t-22.5 56.5t-56.5 22.5
t-56.5 -22.5t-22.5 -56.5zM64 116q0 -42 26.5 -67.5t66.5 -25.5t66.5 25.5t26.5 67.5q0 39 -28.5 65.5t-64.5 26.5t-64.5 -26.5t-28.5 -65.5z" />
    <glyph glyph-name="uni2089" unicode="&#x2089;" horiz-adv-x="340" 
d="M135 2h-41l126 173q-25 -22 -69 -22q-51 0 -87.5 38.5t-36.5 94.5q0 63 38.5 102.5t99.5 39.5t99.5 -39.5t38.5 -102.5q0 -50 -29 -90zM272 286q0 49 -30 80.5t-77 31.5q-46 0 -76 -31.5t-30 -80.5q0 -47 30 -78t74 -31q48 0 78.5 31.5t30.5 77.5z" />
    <glyph glyph-name="Euro" unicode="&#x20ac;" horiz-adv-x="628" 
d="M39 302v33h63v15q0 34 5 72h-68v33h74q25 116 100 185.5t181 69.5q79 0 150 -41v-67q-64 56 -150 56q-85 0 -144 -54.5t-81 -148.5h371v-33h-378q-5 -38 -5 -72v-15h357v-33h-355q12 -117 76 -188.5t159 -71.5q86 0 150 56v-67q-71 -41 -150 -41q-119 0 -198 86.5
t-92 225.5h-65z" />
    <glyph glyph-name="trademark" unicode="&#x2122;" horiz-adv-x="665" 
d="M592 713l40 -363h-27l-30 274l-123 -234l-123 235l-29 -275h-28l40 363l140 -269zM34 674v26h213v-26h-93v-324h-28v324h-92z" />
    <glyph glyph-name="uni2150" unicode="&#x2150;" horiz-adv-x="842" 
d="M589 700h44l-541 -700h-44zM26 633v35l130 31v-425h-33v385zM520 389v31h289l-209 -420h-35l195 389h-240z" />
    <glyph glyph-name="uni2151" unicode="&#x2151;" horiz-adv-x="784" 
d="M589 700h44l-541 -700h-44zM26 633v35l130 31v-425h-33v385zM584 2h-42l126 172q-25 -21 -68 -21q-51 0 -88 38.5t-37 94.5q0 63 38.5 102.5t99.5 39.5t100 -39.5t39 -102.5q0 -49 -30 -90zM720 286q0 49 -30 80.5t-77 31.5q-46 0 -76 -31.5t-30 -80.5q0 -47 30 -78
t74 -31q48 0 78.5 31.5t30.5 77.5z" />
    <glyph glyph-name="uni2152" unicode="&#x2152;" horiz-adv-x="1080" 
d="M589 700h44l-541 -700h-44zM26 633v35l130 31v-425h-33v385zM466 360v35l130 31v-425h-33v385zM740 210q0 94 40.5 155t105.5 61t106 -61.5t41 -154.5t-41 -154.5t-106 -61.5t-105.5 61t-40.5 155zM773 210q0 -80 30.5 -132.5t82.5 -52.5t82.5 52.5t30.5 132.5
t-30.5 132.5t-82.5 52.5t-82.5 -52.5t-30.5 -132.5z" />
    <glyph glyph-name="onethird" unicode="&#x2153;" horiz-adv-x="755" 
d="M589 700h44l-541 -700h-44zM26 633v35l130 31v-425h-33v385zM597 -6q-59 0 -95.5 33.5t-36.5 83.5h34q0 -38 27 -62t71 -24q43 0 69 24t26 63q0 43 -34 67t-79 24v30q41 0 71 23.5t30 59.5q0 34 -21 57t-59 23q-37 0 -61 -22.5t-24 -57.5h-32q0 49 32.5 79.5t84.5 30.5
t82.5 -32.5t30.5 -77.5q0 -34 -22.5 -59.5t-59.5 -37.5q42 -10 68 -38t26 -72q0 -51 -35.5 -83t-92.5 -32z" />
    <glyph glyph-name="twothirds" unicode="&#x2154;" horiz-adv-x="882" 
d="M31 282l196 208q49 52 49 99q0 35 -22.5 62t-65.5 27q-46 0 -74 -33t-28 -87h-33q0 67 37 109t98 42q60 0 91 -37.5t31 -84.5q0 -57 -57 -116l-153 -158h218v-31h-287zM716 700h44l-541 -700h-44zM724 -6q-59 0 -95.5 33.5t-36.5 83.5h34q0 -38 27 -62t71 -24q43 0 69 24
t26 63q0 43 -34 67t-79 24v30q41 0 71 23.5t30 59.5q0 34 -21 57t-59 23q-37 0 -61 -22.5t-24 -57.5h-32q0 49 32.5 79.5t84.5 30.5t82.5 -32.5t30.5 -77.5q0 -34 -22.5 -59.5t-59.5 -37.5q42 -10 68 -38t26 -72q0 -51 -35.5 -83t-92.5 -32z" />
    <glyph glyph-name="uni2155" unicode="&#x2155;" horiz-adv-x="744" 
d="M589 700h44l-541 -700h-44zM26 633v35l130 31v-425h-33v385zM532 389l-35 -141q36 25 82 25q53 0 88 -38.5t35 -98.5q0 -69 -40.5 -106.5t-102.5 -37.5q-93 0 -139 88l28 19q35 -76 111 -76q49 0 78.5 30t29.5 83q0 48 -28.5 77.5t-72.5 29.5q-61 0 -114 -49l55 224h198
v-29h-173z" />
    <glyph glyph-name="uni2156" unicode="&#x2156;" horiz-adv-x="871" 
d="M31 282l196 208q49 52 49 99q0 35 -22.5 62t-65.5 27q-46 0 -74 -33t-28 -87h-33q0 67 37 109t98 42q60 0 91 -37.5t31 -84.5q0 -57 -57 -116l-153 -158h218v-31h-287zM716 700h44l-541 -700h-44zM659 389l-35 -141q36 25 82 25q53 0 88 -38.5t35 -98.5
q0 -69 -40.5 -106.5t-102.5 -37.5q-93 0 -139 88l28 19q35 -76 111 -76q49 0 78.5 30t29.5 83q0 48 -28.5 77.5t-72.5 29.5q-61 0 -114 -49l55 224h198v-29h-173z" />
    <glyph glyph-name="uni2157" unicode="&#x2157;" horiz-adv-x="831" 
d="M164 274q-59 0 -95.5 33.5t-36.5 83.5h34q0 -38 27 -62t71 -24q43 0 69 24t26 63q0 43 -34 67t-79 24v30q41 0 71 23.5t30 59.5q0 34 -21 57t-59 23q-37 0 -61 -22.5t-24 -57.5h-32q0 49 32.5 79.5t84.5 30.5t82.5 -32.5t30.5 -77.5q0 -34 -22.5 -59.5t-59.5 -37.5
q42 -10 68 -38t26 -72q0 -51 -35.5 -83t-92.5 -32zM676 700h44l-541 -700h-44zM619 389l-35 -141q36 25 82 25q53 0 88 -38.5t35 -98.5q0 -69 -40.5 -106.5t-102.5 -37.5q-93 0 -139 88l28 19q35 -76 111 -76q49 0 78.5 30t29.5 83q0 48 -28.5 77.5t-72.5 29.5
q-61 0 -114 -49l55 224h198v-29h-173z" />
    <glyph glyph-name="uni2158" unicode="&#x2158;" horiz-adv-x="866" 
d="M711 700h44l-541 -700h-44zM243 280v84h-211l232 336h13v-307h65v-29h-65v-84h-34zM243 624l-156 -231h156v231zM654 389l-35 -141q36 25 82 25q53 0 88 -38.5t35 -98.5q0 -69 -40.5 -106.5t-102.5 -37.5q-93 0 -139 88l28 19q35 -76 111 -76q49 0 78.5 30t29.5 83
q0 48 -28.5 77.5t-72.5 29.5q-61 0 -114 -49l55 224h198v-29h-173z" />
    <glyph glyph-name="uni2159" unicode="&#x2159;" horiz-adv-x="734" 
d="M589 700h44l-541 -700h-44zM26 633v35l130 31v-425h-33v385zM594 418h42l-127 -172q25 21 69 21q51 0 87.5 -38.5t36.5 -94.5q0 -63 -38.5 -102.5t-99.5 -39.5t-99.5 39.5t-38.5 102.5q0 50 29 90zM457 134q0 -49 30 -80.5t77 -31.5q46 0 76 31.5t30 80.5q0 47 -29.5 78
t-73.5 31q-49 0 -79.5 -31.5t-30.5 -77.5z" />
    <glyph glyph-name="uni215A" unicode="&#x215a;" horiz-adv-x="856" 
d="M711 700h44l-541 -700h-44zM314 416q0 -69 -40.5 -106.5t-102.5 -37.5q-93 0 -139 88l28 19q35 -76 111 -76q49 0 78.5 30t29.5 83q0 48 -28.5 77.5t-72.5 29.5q-61 0 -114 -49l55 224h198v-29h-173l-35 -141q36 25 82 25q53 0 88 -38.5t35 -98.5zM716 418h42l-127 -172
q25 21 69 21q51 0 87.5 -38.5t36.5 -94.5q0 -63 -38.5 -102.5t-99.5 -39.5t-99.5 39.5t-38.5 102.5q0 50 29 90zM579 134q0 -49 30 -80.5t77 -31.5q46 0 76 31.5t30 80.5q0 47 -29.5 78t-73.5 31q-49 0 -79.5 -31.5t-30.5 -77.5z" />
    <glyph glyph-name="oneeighth" unicode="&#x215b;" horiz-adv-x="760" 
d="M589 700h44l-541 -700h-44zM26 633v35l130 31v-425h-33v385zM470 113q0 40 23 69t59 41q-31 12 -49.5 37.5t-18.5 60.5q0 43 32 74t79 31t79 -31t32 -74q0 -35 -18.5 -60.5t-49.5 -37.5q36 -12 59 -41t23 -69q0 -50 -35 -84.5t-90 -34.5t-90 34.5t-35 84.5zM516 318
q0 -34 24.5 -57t54.5 -23t54.5 23t24.5 57t-22.5 56.5t-56.5 22.5t-56.5 -22.5t-22.5 -56.5zM502 116q0 -42 26.5 -67.5t66.5 -25.5t66.5 25.5t26.5 67.5q0 39 -28.5 65.5t-64.5 26.5t-64.5 -26.5t-28.5 -65.5z" />
    <glyph glyph-name="threeeighths" unicode="&#x215c;" horiz-adv-x="847" 
d="M164 274q-59 0 -95.5 33.5t-36.5 83.5h34q0 -38 27 -62t71 -24q43 0 69 24t26 63q0 43 -34 67t-79 24v30q41 0 71 23.5t30 59.5q0 34 -21 57t-59 23q-37 0 -61 -22.5t-24 -57.5h-32q0 49 32.5 79.5t84.5 30.5t82.5 -32.5t30.5 -77.5q0 -34 -22.5 -59.5t-59.5 -37.5
q42 -10 68 -38t26 -72q0 -51 -35.5 -83t-92.5 -32zM676 700h44l-541 -700h-44zM557 113q0 40 23 69t59 41q-31 12 -49.5 37.5t-18.5 60.5q0 43 32 74t79 31t79 -31t32 -74q0 -35 -18.5 -60.5t-49.5 -37.5q36 -12 59 -41t23 -69q0 -50 -35 -84.5t-90 -34.5t-90 34.5t-35 84.5
zM603 318q0 -34 24.5 -57t54.5 -23t54.5 23t24.5 57t-22.5 56.5t-56.5 22.5t-56.5 -22.5t-22.5 -56.5zM589 116q0 -42 26.5 -67.5t66.5 -25.5t66.5 25.5t26.5 67.5q0 39 -28.5 65.5t-64.5 26.5t-64.5 -26.5t-28.5 -65.5z" />
    <glyph glyph-name="fiveeighths" unicode="&#x215d;" horiz-adv-x="882" 
d="M711 700h44l-541 -700h-44zM314 416q0 -69 -40.5 -106.5t-102.5 -37.5q-93 0 -139 88l28 19q35 -76 111 -76q49 0 78.5 30t29.5 83q0 48 -28.5 77.5t-72.5 29.5q-61 0 -114 -49l55 224h198v-29h-173l-35 -141q36 25 82 25q53 0 88 -38.5t35 -98.5zM592 113q0 40 23 69
t59 41q-31 12 -49.5 37.5t-18.5 60.5q0 43 32 74t79 31t79 -31t32 -74q0 -35 -18.5 -60.5t-49.5 -37.5q36 -12 59 -41t23 -69q0 -50 -35 -84.5t-90 -34.5t-90 34.5t-35 84.5zM638 318q0 -34 24.5 -57t54.5 -23t54.5 23t24.5 57t-22.5 56.5t-56.5 22.5t-56.5 -22.5
t-22.5 -56.5zM624 116q0 -42 26.5 -67.5t66.5 -25.5t66.5 25.5t26.5 67.5q0 39 -28.5 65.5t-64.5 26.5t-64.5 -26.5t-28.5 -65.5z" />
    <glyph glyph-name="seveneighths" unicode="&#x215e;" horiz-adv-x="772" 
d="M601 700h44l-541 -700h-44zM32 669v31h289l-209 -420h-35l195 389h-240zM482 113q0 40 23 69t59 41q-31 12 -49.5 37.5t-18.5 60.5q0 43 32 74t79 31t79 -31t32 -74q0 -35 -18.5 -60.5t-49.5 -37.5q36 -12 59 -41t23 -69q0 -50 -35 -84.5t-90 -34.5t-90 34.5t-35 84.5z
M528 318q0 -34 24.5 -57t54.5 -23t54.5 23t24.5 57t-22.5 56.5t-56.5 22.5t-56.5 -22.5t-22.5 -56.5zM514 116q0 -42 26.5 -67.5t66.5 -25.5t66.5 25.5t26.5 67.5q0 39 -28.5 65.5t-64.5 26.5t-64.5 -26.5t-28.5 -65.5z" />
    <glyph glyph-name="partialdiff" unicode="&#x2202;" horiz-adv-x="542" 
d="M271 -10q-102 0 -166 66t-64 170q0 95 59.5 159t147.5 64q72 0 138 -39q-62 105 -212 269l32 36q172 -199 233.5 -300t61.5 -189q0 -104 -64 -170t-166 -66zM271 40q78 0 127.5 52.5t49.5 133.5q0 79 -51.5 130.5t-129.5 51.5q-73 0 -123 -52.5t-50 -129.5
q0 -81 49.5 -133.5t127.5 -52.5z" />
    <glyph glyph-name="emptyset" unicode="&#x2205;" horiz-adv-x="600" 
d="M118 36l-25 24l44 44q-51 59 -51 138q0 88 63 151t151 63q78 0 139 -51l43 43l26 -24l-44 -44q50 -60 50 -138q0 -88 -63 -151t-151 -63q-78 0 -139 51zM127 242q0 -60 39 -109l243 243q-47 39 -109 39q-71 0 -122 -51t-51 -122zM300 69q71 0 122 51.5t51 121.5
q0 60 -39 109l-243 -243q49 -39 109 -39z" />
    <glyph glyph-name="summation" unicode="&#x2211;" horiz-adv-x="600" 
d="M100 0l170 352l-170 348h400v-46h-325l147 -302l-147 -306h325v-46h-400z" />
    <glyph glyph-name="minus" unicode="&#x2212;" horiz-adv-x="590" 
d="M70 226v49h450v-49h-450z" />
    <glyph glyph-name="uni2215" unicode="&#x2215;" horiz-adv-x="499" 
d="M431 700h53l-416 -850h-53z" />
    <glyph glyph-name="uni2219" unicode="&#x2219;" horiz-adv-x="284" 
d="M105 429q0 16 11 26.5t26 10.5t26 -10.5t11 -26.5t-11 -27t-26 -11t-26 11t-11 27z" />
    <glyph glyph-name="radical" unicode="&#x221a;" horiz-adv-x="600" 
d="M239 -165l-113 351l-73 -18l-9 38l118 28l65 -229l115 695h160v-47h-117z" />
    <glyph glyph-name="infinity" unicode="&#x221e;" horiz-adv-x="780" 
d="M191 58q-68 0 -118.5 54.5t-50.5 127.5t50.5 126.5t118.5 53.5q98 0 200 -141q102 141 199 141q68 0 118 -53.5t50 -126.5t-50.5 -127.5t-117.5 -54.5q-96 0 -199 142q-103 -142 -200 -142zM197 109q84 0 166 131q-80 130 -166 130q-47 0 -84 -39t-37 -91q0 -51 37 -91
t84 -40zM584 109q47 0 83.5 40t36.5 91q0 52 -36 91t-84 39q-86 0 -166 -130q38 -62 81.5 -96.5t84.5 -34.5z" />
    <glyph glyph-name="integral" unicode="&#x222b;" horiz-adv-x="600" 
d="M191 -200q-43 1 -87 44l28 40q33 -33 57 -33q30 0 48 27.5t21 77.5l38 680q4 70 36.5 111.5t83.5 40.5q43 -1 87 -44l-28 -40q-33 33 -57 33q-30 0 -48 -27.5t-21 -77.5l-38 -680q-4 -70 -36.5 -111.5t-83.5 -40.5z" />
    <glyph glyph-name="approxequal" unicode="&#x2248;" horiz-adv-x="600" 
d="M402 352q-54 0 -117 57q-53 50 -102 50q-40 0 -57.5 -29t-5.5 -73l-48 4q-16 54 19.5 100t92.5 46q62 0 127 -60q47 -46 89 -46q35 0 49.5 29t1.5 72l51 -4q13 -58 -17 -102t-83 -44zM402 122q-54 0 -117 57q-53 50 -102 50q-40 0 -57.5 -29t-5.5 -73l-48 4
q-16 54 19.5 100t92.5 46q62 0 127 -60q47 -46 89 -46q35 0 49.5 29t1.5 72l51 -4q13 -58 -17 -102t-83 -44z" />
    <glyph glyph-name="notequal" unicode="&#x2260;" horiz-adv-x="600" 
d="M65 158v49h172l67 91h-239v49h276l97 131l42 -26l-78 -105h148v-49h-184l-68 -91h252v-49h-288l-91 -122l-42 26l71 96h-135z" />
    <glyph glyph-name="lessequal" unicode="&#x2264;" horiz-adv-x="600" 
d="M560 99l-510 216v29l510 216v-52l-424 -176l424 -181v-52zM50 0v52h510v-52h-510z" />
    <glyph glyph-name="greaterequal" unicode="&#x2265;" horiz-adv-x="600" 
d="M65 99v52l424 176l-424 181v52l510 -216v-29zM65 0v52h510v-52h-510z" />
    <glyph glyph-name="lozenge" unicode="&#x25ca;" horiz-adv-x="600" 
d="M306 15l-206 341l206 340l194 -340zM304 119l136 237l-136 236l-144 -236z" />
    <glyph glyph-name="uniFF10" unicode="&#xff10;" horiz-adv-x="568" 
d="M40 350q0 156 67.5 258t176.5 102t176.5 -102t67.5 -258t-67.5 -258t-176.5 -102t-176.5 102t-67.5 258zM95 350q0 -133 51.5 -220.5t137.5 -87.5t137.5 87.5t51.5 220.5t-51.5 220.5t-137.5 87.5t-137.5 -87.5t-51.5 -220.5z" />
    <glyph glyph-name="uniFF11" unicode="&#xff11;" horiz-adv-x="568" 
d="M135 599v57l216 52v-708h-55v641z" />
    <glyph glyph-name="uniFF12" unicode="&#xff12;" horiz-adv-x="568" 
d="M33 0l326 345q82 87 82 166q0 58 -38 103t-110 45q-77 0 -123.5 -54.5t-46.5 -144.5h-54q0 113 61 182t163 69q69 0 117 -33t67.5 -77.5t19.5 -93.5q0 -96 -94 -192l-256 -263h364v-52h-478z" />
    <glyph glyph-name="uniFF13" unicode="&#xff13;" horiz-adv-x="568" 
d="M291 -10q-99 0 -159 55.5t-60 139.5h55q0 -62 45 -102.5t119 -40.5q72 0 115 40t43 105q0 72 -57 112t-131 40v49q69 0 118.5 39t49.5 99q0 57 -35 95.5t-98 38.5q-62 0 -102 -38t-40 -96h-52q0 82 53.5 133t139.5 51t138 -53.5t52 -128.5q0 -57 -38 -100.5t-100 -62.5
q71 -18 114.5 -64.5t43.5 -119.5q0 -86 -60 -138.5t-154 -52.5z" />
    <glyph glyph-name="uniFF14" unicode="&#xff14;" horiz-adv-x="568" 
d="M372 0v140h-352l386 560h22v-511h109v-49h-109v-140h-56zM372 573l-260 -384h260v384z" />
    <glyph glyph-name="uniFF15" unicode="&#xff15;" horiz-adv-x="568" 
d="M514 230q0 -115 -67.5 -177.5t-170.5 -62.5q-158 0 -232 147l46 31q26 -56 74.5 -91t111.5 -35q82 0 131.5 50.5t49.5 137.5q0 79 -48.5 128.5t-121.5 49.5q-56 0 -98.5 -18.5t-90.5 -62.5l92 373h330v-49h-288l-59 -236q59 43 135 43q88 0 147 -64t59 -164z" />
    <glyph glyph-name="uniFF16" unicode="&#xff16;" horiz-adv-x="568" 
d="M334 700h69l-209 -285q43 34 113 34q86 0 146.5 -65t60.5 -158q0 -105 -64 -170.5t-166 -65.5t-166 65.5t-64 170.5q0 84 49 151zM107 226q0 -81 49.5 -133.5t127.5 -52.5t127.5 52.5t49.5 133.5q0 77 -50.5 129.5t-122.5 52.5q-81 0 -131 -52.5t-50 -129.5z" />
    <glyph glyph-name="uniFF17" unicode="&#xff17;" horiz-adv-x="568" 
d="M56 648v52h482l-350 -700h-57l323 648h-398z" />
    <glyph glyph-name="uniFF18" unicode="&#xff18;" horiz-adv-x="568" 
d="M76 188q0 68 38 116t99 68q-51 18 -82.5 61.5t-31.5 101.5q0 72 53 123.5t132 51.5t132 -51.5t53 -123.5q0 -58 -31.5 -101.5t-82.5 -61.5q61 -20 99 -68t38 -116q0 -84 -58 -141t-150 -57t-150 57t-58 141zM152 529q0 -56 41 -94.5t91 -38.5t91 38.5t41 94.5t-37.5 94
t-94.5 38t-94.5 -38t-37.5 -94zM129 194q0 -69 44 -112t111 -43t111 43t44 112q0 64 -47.5 108.5t-107.5 44.5t-107.5 -44.5t-47.5 -108.5z" />
    <glyph glyph-name="uniFF19" unicode="&#xff19;" horiz-adv-x="568" 
d="M234 0h-69l209 285q-43 -34 -113 -34q-86 0 -146.5 65t-60.5 158q0 105 64 170.5t166 65.5t166 -65.5t64 -170.5q0 -84 -49 -151zM461 474q0 81 -49.5 133.5t-127.5 52.5t-127.5 -52.5t-49.5 -133.5q0 -77 50.5 -129.5t122.5 -52.5q81 0 131 52.5t50 129.5z" />
    <glyph glyph-name="a.alt" horiz-adv-x="558" 
d="M39 230q0 108 63.5 174t158.5 66q60 0 105 -33.5t69 -91.5v115h49v-460h-49v115q-24 -58 -69 -91.5t-105 -33.5q-95 0 -158.5 66t-63.5 174zM92 230q0 -87 50.5 -139t125.5 -52q66 0 115 55t49 136t-49 136t-115 55q-75 0 -125.5 -52t-50.5 -139z" />
    <glyph glyph-name="agrave.alt" horiz-adv-x="558" 
d="M133 687l48 27l158 -160l-29 -20zM39 230q0 108 63.5 174t158.5 66q60 0 105 -33.5t69 -91.5v115h49v-460h-49v115q-24 -58 -69 -91.5t-105 -33.5q-95 0 -158.5 66t-63.5 174zM92 230q0 -87 50.5 -139t125.5 -52q66 0 115 55t49 136t-49 136t-115 55q-75 0 -125.5 -52
t-50.5 -139z" />
    <glyph glyph-name="aacute.alt" horiz-adv-x="558" 
d="M377 687l-177 -153l-29 20l158 160zM39 230q0 108 63.5 174t158.5 66q60 0 105 -33.5t69 -91.5v115h49v-460h-49v115q-24 -58 -69 -91.5t-105 -33.5q-95 0 -158.5 66t-63.5 174zM92 230q0 -87 50.5 -139t125.5 -52q66 0 115 55t49 136t-49 136t-115 55q-75 0 -125.5 -52
t-50.5 -139z" />
    <glyph glyph-name="acircumflex.alt" horiz-adv-x="558" 
d="M273 649l-127 -111l-33 27l160 140l160 -140l-33 -27zM39 230q0 108 63.5 174t158.5 66q60 0 105 -33.5t69 -91.5v115h49v-460h-49v115q-24 -58 -69 -91.5t-105 -33.5q-95 0 -158.5 66t-63.5 174zM92 230q0 -87 50.5 -139t125.5 -52q66 0 115 55t49 136t-49 136t-115 55
q-75 0 -125.5 -52t-50.5 -139z" />
    <glyph glyph-name="atilde.alt" horiz-adv-x="558" 
d="M124 561q5 31 29.5 51.5t57.5 20.5q31 0 64.5 -23.5t59.5 -23.5q29 0 56 48l31 -27q-28 -65 -90 -65q-29 0 -64.5 23.5t-56.5 23.5q-27 0 -39.5 -16t-12.5 -35zM39 230q0 108 63.5 174t158.5 66q60 0 105 -33.5t69 -91.5v115h49v-460h-49v115q-24 -58 -69 -91.5
t-105 -33.5q-95 0 -158.5 66t-63.5 174zM92 230q0 -87 50.5 -139t125.5 -52q66 0 115 55t49 136t-49 136t-115 55q-75 0 -125.5 -52t-50.5 -139z" />
    <glyph glyph-name="adieresis.alt" horiz-adv-x="558" 
d="M340 587q0 16 11 27t26 11t26 -11t11 -27t-11 -26.5t-26 -10.5t-26 10.5t-11 26.5zM140 587q0 16 11 27t26 11t26 -11t11 -27t-11 -26.5t-26 -10.5t-26 10.5t-11 26.5zM39 230q0 108 63.5 174t158.5 66q60 0 105 -33.5t69 -91.5v115h49v-460h-49v115q-24 -58 -69 -91.5
t-105 -33.5q-95 0 -158.5 66t-63.5 174zM92 230q0 -87 50.5 -139t125.5 -52q66 0 115 55t49 136t-49 136t-115 55q-75 0 -125.5 -52t-50.5 -139z" />
    <glyph glyph-name="aring.alt" horiz-adv-x="558" 
d="M171 630q0 43 30.5 71.5t71.5 28.5t71.5 -28.5t30.5 -71.5t-30.5 -71.5t-71.5 -28.5t-71.5 28.5t-30.5 71.5zM206 630q0 -30 20 -49t47 -19t47 19t20 49t-20 49t-47 19t-47 -19t-20 -49zM39 230q0 108 63.5 174t158.5 66q60 0 105 -33.5t69 -91.5v115h49v-460h-49v115
q-24 -58 -69 -91.5t-105 -33.5q-95 0 -158.5 66t-63.5 174zM92 230q0 -87 50.5 -139t125.5 -52q66 0 115 55t49 136t-49 136t-115 55q-75 0 -125.5 -52t-50.5 -139z" />
    <glyph glyph-name="amacron.alt" horiz-adv-x="558" 
d="M92 538v49h350v-49h-350zM39 230q0 108 63.5 174t158.5 66q60 0 105 -33.5t69 -91.5v115h49v-460h-49v115q-24 -58 -69 -91.5t-105 -33.5q-95 0 -158.5 66t-63.5 174zM92 230q0 -87 50.5 -139t125.5 -52q66 0 115 55t49 136t-49 136t-115 55q-75 0 -125.5 -52t-50.5 -139
z" />
    <glyph glyph-name="abreve.alt" horiz-adv-x="558" 
d="M103 678h47q0 -37 28.5 -67t82.5 -30t82.5 30t28.5 67h47q0 -56 -42 -98t-116 -42t-116 42t-42 98zM39 230q0 108 63.5 174t158.5 66q60 0 105 -33.5t69 -91.5v115h49v-460h-49v115q-24 -58 -69 -91.5t-105 -33.5q-95 0 -158.5 66t-63.5 174zM92 230q0 -87 50.5 -139
t125.5 -52q66 0 115 55t49 136t-49 136t-115 55q-75 0 -125.5 -52t-50.5 -139z" />
    <glyph glyph-name="aogonek.alt" horiz-adv-x="558" 
d="M39 230q0 108 63.5 174t158.5 66q60 0 105 -33.5t69 -91.5v115h49v-460q-48 -21 -81.5 -52.5t-33.5 -63.5q0 -29 18 -43.5t48 -14.5q41 0 66 27l23 -33q-30 -40 -92 -40q-56 0 -85.5 25t-29.5 67q0 70 118 135v108q-24 -58 -69 -91.5t-105 -33.5q-95 0 -158.5 66
t-63.5 174zM92 230q0 -87 50.5 -139t125.5 -52q66 0 115 55t49 136t-49 136t-115 55q-75 0 -125.5 -52t-50.5 -139z" />
    </font>
</defs>
</svg>
