<?xml version="1.0" standalone="no"?>
<!DOCTYPE svg PUBLIC "-//W3C//DTD SVG 1.1//EN" "http://www.w3.org/Graphics/SVG/1.1/DTD/svg11.dtd" >
<svg xmlns="http://www.w3.org/2000/svg" xmlns:xlink="http://www.w3.org/1999/xlink" version="1.1">
<metadata>
Created by FontForge 20170731 at Tue Dec 31 03:22:30 2019
 By Aleksey,,,
Copyright 2019 indestructible type* (https://github.com/indestructible-type)
</metadata>
<defs>
<font id="Jost-Book" horiz-adv-x="570" >
  <font-face 
    font-family="Jost*"
    font-weight="400"
    font-stretch="normal"
    units-per-em="1000"
    panose-1="0 0 0 0 0 0 0 0 0 0"
    ascent="800"
    descent="-200"
    x-height="460"
    cap-height="700"
    bbox="-111 -350 1476 1030"
    underline-thickness="50"
    underline-position="-200"
    unicode-range="U+000D-FF19"
  />
<missing-glyph horiz-adv-x="500" 
d="M50 -200v1000h400v-1000h-400zM100 -150h300v900h-300v-900z" />
    <glyph glyph-name=".notdef" horiz-adv-x="500" 
d="M50 -200v1000h400v-1000h-400zM100 -150h300v900h-300v-900z" />
    <glyph glyph-name="uni0000" horiz-adv-x="300" 
 />
    <glyph glyph-name="uni0000" horiz-adv-x="300" 
 />
    <glyph glyph-name="uni000D" unicode="&#xd;" horiz-adv-x="300" 
 />
    <glyph glyph-name="space" unicode=" " horiz-adv-x="300" 
 />
    <glyph glyph-name="exclam" unicode="!" horiz-adv-x="300" 
d="M100 700h100l-20 -500h-60zM95 40q0 22 16.5 38.5t38.5 16.5t38.5 -16.5t16.5 -38.5t-16.5 -38.5t-38.5 -16.5t-38.5 16.5t-16.5 38.5z" />
    <glyph glyph-name="quotedbl" unicode="&#x22;" horiz-adv-x="465" 
d="M130 700h95l-90 -300h-55zM310 700h95l-90 -300h-55z" />
    <glyph glyph-name="numbersign" unicode="#" horiz-adv-x="605" 
d="M35 200v65h104l43 175h-107v65h123l47 195h75l-47 -195h135l47 195h75l-47 -195h87v-65h-103l-43 -175h106v-65h-121l-49 -200h-75l48 200h-134l-49 -200h-75l49 200h-89zM214 265h136l42 175h-135z" />
    <glyph glyph-name="dollar" unicode="$" horiz-adv-x="580" 
d="M440 514q-28 53 -61 84t-85 31q-115 0 -115 -95q0 -27 12 -48t39 -38t48.5 -27t62.5 -25q177 -65 177 -206q0 -85 -48 -138.5t-137 -60.5v-103h-74v106q-69 13 -122 63t-82 126l72 43q33 -76 77 -116t106 -40q59 0 89.5 30t30.5 83q0 32 -13 57.5t-40 43.5t-50.5 29.5
t-60.5 24.5q-176 63 -176 202q0 64 48 111t121 57v110h74v-111q63 -11 109 -53t67 -94z" />
    <glyph glyph-name="percent" unicode="%" horiz-adv-x="751" 
d="M35 550q0 68 44 114t114 46t114 -46t44 -114t-44 -114t-114 -46t-114 46t-44 114zM563 700h75l-450 -700h-75zM106 550q0 -40 23.5 -67.5t63.5 -27.5t63.5 27.5t23.5 67.5t-23.5 67.5t-63.5 27.5t-63.5 -27.5t-23.5 -67.5zM400 150q0 68 44 114t114 46t114 -46t44 -114
t-44 -114t-114 -46t-114 46t-44 114zM471 150q0 -40 23.5 -67.5t63.5 -27.5t63.5 27.5t23.5 67.5t-23.5 67.5t-63.5 27.5t-63.5 -27.5t-23.5 -67.5z" />
    <glyph glyph-name="ampersand" unicode="&#x26;" horiz-adv-x="675" 
d="M559 0l-69 79q-107 -89 -225 -89q-91 0 -158 53.5t-67 139.5q0 43 15 78t45 61t53 41t59 33q-3 3 -16 16.5t-18.5 19.5t-17 20t-17.5 24t-13 23.5t-10 28t-3 28.5q0 70 47.5 112.5t123.5 42.5t122 -45.5t46 -111.5q0 -92 -131 -174l169 -195q51 53 108 131l62 -39
q-72 -97 -121 -148l112 -129h-96zM201 556q0 -11 3.5 -22t7.5 -19.5t14 -21.5t15.5 -19t19 -21.5t18.5 -20.5q96 61 96 122q0 39 -23 62.5t-64 23.5t-64 -22.5t-23 -61.5zM125 188q0 -56 41.5 -90t103.5 -34q83 0 171 71l-182 208q-30 -16 -49 -28.5t-41 -32t-33 -43
t-11 -51.5z" />
    <glyph glyph-name="quotesingle" unicode="'" horiz-adv-x="285" 
d="M130 700h95l-90 -300h-55z" />
    <glyph glyph-name="parenleft" unicode="(" horiz-adv-x="310" 
d="M205 780h75q-100 -214 -100 -490t100 -490h-75q-115 216 -115 490t115 490z" />
    <glyph glyph-name="parenright" unicode=")" horiz-adv-x="310" 
d="M105 -200h-75q100 214 100 490t-100 490h75q115 -216 115 -490t-115 -490z" />
    <glyph glyph-name="asterisk" unicode="*" horiz-adv-x="592" 
d="M210 327l-57 41l99 123l-152 41l21 67l148 -57l-8 158h70l-8 -158l148 57l21 -67l-152 -41l99 -123l-57 -41l-86 132z" />
    <glyph glyph-name="plus" unicode="+" horiz-adv-x="615" 
d="M65 215v80h200v205h85v-205h200v-80h-200v-205h-85v205h-200z" />
    <glyph glyph-name="comma" unicode="," horiz-adv-x="308" 
d="M148 110l80 -30l-110 -250l-58 21z" />
    <glyph glyph-name="hyphen" unicode="-" horiz-adv-x="210" 
d="M5 200v75h200v-75h-200z" />
    <glyph glyph-name="period" unicode="." horiz-adv-x="300" 
d="M95 40q0 22 16.5 38.5t38.5 16.5t38.5 -16.5t16.5 -38.5t-16.5 -38.5t-38.5 -16.5t-38.5 16.5t-16.5 38.5z" />
    <glyph glyph-name="slash" unicode="/" horiz-adv-x="515" 
d="M420 700h80l-405 -850h-80z" />
    <glyph glyph-name="zero" unicode="0" horiz-adv-x="600" 
d="M40 350q0 158 72.5 259t187.5 101t187.5 -101t72.5 -259t-72.5 -259t-187.5 -101t-187.5 101t-72.5 259zM125 350q0 -124 47.5 -202t127.5 -78t127.5 78t47.5 202t-47.5 202t-127.5 78t-127.5 -78t-47.5 -202z" />
    <glyph glyph-name="one" unicode="1" horiz-adv-x="450" 
d="M80 562v88l240 60v-710h-85v608z" />
    <glyph glyph-name="two" unicode="2" horiz-adv-x="569" 
d="M20 0l331 353q73 78 73 153q0 49 -37 87t-98 38q-67 0 -105.5 -45.5t-38.5 -125.5h-85q0 114 61 182.5t168 68.5q55 0 99 -19.5t70 -50.5t39.5 -65t13.5 -67q0 -107 -93 -202l-223 -227h319v-80h-494z" />
    <glyph glyph-name="three" unicode="3" horiz-adv-x="546" 
d="M283 -10q-99 0 -161 56t-62 139h86q0 -50 38.5 -82.5t98.5 -32.5t95.5 34t35.5 91q0 62 -45 96t-116 34v75q65 0 103 34.5t38 86.5q0 51 -27.5 81.5t-78.5 30.5q-49 0 -83 -31t-34 -76h-81q0 81 55 132.5t142 51.5t140.5 -54.5t53.5 -131.5q0 -52 -31.5 -94t-87.5 -65
q139 -41 139 -180q0 -88 -61.5 -141.5t-156.5 -53.5z" />
    <glyph glyph-name="four" unicode="4" horiz-adv-x="583" 
d="M20 140l388 560h35v-485h110v-75h-110v-140h-85v140h-338zM160 215h198v296z" />
    <glyph glyph-name="five" unicode="5" horiz-adv-x="564" 
d="M524 230q0 -115 -69.5 -177.5t-175.5 -62.5q-164 0 -249 147l72 49q25 -48 73.5 -82t103.5 -34q74 0 115.5 43.5t41.5 116.5q0 71 -44.5 115.5t-112.5 44.5q-51 0 -89 -13t-90 -50l92 373h330v-75h-264l-47 -185q50 26 104 26q91 0 150 -66t59 -170z" />
    <glyph glyph-name="six" unicode="6" horiz-adv-x="576" 
d="M330 700h107l-197 -260q29 17 79 17q86 0 146.5 -65.5t60.5 -161.5q0 -107 -67.5 -173.5t-170.5 -66.5t-170.5 66.5t-67.5 173.5q0 85 44 145zM131 230q0 -72 44.5 -117.5t112.5 -45.5t112.5 45.5t44.5 117.5t-44.5 118.5t-112.5 46.5t-112.5 -46.5t-44.5 -118.5z" />
    <glyph glyph-name="seven" unicode="7" horiz-adv-x="525" 
d="M30 620v80h490l-335 -700h-89l297 620h-363z" />
    <glyph glyph-name="eight" unicode="8" horiz-adv-x="546" 
d="M55 190q0 66 34 113.5t90 69.5q-99 44 -99 158q0 75 55.5 127t137.5 52t137.5 -52t55.5 -127q0 -114 -99 -158q56 -22 90 -69.5t34 -113.5q0 -83 -62.5 -141.5t-155.5 -58.5t-155.5 58.5t-62.5 141.5zM161 521q0 -48 33 -79.5t79 -31.5t79 31.5t33 79.5q0 50 -31.5 82
t-80.5 32t-80.5 -32t-31.5 -82zM136 200q0 -62 40.5 -98.5t96.5 -36.5t96.5 36.5t40.5 98.5q0 56 -41.5 95.5t-95.5 39.5t-95.5 -39.5t-41.5 -95.5z" />
    <glyph glyph-name="nine" unicode="9" horiz-adv-x="576" 
d="M246 0h-107l197 260q-29 -17 -79 -17q-86 0 -146.5 65.5t-60.5 161.5q0 107 67.5 173.5t170.5 66.5t170.5 -66.5t67.5 -173.5q0 -85 -44 -145zM445 470q0 72 -44.5 117.5t-112.5 45.5t-112.5 -45.5t-44.5 -117.5t44.5 -118.5t112.5 -46.5t112.5 46.5t44.5 118.5z" />
    <glyph glyph-name="colon" unicode=":" horiz-adv-x="300" 
d="M95 420q0 22 16.5 38.5t38.5 16.5t38.5 -16.5t16.5 -38.5t-16.5 -38.5t-38.5 -16.5t-38.5 16.5t-16.5 38.5zM95 40q0 22 16.5 38.5t38.5 16.5t38.5 -16.5t16.5 -38.5t-16.5 -38.5t-38.5 -16.5t-38.5 16.5t-16.5 38.5z" />
    <glyph glyph-name="semicolon" unicode=";" horiz-adv-x="330" 
d="M125 420q0 22 16.5 38.5t38.5 16.5t38.5 -16.5t16.5 -38.5t-16.5 -38.5t-38.5 -16.5t-38.5 16.5t-16.5 38.5zM148 110l80 -30l-110 -250l-58 21z" />
    <glyph glyph-name="less" unicode="&#x3c;" horiz-adv-x="640" 
d="M197 262l378 -167v-80l-510 220v45l510 220v-80z" />
    <glyph glyph-name="equal" unicode="=" horiz-adv-x="615" 
d="M65 290v75h485v-75h-485zM65 140v75h485v-75h-485z" />
    <glyph glyph-name="greater" unicode="&#x3e;" horiz-adv-x="640" 
d="M443 253l-378 167v80l510 -220v-45l-510 -220v80z" />
    <glyph glyph-name="question" unicode="?" horiz-adv-x="557" 
d="M416 500q0 64 -39.5 99.5t-107.5 35.5q-93 0 -144 -83l-65 41q38 59 87 88t132 29q93 0 155.5 -60.5t62.5 -149.5q0 -84 -63.5 -144.5t-148.5 -65.5l-7 -120h-60l-20 175h26q86 0 139 47t53 108zM195 40q0 22 16.5 38.5t38.5 16.5t38.5 -16.5t16.5 -38.5t-16.5 -38.5
t-38.5 -16.5t-38.5 16.5t-16.5 38.5z" />
    <glyph glyph-name="at" unicode="@" horiz-adv-x="770" 
d="M35 320q0 166 107 278t273 112q77 0 139.5 -27.5t101 -73t59 -102t20.5 -117.5q0 -120 -56 -180t-123 -60q-36 0 -60.5 23t-29.5 60q-49 -73 -138 -73q-57 0 -97.5 42.5t-40.5 114.5q0 97 58.5 155t129.5 58q76 0 107 -77l10 67h75l-41 -231q-2 -14 -2 -27q0 -46 39 -46
q31 0 65 45t34 129q0 107 -65 181t-185 74q-139 0 -224.5 -92.5t-85.5 -232.5q0 -122 70.5 -193.5t189.5 -71.5t201 52l35 -57q-50 -30 -103 -45t-133 -15q-158 0 -244 89t-86 241zM266 320q0 -90 82 -90q45 0 81 34t36 106q0 41 -24.5 65.5t-62.5 24.5q-44 0 -78 -39
t-34 -101z" />
    <glyph glyph-name="A" unicode="A" horiz-adv-x="660" 
d="M560 0l-89 210h-282l-89 -210h-95l325 735l325 -735h-95zM330 542l-107 -252h214z" />
    <glyph glyph-name="B" unicode="B" horiz-adv-x="558" 
d="M508 205q0 -100 -66 -152.5t-172 -52.5h-190v700h180q97 0 152.5 -44t55.5 -131q0 -53 -30.5 -89.5t-85.5 -53.5q72 -15 114 -59.5t42 -117.5zM260 625h-95v-208h95q54 0 88.5 27.5t34.5 75.5t-34.5 76.5t-88.5 28.5zM165 75h105q69 0 111 36t42 99t-42 98t-111 35h-105
v-268z" />
    <glyph glyph-name="C" unicode="C" horiz-adv-x="685" 
d="M130 350q0 -119 77 -197t183 -78q143 0 225 104v-112q-87 -77 -225 -77q-147 0 -248.5 102.5t-101.5 257.5t101.5 257.5t248.5 102.5q138 0 225 -77v-112q-82 104 -225 104q-106 0 -183 -78t-77 -197z" />
    <glyph glyph-name="D" unicode="D" horiz-adv-x="680" 
d="M290 0h-210v700h210q154 0 252 -97t98 -253t-98 -253t-252 -97zM290 615h-125v-530h125q119 0 192 72t73 193t-73 193t-192 72z" />
    <glyph glyph-name="E" unicode="E" horiz-adv-x="550" 
d="M80 700h400v-80h-315v-200h295v-80h-295v-260h315v-80h-400v700z" />
    <glyph glyph-name="F" unicode="F" horiz-adv-x="500" 
d="M80 700h360v-80h-275v-200h265v-80h-265v-340h-85v700z" />
    <glyph glyph-name="G" unicode="G" horiz-adv-x="775" 
d="M405 275v80h325q0 -153 -90.5 -259t-244.5 -106q-153 0 -254 102t-101 258t101 258t254 102q199 0 291 -149l-60 -55q-71 119 -231 119q-113 0 -189 -77t-76 -198t76 -198t189 -77q99 0 162 56.5t81 143.5h-233z" />
    <glyph glyph-name="H" unicode="H" horiz-adv-x="715" 
d="M80 700h85v-280h385v280h85v-700h-85v340h-385v-340h-85v700z" />
    <glyph glyph-name="I" unicode="I" horiz-adv-x="245" 
d="M80 700h85v-700h-85v700z" />
    <glyph glyph-name="J" unicode="J" horiz-adv-x="240" 
d="M-67 -104q22 -36 79 -36q26 0 47 22.5t21 67.5v750h80v-760q0 -80 -40.5 -120t-112.5 -40q-37 0 -71 16.5t-47 33.5z" />
    <glyph glyph-name="K" unicode="K" horiz-adv-x="565" 
d="M80 700h85v-301l275 301h105l-303 -328l318 -372h-105l-290 340v-340h-85v700z" />
    <glyph glyph-name="L" unicode="L" horiz-adv-x="450" 
d="M80 700h85v-620h275v-80h-360v700z" />
    <glyph glyph-name="M" unicode="M" horiz-adv-x="810" 
d="M177 473l-52 -473h-85l85 735l280 -507l280 507l85 -735h-85l-52 473l-228 -408z" />
    <glyph glyph-name="N" unicode="N" horiz-adv-x="775" 
d="M610 700h85v-735l-530 556v-521h-85v735l530 -556v521z" />
    <glyph glyph-name="O" unicode="O" horiz-adv-x="790" 
d="M40 350q0 154 101 257t254 103t254 -103t101 -257t-101 -257t-254 -103t-254 103t-101 257zM130 350q0 -119 75 -197t190 -78t190 78t75 197t-75 197t-190 78t-190 -78t-75 -197z" />
    <glyph glyph-name="P" unicode="P" horiz-adv-x="548" 
d="M80 700h190q103 0 170.5 -57.5t67.5 -152.5t-67.5 -152.5t-170.5 -57.5h-105v-280h-85v700zM270 620h-105v-260h105q70 0 111.5 33.5t41.5 96.5t-41.5 96.5t-111.5 33.5z" />
    <glyph glyph-name="Q" unicode="Q" horiz-adv-x="790" 
d="M40 350q0 154 101 257t254 103t254 -103t101 -257q0 -134 -79 -232l118 -118h-110l-64 64q-93 -74 -220 -74q-153 0 -254 103t-101 257zM130 350q0 -119 75 -197t190 -78q92 0 158 51l-174 174h110l119 -119q52 72 52 169q0 119 -75 197t-190 78t-190 -78t-75 -197z" />
    <glyph glyph-name="R" unicode="R" horiz-adv-x="560" 
d="M80 700h190q103 0 170.5 -57.5t67.5 -152.5q0 -77 -45.5 -130.5t-121.5 -71.5l209 -288h-105l-195 280h-85v-280h-85v700zM270 625h-105v-270h105q69 0 111 36t42 99t-42 99t-111 36z" />
    <glyph glyph-name="S" unicode="S" horiz-adv-x="548" 
d="M106 212q38 -69 82 -105.5t103 -36.5q56 0 90 31t34 79q0 34 -11.5 58.5t-37.5 42.5t-47 27.5t-59 23.5q-28 10 -47 18t-47.5 25.5t-46 36.5t-31 50t-13.5 67q0 78 57 129.5t146 51.5q78 0 133.5 -42t85.5 -105l-73 -42q-56 108 -151 108q-54 0 -81.5 -26t-27.5 -63
q0 -46 36 -78.5t126 -63.5q177 -61 177 -208q0 -88 -64 -144t-151 -56q-81 0 -147.5 50.5t-102.5 125.5z" />
    <glyph glyph-name="T" unicode="T" horiz-adv-x="465" 
d="M10 620v80h445v-80h-180v-620h-85v620h-180z" />
    <glyph glyph-name="U" unicode="U" horiz-adv-x="626" 
d="M75 700h85v-470q0 -74 39.5 -117t113.5 -43t113.5 43t39.5 117v470h85v-470q0 -106 -65.5 -173t-172.5 -67t-172.5 67t-65.5 173v470z" />
    <glyph glyph-name="V" unicode="V" horiz-adv-x="660" 
d="M330 158l230 542h95l-325 -735l-325 735h95z" />
    <glyph glyph-name="W" unicode="W" horiz-adv-x="990" 
d="M703 185l182 515h95l-275 -735l-210 544l-210 -544l-275 735h95l186 -515l204 550z" />
    <glyph glyph-name="X" unicode="X" horiz-adv-x="555" 
d="M430 700h100l-207 -333l222 -367h-100l-165 293l-170 -293h-100l228 367l-203 333h100l146 -259z" />
    <glyph glyph-name="Y" unicode="Y" horiz-adv-x="561" 
d="M461 700h95l-233 -398v-302h-85v301l-233 399h95l180 -324z" />
    <glyph glyph-name="Z" unicode="Z" horiz-adv-x="545" 
d="M35 620v80h490l-368 -620h348v-80h-490l368 620h-348z" />
    <glyph glyph-name="bracketleft" unicode="[" horiz-adv-x="300" 
d="M179 705v-850h101v-75h-180v1000h180v-75h-101z" />
    <glyph glyph-name="backslash" unicode="\" horiz-adv-x="515" 
d="M15 700h85l400 -700h-85z" />
    <glyph glyph-name="bracketright" unicode="]" horiz-adv-x="300" 
d="M121 -145v850h-101v75h180v-1000h-180v75h101z" />
    <glyph glyph-name="asciicircum" unicode="^" horiz-adv-x="510" 
d="M255 621l-110 -161h-80l170 250h40l170 -250h-80z" />
    <glyph glyph-name="underscore" unicode="_" horiz-adv-x="500" 
d="M0 -133v55h500v-55h-500z" />
    <glyph glyph-name="grave" unicode="`" horiz-adv-x="375" 
d="M75 660l75 40l150 -160l-45 -30z" />
    <glyph glyph-name="a" unicode="a" horiz-adv-x="481" 
d="M99 354l-39 59q80 57 181 57q82 0 131 -37t49 -103v-330h-80v62q-21 -35 -64 -53.5t-88 -18.5q-67 0 -113 40t-46 108q0 67 48 107.5t132 40.5q77 0 131 -34v67q0 81 -104 81q-78 0 -138 -46zM111 142q0 -39 27 -61t72 -22q56 0 93.5 33.5t37.5 87.5v17q-53 26 -118 26
q-112 0 -112 -81z" />
    <glyph glyph-name="b" unicode="b" 
d="M535 230q0 -109 -65.5 -174.5t-162.5 -65.5q-104 0 -157 89v-79h-80v780h80v-399q53 89 157 89q97 0 162.5 -65.5t65.5 -174.5zM454 230q0 77 -45 121t-112 44q-57 0 -102 -45t-45 -120t45 -120t102 -45q67 0 112 44t45 121z" />
    <glyph glyph-name="c" unicode="c" horiz-adv-x="478" 
d="M111 230q0 -72 44.5 -118.5t112.5 -46.5q54 0 99 24.5t61 59.5v-100q-23 -28 -67 -43.5t-93 -15.5q-102 0 -170 68t-68 172t68 172t170 68q48 0 92 -16t68 -43v-100q-16 35 -61 59.5t-99 24.5q-68 0 -112.5 -46.5t-44.5 -118.5z" />
    <glyph glyph-name="d" unicode="d" 
d="M35 230q0 109 65.5 174.5t162.5 65.5q104 0 157 -89v399h80v-780h-80v79q-53 -89 -157 -89q-97 0 -162.5 65.5t-65.5 174.5zM116 230q0 -77 45 -121t112 -44q57 0 102 45t45 120t-45 120t-102 45q-67 0 -112 -44t-45 -121z" />
    <glyph glyph-name="e" unicode="e" horiz-adv-x="515" 
d="M253 -10q-97 0 -157.5 66.5t-60.5 173.5t63 173.5t165 66.5q101 0 159 -63t58 -173v-15l-1 -9h-362q5 -70 43 -107.5t103 -37.5q94 0 144 83l65 -41q-72 -117 -219 -117zM263 400q-59 0 -95.5 -31.5t-47.5 -90.5h273q-5 56 -40 89t-90 33z" />
    <glyph glyph-name="f" unicode="f" horiz-adv-x="286" 
d="M40 460h45v170q0 160 133 160q58 0 88 -40l-44 -66q-16 26 -49 26q-48 0 -48 -90v-160h105v-75h-105v-385h-80v385h-45v75z" />
    <glyph glyph-name="g" unicode="g" 
d="M44 -30h81q0 -51 41 -88t106 -37q59 0 103.5 42t44.5 123v69q-53 -89 -157 -89q-97 0 -162.5 65.5t-65.5 174.5t65.5 174.5t162.5 65.5q104 0 157 -89v79h80v-450q0 -113 -67.5 -176.5t-160.5 -63.5q-101 0 -164.5 55.5t-63.5 144.5zM116 230q0 -77 45 -121t112 -44
q57 0 102 45t45 120t-45 120t-102 45q-67 0 -112 -44t-45 -121z" />
    <glyph glyph-name="h" unicode="h" horiz-adv-x="525" 
d="M370 280q0 115 -98 115q-52 0 -84.5 -32.5t-32.5 -82.5v-280h-80v780h80v-393q46 83 137 83q73 0 115.5 -46.5t42.5 -133.5v-290h-80v280z" />
    <glyph glyph-name="i" unicode="i" horiz-adv-x="260" 
d="M75 650q0 22 16.5 38.5t38.5 16.5t38.5 -16.5t16.5 -38.5t-16.5 -38.5t-38.5 -16.5t-38.5 16.5t-16.5 38.5zM90 460h80v-460h-80v460z" />
    <glyph glyph-name="j" unicode="j" horiz-adv-x="250" 
d="M62 650q0 22 16 38t38 16t38 -16t16 -38t-16 -38t-38 -16t-38 16t-16 38zM-17 -114q16 -26 49 -26q26 0 37 21t11 69v510h80v-520q0 -76 -35 -118t-98 -42q-58 0 -88 40z" />
    <glyph glyph-name="k" unicode="k" horiz-adv-x="440" 
d="M320 460h100l-200 -190l220 -270h-100l-190 233v-233h-80v780h80v-481z" />
    <glyph glyph-name="l" unicode="l" horiz-adv-x="230" 
d="M75 780h80v-780h-80v780z" />
    <glyph glyph-name="m" unicode="m" horiz-adv-x="780" 
d="M705 290v-290h-80v280q0 115 -88 115q-50 0 -78.5 -30.5t-28.5 -84.5v-280h-80v280q0 115 -88 115q-50 0 -78.5 -30.5t-28.5 -84.5v-280h-80v460h80v-67q41 77 127 77q100 0 133 -86q48 86 142 86q70 0 109 -47t39 -133z" />
    <glyph glyph-name="n" unicode="n" horiz-adv-x="525" 
d="M370 280q0 115 -98 115q-52 0 -84.5 -32t-32.5 -83v-280h-80v460h80v-72q45 82 137 82q73 0 115.5 -48.5t42.5 -131.5v-290h-80v280z" />
    <glyph glyph-name="o" unicode="o" horiz-adv-x="546" 
d="M35 230q0 104 68 172t170 68t170 -68t68 -172t-68 -172t-170 -68t-170 68t-68 172zM116 230q0 -72 44.5 -118.5t112.5 -46.5t112.5 46.5t44.5 118.5t-44.5 118.5t-112.5 46.5t-112.5 -46.5t-44.5 -118.5z" />
    <glyph glyph-name="p" unicode="p" 
d="M150 -220h-80v680h80v-79q53 89 157 89q97 0 162.5 -65.5t65.5 -174.5t-65.5 -174.5t-162.5 -65.5q-104 0 -157 89v-299zM454 230q0 77 -45 121t-112 44q-57 0 -102 -45t-45 -120t45 -120t102 -45q67 0 112 44t45 121z" />
    <glyph glyph-name="q" unicode="q" 
d="M35 230q0 109 65.5 174.5t162.5 65.5q104 0 157 -89v79h80v-680h-80v299q-53 -89 -157 -89q-97 0 -162.5 65.5t-65.5 174.5zM116 230q0 -77 45 -121t112 -44q57 0 102 45t45 120t-45 120t-102 45q-67 0 -112 -44t-45 -121z" />
    <glyph glyph-name="r" unicode="r" horiz-adv-x="343" 
d="M294 372q-32 23 -62 23q-77 0 -77 -115v-280h-80v460h80v-53q42 63 97 63t86 -32z" />
    <glyph glyph-name="s" unicode="s" horiz-adv-x="403" 
d="M94 141q51 -78 125 -78q34 0 53.5 15.5t19.5 42.5q0 32 -27.5 51.5t-78.5 38.5q-60 22 -96 53t-36 85q0 58 44 89.5t105 31.5q54 0 99 -25.5t67 -64.5l-64 -41q-44 60 -112 60q-26 0 -43.5 -11.5t-17.5 -33.5q0 -25 24.5 -42t71.5 -36q36 -15 57.5 -26t44 -28t33 -39.5
t10.5 -52.5q0 -61 -44 -100.5t-114 -39.5q-65 0 -114 33t-70 79z" />
    <glyph glyph-name="t" unicode="t" horiz-adv-x="240" 
d="M5 460h75v160h80v-160h75v-75h-75v-385h-80v385h-75v75z" />
    <glyph glyph-name="u" unicode="u" horiz-adv-x="525" 
d="M155 180q0 -56 25 -85.5t73 -29.5q52 0 84.5 32t32.5 83v280h80v-460h-80v72q-46 -82 -137 -82q-72 0 -115 49t-43 131v290h80v-280z" />
    <glyph glyph-name="v" unicode="v" horiz-adv-x="440" 
d="M0 460h90l130 -325l130 325h90l-220 -495z" />
    <glyph glyph-name="w" unicode="w" horiz-adv-x="680" 
d="M5 460h90l115 -299l125 334l134 -336l116 301h90l-200 -495l-139 335l-131 -335z" />
    <glyph glyph-name="x" unicode="x" horiz-adv-x="420" 
d="M320 460h90l-157 -223l167 -237h-90l-120 174l-120 -174h-90l167 237l-157 223h90l110 -160z" />
    <glyph glyph-name="y" unicode="y" horiz-adv-x="440" 
d="M440 460l-300 -680h-90l126 285l-176 395h95l129 -317l126 317h90z" />
    <glyph glyph-name="z" unicode="z" horiz-adv-x="460" 
d="M300 385h-255v75h400l-285 -385h265v-75h-410z" />
    <glyph glyph-name="braceleft" unicode="{" horiz-adv-x="311" 
d="M178 660v-170q0 -49 -3 -80.5t-18.5 -68.5t-44.5 -51q42 -21 54 -72.5t12 -127.5v-170q0 -20 13 -35t35 -15h35v-70h-60q-39 0 -71 36t-32 104v210q0 54 -12 78t-36 32v60q24 8 36 32t12 78v210q0 68 32 104t71 36h60v-70h-35q-22 0 -35 -15t-13 -35z" />
    <glyph glyph-name="bar" unicode="|" horiz-adv-x="274" 
d="M100 785h74v-1000h-74v1000z" />
    <glyph glyph-name="braceright" unicode="}" horiz-adv-x="311" 
d="M142 -80v170q0 49 3 80.5t18.5 68.5t44.5 51q-42 21 -54 72.5t-12 127.5v170q0 20 -13 35t-35 15h-35v70h60q39 0 71 -36t32 -104v-210q0 -54 12 -78t36 -32v-60q-24 -8 -36 -32t-12 -78v-210q0 -68 -32 -104t-71 -36h-60v70h35q22 0 35 15t13 35z" />
    <glyph glyph-name="asciitilde" unicode="~" horiz-adv-x="575" 
d="M142 176l-74 5q-3 11 -3 24q0 38 24 70q39 52 105 52q60 0 123 -48q42 -32 73 -32q42 0 42 49q0 14 -5 27l79 -5q4 -16 4 -28q0 -41 -22 -71q-36 -47 -94 -47q-50 0 -115 48q-43 33 -86 33q-55 0 -55 -55q0 -11 4 -22z" />
    <glyph glyph-name="uni00A0" unicode="&#xa0;" horiz-adv-x="300" 
 />
    <glyph glyph-name="exclamdown" unicode="&#xa1;" horiz-adv-x="300" 
d="M205 415q0 -23 -16.5 -39t-38.5 -16t-38.5 16t-16.5 39t16.5 39t38.5 16t38.5 -16t16.5 -39zM200 -245h-100l20 500h60z" />
    <glyph glyph-name="cent" unicode="&#xa2;" horiz-adv-x="580" 
d="M162 230q0 -72 44.5 -118.5t112.5 -46.5q54 0 99 24.5t61 59.5v-100q-42 -50 -135 -58v-103h-64v105q-87 13 -143 78.5t-56 158.5t56 158.5t143 78.5v111h64v-109q92 -8 135 -58v-100q-16 35 -61 59.5t-99 24.5q-68 0 -112.5 -46.5t-44.5 -118.5z" />
    <glyph glyph-name="sterling" unicode="&#xa3;" horiz-adv-x="580" 
d="M67 370h98q-49 74 -49 148q0 88 57 140t148 52q62 0 109 -35t67.5 -79t23.5 -88l-71 -29q-3 61 -36 104t-93 43q-50 0 -84 -26.5t-34 -79.5q0 -20 3 -37t11 -34t13 -26.5t17.5 -28t16.5 -24.5h163v-75h-132q3 -15 3 -31q0 -56 -24.5 -104.5t-63.5 -79.5h307v-80h-453
q86 90 119.5 139.5t33.5 109.5q0 25 -9 46h-141v75z" />
    <glyph glyph-name="currency" unicode="&#xa4;" horiz-adv-x="580" 
d="M87 47l-50 50l60 59q-45 61 -45 144t45 144l-60 59l50 50l59 -59q62 46 144 46t144 -46l59 59l49 -50l-59 -59q45 -61 45 -144t-45 -144l59 -59l-49 -50l-59 59q-62 -46 -144 -46t-144 46zM133 300q0 -72 44.5 -118.5t112.5 -46.5t112.5 46.5t44.5 118.5t-44.5 118.5
t-112.5 46.5t-112.5 -46.5t-44.5 -118.5z" />
    <glyph glyph-name="yen" unicode="&#xa5;" horiz-adv-x="580" 
d="M45 140v75h203v75h-203v75h167l-197 335h95l180 -324l181 324h94l-196 -335h161v-75h-196v-75h196v-75h-196v-140h-86v140h-203z" />
    <glyph glyph-name="brokenbar" unicode="&#xa6;" horiz-adv-x="274" 
d="M100 695h74v-240h-74v240zM174 245v-240h-74v240h74z" />
    <glyph glyph-name="section" unicode="&#xa7;" horiz-adv-x="408" 
d="M96 161q9 -42 42.5 -69t76.5 -27q80 0 80 58q0 18 -8 32t-25.5 25.5t-31 18t-39.5 16.5q-132 52 -132 144q0 88 93 112q-93 46 -93 118q0 54 45 87.5t104 33.5q55 0 104 -26t62 -64l-64 -41q-14 27 -42.5 41t-58.5 14q-70 0 -70 -45q0 -17 19.5 -33.5t39 -26t53.5 -23.5
q127 -53 127 -136q0 -96 -90 -121q90 -50 90 -119q0 -71 -45 -105.5t-123 -34.5q-64 0 -117 38.5t-63 94.5zM139 369q0 -37 22 -56.5t64 -36.5q30 6 50 32.5t20 54.5q0 30 -22.5 49t-62.5 35q-71 -27 -71 -78z" />
    <glyph glyph-name="dieresis" unicode="&#xa8;" horiz-adv-x="470" 
d="M280 660q0 22 16 38.5t39 16.5t39 -16.5t16 -38.5t-16 -38.5t-39 -16.5t-39 16.5t-16 38.5zM80 660q0 22 16 38.5t39 16.5t39 -16.5t16 -38.5t-16 -38.5t-39 -16.5t-39 16.5t-16 38.5z" />
    <glyph glyph-name="copyright" unicode="&#xa9;" horiz-adv-x="800" 
d="M40 350q0 156 103 258t257 102t257 -102t103 -258t-103 -258t-257 -102t-257 102t-103 258zM95 350q0 -133 87.5 -221.5t217.5 -88.5t217.5 88.5t87.5 221.5t-87.5 221.5t-217.5 88.5t-217.5 -88.5t-87.5 -221.5zM239 350q0 -73 44.5 -119t111.5 -46q86 0 135 62v-67
q-52 -46 -135 -46q-88 0 -149 61.5t-61 154.5t61 154.5t149 61.5q83 0 135 -46v-67q-49 62 -135 62q-67 0 -111.5 -46t-44.5 -119z" />
    <glyph glyph-name="ordfeminine" unicode="&#xaa;" horiz-adv-x="238" 
d="M61 646l-19 31q40 28 88 28q40 0 64 -18.5t24 -51.5v-175h-40v33q-22 -38 -78 -38q-33 0 -56.5 21t-23.5 56t29.5 58t68.5 23q35 0 60 -17v39q0 16 -14 25.5t-34 9.5q-36 0 -69 -24zM61 532q0 -41 49 -41q29 0 48.5 14.5t19.5 44.5v19q-26 14 -58 14q-26 0 -42.5 -14.5
t-16.5 -36.5z" />
    <glyph glyph-name="guillemotleft" unicode="&#xab;" horiz-adv-x="510" 
d="M290 259l150 -194l-50 -45l-190 235l190 235l50 -45zM130 259l150 -194l-50 -45l-190 235l190 235l50 -45z" />
    <glyph glyph-name="logicalnot" unicode="&#xac;" horiz-adv-x="620" 
d="M65 300v75h490v-200h-75v125h-415z" />
    <glyph glyph-name="uni00AD" unicode="&#xad;" horiz-adv-x="210" 
d="M5 200v75h200v-75h-200z" />
    <glyph glyph-name="registered" unicode="&#xae;" horiz-adv-x="800" 
d="M40 350q0 156 103 258t257 102t257 -102t103 -258t-103 -258t-257 -102t-257 102t-103 258zM95 350q0 -133 87.5 -221.5t217.5 -88.5t217.5 88.5t87.5 221.5t-87.5 221.5t-217.5 88.5t-217.5 -88.5t-87.5 -221.5zM274 570h114q62 0 102.5 -34.5t40.5 -91.5
q0 -46 -27.5 -78t-72.5 -43l125 -173h-63l-117 168h-51v-168h-51v420zM388 525h-63v-162h63q41 0 66.5 21.5t25.5 59.5t-25.5 59.5t-66.5 21.5z" />
    <glyph glyph-name="macron" unicode="&#xaf;" horiz-adv-x="510" 
d="M80 600v75h350v-75h-350z" />
    <glyph glyph-name="degree" unicode="&#xb0;" horiz-adv-x="278" 
d="M20 600q0 52 34 86t85 34t85 -34t34 -86t-34 -86t-85 -34t-85 34t-34 86zM60 600q0 -36 22.5 -59t56.5 -23t56.5 23t22.5 59t-22.5 59t-56.5 23t-56.5 -23t-22.5 -59z" />
    <glyph glyph-name="plusminus" unicode="&#xb1;" horiz-adv-x="615" 
d="M65 345v80h200v195h85v-195h200v-80h-200v-195h-85v195h-200zM65 0v80h485v-80h-485z" />
    <glyph glyph-name="uni00B2" unicode="&#xb2;" horiz-adv-x="346" 
d="M25 282l198 212q44 46 44 92q0 30 -20 52.5t-56 22.5q-41 0 -66 -28t-25 -75h-51q0 67 38.5 109t103.5 42q63 0 95.5 -39t32.5 -88q0 -58 -56 -116l-133 -136h191v-48h-296z" />
    <glyph glyph-name="uni00B3" unicode="&#xb3;" horiz-adv-x="312" 
d="M159 274q-60 0 -97 33.5t-37 83.5h52q0 -30 23 -49.5t59 -19.5t57.5 20.5t21.5 54.5q0 38 -27 58t-70 20v45q39 0 62 21t23 52t-16.5 49t-47.5 18q-30 0 -50 -18t-20 -46h-49q0 49 33.5 79.5t85.5 30.5t84 -33t32 -79q0 -31 -19 -56t-52 -39q83 -25 83 -108
q0 -53 -37 -85t-94 -32z" />
    <glyph glyph-name="acute" unicode="&#xb4;" horiz-adv-x="375" 
d="M300 660l-180 -150l-45 30l150 160z" />
    <glyph glyph-name="mu" unicode="&#xb5;" horiz-adv-x="525" 
d="M155 460v-280q0 -115 98 -115q52 0 84.5 32.5t32.5 82.5v280h80v-460h-80v62q-51 -72 -137 -72q-45 0 -78 18v-328h-80v780h80z" />
    <glyph glyph-name="paragraph" unicode="&#xb6;" horiz-adv-x="578" 
d="M288 270q-98 0 -163 57t-65 158t65 158t163 57h230v-920h-70v855h-90v-855h-70v490z" />
    <glyph glyph-name="periodcentered" unicode="&#xb7;" horiz-adv-x="300" 
d="M95 240q0 22 16.5 38.5t38.5 16.5t38.5 -16.5t16.5 -38.5t-16.5 -38.5t-38.5 -16.5t-38.5 16.5t-16.5 38.5z" />
    <glyph glyph-name="cedilla" unicode="&#xb8;" horiz-adv-x="350" 
d="M196 60h61l-64 -112h9q28 0 50.5 -20t22.5 -54q0 -44 -31.5 -69t-75.5 -25q-51 0 -89 38l33 40q28 -24 56 -24q50 0 50 40q0 36 -50 36q-30 0 -57 -18z" />
    <glyph glyph-name="uni00B9" unicode="&#xb9;" horiz-adv-x="470" 
d="M152 611v53l144 36v-426h-51v365z" />
    <glyph glyph-name="ordmasculine" unicode="&#xba;" horiz-adv-x="278" 
d="M20 580q0 52 34 86t85 34t85 -34t34 -86t-34 -86t-85 -34t-85 34t-34 86zM60 580q0 -36 22.5 -59t56.5 -23t56.5 23t22.5 59t-22.5 59t-56.5 23t-56.5 -23t-22.5 -59z" />
    <glyph glyph-name="guillemotright" unicode="&#xbb;" horiz-adv-x="510" 
d="M220 251l-150 194l50 45l190 -235l-190 -235l-50 45zM380 251l-150 194l50 45l190 -235l-190 -235l-50 45z" />
    <glyph glyph-name="onequarter" unicode="&#xbc;" horiz-adv-x="754" 
d="M618 700h65l-520 -700h-65zM30 611v53l144 36v-426h-51v365zM601 0v84h-203l233 336h21v-291h66v-45h-66v-84h-51zM601 307l-119 -178h119v178z" />
    <glyph glyph-name="onehalf" unicode="&#xbd;" horiz-adv-x="819" 
d="M618 700h65l-520 -700h-65zM30 611v53l144 36v-426h-51v365zM493 2l198 212q44 46 44 92q0 30 -20 52.5t-56 22.5q-41 0 -66 -28t-25 -75h-51q0 67 38.5 109t103.5 42q63 0 95.5 -39t32.5 -88q0 -58 -56 -116l-133 -136h191v-48h-296z" />
    <glyph glyph-name="threequarters" unicode="&#xbe;" horiz-adv-x="820" 
d="M164 274q-60 0 -97 33.5t-37 83.5h52q0 -30 23 -49.5t59 -19.5t57.5 20.5t21.5 54.5q0 38 -27.5 58t-69.5 20v45q39 0 62 21t23 52t-16.5 49t-47.5 18q-30 0 -50 -18t-20 -46h-49q0 49 33.5 79.5t85.5 30.5t84 -33t32 -79q0 -31 -19 -56t-52 -39q83 -25 83 -108
q0 -53 -37 -85t-94 -32zM685 700h65l-520 -700h-65zM668 0v84h-203l233 336h21v-291h66v-45h-66v-84h-51zM668 307l-119 -178h119v178z" />
    <glyph glyph-name="questiondown" unicode="&#xbf;" horiz-adv-x="557" 
d="M362 660q0 -22 -16 -38.5t-39 -16.5t-39 16.5t-16 38.5t16 38.5t39 16.5t39 -16.5t16 -38.5zM141 200q0 -64 39.5 -99.5t107.5 -35.5q93 0 144 83l65 -41q-38 -59 -87 -88t-132 -29q-93 0 -155.5 60.5t-62.5 149.5q0 84 63.5 144.5t148.5 65.5l7 120h60l20 -175h-26
q-86 0 -139 -47t-53 -108z" />
    <glyph glyph-name="Agrave" unicode="&#xc0;" horiz-adv-x="660" 
d="M200 945l75 40l150 -160l-45 -30zM560 0l-89 210h-282l-89 -210h-95l325 735l325 -735h-95zM330 542l-107 -252h214z" />
    <glyph glyph-name="Aacute" unicode="&#xc1;" horiz-adv-x="660" 
d="M460 945l-180 -150l-45 30l150 160zM560 0l-89 210h-282l-89 -210h-95l325 735l325 -735h-95zM330 542l-107 -252h214z" />
    <glyph glyph-name="Acircumflex" unicode="&#xc2;" horiz-adv-x="660" 
d="M330 850l-110 -95l-50 40l160 140l160 -140l-50 -40zM560 0l-89 210h-282l-89 -210h-95l325 735l325 -735h-95zM330 542l-107 -252h214z" />
    <glyph glyph-name="Atilde" unicode="&#xc3;" horiz-adv-x="660" 
d="M165 812q7 36 38 59t66 23q34 0 66 -23.5t58 -23.5t56 48l46 -43q-13 -30 -42 -51.5t-64 -21.5q-29 0 -64.5 23.5t-56.5 23.5q-27 0 -38.5 -17t-11.5 -34zM560 0l-89 210h-282l-89 -210h-95l325 735l325 -735h-95zM330 542l-107 -252h214z" />
    <glyph glyph-name="Adieresis" unicode="&#xc4;" horiz-adv-x="660" 
d="M375 850q0 22 16.5 38.5t38.5 16.5t38.5 -16.5t16.5 -38.5t-16.5 -38.5t-38.5 -16.5t-38.5 16.5t-16.5 38.5zM175 850q0 22 16.5 38.5t38.5 16.5t38.5 -16.5t16.5 -38.5t-16.5 -38.5t-38.5 -16.5t-38.5 16.5t-16.5 38.5zM560 0l-89 210h-282l-89 -210h-95l325 735
l325 -735h-95zM330 542l-107 -252h214z" />
    <glyph glyph-name="Aring" unicode="&#xc5;" horiz-adv-x="660" 
d="M228 798q0 43 30.5 71.5t71.5 28.5t71.5 -28.5t30.5 -71.5q0 -39 -25 -66.5t-61 -32.5l309 -699h-95l-89 210h-282l-89 -210h-95l309 699q-36 5 -61 32.5t-25 66.5zM279 798q0 -24 15.5 -38.5t35.5 -14.5t35.5 14.5t15.5 38.5t-15.5 38.5t-35.5 14.5t-35.5 -14.5
t-15.5 -38.5zM330 542l-107 -252h214z" />
    <glyph glyph-name="AE" unicode="&#xc6;" horiz-adv-x="960" 
d="M890 80v-80h-400v210h-261l-129 -210h-95l430 700h455v-80h-315v-200h295v-80h-295v-260h315zM278 290h212v347z" />
    <glyph glyph-name="Ccedilla" unicode="&#xc7;" horiz-adv-x="685" 
d="M130 350q0 -119 77 -197t183 -78q143 0 225 104v-112q-44 -39 -94 -57.5t-120 -19.5l-24 -43h9q27 0 49.5 -20t22.5 -54q0 -44 -31 -69t-75 -25q-52 0 -90 38l34 40q28 -24 56 -24q50 0 50 40q0 36 -50 36q-31 0 -58 -18l52 102q-132 16 -219 115t-87 242
q0 155 101.5 257.5t248.5 102.5q138 0 225 -77v-112q-82 104 -225 104q-106 0 -183 -78t-77 -197z" />
    <glyph glyph-name="Egrave" unicode="&#xc8;" horiz-adv-x="550" 
d="M150 920l75 40l150 -160l-45 -30zM80 700h400v-80h-315v-200h295v-80h-295v-260h315v-80h-400v700z" />
    <glyph glyph-name="Eacute" unicode="&#xc9;" horiz-adv-x="550" 
d="M410 920l-180 -150l-45 30l150 160zM80 700h400v-80h-315v-200h295v-80h-295v-260h315v-80h-400v700z" />
    <glyph glyph-name="Ecircumflex" unicode="&#xca;" horiz-adv-x="550" 
d="M290 865l-110 -95l-50 40l160 140l160 -140l-50 -40zM80 700h400v-80h-315v-200h295v-80h-295v-260h315v-80h-400v700z" />
    <glyph glyph-name="Edieresis" unicode="&#xcb;" horiz-adv-x="550" 
d="M335 845q0 23 16.5 39t38.5 16t38.5 -16t16.5 -39t-16.5 -39t-38.5 -16t-38.5 16t-16.5 39zM135 845q0 23 16.5 39t38.5 16t38.5 -16t16.5 -39t-16.5 -39t-38.5 -16t-38.5 16t-16.5 39zM80 700h400v-80h-315v-200h295v-80h-295v-260h315v-80h-400v700z" />
    <glyph glyph-name="Igrave" unicode="&#xcc;" horiz-adv-x="245" 
d="M-8 920l76 40l150 -160l-46 -30zM80 700h85v-700h-85v700z" />
    <glyph glyph-name="Iacute" unicode="&#xcd;" horiz-adv-x="245" 
d="M252 920l-180 -150l-44 30l150 160zM80 700h85v-700h-85v700z" />
    <glyph glyph-name="Icircumflex" unicode="&#xce;" horiz-adv-x="245" 
d="M122 865l-110 -95l-50 40l160 140l160 -140l-50 -40zM80 700h85v-700h-85v700z" />
    <glyph glyph-name="Idieresis" unicode="&#xcf;" horiz-adv-x="245" 
d="M168 825q0 23 16 39t38 16q23 0 39.5 -16.5t16.5 -38.5t-16.5 -38.5t-39.5 -16.5q-22 0 -38 16t-16 39zM-32 825q0 23 16 39t38 16q23 0 39.5 -16.5t16.5 -38.5t-16.5 -38.5t-39.5 -16.5q-22 0 -38 16t-16 39zM80 700h85v-700h-85v700z" />
    <glyph glyph-name="Eth" unicode="&#xd0;" horiz-adv-x="680" 
d="M290 0h-210v310h-75v75h75v315h210q154 0 252 -97t98 -253t-98 -253t-252 -97zM305 310h-140v-225h125q119 0 192 72t73 193t-73 193t-192 72h-125v-230h140v-75z" />
    <glyph glyph-name="Ntilde" unicode="&#xd1;" horiz-adv-x="775" 
d="M215 792q7 36 38 59t66 23q34 0 66 -23.5t58 -23.5t56 48l46 -43q-13 -30 -42 -51.5t-64 -21.5q-29 0 -64.5 23.5t-56.5 23.5q-27 0 -38.5 -17t-11.5 -34zM610 700h85v-735l-530 556v-521h-85v735l530 -556v521z" />
    <glyph glyph-name="Ograve" unicode="&#xd2;" horiz-adv-x="790" 
d="M275 920l75 40l150 -160l-45 -30zM40 350q0 154 101 257t254 103t254 -103t101 -257t-101 -257t-254 -103t-254 103t-101 257zM130 350q0 -119 75 -197t190 -78t190 78t75 197t-75 197t-190 78t-190 -78t-75 -197z" />
    <glyph glyph-name="Oacute" unicode="&#xd3;" horiz-adv-x="790" 
d="M515 920l-180 -150l-45 30l150 160zM40 350q0 154 101 257t254 103t254 -103t101 -257t-101 -257t-254 -103t-254 103t-101 257zM130 350q0 -119 75 -197t190 -78t190 78t75 197t-75 197t-190 78t-190 -78t-75 -197z" />
    <glyph glyph-name="Ocircumflex" unicode="&#xd4;" horiz-adv-x="790" 
d="M395 865l-110 -95l-50 40l160 140l160 -140l-50 -40zM40 350q0 154 101 257t254 103t254 -103t101 -257t-101 -257t-254 -103t-254 103t-101 257zM130 350q0 -119 75 -197t190 -78t190 78t75 197t-75 197t-190 78t-190 -78t-75 -197z" />
    <glyph glyph-name="Otilde" unicode="&#xd5;" horiz-adv-x="790" 
d="M230 807q7 36 38 59t66 23q34 0 66 -23.5t58 -23.5t56 48l46 -43q-13 -30 -42 -51.5t-64 -21.5q-29 0 -64.5 23.5t-56.5 23.5q-27 0 -38.5 -17t-11.5 -34zM40 350q0 154 101 257t254 103t254 -103t101 -257t-101 -257t-254 -103t-254 103t-101 257zM130 350
q0 -119 75 -197t190 -78t190 78t75 197t-75 197t-190 78t-190 -78t-75 -197z" />
    <glyph glyph-name="Odieresis" unicode="&#xd6;" horiz-adv-x="790" 
d="M440 825q0 23 16 39t39 16t39 -16t16 -39t-16 -39t-39 -16t-39 16t-16 39zM240 825q0 23 16 39t39 16t39 -16t16 -39t-16 -39t-39 -16t-39 16t-16 39zM40 350q0 154 101 257t254 103t254 -103t101 -257t-101 -257t-254 -103t-254 103t-101 257zM130 350q0 -119 75 -197
t190 -78t190 78t75 197t-75 197t-190 78t-190 -78t-75 -197z" />
    <glyph glyph-name="multiply" unicode="&#xd7;" horiz-adv-x="596" 
d="M121 22l-56 56l182 177l-182 177l56 56l177 -182l177 182l56 -56l-182 -177l182 -177l-56 -56l-177 182z" />
    <glyph glyph-name="Oslash" unicode="&#xd8;" horiz-adv-x="790" 
d="M40 350q0 154 101 257t254 103q115 0 206 -63l87 103l59 -40l-93 -109q96 -102 96 -251q0 -154 -101 -257t-254 -103q-115 0 -208 64l-89 -104l-58 40l94 111q-94 100 -94 249zM130 350q0 -106 62 -182l352 413q-66 44 -149 44q-115 0 -190 -78t-75 -197zM660 350
q0 108 -63 184l-353 -413q67 -46 151 -46q115 0 190 78t75 197z" />
    <glyph glyph-name="Ugrave" unicode="&#xd9;" horiz-adv-x="626" 
d="M183 920l75 40l150 -160l-45 -30zM75 700h85v-470q0 -74 39.5 -117t113.5 -43t113.5 43t39.5 117v470h85v-470q0 -106 -65.5 -173t-172.5 -67t-172.5 67t-65.5 173v470z" />
    <glyph glyph-name="Uacute" unicode="&#xda;" horiz-adv-x="626" 
d="M443 920l-180 -150l-45 30l150 160zM75 700h85v-470q0 -74 39.5 -117t113.5 -43t113.5 43t39.5 117v470h85v-470q0 -106 -65.5 -173t-172.5 -67t-172.5 67t-65.5 173v470z" />
    <glyph glyph-name="Ucircumflex" unicode="&#xdb;" horiz-adv-x="626" 
d="M313 865l-110 -95l-50 40l160 140l160 -140l-50 -40zM75 700h85v-470q0 -74 39.5 -117t113.5 -43t113.5 43t39.5 117v470h85v-470q0 -106 -65.5 -173t-172.5 -67t-172.5 67t-65.5 173v470z" />
    <glyph glyph-name="Udieresis" unicode="&#xdc;" horiz-adv-x="626" 
d="M358 825q0 23 16 39t39 16t39 -16t16 -39t-16 -39t-39 -16t-39 16t-16 39zM158 825q0 23 16 39t39 16t39 -16t16 -39t-16 -39t-39 -16t-39 16t-16 39zM75 700h85v-470q0 -74 39.5 -117t113.5 -43t113.5 43t39.5 117v470h85v-470q0 -106 -65.5 -173t-172.5 -67t-172.5 67
t-65.5 173v470z" />
    <glyph glyph-name="Yacute" unicode="&#xdd;" horiz-adv-x="561" 
d="M410 920l-180 -150l-44 30l150 160zM461 700h95l-233 -398v-302h-85v301l-233 399h95l180 -324z" />
    <glyph glyph-name="Thorn" unicode="&#xde;" horiz-adv-x="550" 
d="M80 700h85v-140h105q103 0 170.5 -57.5t67.5 -152.5t-67.5 -152.5t-170.5 -57.5h-105v-140h-85v700zM270 480h-105v-260h105q70 0 111.5 33.5t41.5 96.5t-41.5 96.5t-111.5 33.5z" />
    <glyph glyph-name="germandbls" unicode="&#xdf;" horiz-adv-x="565" 
d="M342 -12q-86 0 -147 68l49 60q50 -52 104 -52q44 0 74 31.5t30 75.5q0 31 -17.5 55.5t-42.5 42t-50 34.5t-42.5 42.5t-17.5 56.5t18 61.5t39 51.5t39 53t18 67q0 45 -31.5 65.5t-81.5 20.5q-60 0 -95.5 -32.5t-35.5 -100.5l1 -590h-81v610q0 82 61.5 134t162.5 52
q85 0 134.5 -37.5t49.5 -114.5q0 -38 -11.5 -68.5t-27.5 -51t-32 -38.5t-27.5 -38.5t-11.5 -43.5t26 -44t57 -38t57 -53t26 -85q0 -81 -56 -137.5t-138 -56.5z" />
    <glyph glyph-name="agrave" unicode="&#xe0;" horiz-adv-x="485" 
d="M88 680l75 40l150 -160l-45 -30zM111 352l-39 61q78 57 176 57q80 0 128.5 -37t48.5 -103v-330h-80v66q-21 -36 -62.5 -56t-94.5 -20q-72 0 -115 36.5t-43 98.5q0 77 54.5 119t141.5 42q69 0 119 -33v77q0 33 -28.5 51.5t-68.5 18.5q-71 0 -137 -48zM111 135
q0 -74 97 -74q137 0 137 119v18q-52 27 -115 27q-119 0 -119 -90z" />
    <glyph glyph-name="aacute" unicode="&#xe1;" horiz-adv-x="485" 
d="M408 680l-180 -150l-45 30l150 160zM111 352l-39 61q78 57 176 57q80 0 128.5 -37t48.5 -103v-330h-80v66q-21 -36 -62.5 -56t-94.5 -20q-72 0 -115 36.5t-43 98.5q0 77 54.5 119t141.5 42q69 0 119 -33v77q0 33 -28.5 51.5t-68.5 18.5q-71 0 -137 -48zM111 135
q0 -74 97 -74q137 0 137 119v18q-52 27 -115 27q-119 0 -119 -90z" />
    <glyph glyph-name="acircumflex" unicode="&#xe2;" horiz-adv-x="485" 
d="M248 625l-110 -95l-50 40l160 140l160 -140l-50 -40zM111 352l-39 61q78 57 176 57q80 0 128.5 -37t48.5 -103v-330h-80v66q-21 -36 -62.5 -56t-94.5 -20q-72 0 -115 36.5t-43 98.5q0 77 54.5 119t141.5 42q69 0 119 -33v77q0 33 -28.5 51.5t-68.5 18.5q-71 0 -137 -48z
M111 135q0 -74 97 -74q137 0 137 119v18q-52 27 -115 27q-119 0 -119 -90z" />
    <glyph glyph-name="atilde" unicode="&#xe3;" horiz-adv-x="485" 
d="M83 567q7 36 38 59t66 23q34 0 66 -23.5t58 -23.5t56 48l46 -43q-13 -30 -42 -51.5t-64 -21.5q-29 0 -64.5 23.5t-56.5 23.5q-27 0 -38.5 -17t-11.5 -34zM111 352l-39 61q78 57 176 57q80 0 128.5 -37t48.5 -103v-330h-80v66q-21 -36 -62.5 -56t-94.5 -20
q-72 0 -115 36.5t-43 98.5q0 77 54.5 119t141.5 42q69 0 119 -33v77q0 33 -28.5 51.5t-68.5 18.5q-71 0 -137 -48zM111 135q0 -74 97 -74q137 0 137 119v18q-52 27 -115 27q-119 0 -119 -90z" />
    <glyph glyph-name="adieresis" unicode="&#xe4;" horiz-adv-x="485" 
d="M293 585q0 23 16.5 39t38.5 16t38.5 -16t16.5 -39t-16.5 -39t-38.5 -16t-38.5 16t-16.5 39zM93 585q0 23 16.5 39t38.5 16t38.5 -16t16.5 -39t-16.5 -39t-38.5 -16t-38.5 16t-16.5 39zM111 352l-39 61q78 57 176 57q80 0 128.5 -37t48.5 -103v-330h-80v66
q-21 -36 -62.5 -56t-94.5 -20q-72 0 -115 36.5t-43 98.5q0 77 54.5 119t141.5 42q69 0 119 -33v77q0 33 -28.5 51.5t-68.5 18.5q-71 0 -137 -48zM111 135q0 -74 97 -74q137 0 137 119v18q-52 27 -115 27q-119 0 -119 -90z" />
    <glyph glyph-name="aring" unicode="&#xe5;" horiz-adv-x="485" 
d="M146 630q0 43 30.5 71.5t71.5 28.5t71.5 -28.5t30.5 -71.5t-30.5 -71.5t-71.5 -28.5t-71.5 28.5t-30.5 71.5zM197 630q0 -24 15.5 -38.5t35.5 -14.5t35.5 14.5t15.5 38.5t-15.5 38.5t-35.5 14.5t-35.5 -14.5t-15.5 -38.5zM111 352l-39 61q78 57 176 57q80 0 128.5 -37
t48.5 -103v-330h-80v66q-21 -36 -62.5 -56t-94.5 -20q-72 0 -115 36.5t-43 98.5q0 77 54.5 119t141.5 42q69 0 119 -33v77q0 33 -28.5 51.5t-68.5 18.5q-71 0 -137 -48zM111 135q0 -74 97 -74q137 0 137 119v18q-52 27 -115 27q-119 0 -119 -90z" />
    <glyph glyph-name="ae" unicode="&#xe6;" horiz-adv-x="825" 
d="M208 -10q-82 0 -130 36.5t-48 98.5q0 72 54.5 116.5t141.5 44.5q60 0 119 -31v45q0 48 -25 74t-72 26q-73 0 -137 -48l-39 61q77 57 176 57q132 0 154 -100q29 47 76 73.5t105 26.5q91 0 149 -66t58 -170q0 -16 -2 -24h-361q5 -68 43.5 -106.5t102.5 -38.5q94 0 144 83
l65 -41q-76 -117 -219 -117q-64 0 -105.5 25t-70.5 81q-13 -49 -61 -77.5t-118 -28.5zM571 400q-57 0 -94 -32.5t-48 -89.5h275q-4 56 -39.5 89t-93.5 33zM208 61q115 0 140 101l-2 36q-54 27 -116 27q-119 0 -119 -90q0 -38 23.5 -56t73.5 -18z" />
    <glyph glyph-name="ccedilla" unicode="&#xe7;" horiz-adv-x="478" 
d="M111 230q0 -72 44.5 -118.5t112.5 -46.5q54 0 99 24.5t61 59.5v-100q-45 -54 -149 -59l-24 -43h9q27 0 49.5 -20t22.5 -54q0 -44 -31 -69t-75 -25q-52 0 -90 38l34 40q28 -24 56 -24q50 0 50 40q0 36 -50 36q-31 0 -58 -18l53 103q-86 14 -140.5 79t-54.5 157
q0 104 68 172t170 68q48 0 92 -16t68 -43v-100q-16 35 -61 59.5t-99 24.5q-68 0 -112.5 -46.5t-44.5 -118.5z" />
    <glyph glyph-name="egrave" unicode="&#xe8;" horiz-adv-x="515" 
d="M123 690l75 40l150 -160l-45 -30zM472 107q-38 -59 -87 -88t-132 -29q-94 0 -156 68t-62 172q0 28 4 49q14 86 75 138.5t149 52.5q98 0 157.5 -64t59.5 -172q0 -16 -1 -24h-362q5 -69 44 -107t102 -38q93 0 144 83zM263 400q-57 0 -97 -33t-47 -89h274q-6 56 -39 89
t-91 33z" />
    <glyph glyph-name="eacute" unicode="&#xe9;" horiz-adv-x="515" 
d="M423 690l-180 -150l-45 30l150 160zM472 107q-38 -59 -87 -88t-132 -29q-94 0 -156 68t-62 172q0 28 4 49q14 86 75 138.5t149 52.5q98 0 157.5 -64t59.5 -172q0 -16 -1 -24h-362q5 -69 44 -107t102 -38q93 0 144 83zM263 400q-57 0 -97 -33t-47 -89h274q-6 56 -39 89
t-91 33z" />
    <glyph glyph-name="ecircumflex" unicode="&#xea;" horiz-adv-x="515" 
d="M263 625l-110 -95l-50 40l160 140l160 -140l-50 -40zM472 107q-38 -59 -87 -88t-132 -29q-94 0 -156 68t-62 172q0 28 4 49q14 86 75 138.5t149 52.5q98 0 157.5 -64t59.5 -172q0 -16 -1 -24h-362q5 -69 44 -107t102 -38q93 0 144 83zM263 400q-57 0 -97 -33t-47 -89h274
q-6 56 -39 89t-91 33z" />
    <glyph glyph-name="edieresis" unicode="&#xeb;" horiz-adv-x="515" 
d="M308 585q0 23 16 39t39 16t39 -16t16 -39t-16 -39t-39 -16t-39 16t-16 39zM108 585q0 23 16 39t39 16t39 -16t16 -39t-16 -39t-39 -16t-39 16t-16 39zM472 107q-38 -59 -87 -88t-132 -29q-94 0 -156 68t-62 172q0 28 4 49q14 86 75 138.5t149 52.5q98 0 157.5 -64
t59.5 -172q0 -16 -1 -24h-362q5 -69 44 -107t102 -38q93 0 144 83zM263 400q-57 0 -97 -33t-47 -89h274q-6 56 -39 89t-91 33z" />
    <glyph glyph-name="igrave" unicode="&#xec;" horiz-adv-x="260" 
d="M-30 700l75 40l150 -160l-45 -30zM90 460h80v-460h-80v460z" />
    <glyph glyph-name="iacute" unicode="&#xed;" horiz-adv-x="260" 
d="M290 700l-180 -150l-45 30l150 160zM90 460h80v-460h-80v460z" />
    <glyph glyph-name="icircumflex" unicode="&#xee;" horiz-adv-x="260" 
d="M130 635l-110 -95l-50 40l160 140l160 -140l-50 -40zM90 460h80v-460h-80v460z" />
    <glyph glyph-name="idieresis" unicode="&#xef;" horiz-adv-x="260" 
d="M175 615q0 23 16.5 39t38.5 16t38.5 -16t16.5 -39t-16.5 -39t-38.5 -16t-38.5 16t-16.5 39zM-25 615q0 23 16.5 39t38.5 16t38.5 -16t16.5 -39t-16.5 -39t-38.5 -16t-38.5 16t-16.5 39zM90 460h80v-460h-80v460z" />
    <glyph glyph-name="eth" unicode="&#xf0;" horiz-adv-x="576" 
d="M288 -10q-104 0 -171 67.5t-67 172.5q0 98 58.5 162.5t148.5 64.5q59 0 125 -32q-31 57 -86 121l-112 -43l-18 47l93 36q-29 31 -86 83l48 56q70 -70 107 -113l118 45l18 -47l-101 -39q163 -195 163 -341q0 -105 -67 -172.5t-171 -67.5zM288 67q69 0 113 46t44 117
t-44.5 118t-112.5 47t-112.5 -47t-44.5 -118t44 -117t113 -46z" />
    <glyph glyph-name="ntilde" unicode="&#xf1;" horiz-adv-x="525" 
d="M98 567q7 36 38 59t66 23q34 0 66 -23.5t58 -23.5t56 48l46 -43q-13 -30 -42 -51.5t-64 -21.5q-29 0 -64.5 23.5t-56.5 23.5q-27 0 -38.5 -17t-11.5 -34zM370 280q0 115 -98 115q-52 0 -84.5 -32.5t-32.5 -82.5v-280h-80v460h80v-62q52 72 137 72q73 0 115.5 -46.5
t42.5 -133.5v-290h-80v280z" />
    <glyph glyph-name="ograve" unicode="&#xf2;" horiz-adv-x="546" 
d="M113 700l75 40l150 -160l-45 -30zM35 230q0 104 68 172t170 68t170 -68t68 -172t-68 -172t-170 -68t-170 68t-68 172zM116 230q0 -72 44.5 -118.5t112.5 -46.5t112.5 46.5t44.5 118.5t-44.5 118.5t-112.5 46.5t-112.5 -46.5t-44.5 -118.5z" />
    <glyph glyph-name="oacute" unicode="&#xf3;" horiz-adv-x="546" 
d="M433 700l-180 -150l-45 30l150 160zM35 230q0 104 68 172t170 68t170 -68t68 -172t-68 -172t-170 -68t-170 68t-68 172zM116 230q0 -72 44.5 -118.5t112.5 -46.5t112.5 46.5t44.5 118.5t-44.5 118.5t-112.5 46.5t-112.5 -46.5t-44.5 -118.5z" />
    <glyph glyph-name="ocircumflex" unicode="&#xf4;" horiz-adv-x="546" 
d="M273 645l-110 -95l-50 40l160 140l160 -140l-50 -40zM35 230q0 104 68 172t170 68t170 -68t68 -172t-68 -172t-170 -68t-170 68t-68 172zM116 230q0 -72 44.5 -118.5t112.5 -46.5t112.5 46.5t44.5 118.5t-44.5 118.5t-112.5 46.5t-112.5 -46.5t-44.5 -118.5z" />
    <glyph glyph-name="otilde" unicode="&#xf5;" horiz-adv-x="546" 
d="M108 567q7 36 38 59t66 23q34 0 66 -23.5t58 -23.5t56 48l46 -43q-13 -30 -42 -51.5t-64 -21.5q-29 0 -64.5 23.5t-56.5 23.5q-27 0 -38.5 -17t-11.5 -34zM35 230q0 104 68 172t170 68t170 -68t68 -172t-68 -172t-170 -68t-170 68t-68 172zM116 230q0 -72 44.5 -118.5
t112.5 -46.5t112.5 46.5t44.5 118.5t-44.5 118.5t-112.5 46.5t-112.5 -46.5t-44.5 -118.5z" />
    <glyph glyph-name="odieresis" unicode="&#xf6;" horiz-adv-x="546" 
d="M318 615q0 23 16 39t39 16t39 -16t16 -39t-16 -39t-39 -16t-39 16t-16 39zM118 615q0 23 16 39t39 16t39 -16t16 -39t-16 -39t-39 -16t-39 16t-16 39zM35 230q0 104 68 172t170 68t170 -68t68 -172t-68 -172t-170 -68t-170 68t-68 172zM116 230q0 -72 44.5 -118.5
t112.5 -46.5t112.5 46.5t44.5 118.5t-44.5 118.5t-112.5 46.5t-112.5 -46.5t-44.5 -118.5z" />
    <glyph glyph-name="divide" unicode="&#xf7;" horiz-adv-x="623" 
d="M255 450q0 22 16.5 38.5t38.5 16.5t38.5 -16.5t16.5 -38.5t-16.5 -38.5t-38.5 -16.5t-38.5 16.5t-16.5 38.5zM60 225v80h500v-80h-500zM255 70q0 22 16.5 38.5t38.5 16.5t38.5 -16.5t16.5 -38.5t-16.5 -38.5t-38.5 -16.5t-38.5 16.5t-16.5 38.5z" />
    <glyph glyph-name="oslash" unicode="&#xf8;" horiz-adv-x="546" 
d="M35 230q0 104 68 172t170 68q67 0 121 -31l46 61l45 -20l-52 -69q78 -68 78 -181q0 -104 -68 -172t-170 -68q-71 0 -127 34l-51 -68l-45 20l58 78q-73 68 -73 176zM116 230q0 -66 39 -112l193 259q-36 18 -75 18q-68 0 -112.5 -46.5t-44.5 -118.5zM430 230q0 71 -44 117
l-194 -260q36 -22 81 -22q68 0 112.5 46.5t44.5 118.5z" />
    <glyph glyph-name="ugrave" unicode="&#xf9;" horiz-adv-x="525" 
d="M142 700l76 40l150 -160l-46 -30zM155 180q0 -115 98 -115q52 0 84.5 32.5t32.5 82.5v280h80v-460h-80v62q-52 -72 -137 -72q-73 0 -115.5 46.5t-42.5 133.5v290h80v-280z" />
    <glyph glyph-name="uacute" unicode="&#xfa;" horiz-adv-x="525" 
d="M382 700l-180 -150l-44 30l150 160zM155 180q0 -115 98 -115q52 0 84.5 32.5t32.5 82.5v280h80v-460h-80v62q-52 -72 -137 -72q-73 0 -115.5 46.5t-42.5 133.5v290h80v-280z" />
    <glyph glyph-name="ucircumflex" unicode="&#xfb;" horiz-adv-x="525" 
d="M262 645l-110 -95l-50 40l160 140l160 -140l-50 -40zM155 180q0 -115 98 -115q52 0 84.5 32.5t32.5 82.5v280h80v-460h-80v62q-52 -72 -137 -72q-73 0 -115.5 46.5t-42.5 133.5v290h80v-280z" />
    <glyph glyph-name="udieresis" unicode="&#xfc;" horiz-adv-x="525" 
d="M308 605q0 23 16 39t38 16q23 0 39.5 -16.5t16.5 -38.5t-16.5 -38.5t-39.5 -16.5q-22 0 -38 16t-16 39zM108 605q0 23 16 39t38 16q23 0 39.5 -16.5t16.5 -38.5t-16.5 -38.5t-39.5 -16.5q-22 0 -38 16t-16 39zM155 180q0 -115 98 -115q52 0 84.5 32.5t32.5 82.5v280h80
v-460h-80v62q-52 -72 -137 -72q-73 0 -115.5 46.5t-42.5 133.5v290h80v-280z" />
    <glyph glyph-name="yacute" unicode="&#xfd;" horiz-adv-x="440" 
d="M350 700l-180 -150l-45 30l150 160zM440 460l-300 -680h-90l126 285l-176 395h95l129 -317l126 317h90z" />
    <glyph glyph-name="thorn" unicode="&#xfe;" 
d="M150 -220h-80v1000h80v-399q53 89 157 89q97 0 162.5 -65.5t65.5 -174.5t-65.5 -174.5t-162.5 -65.5q-104 0 -157 89v-299zM454 230q0 77 -45 121t-112 44q-57 0 -102 -45t-45 -120t45 -120t102 -45q67 0 112 44t45 121z" />
    <glyph glyph-name="ydieresis" unicode="&#xff;" horiz-adv-x="440" 
d="M265 585q0 23 16.5 39t38.5 16t38.5 -16t16.5 -39t-16.5 -39t-38.5 -16t-38.5 16t-16.5 39zM65 585q0 23 16.5 39t38.5 16t38.5 -16t16.5 -39t-16.5 -39t-38.5 -16t-38.5 16t-16.5 39zM440 460l-300 -680h-90l126 285l-176 395h95l129 -317l126 317h90z" />
    <glyph glyph-name="Amacron" unicode="&#x100;" horiz-adv-x="660" 
d="M155 795v75h350v-75h-350zM560 0l-89 210h-282l-89 -210h-95l325 735l325 -735h-95zM330 542l-107 -252h214z" />
    <glyph glyph-name="amacron" unicode="&#x101;" horiz-adv-x="485" 
d="M73 550v75h350v-75h-350zM111 352l-39 61q78 57 176 57q80 0 128.5 -37t48.5 -103v-330h-80v66q-21 -36 -62.5 -56t-94.5 -20q-72 0 -115 36.5t-43 98.5q0 77 54.5 119t141.5 42q69 0 119 -33v77q0 33 -28.5 51.5t-68.5 18.5q-71 0 -137 -48zM111 135q0 -74 97 -74
q137 0 137 119v18q-52 27 -115 27q-119 0 -119 -90z" />
    <glyph glyph-name="Abreve" unicode="&#x102;" horiz-adv-x="660" 
d="M172 935h71q0 -27 20.5 -51t66.5 -24t66.5 24t20.5 51h71q0 -56 -42 -98t-116 -42t-116 42t-42 98zM560 0l-89 210h-282l-89 -210h-95l325 735l325 -735h-95zM330 542l-107 -252h214z" />
    <glyph glyph-name="abreve" unicode="&#x103;" horiz-adv-x="485" 
d="M90 670h71q0 -27 20.5 -51t66.5 -24t66.5 24t20.5 51h71q0 -56 -42 -98t-116 -42t-116 42t-42 98zM111 352l-39 61q78 57 176 57q80 0 128.5 -37t48.5 -103v-330h-80v66q-21 -36 -62.5 -56t-94.5 -20q-72 0 -115 36.5t-43 98.5q0 77 54.5 119t141.5 42q69 0 119 -33v77
q0 33 -28.5 51.5t-68.5 18.5q-71 0 -137 -48zM111 135q0 -74 97 -74q137 0 137 119v18q-52 27 -115 27q-119 0 -119 -90z" />
    <glyph glyph-name="Aogonek" unicode="&#x104;" horiz-adv-x="660" 
d="M660 -130l33 -50q-30 -40 -88 -40q-61 0 -92 27t-31 73q0 62 89 120h-11l-89 210h-282l-89 -210h-95l325 735l325 -735q-40 -17 -66.5 -45t-26.5 -55q0 -50 48 -50q28 0 50 20zM330 542l-107 -252h214z" />
    <glyph glyph-name="aogonek" unicode="&#x105;" horiz-adv-x="485" 
d="M111 352l-39 61q78 57 176 57q80 0 128.5 -37t48.5 -103v-330q-40 -17 -66.5 -45t-26.5 -55q0 -50 48 -50q28 0 50 20l33 -50q-30 -40 -88 -40q-61 0 -92 27t-31 73q0 62 93 123v63q-21 -36 -62.5 -56t-94.5 -20q-69 0 -113.5 37t-44.5 105q0 72 52.5 113t143.5 41
q69 0 119 -33v77q0 33 -28.5 51.5t-68.5 18.5q-71 0 -137 -48zM111 135q0 -35 27.5 -54.5t69.5 -19.5q137 0 137 119v18q-52 27 -115 27q-119 0 -119 -90z" />
    <glyph glyph-name="Cacute" unicode="&#x106;" horiz-adv-x="685" 
d="M520 920l-180 -150l-45 30l150 160zM130 350q0 -119 77 -197t183 -78q143 0 225 104v-112q-87 -77 -225 -77q-147 0 -248.5 102.5t-101.5 257.5t101.5 257.5t248.5 102.5q138 0 225 -77v-112q-82 104 -225 104q-106 0 -183 -78t-77 -197z" />
    <glyph glyph-name="cacute" unicode="&#x107;" horiz-adv-x="478" 
d="M398 680l-180 -150l-45 30l150 160zM111 230q0 -72 44.5 -118.5t112.5 -46.5q54 0 99 24.5t61 59.5v-100q-23 -28 -67 -43.5t-93 -15.5q-102 0 -170 68t-68 172t68 172t170 68q48 0 92 -16t68 -43v-100q-16 35 -61 59.5t-99 24.5q-68 0 -112.5 -46.5t-44.5 -118.5z" />
    <glyph glyph-name="Ccircumflex" unicode="&#x108;" horiz-adv-x="685" 
d="M390 865l-110 -95l-50 40l160 140l160 -140l-50 -40zM130 350q0 -119 77 -197t183 -78q143 0 225 104v-112q-87 -77 -225 -77q-147 0 -248.5 102.5t-101.5 257.5t101.5 257.5t248.5 102.5q138 0 225 -77v-112q-82 104 -225 104q-106 0 -183 -78t-77 -197z" />
    <glyph glyph-name="ccircumflex" unicode="&#x109;" horiz-adv-x="478" 
d="M268 625l-110 -95l-50 40l160 140l160 -140l-50 -40zM111 230q0 -72 44.5 -118.5t112.5 -46.5q54 0 99 24.5t61 59.5v-100q-23 -28 -67 -43.5t-93 -15.5q-102 0 -170 68t-68 172t68 172t170 68q48 0 92 -16t68 -43v-100q-16 35 -61 59.5t-99 24.5q-68 0 -112.5 -46.5
t-44.5 -118.5z" />
    <glyph glyph-name="Cdotaccent" unicode="&#x10a;" horiz-adv-x="685" 
d="M335 825q0 23 16.5 39t38.5 16t38.5 -16t16.5 -39t-16.5 -39t-38.5 -16t-38.5 16t-16.5 39zM130 350q0 -119 77 -197t183 -78q143 0 225 104v-112q-87 -77 -225 -77q-147 0 -248.5 102.5t-101.5 257.5t101.5 257.5t248.5 102.5q138 0 225 -77v-112q-82 104 -225 104
q-106 0 -183 -78t-77 -197z" />
    <glyph glyph-name="cdotaccent" unicode="&#x10b;" horiz-adv-x="478" 
d="M213 585q0 23 16.5 39t38.5 16t38.5 -16t16.5 -39t-16.5 -39t-38.5 -16t-38.5 16t-16.5 39zM111 230q0 -72 44.5 -118.5t112.5 -46.5q54 0 99 24.5t61 59.5v-100q-23 -28 -67 -43.5t-93 -15.5q-102 0 -170 68t-68 172t68 172t170 68q48 0 92 -16t68 -43v-100
q-16 35 -61 59.5t-99 24.5q-68 0 -112.5 -46.5t-44.5 -118.5z" />
    <glyph glyph-name="Ccaron" unicode="&#x10c;" horiz-adv-x="685" 
d="M390 855l110 95l50 -40l-160 -140l-160 140l50 40zM130 350q0 -119 77 -197t183 -78q143 0 225 104v-112q-87 -77 -225 -77q-147 0 -248.5 102.5t-101.5 257.5t101.5 257.5t248.5 102.5q138 0 225 -77v-112q-82 104 -225 104q-106 0 -183 -78t-77 -197z" />
    <glyph glyph-name="ccaron" unicode="&#x10d;" horiz-adv-x="478" 
d="M268 615l110 95l50 -40l-160 -140l-160 140l50 40zM111 230q0 -72 44.5 -118.5t112.5 -46.5q54 0 99 24.5t61 59.5v-100q-23 -28 -67 -43.5t-93 -15.5q-102 0 -170 68t-68 172t68 172t170 68q48 0 92 -16t68 -43v-100q-16 35 -61 59.5t-99 24.5q-68 0 -112.5 -46.5
t-44.5 -118.5z" />
    <glyph glyph-name="Dcaron" unicode="&#x10e;" horiz-adv-x="680" 
d="M330 855l110 95l50 -40l-160 -140l-160 140l50 40zM290 0h-210v700h210q154 0 252 -97t98 -253t-98 -253t-252 -97zM290 615h-125v-530h125q119 0 192 72t73 193t-73 193t-192 72z" />
    <glyph glyph-name="dcaron" unicode="&#x10f;" 
d="M35 230q0 109 65.5 174.5t162.5 65.5q104 0 157 -89v399h80v-780h-80v79q-53 -89 -157 -89q-97 0 -162.5 65.5t-65.5 174.5zM618 780l80 -30l-110 -250l-58 21zM116 230q0 -77 45 -121t112 -44q57 0 102 45t45 120t-45 120t-102 45q-67 0 -112 -44t-45 -121z" />
    <glyph glyph-name="Dcroat" unicode="&#x110;" horiz-adv-x="680" 
d="M290 0h-210v310h-75v75h75v315h210q154 0 252 -97t98 -253t-98 -253t-252 -97zM305 310h-140v-225h125q119 0 192 72t73 193t-73 193t-192 72h-125v-230h140v-75z" />
    <glyph glyph-name="dcroat" unicode="&#x111;" 
d="M35 230q0 109 65.5 174.5t162.5 65.5q104 0 157 -89v209h-125v75h125v115h80v-115h95v-75h-95v-590h-80v79q-53 -89 -157 -89q-97 0 -162.5 65.5t-65.5 174.5zM116 230q0 -77 45 -121t112 -44q57 0 102 45t45 120t-45 120t-102 45q-67 0 -112 -44t-45 -121z" />
    <glyph glyph-name="Emacron" unicode="&#x112;" horiz-adv-x="550" 
d="M105 770v75h350v-75h-350zM80 700h400v-80h-315v-200h295v-80h-295v-260h315v-80h-400v700z" />
    <glyph glyph-name="emacron" unicode="&#x113;" horiz-adv-x="515" 
d="M88 530v75h350v-75h-350zM472 107q-38 -59 -87 -88t-132 -29q-94 0 -156 68t-62 172q0 28 4 49q14 86 75 138.5t149 52.5q98 0 157.5 -64t59.5 -172q0 -16 -1 -24h-362q5 -69 44 -107t102 -38q93 0 144 83zM263 400q-57 0 -97 -33t-47 -89h274q-6 56 -39 89t-91 33z" />
    <glyph glyph-name="Ebreve" unicode="&#x114;" horiz-adv-x="550" 
d="M122 910h71q0 -27 20.5 -51t66.5 -24t66.5 24t20.5 51h71q0 -56 -42 -98t-116 -42t-116 42t-42 98zM80 700h400v-80h-315v-200h295v-80h-295v-260h315v-80h-400v700z" />
    <glyph glyph-name="ebreve" unicode="&#x115;" horiz-adv-x="515" 
d="M105 670h71q0 -27 20.5 -51t66.5 -24t66.5 24t20.5 51h71q0 -56 -42 -98t-116 -42t-116 42t-42 98zM472 107q-38 -59 -87 -88t-132 -29q-94 0 -156 68t-62 172q0 28 4 49q14 86 75 138.5t149 52.5q98 0 157.5 -64t59.5 -172q0 -16 -1 -24h-362q5 -69 44 -107t102 -38
q93 0 144 83zM263 400q-57 0 -97 -33t-47 -89h274q-6 56 -39 89t-91 33z" />
    <glyph glyph-name="Edotaccent" unicode="&#x116;" horiz-adv-x="550" 
d="M225 825q0 23 16.5 39t38.5 16t38.5 -16t16.5 -39t-16.5 -39t-38.5 -16t-38.5 16t-16.5 39zM80 700h400v-80h-315v-200h295v-80h-295v-260h315v-80h-400v700z" />
    <glyph glyph-name="edotaccent" unicode="&#x117;" horiz-adv-x="515" 
d="M208 585q0 23 16 39t39 16t39 -16t16 -39t-16 -39t-39 -16t-39 16t-16 39zM472 107q-38 -59 -87 -88t-132 -29q-94 0 -156 68t-62 172q0 28 4 49q14 86 75 138.5t149 52.5q98 0 157.5 -64t59.5 -172q0 -16 -1 -24h-362q5 -69 44 -107t102 -38q93 0 144 83zM263 400
q-57 0 -97 -33t-47 -89h274q-6 56 -39 89t-91 33z" />
    <glyph glyph-name="Eogonek" unicode="&#x118;" horiz-adv-x="550" 
d="M365 -130l33 -50q-30 -40 -88 -40q-61 0 -92 27t-31 73q0 62 89 120h-196v700h400v-80h-315v-200h295v-80h-295v-260h315v-80h-120q-40 -17 -66.5 -45t-26.5 -55q0 -50 48 -50q28 0 50 20z" />
    <glyph glyph-name="eogonek" unicode="&#x119;" horiz-adv-x="515" 
d="M299 -131l33 -50q-30 -40 -88 -40q-61 0 -92 27t-31 73q0 59 83 116q-75 17 -122 81.5t-47 153.5q0 28 4 49q14 86 75 138.5t149 52.5q98 0 157.5 -64t59.5 -172q0 -16 -1 -24h-362q5 -69 44 -107t102 -38q93 0 144 83l65 -41q-36 -54 -80 -83t-116 -33q-33 -18 -54 -43
t-21 -49q0 -50 48 -50q28 0 50 20zM263 400q-57 0 -97 -33t-47 -89h274q-6 56 -39 89t-91 33z" />
    <glyph glyph-name="Ecaron" unicode="&#x11a;" horiz-adv-x="550" 
d="M280 855l110 95l50 -40l-160 -140l-160 140l50 40zM80 700h400v-80h-315v-200h295v-80h-295v-260h315v-80h-400v700z" />
    <glyph glyph-name="ecaron" unicode="&#x11b;" horiz-adv-x="515" 
d="M263 615l110 95l50 -40l-160 -140l-160 140l50 40zM472 107q-38 -59 -87 -88t-132 -29q-94 0 -156 68t-62 172q0 28 4 49q14 86 75 138.5t149 52.5q98 0 157.5 -64t59.5 -172q0 -16 -1 -24h-362q5 -69 44 -107t102 -38q93 0 144 83zM263 400q-57 0 -97 -33t-47 -89h274
q-6 56 -39 89t-91 33z" />
    <glyph glyph-name="Gcircumflex" unicode="&#x11c;" horiz-adv-x="775" 
d="M395 865l-110 -95l-50 40l160 140l160 -140l-50 -40zM405 275v80h325q0 -153 -90.5 -259t-244.5 -106q-153 0 -254 102t-101 258t101 258t254 102q199 0 291 -149l-60 -55q-71 119 -231 119q-113 0 -189 -77t-76 -198t76 -198t189 -77q99 0 162 56.5t81 143.5h-233z" />
    <glyph glyph-name="gcircumflex" unicode="&#x11d;" 
d="M263 625l-110 -95l-50 40l160 140l160 -140l-50 -40zM44 -30h81q0 -51 41 -88t106 -37q59 0 103.5 42t44.5 123v69q-53 -89 -157 -89q-97 0 -162.5 65.5t-65.5 174.5t65.5 174.5t162.5 65.5q104 0 157 -89v79h80v-450q0 -113 -67.5 -176.5t-160.5 -63.5
q-101 0 -164.5 55.5t-63.5 144.5zM116 230q0 -77 45 -121t112 -44q57 0 102 45t45 120t-45 120t-102 45q-67 0 -112 -44t-45 -121z" />
    <glyph glyph-name="Gbreve" unicode="&#x11e;" horiz-adv-x="775" 
d="M237 910h71q0 -27 20.5 -51t66.5 -24t66.5 24t20.5 51h71q0 -56 -42 -98t-116 -42t-116 42t-42 98zM405 275v80h325q0 -153 -90.5 -259t-244.5 -106q-153 0 -254 102t-101 258t101 258t254 102q199 0 291 -149l-60 -55q-71 119 -231 119q-113 0 -189 -77t-76 -198
t76 -198t189 -77q99 0 162 56.5t81 143.5h-233z" />
    <glyph glyph-name="gbreve" unicode="&#x11f;" 
d="M105 670h71q0 -27 20.5 -51t66.5 -24t66.5 24t20.5 51h71q0 -56 -42 -98t-116 -42t-116 42t-42 98zM44 -30h81q0 -51 41 -88t106 -37q59 0 103.5 42t44.5 123v69q-53 -89 -157 -89q-97 0 -162.5 65.5t-65.5 174.5t65.5 174.5t162.5 65.5q104 0 157 -89v79h80v-450
q0 -113 -67.5 -176.5t-160.5 -63.5q-101 0 -164.5 55.5t-63.5 144.5zM116 230q0 -77 45 -121t112 -44q57 0 102 45t45 120t-45 120t-102 45q-67 0 -112 -44t-45 -121z" />
    <glyph glyph-name="Gdotaccent" unicode="&#x120;" horiz-adv-x="775" 
d="M340 825q0 23 16 39t39 16t39 -16t16 -39t-16 -39t-39 -16t-39 16t-16 39zM405 275v80h325q0 -153 -90.5 -259t-244.5 -106q-153 0 -254 102t-101 258t101 258t254 102q199 0 291 -149l-60 -55q-71 119 -231 119q-113 0 -189 -77t-76 -198t76 -198t189 -77q99 0 162 56.5
t81 143.5h-233z" />
    <glyph glyph-name="gdotaccent" unicode="&#x121;" 
d="M228 625q0 23 16 39t39 16t39 -16t16 -39t-16 -39t-39 -16t-39 16t-16 39zM44 -30h81q0 -51 41 -88t106 -37q59 0 103.5 42t44.5 123v69q-53 -89 -157 -89q-97 0 -162.5 65.5t-65.5 174.5t65.5 174.5t162.5 65.5q104 0 157 -89v79h80v-450q0 -113 -67.5 -176.5
t-160.5 -63.5q-101 0 -164.5 55.5t-63.5 144.5zM116 230q0 -77 45 -121t112 -44q57 0 102 45t45 120t-45 120t-102 45q-67 0 -112 -44t-45 -121z" />
    <glyph glyph-name="uni0122" unicode="&#x122;" horiz-adv-x="775" 
d="M405 275v80h325q0 -153 -90.5 -259t-244.5 -106q-153 0 -254 102t-101 258t101 258t254 102q199 0 291 -149l-60 -55q-71 119 -231 119q-113 0 -189 -77t-76 -198t76 -198t189 -77q99 0 162 56.5t81 143.5h-233zM399 -70l80 -30l-110 -250l-58 21z" />
    <glyph glyph-name="uni0123" unicode="&#x123;" 
d="M282 546l-74 42l147 230l54 -30zM44 -30h81q0 -51 41 -88t106 -37q59 0 103.5 42t44.5 123v69q-53 -89 -157 -89q-97 0 -162.5 65.5t-65.5 174.5t65.5 174.5t162.5 65.5q104 0 157 -89v79h80v-450q0 -113 -67.5 -176.5t-160.5 -63.5q-101 0 -164.5 55.5t-63.5 144.5z
M116 230q0 -77 45 -121t112 -44q57 0 102 45t45 120t-45 120t-102 45q-67 0 -112 -44t-45 -121z" />
    <glyph glyph-name="Hcircumflex" unicode="&#x124;" horiz-adv-x="715" 
d="M358 865l-110 -95l-50 40l160 140l160 -140l-50 -40zM80 700h85v-280h385v280h85v-700h-85v340h-385v-340h-85v700z" />
    <glyph glyph-name="hcircumflex" unicode="&#x125;" horiz-adv-x="525" 
d="M122 935l-110 -95l-50 40l160 140l160 -140l-50 -40zM370 280q0 115 -98 115q-52 0 -84.5 -32.5t-32.5 -82.5v-280h-80v780h80v-382q52 72 137 72q73 0 115.5 -46.5t42.5 -133.5v-290h-80v280z" />
    <glyph glyph-name="Hbar" unicode="&#x126;" horiz-adv-x="715" 
d="M5 540v75h75v85h85v-85h385v85h85v-85h75v-75h-75v-540h-85v340h-385v-340h-85v540h-75zM165 420h385v120h-385v-120z" />
    <glyph glyph-name="hbar" unicode="&#x127;" horiz-adv-x="525" 
d="M370 280q0 115 -98 115q-52 0 -84.5 -32.5t-32.5 -82.5v-280h-80v625h-70v75h70v80h80v-80h162v-75h-162v-238q46 83 137 83q73 0 115.5 -46.5t42.5 -133.5v-290h-80v280z" />
    <glyph glyph-name="Itilde" unicode="&#x128;" horiz-adv-x="245" 
d="M-42 807q7 36 38 59t66 23q34 0 66 -23.5t58 -23.5t56 48l46 -43q-13 -30 -42 -51.5t-64 -21.5q-29 0 -64.5 23.5t-56.5 23.5q-27 0 -38.5 -17t-11.5 -34zM80 700h85v-700h-85v700z" />
    <glyph glyph-name="itilde" unicode="&#x129;" horiz-adv-x="260" 
d="M-35 567q7 36 38 59t66 23q34 0 66 -23.5t58 -23.5t56 48l46 -43q-13 -30 -42 -51.5t-64 -21.5q-29 0 -64.5 23.5t-56.5 23.5q-27 0 -38.5 -17t-11.5 -34zM90 460h80v-460h-80v460z" />
    <glyph glyph-name="Imacron" unicode="&#x12a;" horiz-adv-x="245" 
d="M-52 770v75h350v-75h-350zM80 700h85v-700h-85v700z" />
    <glyph glyph-name="imacron" unicode="&#x12b;" horiz-adv-x="260" 
d="M-45 530v75h350v-75h-350zM90 460h80v-460h-80v460z" />
    <glyph glyph-name="Ibreve" unicode="&#x12c;" horiz-adv-x="245" 
d="M-35 910h71q0 -27 20.5 -51t66.5 -24t66.5 24t20.5 51h71q0 -56 -42 -98t-116 -42t-116 42t-42 98zM80 700h85v-700h-85v700z" />
    <glyph glyph-name="ibreve" unicode="&#x12d;" horiz-adv-x="260" 
d="M-28 670h71q0 -27 20.5 -51t66.5 -24t66.5 24t20.5 51h71q0 -56 -42 -98t-116 -42t-116 42t-42 98zM90 460h80v-460h-80v460z" />
    <glyph glyph-name="Iogonek" unicode="&#x12e;" horiz-adv-x="245" 
d="M170 -130l33 -50q-30 -40 -88 -40q-61 0 -92 27t-31 73q0 62 89 120h-1v700h85v-700q-40 -17 -66.5 -45t-26.5 -55q0 -50 48 -50q28 0 50 20z" />
    <glyph glyph-name="iogonek" unicode="&#x12f;" horiz-adv-x="260" 
d="M75 650q0 22 16.5 38.5t38.5 16.5t38.5 -16.5t16.5 -38.5t-16.5 -38.5t-38.5 -16.5t-38.5 16.5t-16.5 38.5zM175 -130l33 -50q-30 -40 -88 -40q-61 0 -92 27t-31 73q0 62 93 123v457h80v-460q-40 -17 -66.5 -45t-26.5 -55q0 -50 48 -50q28 0 50 20z" />
    <glyph glyph-name="Idotaccent" unicode="&#x130;" horiz-adv-x="245" 
d="M67 825q0 23 16.5 39t38.5 16t38.5 -16t16.5 -39t-16.5 -39t-38.5 -16t-38.5 16t-16.5 39zM80 700h85v-700h-85v700z" />
    <glyph glyph-name="dotlessi" unicode="&#x131;" horiz-adv-x="260" 
d="M90 460h80v-460h-80v460z" />
    <glyph glyph-name="IJ" unicode="&#x132;" horiz-adv-x="490" 
d="M183 -104q22 -36 79 -36q26 0 47 22.5t21 67.5v750h80v-760q0 -80 -40.5 -120t-112.5 -40q-37 0 -71 16.5t-47 33.5zM80 700h85v-700h-85v700z" />
    <glyph glyph-name="ij" unicode="&#x133;" horiz-adv-x="510" 
d="M325 650q0 22 16.5 38.5t38.5 16.5t38.5 -16.5t16.5 -38.5t-16.5 -38.5t-38.5 -16.5t-38.5 16.5t-16.5 38.5zM75 650q0 22 16.5 38.5t38.5 16.5t38.5 -16.5t16.5 -38.5t-16.5 -38.5t-38.5 -16.5t-38.5 16.5t-16.5 38.5zM243 -114q16 -26 49 -26q48 0 48 90v510h80v-520
q0 -160 -133 -160q-58 0 -88 40zM90 460h80v-460h-80v460z" />
    <glyph glyph-name="Jcircumflex" unicode="&#x134;" horiz-adv-x="240" 
d="M120 865l-110 -95l-50 40l160 140l160 -140l-50 -40zM-67 -104q22 -36 79 -36q26 0 47 22.5t21 67.5v750h80v-760q0 -80 -40.5 -120t-112.5 -40q-37 0 -71 16.5t-47 33.5z" />
    <glyph glyph-name="jcircumflex" unicode="&#x135;" horiz-adv-x="250" 
d="M120 625l-110 -95l-50 40l160 140l160 -140l-50 -40zM-17 -114q16 -26 49 -26q48 0 48 90v510h80v-520q0 -160 -133 -160q-58 0 -88 40z" />
    <glyph glyph-name="uni0136" unicode="&#x136;" horiz-adv-x="565" 
d="M80 700h85v-301l275 301h105l-303 -328l318 -372h-105l-290 340v-340h-85v700zM324 -60l80 -30l-110 -250l-58 21z" />
    <glyph glyph-name="uni0137" unicode="&#x137;" horiz-adv-x="440" 
d="M320 460h100l-200 -190l220 -270h-100l-190 233v-233h-80v780h80v-481zM259 -60l80 -30l-110 -250l-58 21z" />
    <glyph glyph-name="kgreenlandic" unicode="&#x138;" horiz-adv-x="440" 
d="M70 460h80v-161l170 161h100l-200 -190l220 -270h-100l-190 233v-233h-80v460z" />
    <glyph glyph-name="Lacute" unicode="&#x139;" horiz-adv-x="450" 
d="M390 920l-180 -150l-45 30l150 160zM80 700h85v-620h275v-80h-360v700z" />
    <glyph glyph-name="lacute" unicode="&#x13a;" horiz-adv-x="230" 
d="M245 990l-180 -150l-45 30l150 160zM75 780h80v-780h-80v780z" />
    <glyph glyph-name="uni013B" unicode="&#x13b;" horiz-adv-x="450" 
d="M80 700h85v-620h275v-80h-360v700zM264 -60l80 -30l-110 -250l-58 21z" />
    <glyph glyph-name="uni013C" unicode="&#x13c;" horiz-adv-x="230" 
d="M75 780h80v-780h-80v780zM119 -60l80 -30l-110 -250l-58 21z" />
    <glyph glyph-name="Lcaron" unicode="&#x13d;" horiz-adv-x="450" 
d="M328 710l80 -30l-110 -250l-58 21zM80 700h85v-620h275v-80h-360v700z" />
    <glyph glyph-name="lcaron" unicode="&#x13e;" horiz-adv-x="230" 
d="M75 780h80v-780h-80v780zM293 780l80 -30l-110 -250l-58 21z" />
    <glyph glyph-name="Ldot" unicode="&#x13f;" horiz-adv-x="450" 
d="M80 700h85v-620h275v-80h-360v700zM255 415q0 23 16.5 39t38.5 16t38.5 -16t16.5 -39t-16.5 -39t-38.5 -16t-38.5 16t-16.5 39z" />
    <glyph glyph-name="ldot" unicode="&#x140;" horiz-adv-x="370" 
d="M75 780h80v-780h-80v780zM215 415q0 23 16.5 39t38.5 16t38.5 -16t16.5 -39t-16.5 -39t-38.5 -16t-38.5 16t-16.5 39z" />
    <glyph glyph-name="Lslash" unicode="&#x141;" horiz-adv-x="450" 
d="M5 340l-20 55l95 60v245h85v-192l90 57l20 -55l-110 -69v-361h275v-80h-360v387z" />
    <glyph glyph-name="lslash" unicode="&#x142;" horiz-adv-x="230" 
d="M5 340l-20 55l90 54v331h80v-283l80 48l20 -55l-100 -60v-430h-80v382z" />
    <glyph glyph-name="Nacute" unicode="&#x143;" horiz-adv-x="775" 
d="M560 905l-180 -150l-45 30l150 160zM610 700h85v-735l-530 556v-521h-85v735l530 -556v521z" />
    <glyph glyph-name="nacute" unicode="&#x144;" horiz-adv-x="525" 
d="M402 680l-180 -150l-44 30l150 160zM370 280q0 115 -98 115q-52 0 -84.5 -32.5t-32.5 -82.5v-280h-80v460h80v-73q46 83 137 83q73 0 115.5 -46.5t42.5 -133.5v-290h-80v280z" />
    <glyph glyph-name="uni0145" unicode="&#x145;" horiz-adv-x="775" 
d="M610 700h85v-735l-530 556v-521h-85v735l530 -556v521zM399 -35l80 -30l-110 -250l-58 21z" />
    <glyph glyph-name="uni0146" unicode="&#x146;" horiz-adv-x="525" 
d="M370 280q0 115 -98 115q-52 0 -84.5 -32.5t-32.5 -82.5v-280h-80v460h80v-62q52 72 137 72q73 0 115.5 -46.5t42.5 -133.5v-290h-80v280zM266 -60l80 -30l-110 -250l-58 21z" />
    <glyph glyph-name="Ncaron" unicode="&#x147;" horiz-adv-x="775" 
d="M400 880l110 95l50 -40l-160 -140l-160 140l50 40zM610 700h85v-735l-530 556v-521h-85v735l530 -556v521z" />
    <glyph glyph-name="ncaron" unicode="&#x148;" horiz-adv-x="525" 
d="M262 615l110 95l50 -40l-160 -140l-160 140l50 40zM370 280q0 115 -98 115q-52 0 -84.5 -32.5t-32.5 -82.5v-280h-80v460h80v-62q52 72 137 72q73 0 115.5 -46.5t42.5 -133.5v-290h-80v280z" />
    <glyph glyph-name="napostrophe" unicode="&#x149;" horiz-adv-x="635" 
d="M130 700h95l-100 -230h-55zM265 460v-62q52 72 137 72q73 0 115.5 -46.5t42.5 -133.5v-290h-80v280q0 115 -98 115q-52 0 -84.5 -32.5t-32.5 -82.5v-280h-80v460h80z" />
    <glyph glyph-name="Eng" unicode="&#x14a;" horiz-adv-x="775" 
d="M562 -220q-58 0 -88 40l44 66q16 -26 49 -26q26 0 37 21t11 69v99l-450 472v-521h-85v735l530 -556v521h85v-760q0 -76 -35 -118t-98 -42z" />
    <glyph glyph-name="eng" unicode="&#x14b;" horiz-adv-x="525" 
d="M317 -220q-59 0 -88 40l44 66q16 -26 49 -26q48 0 48 90v330q0 115 -98 115q-51 0 -84 -32t-33 -83v-280h-80v460h80v-72q47 82 137 82q75 0 116.5 -47.5t41.5 -132.5v-350q0 -160 -133 -160z" />
    <glyph glyph-name="Omacron" unicode="&#x14c;" horiz-adv-x="790" 
d="M220 770v75h350v-75h-350zM40 350q0 154 101 257t254 103t254 -103t101 -257t-101 -257t-254 -103t-254 103t-101 257zM130 350q0 -119 75 -197t190 -78t190 78t75 197t-75 197t-190 78t-190 -78t-75 -197z" />
    <glyph glyph-name="omacron" unicode="&#x14d;" horiz-adv-x="546" 
d="M98 530v75h350v-75h-350zM35 230q0 104 68 172t170 68t170 -68t68 -172t-68 -172t-170 -68t-170 68t-68 172zM116 230q0 -72 44.5 -118.5t112.5 -46.5t112.5 46.5t44.5 118.5t-44.5 118.5t-112.5 46.5t-112.5 -46.5t-44.5 -118.5z" />
    <glyph glyph-name="Obreve" unicode="&#x14e;" horiz-adv-x="790" 
d="M237 910h71q0 -27 20.5 -51t66.5 -24t66.5 24t20.5 51h71q0 -56 -42 -98t-116 -42t-116 42t-42 98zM40 350q0 154 101 257t254 103t254 -103t101 -257t-101 -257t-254 -103t-254 103t-101 257zM130 350q0 -119 75 -197t190 -78t190 78t75 197t-75 197t-190 78t-190 -78
t-75 -197z" />
    <glyph glyph-name="obreve" unicode="&#x14f;" horiz-adv-x="546" 
d="M115 670h71q0 -27 20.5 -51t66.5 -24t66.5 24t20.5 51h71q0 -56 -42 -98t-116 -42t-116 42t-42 98zM35 230q0 104 68 172t170 68t170 -68t68 -172t-68 -172t-170 -68t-170 68t-68 172zM116 230q0 -72 44.5 -118.5t112.5 -46.5t112.5 46.5t44.5 118.5t-44.5 118.5
t-112.5 46.5t-112.5 -46.5t-44.5 -118.5z" />
    <glyph glyph-name="Ohungarumlaut" unicode="&#x150;" horiz-adv-x="790" 
d="M313 770l-52 17l104 194l82 -20zM477 770l-51 17l103 194l84 -20zM40 350q0 154 101 257t254 103t254 -103t101 -257t-101 -257t-254 -103t-254 103t-101 257zM130 350q0 -119 75 -197t190 -78t190 78t75 197t-75 197t-190 78t-190 -78t-75 -197z" />
    <glyph glyph-name="ohungarumlaut" unicode="&#x151;" horiz-adv-x="546" 
d="M191 530l-52 17l104 194l82 -20zM355 530l-51 17l103 194l84 -20zM35 230q0 104 68 172t170 68t170 -68t68 -172t-68 -172t-170 -68t-170 68t-68 172zM116 230q0 -72 44.5 -118.5t112.5 -46.5t112.5 46.5t44.5 118.5t-44.5 118.5t-112.5 46.5t-112.5 -46.5t-44.5 -118.5z
" />
    <glyph glyph-name="OE" unicode="&#x152;" horiz-adv-x="985" 
d="M916 80v-80h-526q-153 0 -251.5 97t-98.5 253t98 253t252 97h525v-80h-315v-200h295v-80h-295v-260h316zM390 80h125v540h-125q-119 0 -192 -74t-73 -196t73.5 -196t191.5 -74z" />
    <glyph glyph-name="oe" unicode="&#x153;" horiz-adv-x="900" 
d="M35 230q0 109 65.5 174.5t162.5 65.5q69 0 117 -35t70 -100q26 62 81 98.5t127 36.5q86 0 146.5 -65.5t60.5 -170.5q0 -16 -1 -24h-362q5 -69 44 -107t102 -38q93 0 144 83l65 -41q-77 -117 -209 -117q-67 0 -119.5 36.5t-78.5 97.5q-22 -64 -70 -99t-117 -35
q-97 0 -162.5 65.5t-65.5 174.5zM648 400q-57 0 -97 -33t-47 -89h274q-6 56 -39 89t-91 33zM116 230q0 -77 45 -121t112 -44q56 0 96.5 44.5t40.5 120.5t-40.5 120.5t-96.5 44.5q-67 0 -112 -44t-45 -121z" />
    <glyph glyph-name="Racute" unicode="&#x154;" horiz-adv-x="560" 
d="M405 920l-180 -150l-45 30l150 160zM80 700h190q103 0 170.5 -57.5t67.5 -152.5q0 -77 -45.5 -130.5t-121.5 -71.5l209 -288h-105l-195 280h-85v-280h-85v700zM270 625h-105v-270h105q69 0 111 36t42 99t-42 99t-111 36z" />
    <glyph glyph-name="racute" unicode="&#x155;" horiz-adv-x="343" 
d="M336 680l-180 -150l-44 30l150 160zM294 372q-32 23 -62 23q-77 0 -77 -115v-280h-80v460h80v-53q42 63 97 63t86 -32z" />
    <glyph glyph-name="uni0156" unicode="&#x156;" horiz-adv-x="560" 
d="M80 700h190q103 0 170.5 -57.5t67.5 -152.5q0 -77 -45.5 -130.5t-121.5 -71.5l209 -288h-105l-195 280h-85v-280h-85v700zM270 625h-105v-270h105q69 0 111 36t42 99t-42 99t-111 36zM319 -60l80 -30l-110 -250l-58 21z" />
    <glyph glyph-name="uni0157" unicode="&#x157;" horiz-adv-x="343" 
d="M294 372q-32 23 -62 23q-77 0 -77 -115v-280h-80v460h80v-53q42 63 97 63t86 -32zM119 -60l80 -30l-110 -250l-58 21z" />
    <glyph glyph-name="Rcaron" unicode="&#x158;" horiz-adv-x="560" 
d="M255 855l110 95l50 -40l-160 -140l-160 140l50 40zM80 700h190q103 0 170.5 -57.5t67.5 -152.5q0 -77 -45.5 -130.5t-121.5 -71.5l209 -288h-105l-195 280h-85v-280h-85v700zM270 625h-105v-270h105q69 0 111 36t42 99t-42 99t-111 36z" />
    <glyph glyph-name="rcaron" unicode="&#x159;" horiz-adv-x="343" 
d="M206 615l110 95l50 -40l-160 -140l-160 140l50 40zM294 372q-32 23 -62 23q-77 0 -77 -115v-280h-80v460h80v-53q42 63 97 63t86 -32z" />
    <glyph glyph-name="Sacute" unicode="&#x15a;" horiz-adv-x="548" 
d="M458 920l-180 -150l-45 30l150 160zM112 226q33 -76 77 -116t106 -40q59 0 89.5 30t30.5 83q0 32 -13 57.5t-40 43.5t-50.5 29.5t-60.5 24.5q-176 63 -176 197q0 78 58 126.5t145 48.5q78 0 135 -45t81 -105l-69 -46q-28 53 -61 84t-85 31q-53 0 -84 -27t-31 -73
t41 -74.5t121 -58.5q177 -65 177 -206q0 -91 -55.5 -145.5t-157.5 -54.5q-84 0 -150 52.5t-100 140.5z" />
    <glyph glyph-name="sacute" unicode="&#x15b;" horiz-adv-x="403" 
d="M383 680l-180 -150l-45 30l150 160zM91 161q9 -42 42.5 -69t76.5 -27q80 0 80 58q0 18 -8 32t-25.5 25.5t-31 18t-39.5 16.5q-29 12 -48 21.5t-40.5 25.5t-32.5 38t-11 49q0 54 45 87.5t104 33.5q55 0 104 -26t62 -64l-64 -41q-17 24 -45.5 39.5t-55.5 15.5
q-70 0 -70 -50q0 -6 2 -11.5t6.5 -10.5t9 -9.5t13 -9.5t13.5 -8t16.5 -7.5t16.5 -7t18 -7.5t17 -7q127 -53 127 -136q0 -71 -45 -105.5t-123 -34.5q-64 0 -117 38.5t-63 94.5z" />
    <glyph glyph-name="Scircumflex" unicode="&#x15c;" horiz-adv-x="548" 
d="M278 865l-110 -95l-50 40l160 140l160 -140l-50 -40zM112 226q33 -76 77 -116t106 -40q59 0 89.5 30t30.5 83q0 32 -13 57.5t-40 43.5t-50.5 29.5t-60.5 24.5q-176 63 -176 197q0 78 58 126.5t145 48.5q78 0 135 -45t81 -105l-69 -46q-28 53 -61 84t-85 31q-53 0 -84 -27
t-31 -73t41 -74.5t121 -58.5q177 -65 177 -206q0 -91 -55.5 -145.5t-157.5 -54.5q-84 0 -150 52.5t-100 140.5z" />
    <glyph glyph-name="scircumflex" unicode="&#x15d;" horiz-adv-x="403" 
d="M203 625l-110 -95l-50 40l160 140l160 -140l-50 -40zM91 161q9 -42 42.5 -69t76.5 -27q80 0 80 58q0 18 -8 32t-25.5 25.5t-31 18t-39.5 16.5q-29 12 -48 21.5t-40.5 25.5t-32.5 38t-11 49q0 54 45 87.5t104 33.5q55 0 104 -26t62 -64l-64 -41q-17 24 -45.5 39.5
t-55.5 15.5q-70 0 -70 -50q0 -6 2 -11.5t6.5 -10.5t9 -9.5t13 -9.5t13.5 -8t16.5 -7.5t16.5 -7t18 -7.5t17 -7q127 -53 127 -136q0 -71 -45 -105.5t-123 -34.5q-64 0 -117 38.5t-63 94.5z" />
    <glyph glyph-name="Scedilla" unicode="&#x15e;" horiz-adv-x="548" 
d="M112 226q33 -76 77 -116t106 -40q59 0 89.5 30t30.5 83q0 32 -13 57.5t-40 43.5t-50.5 29.5t-60.5 24.5q-29 10 -46 17t-45 24t-44 35t-28.5 48.5t-12.5 67.5q0 80 55.5 130t147.5 50q147 0 216 -150l-69 -46q-59 115 -156 115q-51 0 -78 -26.5t-27 -73.5q0 -46 41 -74.5
t121 -58.5q177 -65 177 -206q0 -82 -49 -135.5t-132 -62.5l-25 -45h9q27 0 49.5 -20t22.5 -54q0 -44 -31 -69t-75 -25q-52 0 -90 38l34 40q28 -24 56 -24q50 0 50 40q0 36 -50 36q-31 0 -58 -18l51 100q-76 8 -135 59t-90 133z" />
    <glyph glyph-name="scedilla" unicode="&#x15f;" horiz-adv-x="403" 
d="M88 163q24 -43 59 -70t68 -27q75 0 75 56q0 17 -8 31t-25 25t-31 17.5t-40 16.5q-73 29 -96 49q-36 32 -36 86q0 60 44 92t105 32q54 0 99 -25.5t67 -64.5l-64 -41q-17 24 -45.5 41t-55.5 17q-72 0 -72 -48q0 -13 6 -23t20 -18.5t25 -13t32.5 -12.5t30.5 -12
q59 -25 93 -56.5t34 -83.5q0 -62 -34 -96.5t-91 -41.5l-26 -45h8q28 0 51 -20t23 -54q0 -44 -32 -69t-76 -25q-50 0 -88 38l32 40q28 -24 56 -24q50 0 50 40q0 36 -50 36q-29 0 -56 -18l50 101q-54 7 -97.5 42.5t-67.5 88.5z" />
    <glyph glyph-name="Scaron" unicode="&#x160;" horiz-adv-x="548" 
d="M278 855l110 95l50 -40l-160 -140l-160 140l50 40zM112 226q33 -76 77 -116t106 -40q59 0 89.5 30t30.5 83q0 32 -13 57.5t-40 43.5t-50.5 29.5t-60.5 24.5q-176 63 -176 197q0 78 58 126.5t145 48.5q78 0 135 -45t81 -105l-69 -46q-28 53 -61 84t-85 31q-53 0 -84 -27
t-31 -73t41 -74.5t121 -58.5q177 -65 177 -206q0 -91 -55.5 -145.5t-157.5 -54.5q-84 0 -150 52.5t-100 140.5z" />
    <glyph glyph-name="scaron" unicode="&#x161;" horiz-adv-x="403" 
d="M203 615l110 95l50 -40l-160 -140l-160 140l50 40zM91 161q9 -42 42.5 -69t76.5 -27q80 0 80 58q0 18 -8 32t-25.5 25.5t-31 18t-39.5 16.5q-29 12 -48 21.5t-40.5 25.5t-32.5 38t-11 49q0 54 45 87.5t104 33.5q55 0 104 -26t62 -64l-64 -41q-17 24 -45.5 39.5
t-55.5 15.5q-70 0 -70 -50q0 -6 2 -11.5t6.5 -10.5t9 -9.5t13 -9.5t13.5 -8t16.5 -7.5t16.5 -7t18 -7.5t17 -7q127 -53 127 -136q0 -71 -45 -105.5t-123 -34.5q-64 0 -117 38.5t-63 94.5z" />
    <glyph glyph-name="uni0162" unicode="&#x162;" horiz-adv-x="465" 
d="M10 620v80h445v-80h-180v-620h-17l-59 -103h9q28 0 50.5 -20t22.5 -54q0 -44 -31.5 -69t-75.5 -25q-51 0 -89 38l33 40q28 -24 56 -24q50 0 50 40q0 36 -50 36q-30 0 -57 -18l80 159h-7v620h-180z" />
    <glyph glyph-name="uni0163" unicode="&#x163;" horiz-adv-x="240" 
d="M5 460h75v160h80v-160h75v-75h-75v-385h-15l-58 -103h9q28 0 50.5 -20t22.5 -54q0 -44 -31.5 -69t-75.5 -25q-51 0 -89 38l33 40q29 -24 56 -24q50 0 50 40q0 36 -50 36q-30 0 -57 -18l80 159h-5v385h-75v75z" />
    <glyph glyph-name="Tcaron" unicode="&#x164;" horiz-adv-x="465" 
d="M233 855l110 95l50 -40l-160 -140l-160 140l50 40zM10 620v80h445v-80h-180v-620h-85v620h-180z" />
    <glyph glyph-name="tcaron" unicode="&#x165;" horiz-adv-x="350" 
d="M295 810l80 -30l-110 -250l-58 21zM5 460h75v160h80v-160h75v-75h-75v-385h-80v385h-75v75z" />
    <glyph glyph-name="Tbar" unicode="&#x166;" horiz-adv-x="465" 
d="M75 380v75h115v165h-180v80h445v-80h-180v-165h115v-75h-115v-380h-85v380h-115z" />
    <glyph glyph-name="tbar" unicode="&#x167;" horiz-adv-x="240" 
d="M20 205v75h60v105h-75v75h75v160h80v-160h75v-75h-75v-105h60v-75h-60v-205h-80v205h-60z" />
    <glyph glyph-name="Utilde" unicode="&#x168;" horiz-adv-x="626" 
d="M148 807q7 36 38 59t66 23q34 0 66 -23.5t58 -23.5t56 48l46 -43q-13 -30 -42 -51.5t-64 -21.5q-29 0 -64.5 23.5t-56.5 23.5q-27 0 -38.5 -17t-11.5 -34zM75 700h85v-470q0 -74 39.5 -117t113.5 -43t113.5 43t39.5 117v470h85v-470q0 -106 -65.5 -173t-172.5 -67
t-172.5 67t-65.5 173v470z" />
    <glyph glyph-name="utilde" unicode="&#x169;" horiz-adv-x="525" 
d="M98 567q7 36 38 59t66 23q34 0 66 -23.5t58 -23.5t56 48l46 -43q-13 -30 -42 -51.5t-64 -21.5q-29 0 -64.5 23.5t-56.5 23.5q-27 0 -38.5 -17t-11.5 -34zM155 180q0 -115 98 -115q52 0 84.5 32.5t32.5 82.5v280h80v-460h-80v73q-46 -83 -137 -83q-73 0 -115.5 46.5
t-42.5 133.5v290h80v-280z" />
    <glyph glyph-name="Umacron" unicode="&#x16a;" horiz-adv-x="626" 
d="M138 770v75h350v-75h-350zM75 700h85v-470q0 -74 39.5 -117t113.5 -43t113.5 43t39.5 117v470h85v-470q0 -106 -65.5 -173t-172.5 -67t-172.5 67t-65.5 173v470z" />
    <glyph glyph-name="umacron" unicode="&#x16b;" horiz-adv-x="525" 
d="M88 530v75h350v-75h-350zM155 180q0 -115 98 -115q52 0 84.5 32.5t32.5 82.5v280h80v-460h-80v73q-46 -83 -137 -83q-73 0 -115.5 46.5t-42.5 133.5v290h80v-280z" />
    <glyph glyph-name="Ubreve" unicode="&#x16c;" horiz-adv-x="626" 
d="M155 910h71q0 -27 20.5 -51t66.5 -24t66.5 24t20.5 51h71q0 -56 -42 -98t-116 -42t-116 42t-42 98zM75 700h85v-470q0 -74 39.5 -117t113.5 -43t113.5 43t39.5 117v470h85v-470q0 -106 -65.5 -173t-172.5 -67t-172.5 67t-65.5 173v470z" />
    <glyph glyph-name="ubreve" unicode="&#x16d;" horiz-adv-x="525" 
d="M105 670h71q0 -27 20.5 -51t66.5 -24t66.5 24t20.5 51h71q0 -56 -42 -98t-116 -42t-116 42t-42 98zM155 180q0 -115 98 -115q52 0 84.5 32.5t32.5 82.5v280h80v-460h-80v73q-46 -83 -137 -83q-73 0 -115.5 46.5t-42.5 133.5v290h80v-280z" />
    <glyph glyph-name="Uring" unicode="&#x16e;" horiz-adv-x="626" 
d="M211 870q0 43 30.5 71.5t71.5 28.5t71.5 -28.5t30.5 -71.5t-30.5 -71.5t-71.5 -28.5t-71.5 28.5t-30.5 71.5zM262 870q0 -24 15.5 -38.5t35.5 -14.5t35.5 14.5t15.5 38.5t-15.5 38.5t-35.5 14.5t-35.5 -14.5t-15.5 -38.5zM75 700h85v-470q0 -74 39.5 -117t113.5 -43
t113.5 43t39.5 117v470h85v-470q0 -106 -65.5 -173t-172.5 -67t-172.5 67t-65.5 173v470z" />
    <glyph glyph-name="uring" unicode="&#x16f;" horiz-adv-x="525" 
d="M161 630q0 43 30.5 71.5t71.5 28.5t71.5 -28.5t30.5 -71.5t-30.5 -71.5t-71.5 -28.5t-71.5 28.5t-30.5 71.5zM212 630q0 -24 15.5 -38.5t35.5 -14.5t35.5 14.5t15.5 38.5t-15.5 38.5t-35.5 14.5t-35.5 -14.5t-15.5 -38.5zM155 180q0 -115 98 -115q52 0 84.5 32.5
t32.5 82.5v280h80v-460h-80v73q-46 -83 -137 -83q-73 0 -115.5 46.5t-42.5 133.5v290h80v-280z" />
    <glyph glyph-name="Uhungarumlaut" unicode="&#x170;" horiz-adv-x="626" 
d="M231 770l-52 17l104 194l82 -20zM395 770l-51 17l103 194l84 -20zM75 700h85v-470q0 -74 39.5 -117t113.5 -43t113.5 43t39.5 117v470h85v-470q0 -106 -65.5 -173t-172.5 -67t-172.5 67t-65.5 173v470z" />
    <glyph glyph-name="uhungarumlaut" unicode="&#x171;" horiz-adv-x="525" 
d="M181 530l-52 17l104 194l82 -20zM345 530l-51 17l103 194l84 -20zM155 180q0 -56 25 -85.5t73 -29.5q52 0 84.5 32t32.5 83v280h80v-460h-80v72q-46 -82 -137 -82q-72 0 -115 49t-43 131v290h80v-280z" />
    <glyph glyph-name="Uogonek" unicode="&#x172;" horiz-adv-x="626" 
d="M359 -157l33 -50q-30 -40 -88 -40q-61 0 -92 27t-31 73q0 72 117 137q-101 5 -162 72t-61 168v470h85v-470q0 -74 39.5 -117t113.5 -43t113.5 43t39.5 117v470h85v-470q0 -102 -61.5 -169t-163.5 -71l28 -17q-40 -17 -66.5 -45t-26.5 -55q0 -50 48 -50q28 0 50 20z" />
    <glyph glyph-name="uogonek" unicode="&#x173;" horiz-adv-x="525" 
d="M155 180q0 -56 25 -85.5t73 -29.5q52 0 84.5 32t32.5 83v280h80v-460h-80v72q-43 -76 -124 -82l28 -17q-40 -17 -66.5 -45t-26.5 -55q0 -50 48 -50q28 0 50 20l33 -50q-30 -40 -88 -40q-61 0 -92 27t-31 73q0 72 118 138q-66 5 -105 53t-39 126v290h80v-280z" />
    <glyph glyph-name="Wcircumflex" unicode="&#x174;" horiz-adv-x="990" 
d="M495 890l-110 -95l-50 40l160 140l160 -140l-50 -40zM700 175l185 525h95l-275 -735l-210 544l-210 -544l-275 735h95l185 -525l205 560z" />
    <glyph glyph-name="wcircumflex" unicode="&#x175;" horiz-adv-x="680" 
d="M335 650l-110 -95l-50 40l160 140l160 -140l-50 -40zM5 460h90l115 -299l125 334l134 -336l116 301h90l-200 -495l-139 335l-131 -335z" />
    <glyph glyph-name="Ycircumflex" unicode="&#x176;" horiz-adv-x="561" 
d="M281 865l-110 -95l-50 40l160 140l160 -140l-50 -40zM461 700h95l-233 -398v-302h-85v301l-233 399h95l180 -324z" />
    <glyph glyph-name="ycircumflex" unicode="&#x177;" horiz-adv-x="440" 
d="M220 625l-110 -95l-50 40l160 140l160 -140l-50 -40zM440 460l-300 -680h-90l126 285l-176 395h95l129 -317l126 317h90z" />
    <glyph glyph-name="Ydieresis" unicode="&#x178;" horiz-adv-x="561" 
d="M126 825q0 23 16 39t38 16q23 0 39.5 -16.5t16.5 -38.5t-16.5 -38.5t-39.5 -16.5q-22 0 -38 16t-16 39zM326 825q0 23 16 39t38 16q23 0 39.5 -16.5t16.5 -38.5t-16.5 -38.5t-39.5 -16.5q-22 0 -38 16t-16 39zM461 700h95l-233 -398v-302h-85v301l-233 399h95l180 -324z
" />
    <glyph glyph-name="Zacute" unicode="&#x179;" horiz-adv-x="545" 
d="M440 920l-180 -150l-45 30l150 160zM35 620v80h490l-368 -620h348v-80h-490l368 620h-348z" />
    <glyph glyph-name="zacute" unicode="&#x17a;" horiz-adv-x="460" 
d="M405 700l-180 -150l-45 30l150 160zM300 385h-255v75h400l-285 -385h265v-75h-410z" />
    <glyph glyph-name="Zdotaccent" unicode="&#x17b;" horiz-adv-x="545" 
d="M225 825q0 23 16.5 39t38.5 16t38.5 -16t16.5 -39t-16.5 -39t-38.5 -16t-38.5 16t-16.5 39zM35 620v80h490l-368 -620h348v-80h-490l368 620h-348z" />
    <glyph glyph-name="zdotaccent" unicode="&#x17c;" horiz-adv-x="460" 
d="M190 615q0 23 16 39t39 16t39 -16t16 -39t-16 -39t-39 -16t-39 16t-16 39zM300 385h-255v75h400l-285 -385h265v-75h-410z" />
    <glyph glyph-name="Zcaron" unicode="&#x17d;" horiz-adv-x="545" 
d="M280 855l110 95l50 -40l-160 -140l-160 140l50 40zM35 620v80h490l-368 -620h348v-80h-490l368 620h-348z" />
    <glyph glyph-name="zcaron" unicode="&#x17e;" horiz-adv-x="460" 
d="M245 615l110 95l50 -40l-160 -140l-160 140l50 40zM300 385h-255v75h400l-285 -385h265v-75h-410z" />
    <glyph glyph-name="florin" unicode="&#x192;" horiz-adv-x="600" 
d="M204 -200q-43 1 -89 42l43 62q27 -26 44 -26q46 0 52 90l24 417h-62l6 75h60l9 166q5 77 40 120.5t91 42.5q43 -1 89 -42l-43 -62q-27 26 -44 26q-46 0 -52 -91l-10 -160h80l-6 -75h-78l-23 -423q-4 -76 -39.5 -120t-91.5 -42z" />
    <glyph glyph-name="uni0212" unicode="&#x212;" horiz-adv-x="560" 
d="M117 770q0 56 42 98t116 42t116 -42t42 -98h-71q0 27 -20.5 51t-66.5 24t-66.5 -24t-20.5 -51h-71zM80 700h190q103 0 170.5 -57.5t67.5 -152.5q0 -77 -45.5 -130.5t-121.5 -71.5l209 -288h-105l-195 280h-85v-280h-85v700zM270 625h-105v-270h105q69 0 111 36t42 99
t-42 99t-111 36z" />
    <glyph glyph-name="uni0213" unicode="&#x213;" horiz-adv-x="343" 
d="M49 530q0 56 42 98t116 42t116 -42t42 -98h-71q0 27 -20.5 51t-66.5 24t-66.5 -24t-20.5 -51h-71zM294 372q-32 23 -62 23q-77 0 -77 -115v-280h-80v460h80v-53q42 63 97 63t86 -32z" />
    <glyph glyph-name="uni0218" unicode="&#x218;" horiz-adv-x="548" 
d="M112 226q33 -76 77 -116t106 -40q59 0 89.5 30t30.5 83q0 32 -13 57.5t-40 43.5t-50.5 29.5t-60.5 24.5q-176 63 -176 197q0 78 58 126.5t145 48.5q78 0 135 -45t81 -105l-69 -46q-28 53 -61 84t-85 31q-53 0 -84 -27t-31 -73t41 -74.5t121 -58.5q177 -65 177 -206
q0 -91 -55.5 -145.5t-157.5 -54.5q-84 0 -150 52.5t-100 140.5zM294 -70l80 -30l-110 -250l-58 21z" />
    <glyph glyph-name="uni0219" unicode="&#x219;" horiz-adv-x="403" 
d="M91 161q9 -42 42.5 -69t76.5 -27q80 0 80 58q0 18 -8 32t-25.5 25.5t-31 18t-39.5 16.5q-29 12 -48 21.5t-40.5 25.5t-32.5 38t-11 49q0 54 45 87.5t104 33.5q55 0 104 -26t62 -64l-64 -41q-17 24 -45.5 39.5t-55.5 15.5q-70 0 -70 -50q0 -6 2 -11.5t6.5 -10.5t9 -9.5
t13 -9.5t13.5 -8t16.5 -7.5t16.5 -7t18 -7.5t17 -7q127 -53 127 -136q0 -71 -45 -105.5t-123 -34.5q-64 0 -117 38.5t-63 94.5zM209 -70l80 -30l-110 -250l-58 21z" />
    <glyph glyph-name="uni021A" unicode="&#x21a;" horiz-adv-x="465" 
d="M10 620v80h445v-80h-180v-620h-85v620h-180zM237 -60l80 -30l-110 -250l-58 21z" />
    <glyph glyph-name="uni021B" unicode="&#x21b;" horiz-adv-x="240" 
d="M5 460h75v160h80v-160h75v-75h-75v-385h-80v385h-75v75zM124 -60l80 -30l-110 -250l-58 21z" />
    <glyph glyph-name="uni0237" unicode="&#x237;" horiz-adv-x="250" 
d="M-17 -114q16 -26 49 -26q48 0 48 90v510h80v-520q0 -160 -133 -160q-58 0 -88 40z" />
    <glyph glyph-name="circumflex" unicode="&#x2c6;" horiz-adv-x="480" 
d="M240 645l-110 -95l-50 40l160 140l160 -140l-50 -40z" />
    <glyph glyph-name="caron" unicode="&#x2c7;" horiz-adv-x="480" 
d="M240 655l110 95l50 -40l-160 -140l-160 140l50 40z" />
    <glyph glyph-name="breve" unicode="&#x2d8;" horiz-adv-x="546" 
d="M115 850h71q0 -27 20.5 -51t66.5 -24t66.5 24t20.5 51h71q0 -56 -42 -98t-116 -42t-116 42t-42 98z" />
    <glyph glyph-name="dotaccent" unicode="&#x2d9;" horiz-adv-x="300" 
d="M95 790q0 22 16.5 38.5t38.5 16.5t38.5 -16.5t16.5 -38.5t-16.5 -38.5t-38.5 -16.5t-38.5 16.5t-16.5 38.5z" />
    <glyph glyph-name="ring" unicode="&#x2da;" horiz-adv-x="278" 
d="M37 785q0 43 30.5 71.5t71.5 28.5t71.5 -28.5t30.5 -71.5t-30.5 -71.5t-71.5 -28.5t-71.5 28.5t-30.5 71.5zM88 785q0 -24 15.5 -38.5t35.5 -14.5t35.5 14.5t15.5 38.5t-15.5 38.5t-35.5 14.5t-35.5 -14.5t-15.5 -38.5z" />
    <glyph glyph-name="ogonek" unicode="&#x2db;" horiz-adv-x="260" 
d="M194 -130l33 -50q-30 -40 -88 -40q-61 0 -92 27t-31 73q0 77 132 145l41 -25q-40 -17 -66.5 -45t-26.5 -55q0 -50 48 -50q28 0 50 20z" />
    <glyph glyph-name="tilde" unicode="&#x2dc;" horiz-adv-x="530" 
d="M100 625q7 36 38 59t66 23q34 0 66 -23.5t58 -23.5t56 48l46 -43q-13 -30 -42 -51.5t-64 -21.5q-29 0 -64.5 23.5t-56.5 23.5q-27 0 -38.5 -17t-11.5 -34z" />
    <glyph glyph-name="hungarumlaut" unicode="&#x2dd;" horiz-adv-x="0" 
d="M52 511l-52 17l104 194l82 -20zM216 511l-51 17l103 194l84 -20z" />
    <glyph glyph-name="gravecomb" unicode="&#x300;" horiz-adv-x="0" 
d="M180 545l-180 150l75 40l150 -160z" />
    <glyph glyph-name="acutecomb" unicode="&#x301;" horiz-adv-x="0" 
d="M60 545l-45 30l150 160l75 -40z" />
    <glyph glyph-name="uni0302" unicode="&#x302;" horiz-adv-x="0" 
d="M41 547l-41 49l151 130l151 -130l-41 -49l-110 94z" />
    <glyph glyph-name="tildecomb" unicode="&#x303;" horiz-adv-x="0" 
d="M53 588l-53 37q7 36 38 59t66 23q34 0 66 -23.5t58 -23.5t56 48l46 -43q-13 -30 -42 -51.5t-64 -21.5q-29 0 -64.5 23.5t-56.5 23.5q-27 0 -38.5 -17t-11.5 -34z" />
    <glyph glyph-name="uni0304" unicode="&#x304;" horiz-adv-x="0" 
d="M0 600v75h350v-75h-350z" />
    <glyph glyph-name="uni0306" unicode="&#x306;" horiz-adv-x="0" 
d="M158 540q-69 0 -113.5 39.5t-44.5 100.5h71q0 -32 25 -53.5t62 -21.5t62 21.5t25 53.5h71q0 -61 -44.5 -100.5t-113.5 -39.5z" />
    <glyph glyph-name="uni0307" unicode="&#x307;" horiz-adv-x="0" 
d="M55 570q-23 0 -39 16t-16 39t16 39t39 16t39 -16t16 -39t-16 -39t-39 -16z" />
    <glyph glyph-name="uni0308" unicode="&#x308;" horiz-adv-x="0" 
d="M55 605q-25 0 -40 15t-15 40t15 40t40 15t40 -15t15 -40t-15 -40t-40 -15zM255 605q-25 0 -40 15t-15 40t15 40t40 15t40 -15t15 -40t-15 -40t-40 -15z" />
    <glyph glyph-name="uni030A" unicode="&#x30a;" horiz-adv-x="0" 
d="M112 520q-47 0 -79.5 32t-32.5 78t32.5 78t79.5 32t80 -32t33 -78t-33 -78t-80 -32zM112 572q23 0 39.5 17t16.5 41t-16.5 41t-39.5 17t-39.5 -17t-16.5 -41t16.5 -41t39.5 -17z" />
    <glyph glyph-name="uni030B" unicode="&#x30b;" horiz-adv-x="0" 
d="M52 511l-52 17l104 194l82 -20zM216 511l-51 17l103 194l84 -20z" />
    <glyph glyph-name="uni030C" unicode="&#x30c;" horiz-adv-x="0" 
d="M151 547l-151 131l41 48l110 -94l110 94l41 -48z" />
    <glyph glyph-name="uni0312" unicode="&#x312;" horiz-adv-x="0" 
d="M80 500l-80 30l110 250l58 -21z" />
    <glyph glyph-name="uni0326" unicode="&#x326;" horiz-adv-x="0" 
d="M40 -220l-40 23l98 180l56 -33z" />
    <glyph glyph-name="uni0327" unicode="&#x327;" horiz-adv-x="0" 
d="M89 -220q-50 0 -89 28l23 45q33 -19 66 -19q50 0 50 40q0 36 -50 36q-32 0 -52 -3l80 153h61l-61 -107h6q31 0 52 -24t21 -55q0 -41 -30.5 -67.5t-76.5 -26.5z" />
    <glyph glyph-name="uni0328" unicode="&#x328;" horiz-adv-x="0" 
d="M123 -220q-61 0 -92 27t-31 73q0 77 132 145l41 -25q-40 -17 -66.5 -45t-26.5 -55q0 -50 48 -50q28 0 50 20l33 -50q-30 -40 -88 -40z" />
    <glyph glyph-name="uni0394" unicode="&#x394;" horiz-adv-x="600" 
d="M18 0l282 800l281 -800h-563zM138 76h324l-162 504z" />
    <glyph glyph-name="uni03A9" unicode="&#x3a9;" horiz-adv-x="600" 
d="M66 0v68h87q-39 54 -61.5 120.5t-22.5 128.5q0 104 66 173t165 69t164.5 -69t65.5 -173q0 -62 -22.5 -128.5t-61.5 -120.5h87v-68h-193v78q43 34 71.5 100.5t28.5 132.5q0 155 -140 155q-69 0 -105.5 -39.5t-36.5 -115.5q0 -65 29 -132t72 -101v-78h-193z" />
    <glyph glyph-name="uni03BC" unicode="&#x3bc;" horiz-adv-x="525" 
d="M155 460v-280q0 -115 98 -115q52 0 84.5 32.5t32.5 82.5v280h80v-460h-80v62q-51 -72 -137 -72q-45 0 -78 18v-328h-80v780h80z" />
    <glyph glyph-name="pi" unicode="&#x3c0;" horiz-adv-x="540" 
d="M30 460h470v-75h-80v-244q0 -45 13 -57.5t40 -12.5v-80q-69 0 -101 26.5t-32 103.5v264h-170v-385h-80v385h-60v75z" />
    <glyph glyph-name="uni0400" unicode="&#x400;" horiz-adv-x="550" 
d="M100 920l75 40l150 -160l-45 -30zM80 700h400v-80h-315v-200h295v-80h-295v-260h315v-80h-400v700z" />
    <glyph glyph-name="uni0401" unicode="&#x401;" horiz-adv-x="550" 
d="M325 825q0 23 16.5 39t38.5 16t38.5 -16t16.5 -39t-16.5 -39t-38.5 -16t-38.5 16t-16.5 39zM125 825q0 23 16.5 39t38.5 16t38.5 -16t16.5 -39t-16.5 -39t-38.5 -16t-38.5 16t-16.5 39zM80 700h400v-80h-315v-200h295v-80h-295v-260h315v-80h-400v700z" />
    <glyph glyph-name="uni0403" unicode="&#x403;" horiz-adv-x="435" 
d="M433 920l-180 -150l-45 30l150 160zM80 700h345v-80h-260v-620h-85v700z" />
    <glyph glyph-name="uni040C" unicode="&#x40c;" horiz-adv-x="565" 
d="M493 920l-180 -150l-45 30l150 160zM80 700h85v-301l275 301h105l-303 -328l318 -372h-105l-290 340v-340h-85v700z" />
    <glyph glyph-name="uni040D" unicode="&#x40d;" horiz-adv-x="775" 
d="M255 895l75 40l150 -160l-45 -30zM165 700v-521l530 556v-735h-85v521l-530 -556v735h85z" />
    <glyph glyph-name="uni040E" unicode="&#x40e;" horiz-adv-x="565" 
d="M127 910h71q0 -27 20.5 -51t66.5 -24t66.5 24t20.5 51h71q0 -56 -42 -98t-116 -42t-116 42t-42 98zM565 700l-329 -700h-95l90 207l-231 493h105l179 -409l186 409h95z" />
    <glyph glyph-name="uni0410" unicode="&#x410;" horiz-adv-x="660" 
d="M560 0l-89 210h-282l-89 -210h-95l325 735l325 -735h-95zM330 542l-107 -252h214z" />
    <glyph glyph-name="uni0411" unicode="&#x411;" horiz-adv-x="548" 
d="M80 700h375v-80h-290v-200h105q103 0 170.5 -57.5t67.5 -152.5t-67.5 -152.5t-170.5 -57.5h-190v700zM270 340h-105v-260h105q70 0 111.5 33.5t41.5 96.5t-41.5 96.5t-111.5 33.5z" />
    <glyph glyph-name="uni0412" unicode="&#x412;" horiz-adv-x="558" 
d="M508 205q0 -100 -66 -152.5t-172 -52.5h-190v700h180q97 0 152.5 -44t55.5 -131q0 -53 -30.5 -89.5t-85.5 -53.5q72 -15 114 -59.5t42 -117.5zM260 625h-95v-208h95q54 0 88.5 27.5t34.5 75.5t-34.5 76.5t-88.5 28.5zM165 75h105q69 0 111 36t42 99t-42 98t-111 35h-105
v-268z" />
    <glyph glyph-name="uni0413" unicode="&#x413;" horiz-adv-x="435" 
d="M80 700h345v-80h-260v-620h-85v700z" />
    <glyph glyph-name="uni0414" unicode="&#x414;" horiz-adv-x="795" 
d="M675 0h-560v-110h-75v190h90l265 655l265 -655h90v-190h-75v110zM395 542l-176 -462h352z" />
    <glyph glyph-name="uni0415" unicode="&#x415;" horiz-adv-x="550" 
d="M80 700h400v-80h-315v-200h295v-80h-295v-260h315v-80h-400v700z" />
    <glyph glyph-name="uni0416" unicode="&#x416;" horiz-adv-x="895" 
d="M125 700l285 -312v312h85v-312l275 312h105l-303 -328l318 -372h-105l-290 351v-351h-85v351l-300 -351h-105l318 372l-303 328h105z" />
    <glyph glyph-name="uni0417" unicode="&#x417;" horiz-adv-x="606" 
d="M313 -10q-120 0 -186.5 55t-66.5 140h86q6 -53 47 -84t120 -31q80 0 120.5 33t40.5 92q0 63 -52.5 96.5t-138.5 33.5v75q80 0 125.5 34.5t45.5 86.5q0 51 -35 81.5t-101 30.5q-64 0 -105.5 -30.5t-41.5 -76.5h-81q0 82 63 133t164 51t162.5 -54.5t61.5 -131.5
q0 -52 -35.5 -94.5t-97.5 -64.5q153 -42 153 -180q0 -90 -66 -142.5t-182 -52.5z" />
    <glyph glyph-name="uni0418" unicode="&#x418;" horiz-adv-x="775" 
d="M165 700v-521l530 556v-735h-85v521l-530 -556v735h85z" />
    <glyph glyph-name="uni0419" unicode="&#x419;" horiz-adv-x="775" 
d="M257 905h71q0 -27 20.5 -51t66.5 -24t66.5 24t20.5 51h71q0 -56 -42 -98t-116 -42t-116 42t-42 98zM165 700v-521l530 556v-735h-85v521l-530 -556v735h85z" />
    <glyph glyph-name="uni041A" unicode="&#x41a;" horiz-adv-x="565" 
d="M80 700h85v-301l275 301h105l-303 -328l318 -372h-105l-290 340v-340h-85v700z" />
    <glyph glyph-name="uni041B" unicode="&#x41b;" horiz-adv-x="658" 
d="M578 700v-700h-85v620h-310v-380q0 -102 -45.5 -171t-127.5 -69v73q44 0 68.5 52.5t24.5 134.5v440h475z" />
    <glyph glyph-name="uni041C" unicode="&#x41c;" horiz-adv-x="810" 
d="M177 473l-52 -473h-85l85 735l280 -507l280 507l85 -735h-85l-52 473l-228 -408z" />
    <glyph glyph-name="uni041D" unicode="&#x41d;" horiz-adv-x="715" 
d="M80 700h85v-280h385v280h85v-700h-85v340h-385v-340h-85v700z" />
    <glyph glyph-name="uni041E" unicode="&#x41e;" horiz-adv-x="790" 
d="M40 350q0 154 101 257t254 103t254 -103t101 -257t-101 -257t-254 -103t-254 103t-101 257zM130 350q0 -119 75 -197t190 -78t190 78t75 197t-75 197t-190 78t-190 -78t-75 -197z" />
    <glyph glyph-name="uni041F" unicode="&#x41f;" horiz-adv-x="715" 
d="M550 620h-385v-620h-85v700h555v-700h-85v620z" />
    <glyph glyph-name="uni0420" unicode="&#x420;" horiz-adv-x="548" 
d="M80 700h190q103 0 170.5 -57.5t67.5 -152.5t-67.5 -152.5t-170.5 -57.5h-105v-280h-85v700zM270 620h-105v-260h105q70 0 111.5 33.5t41.5 96.5t-41.5 96.5t-111.5 33.5z" />
    <glyph glyph-name="uni0421" unicode="&#x421;" horiz-adv-x="685" 
d="M130 350q0 -119 77 -197t183 -78q143 0 225 104v-112q-87 -77 -225 -77q-147 0 -248.5 102.5t-101.5 257.5t101.5 257.5t248.5 102.5q138 0 225 -77v-112q-82 104 -225 104q-106 0 -183 -78t-77 -197z" />
    <glyph glyph-name="uni0422" unicode="&#x422;" horiz-adv-x="465" 
d="M10 620v80h445v-80h-180v-620h-85v620h-180z" />
    <glyph glyph-name="uni0423" unicode="&#x423;" horiz-adv-x="565" 
d="M565 700l-329 -700h-95l90 207l-231 493h105l179 -409l186 409h95z" />
    <glyph glyph-name="uni0424" unicode="&#x424;" horiz-adv-x="783" 
d="M349 700h85v-80q137 -3 223 -75.5t86 -194.5t-86 -194.5t-223 -75.5v-80h-85v80q-137 3 -223 75.5t-86 194.5t86 194.5t223 75.5v80zM658 350q0 88 -61 135.5t-163 49.5v-370q102 2 163 49.5t61 135.5zM125 350q0 -88 61 -135.5t163 -49.5v370q-102 -2 -163 -49.5
t-61 -135.5z" />
    <glyph glyph-name="uni0425" unicode="&#x425;" horiz-adv-x="555" 
d="M430 700h100l-207 -333l222 -367h-100l-165 293l-170 -293h-100l228 367l-203 333h100l146 -259z" />
    <glyph glyph-name="uni0426" unicode="&#x426;" horiz-adv-x="760" 
d="M165 80h385v620h85v-620h85v-190h-75v110h-565v700h85v-620z" />
    <glyph glyph-name="uni0427" unicode="&#x427;" horiz-adv-x="615" 
d="M160 700v-182q0 -71 34 -117t96 -46h160v345h85v-700h-85v280h-160q-101 0 -155.5 66.5t-54.5 171.5v182h80z" />
    <glyph glyph-name="uni0428" unicode="&#x428;" horiz-adv-x="985" 
d="M820 80v620h85v-700h-825v700h85v-620h285v620h85v-620h285z" />
    <glyph glyph-name="uni0429" unicode="&#x429;" horiz-adv-x="1030" 
d="M820 80v620h85v-620h85v-190h-75v110h-835v700h85v-620h285v620h85v-620h285z" />
    <glyph glyph-name="uni042A" unicode="&#x42a;" horiz-adv-x="658" 
d="M190 620h-180v80h265v-280h105q103 0 170.5 -57.5t67.5 -152.5t-67.5 -152.5t-170.5 -57.5h-190v620zM380 340h-105v-260h105q70 0 111.5 33.5t41.5 96.5t-41.5 96.5t-111.5 33.5z" />
    <glyph glyph-name="uni042B" unicode="&#x42b;" horiz-adv-x="765" 
d="M600 700h85v-700h-85v700zM80 700h85v-280h105q103 0 170.5 -57.5t67.5 -152.5t-67.5 -152.5t-170.5 -57.5h-190v700zM270 340h-105v-260h105q70 0 111.5 33.5t41.5 96.5t-41.5 96.5t-111.5 33.5z" />
    <glyph glyph-name="uni042C" unicode="&#x42c;" horiz-adv-x="548" 
d="M80 700h85v-280h105q103 0 170.5 -57.5t67.5 -152.5t-67.5 -152.5t-170.5 -57.5h-190v700zM270 340h-105v-260h105q70 0 111.5 33.5t41.5 96.5t-41.5 96.5t-111.5 33.5z" />
    <glyph glyph-name="uni042D" unicode="&#x42d;" horiz-adv-x="685" 
d="M132 310v80h420q-13 104 -87 169.5t-170 65.5q-143 0 -225 -104v112q87 77 225 77q147 0 248.5 -102.5t101.5 -257.5t-101.5 -257.5t-248.5 -102.5q-138 0 -225 77v112q82 -104 225 -104q96 0 170 65.5t87 169.5h-420z" />
    <glyph glyph-name="uni042E" unicode="&#x42e;" horiz-adv-x="1030" 
d="M80 700h85v-280h121q23 128 119 209t230 81q153 0 254 -103t101 -257t-101 -257t-254 -103q-150 0 -250.5 100t-104.5 250h-115v-340h-85v700zM370 350q0 -119 75 -197t190 -78t190 78t75 197t-75 197t-190 78t-190 -78t-75 -197z" />
    <glyph glyph-name="uni042F" unicode="&#x42f;" horiz-adv-x="560" 
d="M480 700v-700h-85v280h-85l-195 -280h-105l209 288q-76 18 -121.5 71.5t-45.5 130.5q0 95 67.5 152.5t170.5 57.5h190zM290 355h105v270h-105q-69 0 -111 -36t-42 -99t42 -99t111 -36z" />
    <glyph glyph-name="uni0430" unicode="&#x430;" horiz-adv-x="485" 
d="M111 352l-39 61q78 57 176 57q80 0 128.5 -37t48.5 -103v-330h-80v66q-21 -36 -62.5 -56t-94.5 -20q-69 0 -113.5 37t-44.5 105q0 72 52.5 113t143.5 41q69 0 119 -33v77q0 33 -28.5 51.5t-68.5 18.5q-71 0 -137 -48zM111 135q0 -35 27.5 -54.5t69.5 -19.5q137 0 137 119
v18q-52 27 -115 27q-119 0 -119 -90z" />
    <glyph glyph-name="uni0431" unicode="&#x431;" horiz-adv-x="546" 
d="M35 290q0 149 46 238t161 128q125 43 142 124h79q-7 -64 -61.5 -113t-139.5 -76q-148 -47 -156 -229q24 52 67.5 80t99.5 28q102 0 170 -68t68 -172t-68 -172t-170 -68q-106 0 -172 78t-66 222zM115 230q0 -72 45 -118.5t113 -46.5t112.5 46.5t44.5 118.5t-44.5 118.5
t-112.5 46.5q-58 0 -108 -45.5t-50 -119.5z" />
    <glyph glyph-name="uni0432" unicode="&#x432;" horiz-adv-x="453" 
d="M75 460h170q69 0 113.5 -31t44.5 -94q0 -73 -76 -102q96 -20 96 -108q0 -56 -36.5 -90.5t-111.5 -34.5h-200v460zM245 390h-90v-123h90q35 0 56.5 17.5t21.5 45.5q0 27 -21 43.5t-57 16.5zM255 198h-100v-128h100q43 0 65.5 18t22.5 47q0 28 -22.5 45.5t-65.5 17.5z" />
    <glyph glyph-name="uni0433" unicode="&#x433;" horiz-adv-x="330" 
d="M80 460h245v-75h-165v-385h-80v460z" />
    <glyph glyph-name="uni0434" unicode="&#x434;" horiz-adv-x="655" 
d="M530 0h-405v-90h-85v165h82l203 420l203 -420h82v-165h-80v90zM325 322l-114 -247h228z" />
    <glyph glyph-name="uni0435" unicode="&#x435;" horiz-adv-x="515" 
d="M472 107q-38 -59 -87 -88t-132 -29q-94 0 -156 68t-62 172q0 28 4 49q14 86 75 138.5t149 52.5q98 0 157.5 -64t59.5 -172q0 -16 -1 -24h-362q5 -69 44 -107t102 -38q93 0 144 83zM263 400q-57 0 -97 -33t-47 -89h274q-6 56 -39 89t-91 33z" />
    <glyph glyph-name="uni0436" unicode="&#x436;" horiz-adv-x="675" 
d="M120 460l180 -171v171h75v-171l180 171h100l-210 -200l230 -260h-100l-200 245v-245h-75v245l-200 -245h-100l230 260l-210 200h100z" />
    <glyph glyph-name="uni0437" unicode="&#x437;" horiz-adv-x="471" 
d="M246 -10q-79 0 -128.5 43t-57.5 112h81q17 -85 105 -85q47 0 74 20t27 54q0 36 -28.5 56t-80.5 20v70q86 0 86 60q0 27 -20 42.5t-56 15.5q-42 0 -64.5 -22.5t-22.5 -49.5h-81q0 59 48 101.5t120 42.5q67 0 112.5 -36.5t45.5 -87.5q0 -67 -72 -98q92 -29 92 -113
q0 -66 -52 -105.5t-128 -39.5z" />
    <glyph glyph-name="uni0438" unicode="&#x438;" horiz-adv-x="545" 
d="M160 460v-298l305 333v-495h-80v298l-305 -333v495h80z" />
    <glyph glyph-name="uni0439" unicode="&#x439;" horiz-adv-x="545" 
d="M117 695h71q0 -27 20.5 -51t66.5 -24t66.5 24t20.5 51h71q0 -56 -42 -98t-116 -42t-116 42t-42 98zM160 460v-298l305 333v-495h-80v298l-305 -333v495h80z" />
    <glyph glyph-name="uni043A" unicode="&#x43a;" horiz-adv-x="440" 
d="M70 460h80v-161l170 161h100l-200 -190l220 -270h-100l-190 233v-233h-80v460z" />
    <glyph glyph-name="uni043B" unicode="&#x43b;" horiz-adv-x="558" 
d="M478 460v-460h-80v385h-235v-225q0 -82 -37.5 -121t-115.5 -39v73q73 0 73 87v300h395z" />
    <glyph glyph-name="uni043C" unicode="&#x43c;" horiz-adv-x="607" 
d="M5 0l120 495l177 -365l180 365l120 -495h-90l-55 268l-155 -299l-152 298l-55 -267h-90z" />
    <glyph glyph-name="uni043D" unicode="&#x43d;" horiz-adv-x="565" 
d="M75 460h80v-180h255v180h80v-460h-80v205h-255v-205h-80v460z" />
    <glyph glyph-name="uni043E" unicode="&#x43e;" horiz-adv-x="546" 
d="M35 230q0 104 68 172t170 68t170 -68t68 -172t-68 -172t-170 -68t-170 68t-68 172zM116 230q0 -72 44.5 -118.5t112.5 -46.5t112.5 46.5t44.5 118.5t-44.5 118.5t-112.5 46.5t-112.5 -46.5t-44.5 -118.5z" />
    <glyph glyph-name="uni043F" unicode="&#x43f;" horiz-adv-x="525" 
d="M450 460v-460h-80v385h-215v-385h-80v460h375z" />
    <glyph glyph-name="uni0440" unicode="&#x440;" 
d="M150 -220h-80v680h80v-79q53 89 157 89q97 0 162.5 -65.5t65.5 -174.5t-65.5 -174.5t-162.5 -65.5q-104 0 -157 89v-299zM454 230q0 77 -45 121t-112 44q-57 0 -102 -45t-45 -120t45 -120t102 -45q67 0 112 44t45 121z" />
    <glyph glyph-name="uni0441" unicode="&#x441;" horiz-adv-x="478" 
d="M111 230q0 -72 44.5 -118.5t112.5 -46.5q54 0 99 24.5t61 59.5v-100q-23 -28 -67 -43.5t-93 -15.5q-102 0 -170 68t-68 172t68 172t170 68q48 0 92 -16t68 -43v-100q-16 35 -61 59.5t-99 24.5q-68 0 -112.5 -46.5t-44.5 -118.5z" />
    <glyph glyph-name="uni0442" unicode="&#x442;" horiz-adv-x="280" 
d="M5 460h270v-75h-95v-385h-80v385h-95v75z" />
    <glyph glyph-name="uni0443" unicode="&#x443;" horiz-adv-x="440" 
d="M440 460l-300 -680h-90l126 285l-176 395h95l129 -317l126 317h90z" />
    <glyph glyph-name="uni0444" unicode="&#x444;" horiz-adv-x="586" 
d="M35 230q0 95 59.5 160.5t158.5 77.5v92h80v-92q99 -12 158.5 -77.5t59.5 -160.5t-59.5 -160.5t-158.5 -77.5v-92h-80v92q-99 12 -158.5 77.5t-59.5 160.5zM470 230q0 63 -36.5 107t-100.5 55v-324q64 11 100.5 55t36.5 107zM116 230q0 -63 36.5 -107t100.5 -55v324
q-64 -11 -100.5 -55t-36.5 -107z" />
    <glyph glyph-name="uni0445" unicode="&#x445;" horiz-adv-x="420" 
d="M320 460h90l-157 -223l167 -237h-90l-120 174l-120 -174h-90l167 237l-157 223h90l110 -160z" />
    <glyph glyph-name="uni0446" unicode="&#x446;" horiz-adv-x="565" 
d="M450 75h80v-165h-70v90h-385v460h80v-385h215v385h80v-385z" />
    <glyph glyph-name="uni0447" unicode="&#x447;" horiz-adv-x="485" 
d="M130 460v-132q0 -61 22 -87t78 -26h100v245h80v-460h-80v140h-100q-102 0 -141 42.5t-39 145.5v132h80z" />
    <glyph glyph-name="uni0448" unicode="&#x448;" horiz-adv-x="780" 
d="M430 75h195v385h80v-460h-630v460h80v-385h195v385h80v-385z" />
    <glyph glyph-name="uni0449" unicode="&#x449;" horiz-adv-x="820" 
d="M430 75h195v385h80v-385h80v-165h-70v90h-640v460h80v-385h195v385h80v-385z" />
    <glyph glyph-name="uni044A" unicode="&#x44a;" horiz-adv-x="578" 
d="M170 385h-165v75h245v-174h110q75 0 121.5 -36t46.5 -107t-46.5 -107t-121.5 -36h-190v385zM360 216h-110v-146h110q88 0 88 73t-88 73z" />
    <glyph glyph-name="uni044B" unicode="&#x44b;" horiz-adv-x="645" 
d="M490 460h80v-460h-80v460zM75 460h80v-174h110q75 0 121.5 -36t46.5 -107t-46.5 -107t-121.5 -36h-190v460zM265 216h-110v-146h110q88 0 88 73t-88 73z" />
    <glyph glyph-name="uni044C" unicode="&#x44c;" horiz-adv-x="483" 
d="M75 460h80v-174h110q75 0 121.5 -36t46.5 -107t-46.5 -107t-121.5 -36h-190v460zM265 216h-110v-146h110q88 0 88 73t-88 73z" />
    <glyph glyph-name="uni044D" unicode="&#x44d;" horiz-adv-x="478" 
d="M137 267h226q-11 57 -53 92.5t-100 35.5q-54 0 -99 -24.5t-61 -59.5v100q24 27 68 43t92 16q102 0 170 -68t68 -172t-68 -172t-170 -68q-49 0 -93 15.5t-67 43.5v100q16 -35 61 -59.5t99 -24.5q58 0 100 35.5t53 92.5h-226v74z" />
    <glyph glyph-name="uni044E" unicode="&#x44e;" horiz-adv-x="746" 
d="M75 460h80v-180h85q16 85 80.5 137.5t152.5 52.5q102 0 170 -68t68 -172t-68 -172t-170 -68q-95 0 -161.5 60t-75.5 155h-81v-205h-80v460zM316 230q0 -72 44.5 -118.5t112.5 -46.5t112.5 46.5t44.5 118.5t-44.5 118.5t-112.5 46.5t-112.5 -46.5t-44.5 -118.5z" />
    <glyph glyph-name="uni044F" unicode="&#x44f;" horiz-adv-x="483" 
d="M141 0h-88l134 189q-112 24 -112 133q0 71 46 104.5t122 33.5h190v-460h-80v184h-82zM243 254h110v136h-110q-88 0 -88 -68t88 -68z" />
    <glyph glyph-name="uni0450" unicode="&#x450;" horiz-adv-x="515" 
d="M113 680l75 40l150 -160l-45 -30zM472 107q-38 -59 -87 -88t-132 -29q-94 0 -156 68t-62 172q0 28 4 49q14 86 75 138.5t149 52.5q98 0 157.5 -64t59.5 -172q0 -16 -1 -24h-362q5 -69 44 -107t102 -38q93 0 144 83zM263 400q-57 0 -97 -33t-47 -89h274q-6 56 -39 89
t-91 33z" />
    <glyph glyph-name="uni0451" unicode="&#x451;" horiz-adv-x="515" 
d="M308 585q0 23 16 39t39 16t39 -16t16 -39t-16 -39t-39 -16t-39 16t-16 39zM108 585q0 23 16 39t39 16t39 -16t16 -39t-16 -39t-39 -16t-39 16t-16 39zM472 107q-38 -59 -87 -88t-132 -29q-94 0 -156 68t-62 172q0 28 4 49q14 86 75 138.5t149 52.5q98 0 157.5 -64
t59.5 -172q0 -16 -1 -24h-362q5 -69 44 -107t102 -38q93 0 144 83zM263 400q-57 0 -97 -33t-47 -89h274q-6 56 -39 89t-91 33z" />
    <glyph glyph-name="uni0453" unicode="&#x453;" horiz-adv-x="330" 
d="M383 680l-180 -150l-45 30l150 160zM80 460h245v-75h-165v-385h-80v460z" />
    <glyph glyph-name="uni045C" unicode="&#x45c;" horiz-adv-x="440" 
d="M425 680l-180 -150l-45 30l150 160zM70 460h80v-161l170 161h100l-200 -190l220 -270h-100l-190 233v-233h-80v460z" />
    <glyph glyph-name="uni045D" unicode="&#x45d;" horiz-adv-x="545" 
d="M115 705l75 40l150 -160l-45 -30zM160 460v-298l305 333v-495h-80v298l-305 -333v495h80z" />
    <glyph glyph-name="uni045E" unicode="&#x45e;" horiz-adv-x="440" 
d="M62 670h71q0 -27 20.5 -51t66.5 -24t66.5 24t20.5 51h71q0 -56 -42 -98t-116 -42t-116 42t-42 98zM440 460l-300 -680h-90l126 285l-176 395h95l129 -317l126 317h90z" />
    <glyph glyph-name="Wgrave" unicode="&#x1e80;" horiz-adv-x="990" 
d="M495 795l-180 150l75 40l150 -160zM703 185l182 515h95l-275 -735l-210 544l-210 -544l-275 735h95l186 -515l204 550z" />
    <glyph glyph-name="wgrave" unicode="&#x1e81;" horiz-adv-x="680" 
d="M335 555l-180 150l75 40l150 -160zM5 460h90l115 -299l125 334l134 -336l116 301h90l-200 -495l-139 335l-131 -335z" />
    <glyph glyph-name="Wacute" unicode="&#x1e82;" horiz-adv-x="990" 
d="M495 795l-45 30l150 160l75 -40zM703 185l182 515h95l-275 -735l-210 544l-210 -544l-275 735h95l186 -515l204 550z" />
    <glyph glyph-name="wacute" unicode="&#x1e83;" horiz-adv-x="680" 
d="M335 555l-45 30l150 160l75 -40zM5 460h90l115 -299l125 334l134 -336l116 301h90l-200 -495l-139 335l-131 -335z" />
    <glyph glyph-name="Wdieresis" unicode="&#x1e84;" horiz-adv-x="990" 
d="M540 850q0 22 16 38.5t39 16.5t39 -16.5t16 -38.5t-16 -38.5t-39 -16.5t-39 16.5t-16 38.5zM340 850q0 22 16 38.5t39 16.5t39 -16.5t16 -38.5t-16 -38.5t-39 -16.5t-39 16.5t-16 38.5zM703 185l182 515h95l-275 -735l-210 544l-210 -544l-275 735h95l186 -515l204 550z
" />
    <glyph glyph-name="wdieresis" unicode="&#x1e85;" horiz-adv-x="680" 
d="M380 610q0 22 16 38.5t39 16.5t39 -16.5t16 -38.5t-16 -38.5t-39 -16.5t-39 16.5t-16 38.5zM180 610q0 22 16 38.5t39 16.5t39 -16.5t16 -38.5t-16 -38.5t-39 -16.5t-39 16.5t-16 38.5zM5 460h90l115 -299l125 334l134 -336l116 301h90l-200 -495l-139 335l-131 -335z
" />
    <glyph glyph-name="uni1E86" unicode="&#x1e86;" horiz-adv-x="990" 
d="M440 850q0 22 16 38.5t39 16.5t39 -16.5t16 -38.5t-16 -38.5t-39 -16.5t-39 16.5t-16 38.5zM703 185l182 515h95l-275 -735l-210 544l-210 -544l-275 735h95l186 -515l204 550z" />
    <glyph glyph-name="uni1E87" unicode="&#x1e87;" horiz-adv-x="680" 
d="M280 610q0 22 16 38.5t39 16.5t39 -16.5t16 -38.5t-16 -38.5t-39 -16.5t-39 16.5t-16 38.5zM5 460h90l115 -299l125 334l134 -336l116 301h90l-200 -495l-139 335l-131 -335z" />
    <glyph glyph-name="uni1E88" unicode="&#x1e88;" horiz-adv-x="990" 
d="M703 185l182 515h95l-275 -735l-210 544l-210 -544l-275 735h95l186 -515l204 550zM440 -150q0 22 16 38.5t39 16.5t39 -16.5t16 -38.5t-16 -38.5t-39 -16.5t-39 16.5t-16 38.5z" />
    <glyph glyph-name="uni1E89" unicode="&#x1e89;" horiz-adv-x="680" 
d="M5 460h90l115 -299l125 334l134 -336l116 301h90l-200 -495l-139 335l-131 -335zM285 -150q0 22 16.5 38.5t38.5 16.5t38.5 -16.5t16.5 -38.5t-16.5 -38.5t-38.5 -16.5t-38.5 16.5t-16.5 38.5z" />
    <glyph glyph-name="uni1E9E" unicode="&#x1e9e;" horiz-adv-x="716" 
d="M422 -12q-109 0 -192 66l40 72q77 -52 158 -52q68 0 114 25t46 77q0 32 -19.5 52t-47.5 30.5t-56 20.5t-47.5 30t-19.5 51q0 32 21 56t46 36t46 33t21 49q0 37 -33.5 63.5t-105.5 26.5q-101 0 -165 -60t-64 -182l2 -384h-86v391q0 157 94.5 238.5t231.5 81.5
q99 0 157.5 -42.5t58.5 -114.5q0 -35 -13 -63t-31.5 -44.5t-37 -29t-31.5 -25t-13 -24.5q0 -15 18.5 -25.5t45.5 -20.5t54 -24t45.5 -43t18.5 -71q0 -85 -71.5 -139.5t-184.5 -54.5z" />
    <glyph glyph-name="Ygrave" unicode="&#x1ef2;" horiz-adv-x="561" 
d="M281 770l-180 150l75 40l150 -160zM461 700h95l-233 -398v-302h-85v301l-233 399h95l180 -324z" />
    <glyph glyph-name="ygrave" unicode="&#x1ef3;" horiz-adv-x="440" 
d="M220 530l-180 150l75 40l150 -160zM440 460l-300 -680h-90l126 285l-176 395h95l129 -317l126 317h90z" />
    <glyph glyph-name="uni2010" unicode="&#x2010;" horiz-adv-x="210" 
d="M5 200v75h200v-75h-200z" />
    <glyph glyph-name="figuredash" unicode="&#x2012;" horiz-adv-x="590" 
d="M70 200v75h450v-75h-450z" />
    <glyph glyph-name="endash" unicode="&#x2013;" horiz-adv-x="740" 
d="M70 200v75h600v-75h-600z" />
    <glyph glyph-name="emdash" unicode="&#x2014;" horiz-adv-x="890" 
d="M70 200v75h750v-75h-750z" />
    <glyph glyph-name="quoteleft" unicode="&#x2018;" horiz-adv-x="275" 
d="M165 470h-95l100 230h55z" />
    <glyph glyph-name="quoteright" unicode="&#x2019;" horiz-adv-x="275" 
d="M110 700h95l-100 -230h-55z" />
    <glyph glyph-name="quotesinglbase" unicode="&#x201a;" horiz-adv-x="275" 
d="M120 80h95l-100 -230h-55z" />
    <glyph glyph-name="quotedblleft" unicode="&#x201c;" horiz-adv-x="475" 
d="M165 470h-95l100 230h55zM365 470h-95l100 230h55z" />
    <glyph glyph-name="quotedblright" unicode="&#x201d;" horiz-adv-x="475" 
d="M110 700h95l-100 -230h-55zM310 700h95l-100 -230h-55z" />
    <glyph glyph-name="quotedblbase" unicode="&#x201e;" horiz-adv-x="475" 
d="M110 80h95l-100 -230h-55zM310 80h95l-100 -230h-55z" />
    <glyph glyph-name="dagger" unicode="&#x2020;" 
d="M90 540h155v160h80v-160h155v-75h-155v-615h-80v615h-155v75z" />
    <glyph glyph-name="daggerdbl" unicode="&#x2021;" 
d="M90 120h155v345h-155v75h155v160h80v-160h155v-75h-155v-345h155v-75h-155v-195h-80v195h-155v75z" />
    <glyph glyph-name="bullet" unicode="&#x2022;" horiz-adv-x="300" 
d="M95 415q0 23 16.5 39t38.5 16t38.5 -16t16.5 -39t-16.5 -39t-38.5 -16t-38.5 16t-16.5 39z" />
    <glyph glyph-name="ellipsis" unicode="&#x2026;" horiz-adv-x="900" 
d="M95 40q0 22 16.5 38.5t38.5 16.5t38.5 -16.5t16.5 -38.5t-16.5 -38.5t-38.5 -16.5t-38.5 16.5t-16.5 38.5zM395 40q0 22 16.5 38.5t38.5 16.5t38.5 -16.5t16.5 -38.5t-16.5 -38.5t-38.5 -16.5t-38.5 16.5t-16.5 38.5zM695 40q0 22 16.5 38.5t38.5 16.5t38.5 -16.5
t16.5 -38.5t-16.5 -38.5t-38.5 -16.5t-38.5 16.5t-16.5 38.5z" />
    <glyph glyph-name="perthousand" unicode="&#x2030;" horiz-adv-x="1131" 
d="M35 550q0 68 44 114t114 46t114 -46t44 -114t-44 -114t-114 -46t-114 46t-44 114zM563 700h75l-450 -700h-75zM106 550q0 -40 23.5 -67.5t63.5 -27.5t63.5 27.5t23.5 67.5t-23.5 67.5t-63.5 27.5t-63.5 -27.5t-23.5 -67.5zM780 150q0 68 44 114t114 46t114 -46t44 -114
t-44 -114t-114 -46t-114 46t-44 114zM400 150q0 68 44 114t114 46t114 -46t44 -114t-44 -114t-114 -46t-114 46t-44 114zM851 150q0 -40 23.5 -67.5t63.5 -27.5t63.5 27.5t23.5 67.5t-23.5 67.5t-63.5 27.5t-63.5 -27.5t-23.5 -67.5zM471 150q0 -40 23.5 -67.5t63.5 -27.5
t63.5 27.5t23.5 67.5t-23.5 67.5t-63.5 27.5t-63.5 -27.5t-23.5 -67.5z" />
    <glyph glyph-name="uni2031" unicode="&#x2031;" horiz-adv-x="1511" 
d="M35 550q0 68 44 114t114 46t114 -46t44 -114t-44 -114t-114 -46t-114 46t-44 114zM563 700h75l-450 -700h-75zM106 550q0 -40 23.5 -67.5t63.5 -27.5t63.5 27.5t23.5 67.5t-23.5 67.5t-63.5 27.5t-63.5 -27.5t-23.5 -67.5zM1160 150q0 68 44 114t114 46t114 -46t44 -114
t-44 -114t-114 -46t-114 46t-44 114zM780 150q0 68 44 114t114 46t114 -46t44 -114t-44 -114t-114 -46t-114 46t-44 114zM400 150q0 68 44 114t114 46t114 -46t44 -114t-44 -114t-114 -46t-114 46t-44 114zM1231 150q0 -40 23.5 -67.5t63.5 -27.5t63.5 27.5t23.5 67.5
t-23.5 67.5t-63.5 27.5t-63.5 -27.5t-23.5 -67.5zM851 150q0 -40 23.5 -67.5t63.5 -27.5t63.5 27.5t23.5 67.5t-23.5 67.5t-63.5 27.5t-63.5 -27.5t-23.5 -67.5zM471 150q0 -40 23.5 -67.5t63.5 -27.5t63.5 27.5t23.5 67.5t-23.5 67.5t-63.5 27.5t-63.5 -27.5t-23.5 -67.5z
" />
    <glyph glyph-name="guilsinglleft" unicode="&#x2039;" horiz-adv-x="350" 
d="M130 259l150 -194l-50 -45l-190 235l190 235l50 -45z" />
    <glyph glyph-name="guilsinglright" unicode="&#x203a;" horiz-adv-x="350" 
d="M220 251l-150 194l50 45l190 -235l-190 -235l-50 45z" />
    <glyph glyph-name="uni203D" unicode="&#x203d;" horiz-adv-x="557" 
d="M200 510h100l-9 -156q58 17 91.5 58t33.5 88q0 64 -39.5 99.5t-107.5 35.5q-93 0 -144 -83l-65 41q38 59 87 88t132 29q93 0 155.5 -60.5t62.5 -149.5q0 -84 -62.5 -144.5t-147.5 -65.5l-7 -120h-60zM195 40q0 22 16.5 38.5t38.5 16.5t38.5 -16.5t16.5 -38.5t-16.5 -38.5
t-38.5 -16.5t-38.5 16.5t-16.5 38.5z" />
    <glyph glyph-name="fraction" unicode="&#x2044;" horiz-adv-x="705" 
d="M580 700h65l-520 -700h-65z" />
    <glyph glyph-name="uni2070" unicode="&#x2070;" horiz-adv-x="372" 
d="M30 490q0 94 43.5 155t112.5 61t112.5 -61t43.5 -155t-43.5 -155t-112.5 -61t-112.5 61t-43.5 155zM81 490q0 -75 28.5 -121.5t76.5 -46.5t76.5 46.5t28.5 121.5t-28.5 121.5t-76.5 46.5t-76.5 -46.5t-28.5 -121.5z" />
    <glyph glyph-name="uni2074" unicode="&#x2074;" horiz-adv-x="386" 
d="M233 280v84h-203l233 336h21v-291h66v-45h-66v-84h-51zM233 587l-119 -178h119v178z" />
    <glyph glyph-name="uni2075" unicode="&#x2075;" horiz-adv-x="356" 
d="M326 416q0 -69 -41.5 -106.5t-105.5 -37.5q-98 0 -149 88l43 30q15 -29 44 -49.5t62 -20.5q44 0 69 26t25 70q0 43 -26.5 69.5t-67.5 26.5q-53 0 -107 -38l55 224h198v-45h-159l-27 -111q28 16 62 16q54 0 89.5 -40t35.5 -102z" />
    <glyph glyph-name="uni2076" unicode="&#x2076;" horiz-adv-x="346" 
d="M204 698h65l-119 -156q16 10 48 10q51 0 87.5 -39.5t36.5 -96.5q0 -64 -40.5 -104t-102.5 -40t-102.5 40t-40.5 104q0 50 27 87zM85 416q0 -43 26.5 -70.5t67.5 -27.5t67.5 27.5t26.5 70.5t-26.5 71t-67.5 28t-67.5 -28t-26.5 -71z" />
    <glyph glyph-name="uni2077" unicode="&#x2077;" horiz-adv-x="354" 
d="M30 652v48h294l-201 -420h-53l178 372h-218z" />
    <glyph glyph-name="uni2078" unicode="&#x2078;" horiz-adv-x="322" 
d="M30 394q0 80 75 110q-60 26 -60 95q0 45 33.5 76t82.5 31t82.5 -31t33.5 -76q0 -69 -60 -95q75 -30 75 -110q0 -49 -37.5 -84.5t-93.5 -35.5t-93.5 35.5t-37.5 84.5zM94 593q0 -29 19.5 -48t47.5 -19t47.5 19t19.5 48q0 30 -19 49t-48 19t-48 -19t-19 -49zM79 400
q0 -37 24.5 -59t57.5 -22t57.5 22t24.5 59q0 34 -25 57.5t-57 23.5t-57 -23.5t-25 -57.5z" />
    <glyph glyph-name="uni2079" unicode="&#x2079;" horiz-adv-x="346" 
d="M160 282h-65l119 156q-16 -10 -48 -10q-51 0 -87.5 39.5t-36.5 96.5q0 64 40.5 104t102.5 40t102.5 -40t40.5 -104q0 -50 -27 -87zM279 564q0 43 -26.5 70.5t-67.5 27.5t-67.5 -27.5t-26.5 -70.5t26.5 -71t67.5 -28t67.5 28t26.5 71z" />
    <glyph glyph-name="uni2080" unicode="&#x2080;" horiz-adv-x="372" 
d="M30 210q0 94 43.5 155t112.5 61t112.5 -61t43.5 -155t-43.5 -155t-112.5 -61t-112.5 61t-43.5 155zM81 210q0 -75 28.5 -121.5t76.5 -46.5t76.5 46.5t28.5 121.5t-28.5 121.5t-76.5 46.5t-76.5 -46.5t-28.5 -121.5z" />
    <glyph glyph-name="uni2081" unicode="&#x2081;" horiz-adv-x="314" 
d="M90 338v53l144 36v-426h-51v365z" />
    <glyph glyph-name="uni2082" unicode="&#x2082;" horiz-adv-x="346" 
d="M25 2l198 212q44 46 44 92q0 30 -20 52.5t-56 22.5q-41 0 -66 -28t-25 -75h-51q0 67 38.5 109t103.5 42q63 0 95.5 -39t32.5 -88q0 -58 -56 -116l-133 -136h191v-48h-296z" />
    <glyph glyph-name="uni2083" unicode="&#x2083;" horiz-adv-x="312" 
d="M159 -6q-60 0 -97 33.5t-37 83.5h52q0 -30 23 -49.5t59 -19.5t57.5 20.5t21.5 54.5q0 38 -27 58t-70 20v45q39 0 62 21t23 52t-16.5 49t-47.5 18q-30 0 -50 -18t-20 -46h-49q0 49 33.5 79.5t85.5 30.5t84 -33t32 -79q0 -31 -19 -56t-52 -39q83 -25 83 -108q0 -53 -37 -85
t-94 -32z" />
    <glyph glyph-name="uni2084" unicode="&#x2084;" horiz-adv-x="386" 
d="M233 0v84h-203l233 336h21v-291h66v-45h-66v-84h-51zM233 307l-119 -178h119v178z" />
    <glyph glyph-name="uni2085" unicode="&#x2085;" horiz-adv-x="356" 
d="M326 136q0 -69 -41.5 -106.5t-105.5 -37.5q-98 0 -149 88l43 30q15 -29 44 -49.5t62 -20.5q44 0 69 26t25 70q0 43 -26.5 69.5t-67.5 26.5q-53 0 -107 -38l55 224h198v-45h-159l-27 -111q28 16 62 16q54 0 89.5 -40t35.5 -102z" />
    <glyph glyph-name="uni2086" unicode="&#x2086;" horiz-adv-x="346" 
d="M203 418h65l-119 -156q16 10 48 10q51 0 87.5 -39.5t36.5 -96.5q0 -64 -40.5 -104t-102.5 -40t-102.5 40t-40.5 104q0 50 27 87zM84 136q0 -43 26.5 -70.5t67.5 -27.5t67.5 27.5t26.5 70.5t-26.5 71t-67.5 28t-67.5 -28t-26.5 -71z" />
    <glyph glyph-name="uni2087" unicode="&#x2087;" horiz-adv-x="354" 
d="M30 372v48h294l-201 -420h-53l178 372h-218z" />
    <glyph glyph-name="uni2088" unicode="&#x2088;" horiz-adv-x="322" 
d="M30 114q0 80 75 110q-60 26 -60 95q0 45 33.5 76t82.5 31t82.5 -31t33.5 -76q0 -69 -60 -95q75 -30 75 -110q0 -49 -37.5 -84.5t-93.5 -35.5t-93.5 35.5t-37.5 84.5zM94 313q0 -29 19.5 -48t47.5 -19t47.5 19t19.5 48q0 30 -19 49t-48 19t-48 -19t-19 -49zM79 120
q0 -37 24.5 -59t57.5 -22t57.5 22t24.5 59q0 34 -25 57.5t-57 23.5t-57 -23.5t-25 -57.5z" />
    <glyph glyph-name="uni2089" unicode="&#x2089;" horiz-adv-x="346" 
d="M143 2h-65l119 156q-16 -10 -48 -10q-51 0 -87.5 39.5t-36.5 96.5q0 64 40.5 104t102.5 40t102.5 -40t40.5 -104q0 -50 -27 -87zM262 284q0 43 -26.5 70.5t-67.5 27.5t-67.5 -27.5t-26.5 -70.5t26.5 -71t67.5 -28t67.5 28t26.5 71z" />
    <glyph glyph-name="Euro" unicode="&#x20ac;" horiz-adv-x="580" 
d="M15 287v48h55v15q0 30 3 57h-58v48h66q26 116 104.5 185.5t184.5 69.5q79 0 150 -41v-101q-64 62 -150 62q-72 0 -125.5 -47t-76.5 -128h348v-48h-357q-4 -24 -4 -57v-15h335v-48h-330q14 -98 71 -157.5t139 -59.5q86 0 150 62v-101q-71 -41 -150 -41q-116 0 -197.5 82
t-98.5 215h-59z" />
    <glyph glyph-name="trademark" unicode="&#x2122;" horiz-adv-x="665" 
d="M590 717l42 -367h-42l-26 235l-114 -203l-114 203l-26 -235h-42l42 367l140 -253zM32 660v40h223v-40h-90v-310h-43v310h-90z" />
    <glyph glyph-name="uni2150" unicode="&#x2150;" horiz-adv-x="842" 
d="M568 700h65l-520 -700h-65zM30 611v53l144 36v-426h-51v365zM518 372v48h294l-201 -420h-53l178 372h-218z" />
    <glyph glyph-name="uni2151" unicode="&#x2151;" horiz-adv-x="784" 
d="M568 700h65l-520 -700h-65zM30 611v53l144 36v-426h-51v365zM598 2h-65l119 156q-16 -10 -48 -10q-51 0 -87.5 39.5t-36.5 96.5q0 64 40.5 104t102.5 40t102.5 -40t40.5 -104q0 -50 -27 -87zM717 284q0 43 -26.5 70.5t-67.5 27.5t-67.5 -27.5t-26.5 -70.5t26.5 -71
t67.5 -28t67.5 28t26.5 71z" />
    <glyph glyph-name="uni2152" unicode="&#x2152;" horiz-adv-x="1080" 
d="M568 700h65l-520 -700h-65zM30 611v53l144 36v-426h-51v365zM488 338v53l144 36v-426h-51v365zM738 210q0 94 43.5 155t112.5 61t112.5 -61t43.5 -155t-43.5 -155t-112.5 -61t-112.5 61t-43.5 155zM789 210q0 -75 28.5 -121.5t76.5 -46.5t76.5 46.5t28.5 121.5
t-28.5 121.5t-76.5 46.5t-76.5 -46.5t-28.5 -121.5z" />
    <glyph glyph-name="onethird" unicode="&#x2153;" horiz-adv-x="755" 
d="M568 700h65l-520 -700h-65zM30 611v53l144 36v-426h-51v365zM597 -6q-60 0 -97 33.5t-37 83.5h52q0 -30 23 -49.5t59 -19.5t57.5 20.5t21.5 54.5q0 38 -27 58t-70 20v45q39 0 62 21t23 52t-16.5 49t-47.5 18q-30 0 -50 -18t-20 -46h-49q0 49 33.5 79.5t85.5 30.5t84 -33
t32 -79q0 -31 -19 -56t-52 -39q83 -25 83 -108q0 -53 -37 -85t-94 -32z" />
    <glyph glyph-name="twothirds" unicode="&#x2154;" horiz-adv-x="882" 
d="M30 282l198 212q44 46 44 92q0 30 -20 52.5t-56 22.5q-41 0 -66 -28t-25 -75h-51q0 67 38.5 109t103.5 42q63 0 95.5 -39t32.5 -88q0 -58 -56 -116l-133 -136h191v-48h-296zM695 700h65l-520 -700h-65zM724 -6q-60 0 -97 33.5t-37 83.5h52q0 -30 23 -49.5t59 -19.5
t57.5 20.5t21.5 54.5q0 38 -27.5 58t-69.5 20v45q39 0 62 21t23 52t-16.5 49t-47.5 18q-30 0 -50 -18t-20 -46h-49q0 49 33.5 79.5t85.5 30.5t84 -33t32 -79q0 -31 -19 -56t-52 -39q83 -25 83 -108q0 -53 -37 -85t-94 -32z" />
    <glyph glyph-name="uni2155" unicode="&#x2155;" horiz-adv-x="744" 
d="M568 700h65l-520 -700h-65zM30 611v53l144 36v-426h-51v365zM554 373l-27 -111q28 16 62 16q54 0 89.5 -40t35.5 -102q0 -69 -41.5 -106.5t-105.5 -37.5q-98 0 -149 88l43 30q15 -29 44 -49.5t62 -20.5q44 0 69 26t25 70q0 43 -26.5 69.5t-67.5 26.5q-53 0 -107 -38
l55 224h198v-45h-159z" />
    <glyph glyph-name="uni2156" unicode="&#x2156;" horiz-adv-x="871" 
d="M30 282l198 212q44 46 44 92q0 30 -20 52.5t-56 22.5q-41 0 -66 -28t-25 -75h-51q0 67 38.5 109t103.5 42q63 0 95.5 -39t32.5 -88q0 -58 -56 -116l-133 -136h191v-48h-296zM695 700h65l-520 -700h-65zM681 373l-27 -111q28 16 62 16q54 0 89.5 -40t35.5 -102
q0 -69 -41.5 -106.5t-105.5 -37.5q-98 0 -149 88l43 30q15 -29 44 -49.5t62 -20.5q44 0 69 26t25 70q0 43 -26.5 69.5t-67.5 26.5q-53 0 -107 -38l55 224h198v-45h-159z" />
    <glyph glyph-name="uni2157" unicode="&#x2157;" horiz-adv-x="831" 
d="M164 274q-60 0 -97 33.5t-37 83.5h52q0 -30 23 -49.5t59 -19.5t57.5 20.5t21.5 54.5q0 38 -27.5 58t-69.5 20v45q39 0 62 21t23 52t-16.5 49t-47.5 18q-30 0 -50 -18t-20 -46h-49q0 49 33.5 79.5t85.5 30.5t84 -33t32 -79q0 -31 -19 -56t-52 -39q83 -25 83 -108
q0 -53 -37 -85t-94 -32zM655 700h65l-520 -700h-65zM641 373l-27 -111q28 16 62 16q54 0 89.5 -40t35.5 -102q0 -69 -41.5 -106.5t-105.5 -37.5q-98 0 -149 88l43 30q15 -29 44 -49.5t62 -20.5q44 0 69 26t25 70q0 43 -26.5 69.5t-67.5 26.5q-53 0 -107 -38l55 224h198v-45
h-159z" />
    <glyph glyph-name="uni2158" unicode="&#x2158;" horiz-adv-x="866" 
d="M690 700h65l-520 -700h-65zM233 280v84h-203l233 336h21v-291h66v-45h-66v-84h-51zM233 587l-119 -178h119v178zM676 373l-27 -111q28 16 62 16q54 0 89.5 -40t35.5 -102q0 -69 -41.5 -106.5t-105.5 -37.5q-98 0 -149 88l43 30q15 -29 44 -49.5t62 -20.5q44 0 69 26
t25 70q0 43 -26.5 69.5t-67.5 26.5q-53 0 -107 -38l55 224h198v-45h-159z" />
    <glyph glyph-name="uni2159" unicode="&#x2159;" horiz-adv-x="734" 
d="M568 700h65l-520 -700h-65zM30 611v53l144 36v-426h-51v365zM592 418h65l-119 -156q16 10 48 10q51 0 87.5 -39.5t36.5 -96.5q0 -64 -40.5 -104t-102.5 -40t-102.5 40t-40.5 104q0 50 27 87zM473 136q0 -43 26.5 -70.5t67.5 -27.5t67.5 27.5t26.5 70.5t-26.5 71t-67.5 28
t-67.5 -28t-26.5 -71z" />
    <glyph glyph-name="uni215A" unicode="&#x215a;" horiz-adv-x="856" 
d="M690 700h65l-520 -700h-65zM326 416q0 -69 -41.5 -106.5t-105.5 -37.5q-98 0 -149 88l43 30q15 -29 44 -49.5t62 -20.5q44 0 69 26t25 70q0 43 -26.5 69.5t-67.5 26.5q-53 0 -107 -38l55 224h198v-45h-159l-27 -111q28 16 62 16q54 0 89.5 -40t35.5 -102zM714 418h65
l-119 -156q16 10 48 10q51 0 87.5 -39.5t36.5 -96.5q0 -64 -40.5 -104t-102.5 -40t-102.5 40t-40.5 104q0 50 27 87zM595 136q0 -43 26.5 -70.5t67.5 -27.5t67.5 27.5t26.5 70.5t-26.5 71t-67.5 28t-67.5 -28t-26.5 -71z" />
    <glyph glyph-name="oneeighth" unicode="&#x215b;" horiz-adv-x="760" 
d="M568 700h65l-520 -700h-65zM30 611v53l144 36v-426h-51v365zM468 114q0 80 75 110q-60 26 -60 95q0 45 33.5 76t82.5 31t82.5 -31t33.5 -76q0 -69 -60 -95q75 -30 75 -110q0 -49 -37.5 -84.5t-93.5 -35.5t-93.5 35.5t-37.5 84.5zM532 313q0 -29 19.5 -48t47.5 -19
t47.5 19t19.5 48q0 30 -19 49t-48 19t-48 -19t-19 -49zM517 120q0 -37 24.5 -59t57.5 -22t57.5 22t24.5 59q0 34 -25 57.5t-57 23.5t-57 -23.5t-25 -57.5z" />
    <glyph glyph-name="threeeighths" unicode="&#x215c;" horiz-adv-x="847" 
d="M164 274q-60 0 -97 33.5t-37 83.5h52q0 -30 23 -49.5t59 -19.5t57.5 20.5t21.5 54.5q0 38 -27.5 58t-69.5 20v45q39 0 62 21t23 52t-16.5 49t-47.5 18q-30 0 -50 -18t-20 -46h-49q0 49 33.5 79.5t85.5 30.5t84 -33t32 -79q0 -31 -19 -56t-52 -39q83 -25 83 -108
q0 -53 -37 -85t-94 -32zM655 700h65l-520 -700h-65zM555 114q0 80 75 110q-60 26 -60 95q0 45 33.5 76t82.5 31t82.5 -31t33.5 -76q0 -69 -60 -95q75 -30 75 -110q0 -49 -37.5 -84.5t-93.5 -35.5t-93.5 35.5t-37.5 84.5zM619 313q0 -29 19.5 -48t47.5 -19t47.5 19t19.5 48
q0 30 -19 49t-48 19t-48 -19t-19 -49zM604 120q0 -37 24.5 -59t57.5 -22t57.5 22t24.5 59q0 34 -25 57.5t-57 23.5t-57 -23.5t-25 -57.5z" />
    <glyph glyph-name="fiveeighths" unicode="&#x215d;" horiz-adv-x="882" 
d="M690 700h65l-520 -700h-65zM326 416q0 -69 -41.5 -106.5t-105.5 -37.5q-98 0 -149 88l43 30q15 -29 44 -49.5t62 -20.5q44 0 69 26t25 70q0 43 -26.5 69.5t-67.5 26.5q-53 0 -107 -38l55 224h198v-45h-159l-27 -111q28 16 62 16q54 0 89.5 -40t35.5 -102zM590 114
q0 80 75 110q-60 26 -60 95q0 45 33.5 76t82.5 31t82.5 -31t33.5 -76q0 -69 -60 -95q75 -30 75 -110q0 -49 -37.5 -84.5t-93.5 -35.5t-93.5 35.5t-37.5 84.5zM654 313q0 -29 19.5 -48t47.5 -19t47.5 19t19.5 48q0 30 -19 49t-48 19t-48 -19t-19 -49zM639 120q0 -37 24.5 -59
t57.5 -22t57.5 22t24.5 59q0 34 -25 57.5t-57 23.5t-57 -23.5t-25 -57.5z" />
    <glyph glyph-name="seveneighths" unicode="&#x215e;" horiz-adv-x="772" 
d="M580 700h65l-520 -700h-65zM30 652v48h294l-201 -420h-53l178 372h-218zM480 114q0 80 75 110q-60 26 -60 95q0 45 33.5 76t82.5 31t82.5 -31t33.5 -76q0 -69 -60 -95q75 -30 75 -110q0 -49 -37.5 -84.5t-93.5 -35.5t-93.5 35.5t-37.5 84.5zM544 313q0 -29 19.5 -48
t47.5 -19t47.5 19t19.5 48q0 30 -19 49t-48 19t-48 -19t-19 -49zM529 120q0 -37 24.5 -59t57.5 -22t57.5 22t24.5 59q0 34 -25 57.5t-57 23.5t-57 -23.5t-25 -57.5z" />
    <glyph glyph-name="partialdiff" unicode="&#x2202;" horiz-adv-x="546" 
d="M273 -10q-104 0 -171 67.5t-67 172.5q0 98 58.5 162.5t148.5 64.5q59 0 125 -32q-63 113 -209 244l48 56q161 -161 233 -278t72 -217q0 -105 -67 -172.5t-171 -67.5zM273 67q69 0 113 46t44 117t-44.5 118t-112.5 47t-112.5 -47t-44.5 -118t44 -117t113 -46z" />
    <glyph glyph-name="emptyset" unicode="&#x2205;" horiz-adv-x="600" 
d="M124 30l-37 36l44 44q-45 59 -45 132q0 88 63 151t151 63q75 0 132 -46l44 44l38 -36l-45 -45q45 -58 45 -131q0 -88 -63 -151t-151 -63q-75 0 -132 46zM148 242q0 -49 28 -88l212 212q-39 28 -88 28q-63 0 -107.5 -44.5t-44.5 -107.5zM300 90q63 0 107.5 45.5
t44.5 106.5q0 47 -27 87l-213 -211q39 -28 88 -28z" />
    <glyph glyph-name="product" unicode="&#x220f;" horiz-adv-x="600" 
d="M160 0v630h-85v70h450v-70h-85v-630h-80v630h-120v-630h-80z" />
    <glyph glyph-name="summation" unicode="&#x2211;" horiz-adv-x="600" 
d="M100 0l170 352l-170 348h400v-72h-284l134 -276l-134 -280h284v-72h-400z" />
    <glyph glyph-name="minus" unicode="&#x2212;" horiz-adv-x="590" 
d="M70 200v75h450v-75h-450z" />
    <glyph glyph-name="uni2215" unicode="&#x2215;" horiz-adv-x="515" 
d="M420 700h80l-405 -850h-80z" />
    <glyph glyph-name="uni2219" unicode="&#x2219;" horiz-adv-x="300" 
d="M95 415q0 23 16.5 39t38.5 16t38.5 -16t16.5 -39t-16.5 -39t-38.5 -16t-38.5 16t-16.5 39z" />
    <glyph glyph-name="radical" unicode="&#x221a;" horiz-adv-x="600" 
d="M243 -200l-120 360l-64 -16l-14 57l133 33l49 -182l117 648h158v-72h-94z" />
    <glyph glyph-name="infinity" unicode="&#x221e;" horiz-adv-x="750" 
d="M191 48q-68 0 -118.5 54.5t-50.5 127.5t50.5 126.5t118.5 53.5q92 0 185 -120q93 120 184 120q68 0 118 -53.5t50 -126.5t-50.5 -127.5t-117.5 -54.5q-91 0 -184 120q-94 -120 -185 -120zM202 126q66 0 131 104q-62 103 -131 103q-38 0 -67 -31t-29 -72t29.5 -72.5
t66.5 -31.5zM549 126q37 0 66 31.5t29 72.5t-28.5 72t-66.5 31q-69 0 -131 -103q63 -104 131 -104z" />
    <glyph glyph-name="integral" unicode="&#x222b;" horiz-adv-x="600" 
d="M204 -200q-43 1 -89 42l43 62q27 -26 44 -26q46 0 52 90l37 658q5 77 40 120.5t91 42.5q43 -1 89 -42l-43 -62q-27 26 -44 26q-46 0 -52 -91l-37 -658q-4 -76 -39.5 -120t-91.5 -42z" />
    <glyph glyph-name="approxequal" unicode="&#x2248;" horiz-adv-x="600" 
d="M394 372q-52 0 -115 48q-44 33 -86 33q-33 0 -47.5 -22t-3.5 -55l-74 5q-15 53 25 99.5t101 46.5t123 -48q41 -32 73 -32q27 0 38 23t-1 53l79 -5q13 -56 -21.5 -101t-90.5 -45zM394 122q-52 0 -115 48q-44 33 -86 33q-33 0 -47.5 -22t-3.5 -55l-74 5q-15 53 25 99.5
t101 46.5t123 -48q41 -32 73 -32q27 0 38 23t-1 53l79 -5q13 -56 -21.5 -101t-90.5 -45z" />
    <glyph glyph-name="notequal" unicode="&#x2260;" horiz-adv-x="600" 
d="M65 140v75h171l44 75h-215v75h258l73 127l65 -38l-51 -89h140v-75h-183l-44 -75h227v-75h-270l-61 -106l-65 38l39 68h-128z" />
    <glyph glyph-name="lessequal" unicode="&#x2264;" horiz-adv-x="600" 
d="M550 115l-510 220v45l510 220v-80l-378 -158l378 -167v-80zM40 0v80h510v-80h-510z" />
    <glyph glyph-name="greaterequal" unicode="&#x2265;" horiz-adv-x="600" 
d="M65 115v80l378 158l-378 167v80l510 -220v-45zM65 0v80h510v-80h-510z" />
    <glyph glyph-name="lozenge" unicode="&#x25ca;" horiz-adv-x="600" 
d="M306 15l-206 341l206 340l194 -340zM303 172l106 184l-106 184l-112 -184z" />
    <glyph glyph-name="uniFF10" unicode="&#xff10;" horiz-adv-x="580" 
d="M30 350q0 158 72.5 259t187.5 101t187.5 -101t72.5 -259t-72.5 -259t-187.5 -101t-187.5 101t-72.5 259zM115 350q0 -124 47.5 -202t127.5 -78t127.5 78t47.5 202t-47.5 202t-127.5 78t-127.5 -78t-47.5 -202z" />
    <glyph glyph-name="uniFF11" unicode="&#xff11;" horiz-adv-x="580" 
d="M115 562v88l240 60v-710h-85v608z" />
    <glyph glyph-name="uniFF12" unicode="&#xff12;" horiz-adv-x="580" 
d="M26 0l330 353q74 79 74 153q0 50 -34 87.5t-94 37.5q-68 0 -110 -46t-42 -125h-84q0 113 64 182t172 69q55 0 98 -19.5t67.5 -51.5t36.5 -68t12 -73q0 -98 -92 -192l-224 -227h320v-80h-494z" />
    <glyph glyph-name="uniFF13" unicode="&#xff13;" horiz-adv-x="580" 
d="M300 -10q-99 0 -161 56t-62 139h86q0 -50 38.5 -82.5t98.5 -32.5t95.5 34t35.5 91q0 62 -45 96t-116 34v75q65 0 103 34.5t38 86.5q0 51 -27.5 81.5t-78.5 30.5q-49 0 -83 -31t-34 -76h-81q0 81 55 132.5t142 51.5t140.5 -54.5t53.5 -131.5q0 -52 -31.5 -94t-87.5 -65
q139 -41 139 -180q0 -88 -61.5 -141.5t-156.5 -53.5z" />
    <glyph glyph-name="uniFF14" unicode="&#xff14;" horiz-adv-x="580" 
d="M356 0v140h-338l388 560h35v-485h110v-75h-110v-140h-85zM356 511l-198 -296h198v296z" />
    <glyph glyph-name="uniFF15" unicode="&#xff15;" horiz-adv-x="580" 
d="M532 230q0 -115 -69.5 -177.5t-175.5 -62.5q-164 0 -249 147l72 49q25 -48 73.5 -82t103.5 -34q74 0 115.5 43.5t41.5 116.5q0 71 -44.5 115.5t-112.5 44.5q-51 0 -89 -13t-90 -50l92 373h330v-75h-264l-47 -185q48 26 104 26q91 0 150 -66t59 -170z" />
    <glyph glyph-name="uniFF16" unicode="&#xff16;" horiz-adv-x="580" 
d="M332 700h107l-197 -260q29 17 79 17q86 0 146.5 -65.5t60.5 -161.5q0 -107 -67.5 -173.5t-170.5 -66.5t-170.5 66.5t-67.5 173.5q0 85 44 145zM133 230q0 -72 44.5 -117.5t112.5 -45.5t112.5 45.5t44.5 117.5t-44.5 118.5t-112.5 46.5t-112.5 -46.5t-44.5 -118.5z" />
    <glyph glyph-name="uniFF17" unicode="&#xff17;" horiz-adv-x="580" 
d="M58 620v80h490l-336 -700h-88l296 620h-362z" />
    <glyph glyph-name="uniFF18" unicode="&#xff18;" horiz-adv-x="580" 
d="M72 190q0 66 34 113.5t90 69.5q-99 44 -99 158q0 75 55.5 127t137.5 52t137.5 -52t55.5 -127q0 -114 -99 -158q56 -22 90 -69.5t34 -113.5q0 -83 -62.5 -141.5t-155.5 -58.5t-155.5 58.5t-62.5 141.5zM178 521q0 -48 33 -79.5t79 -31.5t79 31.5t33 79.5q0 50 -31.5 82
t-80.5 32t-80.5 -32t-31.5 -82zM153 200q0 -62 40.5 -98.5t96.5 -36.5t96.5 36.5t40.5 98.5q0 56 -41.5 95.5t-95.5 39.5t-95.5 -39.5t-41.5 -95.5z" />
    <glyph glyph-name="uniFF19" unicode="&#xff19;" horiz-adv-x="580" 
d="M248 0h-107l197 260q-29 -17 -79 -17q-86 0 -146.5 65.5t-60.5 161.5q0 107 67.5 173.5t170.5 66.5t170.5 -66.5t67.5 -173.5q0 -85 -44 -145zM447 470q0 72 -44.5 117.5t-112.5 45.5t-112.5 -45.5t-44.5 -117.5t44.5 -118.5t112.5 -46.5t112.5 46.5t44.5 118.5z" />
    <glyph glyph-name="a.alt" 
d="M35 230q0 109 65.5 174.5t162.5 65.5q111 0 162 -98v88h75v-460h-75v88q-51 -98 -162 -98q-97 0 -162.5 65.5t-65.5 174.5zM116 230q0 -77 45 -121t112 -44q57 0 102 45t45 120t-45 120t-102 45q-67 0 -112 -44t-45 -121z" />
    <glyph glyph-name="agrave.alt" 
d="M113 680l75 40l150 -160l-45 -30zM35 230q0 109 65.5 174.5t162.5 65.5q111 0 162 -98v88h75v-460h-75v88q-51 -98 -162 -98q-97 0 -162.5 65.5t-65.5 174.5zM116 230q0 -77 45 -121t112 -44q57 0 102 45t45 120t-45 120t-102 45q-67 0 -112 -44t-45 -121z" />
    <glyph glyph-name="aacute.alt" 
d="M393 680l-180 -150l-45 30l150 160zM35 230q0 109 65.5 174.5t162.5 65.5q111 0 162 -98v88h75v-460h-75v88q-51 -98 -162 -98q-97 0 -162.5 65.5t-65.5 174.5zM116 230q0 -77 45 -121t112 -44q57 0 102 45t45 120t-45 120t-102 45q-67 0 -112 -44t-45 -121z" />
    <glyph glyph-name="acircumflex.alt" 
d="M283 625l-110 -95l-50 40l160 140l160 -140l-50 -40zM35 230q0 109 65.5 174.5t162.5 65.5q111 0 162 -98v88h75v-460h-75v88q-51 -98 -162 -98q-97 0 -162.5 65.5t-65.5 174.5zM116 230q0 -77 45 -121t112 -44q57 0 102 45t45 120t-45 120t-102 45q-67 0 -112 -44
t-45 -121z" />
    <glyph glyph-name="atilde.alt" 
d="M118 567q7 36 38 59t66 23q34 0 66 -23.5t58 -23.5t56 48l46 -43q-13 -30 -42 -51.5t-64 -21.5q-29 0 -64.5 23.5t-56.5 23.5q-27 0 -38.5 -17t-11.5 -34zM35 230q0 109 65.5 174.5t162.5 65.5q111 0 162 -98v88h75v-460h-75v88q-51 -98 -162 -98q-97 0 -162.5 65.5
t-65.5 174.5zM116 230q0 -77 45 -121t112 -44q57 0 102 45t45 120t-45 120t-102 45q-67 0 -112 -44t-45 -121z" />
    <glyph glyph-name="adieresis.alt" 
d="M328 585q0 23 16 39t39 16t39 -16t16 -39t-16 -39t-39 -16t-39 16t-16 39zM128 585q0 23 16 39t39 16t39 -16t16 -39t-16 -39t-39 -16t-39 16t-16 39zM35 230q0 109 65.5 174.5t162.5 65.5q111 0 162 -98v88h75v-460h-75v88q-51 -98 -162 -98q-97 0 -162.5 65.5
t-65.5 174.5zM116 230q0 -77 45 -121t112 -44q57 0 102 45t45 120t-45 120t-102 45q-67 0 -112 -44t-45 -121z" />
    <glyph glyph-name="aring.alt" 
d="M181 630q0 43 30.5 71.5t71.5 28.5t71.5 -28.5t30.5 -71.5t-30.5 -71.5t-71.5 -28.5t-71.5 28.5t-30.5 71.5zM232 630q0 -24 15.5 -38.5t35.5 -14.5t35.5 14.5t15.5 38.5t-15.5 38.5t-35.5 14.5t-35.5 -14.5t-15.5 -38.5zM35 230q0 109 65.5 174.5t162.5 65.5
q111 0 162 -98v88h75v-460h-75v88q-51 -98 -162 -98q-97 0 -162.5 65.5t-65.5 174.5zM116 230q0 -77 45 -121t112 -44q57 0 102 45t45 120t-45 120t-102 45q-67 0 -112 -44t-45 -121z" />
    <glyph glyph-name="amacron.alt" 
d="M98 530v75h350v-75h-350zM35 230q0 109 65.5 174.5t162.5 65.5q111 0 162 -98v88h75v-460h-75v88q-51 -98 -162 -98q-97 0 -162.5 65.5t-65.5 174.5zM116 230q0 -77 45 -121t112 -44q57 0 102 45t45 120t-45 120t-102 45q-67 0 -112 -44t-45 -121z" />
    <glyph glyph-name="abreve.alt" 
d="M105 670h71q0 -27 20.5 -51t66.5 -24t66.5 24t20.5 51h71q0 -56 -42 -98t-116 -42t-116 42t-42 98zM35 230q0 109 65.5 174.5t162.5 65.5q111 0 162 -98v88h75v-460h-75v88q-51 -98 -162 -98q-97 0 -162.5 65.5t-65.5 174.5zM116 230q0 -77 45 -121t112 -44q57 0 102 45
t45 120t-45 120t-102 45q-67 0 -112 -44t-45 -121z" />
    <glyph glyph-name="aogonek.alt" 
d="M35 230q0 109 65.5 174.5t162.5 65.5q111 0 162 -98v88h75v-460q-40 -17 -66.5 -45t-26.5 -55q0 -50 48 -50q28 0 50 20l33 -50q-30 -40 -88 -40q-61 0 -92 27t-31 73q0 65 98 126v82q-51 -98 -162 -98q-97 0 -162.5 65.5t-65.5 174.5zM116 230q0 -77 45 -121t112 -44
q57 0 102 45t45 120t-45 120t-102 45q-67 0 -112 -44t-45 -121z" />
    </font>
</defs>
</svg>
